<svg width="34" height="30" viewBox="0 0 34 30" fill="none" xmlns="http://www.w3.org/2000/svg">
<path d="M27.8182 9V6H24.7273V3H27.8182V0H30.9091V3H34V6H30.9091V9H27.8182ZM15.4545 24.75C17.3864 24.75 19.0284 24.0938 20.3807 22.7812C21.733 21.4688 22.4091 19.875 22.4091 18C22.4091 16.125 21.733 14.5313 20.3807 13.2188C19.0284 11.9062 17.3864 11.25 15.4545 11.25C13.5227 11.25 11.8807 11.9062 10.5284 13.2188C9.17614 14.5313 8.5 16.125 8.5 18C8.5 19.875 9.17614 21.4688 10.5284 22.7812C11.8807 24.0938 13.5227 24.75 15.4545 24.75ZM15.4545 21.75C14.3727 21.75 13.4583 21.3875 12.7114 20.6625C11.9644 19.9375 11.5909 19.05 11.5909 18C11.5909 16.95 11.9644 16.0625 12.7114 15.3375C13.4583 14.6125 14.3727 14.25 15.4545 14.25C16.5364 14.25 17.4508 14.6125 18.1977 15.3375C18.9447 16.0625 19.3182 16.95 19.3182 18C19.3182 19.05 18.9447 19.9375 18.1977 20.6625C17.4508 21.3875 16.5364 21.75 15.4545 21.75ZM3.09091 30C2.24091 30 1.51326 29.7063 0.907955 29.1188C0.302651 28.5313 0 27.825 0 27V9C0 8.175 0.302651 7.46875 0.907955 6.88125C1.51326 6.29375 2.24091 6 3.09091 6H7.95909L10.8182 3H21.6364V9H24.7273V12H30.9091V27C30.9091 27.825 30.6064 28.5313 30.0011 29.1188C29.3958 29.7063 28.6682 30 27.8182 30H3.09091Z" fill="#BABABA"/>
</svg>
