<svg width="70" height="63" viewBox="0 0 70 63" fill="none" xmlns="http://www.w3.org/2000/svg">
<g filter="url(#filter0_d_62_2975)">
<path d="M41.8248 51.1425C54.4614 46.803 61.3601 33.5954 57.2334 21.6425C53.1067 9.68966 39.5173 3.51786 26.8807 7.8574C14.244 12.1969 7.34535 25.4045 11.4721 37.3574C15.5988 49.3103 29.1881 55.4821 41.8248 51.1425Z" fill="url(#paint0_linear_62_2975)"/>
<path d="M41.9021 51.3668C54.6516 46.9886 61.6314 33.653 57.4583 21.5653C53.2849 9.47757 39.5526 3.25486 26.8032 7.63314C14.0537 12.0114 7.07385 25.3468 11.2471 37.4346C15.4204 49.5224 29.1526 55.7451 41.9021 51.3668Z" stroke="black" stroke-width="2"/>
</g>
<path d="M26.4518 49.1046V48.958L26.3203 48.8925L25.1502 48.3089L24.3111 47.6812V43.5579L25.1311 43.1489L25.202 43.1136L25.2374 43.0429L26.361 40.8019H27.1654H27.318L27.3816 40.6636L28.6898 37.8169L28.7115 37.7697V37.718V36.6709L31.5631 35.0782L31.6846 35.0104V34.8713V32.4235L32.0219 31.5265L33.8001 27.9794L33.8512 27.8774L33.8034 27.774L33.0899 26.232L33.0618 26.1713L33.0059 26.1341L31.222 24.948L31.1621 24.9081H31.09H28.2498L27.3758 23.4917L26.7873 22.2005L26.7533 22.126L26.6805 22.0882L20.7341 19.0043L20.7174 18.9957L20.6996 18.9898L17.8453 18.0409L17.8087 18.0287H17.7701H17.0566H16.9731L16.908 18.0807L13.9348 20.4529L13.8455 20.5241V20.6381V22.593L12.6862 24.6742L12.6562 24.728V24.7895V27.0431V27.1052L12.6868 27.1593L14.8275 30.9548L14.8411 30.979L14.86 30.9994L16.2658 32.5184L17.5584 34.9795L18.008 35.8762V41.8693V41.8964L18.0141 41.9227L18.3708 43.4646L18.3911 43.5522L18.4644 43.6044L19.1972 44.1265V46.2579V46.3445L19.2532 46.4107L21.156 48.6643L21.2273 48.7487H21.3379H22.2872L23.1673 49.9557L23.2386 50.0534H23.3597H26.214H26.4518V49.8162V49.1046Z" fill="url(#paint1_linear_62_2975)" stroke="black" stroke-width="2"/>
<g filter="url(#filter1_d_62_2975)">
<path d="M10.2773 17.1985L13.4884 19.0963L11.3477 23.4849L10.2773 27.2804V31.1945L10.9909 35.5831L12.537 39.9717L13.7262 42.2253L14.9155 44.0044L14.083 39.6159V35.5831L14.5587 32.1434L15.2723 29.4154L16.2237 26.5688L17.0562 24.9082L18.1265 23.4849L21.9322 25.8571L20.7429 14.5891L10.2773 17.1985Z" fill="#34F741"/>
<path d="M10.2196 16.9684L9.6582 17.1083L10.1561 17.4026L13.1786 19.1889L11.1338 23.3811L11.1245 23.4002L11.1187 23.4206L10.0484 27.2161L10.0395 27.2476V27.2804V31.1945V31.2135L10.0425 31.2325L10.7561 35.621L10.7595 35.6419L10.7665 35.6616L12.3125 40.0502L12.3183 40.0668L12.3265 40.0822L13.5157 42.3358L13.5215 42.3467L13.5283 42.3569L14.7176 44.136L15.1492 43.9603L14.3208 39.5935V35.5994L14.7924 32.1896L15.5004 29.483L16.444 26.6598L17.2593 25.0334L18.1857 23.8015L21.8061 26.0582L22.2198 26.3161L22.1687 25.8321L20.9795 14.5642L20.9508 14.2927L20.6852 14.3589L10.2196 16.9684Z" stroke="black" stroke-width="2"/>
</g>
<path d="M48.4748 42.6792L48.538 42.8182H48.6912H52.1401H52.2448L52.3154 42.7414L54.9318 39.8947L54.9713 39.8518L54.9863 39.7955L55.9275 36.2759L58.1643 32.988L58.2213 32.9043L58.2002 32.8051L57.5123 29.6043L58.8559 28.1528L58.9259 28.0771L58.9183 27.9744L58.6804 24.7719L58.678 24.7406L58.6678 24.7112L57.0028 19.9667L56.9985 19.9549L56.9933 19.9435L55.923 17.6899L55.912 17.667L55.8966 17.6468L53.518 14.563L53.5111 14.5542L53.5037 14.5462L51.9577 12.8856L51.9456 12.8728L51.932 12.8618L50.1481 11.4385L50.0244 11.3399L49.8855 11.4155L48.6643 12.0797L46.4894 11.429L45.7002 9.51704L45.6614 9.4231L45.5663 9.38626L43.4256 8.55599L43.349 8.52625L43.2703 8.55016L40.535 9.38043L40.5157 9.38624L40.4979 9.39518L37.6436 10.8185L37.5806 10.8499L37.5449 10.9104L36.3818 12.8823L35.2348 13.683L35.1954 13.7107L35.1697 13.7516L33.9804 15.6494L33.9573 15.6861L33.9488 15.7286L33.3541 18.6938L33.3496 18.7168V18.7403V20.9939V21.0409L33.3674 21.0843L34.1999 23.1006L34.2225 23.1549L34.2677 23.1926L36.4084 24.9717L36.4579 25.0129L36.5216 25.0234L39.3759 25.4978L39.4178 25.5049L39.4594 25.4969L41.8612 25.0407L43.8152 26.3397V28.3478V28.4588L43.9008 28.53L45.2423 29.6449V36.176V36.2389L45.2737 36.2937L46.6954 38.775L48.4748 42.6792Z" fill="url(#paint2_linear_62_2975)" stroke="black" stroke-width="2"/>
<g filter="url(#filter2_d_62_2975)">
<path d="M46.3119 53.3744L45.7172 49.5788L49.5229 47.3252L52.8529 44.5972L55.4693 41.632L57.0153 38.7853L57.61 37.362L58.0857 35.9387L58.3235 34.5153L58.5614 31.6687L56.7775 36.2945L53.2097 40.5645L50.95 41.8692L48.9283 42.4622L46.3119 43.1739L43.3387 43.5297L41.4359 39.0956L37.987 45.0534L34.5381 51.0109L40.3655 52.7813L46.3119 53.3744Z" fill="#34F741"/>
<path d="M46.2882 53.6106L46.5946 53.6412L46.547 53.338L45.9771 49.701L49.6443 47.5294L49.66 47.5202L49.6741 47.5088L53.004 44.7808L53.0188 44.7684L53.0316 44.7542L55.648 41.789L55.6656 41.7688L55.6785 41.7451L57.2245 38.8984L57.2302 38.8877L57.235 38.8768L57.8296 37.4535L57.833 37.4455L57.8358 37.4372L58.3115 36.0138L58.3172 35.9963L58.3203 35.9778L58.5582 34.5544L58.5598 34.545L58.5606 34.5352L58.7984 31.6886L58.3396 31.5837L56.5697 36.173L53.054 40.3803L50.8557 41.6497L48.8635 42.2342L46.2663 42.9407L43.4875 43.2732L41.6546 39.0023L41.4676 38.5666L41.23 38.9772L37.7811 44.935L34.3322 50.8925L34.1826 51.1511L34.469 51.2381L40.2964 53.0085L40.3188 53.0152L40.3419 53.0175L46.2882 53.6106Z" stroke="black" stroke-width="2"/>
</g>
<g filter="url(#filter3_d_62_2975)">
<path d="M54.7226 14.9303L49.7448 16.161L46.9792 11.7292L44.1711 9.03258L40.8419 6.99806L36.7734 6.06483L34.5418 5.89294L32.3897 6.07266L28.3545 6.76084L32.3885 6.77585L35.0525 7.37166L37.7497 8.89582L40.1283 10.7936L41.6743 14.2333L42.6258 17.7916L38.5632 19.5313L49.9993 27.5176L54.7226 14.9303Z" fill="#34F741"/>
<path d="M54.9456 15.0134L55.1038 14.5917L54.6656 14.7L49.8555 15.8892L47.1813 11.6038L47.1659 11.5787L47.1444 11.5583L44.3361 8.86163L44.3175 8.84374L44.2954 8.83027L40.9662 6.79575L40.9331 6.77551L40.8953 6.76683L36.8268 5.83358L36.8094 5.82962L36.7918 5.82824L34.5603 5.65638L34.541 5.65491L34.522 5.6565L32.3701 5.83621L32.3599 5.83707L32.3499 5.83878L28.3145 6.52695L28.3537 6.998L32.362 7.01292L34.9661 7.59537L37.6162 9.09282L39.9348 10.9429L41.4495 14.3128L42.3431 17.6545L38.4694 19.3133L38.077 19.4813L38.4268 19.7256L49.8629 27.7119L50.1145 27.8876L50.222 27.6006L54.9456 15.0134Z" stroke="black" stroke-width="2"/>
</g>
<g filter="url(#filter4_d_62_2975)">
<path d="M6.94165 32.7612L5.13672 27.888L6.7341 26.9752L8.61474 29.0146L8.73857 28.9439L8.70917 25.8465L10.3375 24.9161L12.1424 29.7894L11.0032 30.4403L9.46283 26.2813L9.64734 26.1921L9.65533 30.0216L8.60898 30.6194L6.26683 28.1238L6.45381 28.0007L7.9942 32.1599L6.94165 32.7612Z" fill="white"/>
<mask id="mask0_62_2975" style="mask-type:luminance" maskUnits="userSpaceOnUse" x="4" y="24" width="9" height="10">
<path d="M12.5506 24.4851H4.79395V33.1277H12.5506V24.4851Z" fill="white"/>
<path d="M6.94165 32.7612L5.13672 27.888L6.7341 26.9752L8.61474 29.0146L8.73857 28.9439L8.70917 25.8465L10.3375 24.9161L12.1424 29.7894L11.0032 30.4403L9.46283 26.2813L9.64734 26.1921L9.65533 30.0216L8.60898 30.6194L6.26683 28.1238L6.45381 28.0007L7.9942 32.1599L6.94165 32.7612Z" fill="black"/>
</mask>
<g mask="url(#mask0_62_2975)">
<path d="M6.94139 32.761L6.73502 32.8789L6.81744 33.1014L7.0238 32.9835L6.94139 32.761ZM5.13645 27.8877L5.05404 27.6652L4.84766 27.7831L4.93007 28.0056L5.13645 27.8877ZM6.73383 26.9749L6.89622 26.7842L6.79251 26.6718L6.65142 26.7524L6.73383 26.9749ZM8.61448 29.0143L8.45209 29.205L8.5558 29.3175L8.69689 29.2368L8.61448 29.0143ZM8.7383 28.9436L8.82072 29.1661L8.96215 29.0852L8.96051 28.914L8.7383 28.9436ZM8.70891 25.8462L8.62649 25.6237L8.48506 25.7046L8.48668 25.8759L8.70891 25.8462ZM10.3372 24.9158L10.5436 24.798L10.4612 24.5754L10.2548 24.6933L10.3372 24.9158ZM12.1422 29.7891L12.2246 30.0116L12.431 29.8937L12.3486 29.6712L12.1422 29.7891ZM11.003 30.44L10.7966 30.5579L10.879 30.7804L11.0854 30.6625L11.003 30.44ZM9.46257 26.2811L9.39455 26.0509L9.16789 26.1605L9.25621 26.399L9.46257 26.2811ZM9.64707 26.1919L9.8693 26.1643L9.86859 25.8218L9.57905 25.9618L9.64707 26.1919ZM9.65507 30.0213L9.73748 30.2438L9.87765 30.1636L9.87729 29.9938L9.65507 30.0213ZM8.60872 30.6191L8.44753 30.8112L8.55123 30.9216L8.69114 30.8416L8.60872 30.6191ZM6.26657 28.1235L6.17102 27.9091L5.89463 28.091L6.10539 28.3155L6.26657 28.1235ZM6.45355 28.0004L6.65993 27.8825L6.57202 27.6453L6.35802 27.786L6.45355 28.0004ZM7.99394 32.1596L8.07635 32.3821L8.28274 32.264L8.2003 32.0415L7.99394 32.1596ZM7.14777 32.6431L5.34283 27.7696L4.93007 28.0056L6.73502 32.8789L7.14777 32.6431ZM5.21887 28.1103L6.81625 27.1974L6.65142 26.7524L5.05404 27.6652L5.21887 28.1103ZM6.57145 27.1656L8.45209 29.205L8.77686 28.8236L6.89622 26.7842L6.57145 27.1656ZM8.69689 29.2368L8.82072 29.1661L8.65589 28.7211L8.53206 28.7918L8.69689 29.2368ZM8.96051 28.914L8.93111 25.8166L8.48668 25.8759L8.51608 28.9733L8.96051 28.914ZM8.79132 26.0687L10.4197 25.1384L10.2548 24.6933L8.62649 25.6237L8.79132 26.0687ZM10.1308 25.0337L11.9358 29.907L12.3486 29.6712L10.5436 24.798L10.1308 25.0337ZM12.0598 29.5666L10.9205 30.2175L11.0854 30.6625L12.2246 30.0116L12.0598 29.5666ZM11.2093 30.3221L9.66896 26.1632L9.25621 26.399L10.7966 30.5579L11.2093 30.3221ZM9.5306 26.5112L9.7151 26.422L9.57905 25.9618L9.39455 26.0509L9.5306 26.5112ZM9.42485 26.2194L9.43284 30.0488L9.87729 29.9938L9.8693 26.1643L9.42485 26.2194ZM9.57265 29.7988L8.5263 30.3966L8.69114 30.8416L9.73748 30.2438L9.57265 29.7988ZM8.76989 30.4272L6.42774 27.9316L6.10539 28.3155L8.44753 30.8112L8.76989 30.4272ZM6.36209 28.338L6.54909 28.2149L6.35802 27.786L6.17102 27.9091L6.36209 28.338ZM6.24718 28.1186L7.78755 32.2775L8.2003 32.0415L6.65993 27.8825L6.24718 28.1186ZM7.91152 31.9369L6.85897 32.5384L7.0238 32.9835L8.07635 32.3821L7.91152 31.9369Z" fill="black"/>
</g>
<path d="M12.7957 29.5155L12.3906 28.1655L13.6592 27.5784L14.0643 28.9282L12.7957 29.5155Z" fill="white"/>
<mask id="mask1_62_2975" style="mask-type:luminance" maskUnits="userSpaceOnUse" x="12" y="27" width="3" height="3">
<path d="M14.5459 27.1456H12.0586V29.8627H14.5459V27.1456Z" fill="white"/>
<path d="M12.7947 29.5155L12.3896 28.1655L13.6582 27.5784L14.0633 28.9282L12.7947 29.5155Z" fill="black"/>
</mask>
<g mask="url(#mask1_62_2975)">
<path d="M12.7955 29.5154L12.5797 29.6152L12.6479 29.8425L12.8637 29.7426L12.7955 29.5154ZM12.3904 28.1653L12.3222 27.9381L12.1064 28.0379L12.1746 28.2652L12.3904 28.1653ZM13.6589 27.5782L13.8747 27.4781L13.8065 27.2509L13.5908 27.351L13.6589 27.5782ZM14.064 28.928L14.1322 29.1553L14.348 29.0554L14.2798 28.8281L14.064 28.928ZM13.0112 29.4155L12.6061 28.0655L12.1746 28.2652L12.5797 29.6152L13.0112 29.4155ZM12.4586 28.3926L13.7271 27.8055L13.5908 27.351L12.3222 27.9381L12.4586 28.3926ZM13.4432 27.6781L13.8483 29.0279L14.2798 28.8281L13.8747 27.4781L13.4432 27.6781ZM13.9958 28.7007L12.7273 29.2881L12.8637 29.7426L14.1322 29.1553L13.9958 28.7007Z" fill="black"/>
</g>
<path d="M17.7972 27.5274C17.3557 27.6911 16.9579 27.7532 16.6036 27.7136C16.2482 27.6695 15.9369 27.5563 15.6697 27.3739C15.4014 27.187 15.1816 26.9592 15.0104 26.6912C14.8391 26.4231 14.7192 26.146 14.6504 25.86L14.6139 25.7077C14.5374 25.3893 14.5116 25.0596 14.5366 24.7187C14.5649 24.3716 14.6516 24.0355 14.7969 23.7103C14.9466 23.3835 15.1598 23.0884 15.4365 22.8251C15.7132 22.5617 16.0611 22.3524 16.4802 22.1971C16.9262 22.0318 17.3419 21.9732 17.7273 22.0213C18.1161 22.0631 18.453 22.202 18.738 22.4381C19.0218 22.6695 19.2309 22.9839 19.3652 23.3813L18.1211 23.8424C18.0478 23.6787 17.9443 23.5512 17.8107 23.46C17.6771 23.3689 17.5218 23.3184 17.3446 23.3087C17.1663 23.2944 16.9747 23.3252 16.7695 23.4013C16.5778 23.4723 16.4122 23.5714 16.2727 23.6984C16.1378 23.8239 16.0323 23.971 15.9563 24.1399C15.8837 24.3024 15.84 24.4843 15.8252 24.6857C15.8149 24.8857 15.837 25.0985 15.8913 25.3245C15.9456 25.5506 16.0211 25.7437 16.1179 25.9038C16.219 26.0623 16.3387 26.1864 16.4767 26.2758C16.6192 26.3638 16.7768 26.4134 16.9495 26.4248C17.1211 26.4314 17.3072 26.3977 17.5079 26.3232C17.82 26.2075 18.0643 26.0317 18.2406 25.7954C18.4215 25.5575 18.5026 25.2989 18.484 25.0195L19.7281 24.5583C19.7788 24.9514 19.7393 25.3431 19.6096 25.7328C19.4798 26.1226 19.2638 26.4765 18.9614 26.7946C18.6579 27.108 18.2699 27.3523 17.7972 27.5274Z" fill="white"/>
<mask id="mask2_62_2975" style="mask-type:luminance" maskUnits="userSpaceOnUse" x="13" y="20" width="8" height="9">
<path d="M20.673 20.8154H13.6582V28.8793H20.673V20.8154Z" fill="white"/>
<path d="M17.7972 27.5274C17.3557 27.6911 16.9579 27.7532 16.6036 27.7136C16.2482 27.6695 15.9369 27.5563 15.6697 27.3739C15.4014 27.187 15.1816 26.9592 15.0104 26.6912C14.8391 26.4231 14.7192 26.146 14.6504 25.86L14.6139 25.7077C14.5374 25.3893 14.5116 25.0596 14.5366 24.7187C14.5649 24.3716 14.6516 24.0355 14.7969 23.7103C14.9466 23.3835 15.1598 23.0884 15.4365 22.8251C15.7132 22.5617 16.0611 22.3524 16.4802 22.1971C16.9262 22.0318 17.3419 21.9732 17.7273 22.0213C18.1161 22.0631 18.453 22.202 18.738 22.4381C19.0218 22.6695 19.2309 22.9839 19.3652 23.3813L18.1211 23.8424C18.0478 23.6787 17.9443 23.5512 17.8107 23.46C17.6771 23.3689 17.5218 23.3184 17.3446 23.3087C17.1663 23.2944 16.9747 23.3252 16.7695 23.4013C16.5778 23.4723 16.4122 23.5714 16.2727 23.6984C16.1378 23.8239 16.0323 23.971 15.9563 24.1399C15.8837 24.3024 15.84 24.4843 15.8252 24.6857C15.8149 24.8857 15.837 25.0985 15.8913 25.3245C15.9456 25.5506 16.0211 25.7437 16.1179 25.9038C16.219 26.0623 16.3387 26.1864 16.4767 26.2758C16.6192 26.3638 16.7768 26.4134 16.9495 26.4248C17.1211 26.4314 17.3072 26.3977 17.5079 26.3232C17.82 26.2075 18.0643 26.0317 18.2406 25.7954C18.4215 25.5575 18.5026 25.2989 18.484 25.0195L19.7281 24.5583C19.7788 24.9514 19.7393 25.3431 19.6096 25.7328C19.4798 26.1226 19.2638 26.4765 18.9614 26.7946C18.6579 27.108 18.2699 27.3523 17.7972 27.5274Z" fill="black"/>
</mask>
<g mask="url(#mask2_62_2975)">
<path d="M16.6038 27.7137L16.5549 27.957L16.5575 27.9575L16.6038 27.7137ZM15.67 27.374L15.5312 27.5832L15.5329 27.5841L15.67 27.374ZM14.5368 24.7188L14.3079 24.7221L14.3078 24.7242L14.5368 24.7188ZM14.7972 23.7103L14.5926 23.6211L14.5915 23.6237L14.7972 23.7103ZM17.7276 22.0213L17.6786 22.2648L17.6803 22.265L17.6821 22.2652L17.7276 22.0213ZM18.7382 22.4381L18.5863 22.6373L18.5875 22.6382L18.7382 22.4381ZM19.3655 23.3814L19.4209 23.6121L19.6648 23.5217L19.5826 23.2784L19.3655 23.3814ZM18.1214 23.8425L17.9121 23.9656L17.9912 24.1421L18.1768 24.0733L18.1214 23.8425ZM17.3449 23.3088L17.3049 23.5531L17.3076 23.5534L17.3103 23.5535L17.3449 23.3088ZM16.273 23.6985L16.1342 23.519L16.1323 23.5208L16.273 23.6985ZM15.9566 24.1399L15.7512 24.0524L15.7509 24.0531L15.9566 24.1399ZM15.8255 24.6858L15.5964 24.6912L15.5962 24.6941L15.5961 24.6969L15.8255 24.6858ZM16.1181 25.9039L15.9213 26.0507L15.9227 26.0531L15.9241 26.0553L16.1181 25.9039ZM16.477 26.2759L16.3438 26.4889L16.3456 26.4901L16.3476 26.4913L16.477 26.2759ZM16.9498 26.4248L16.9129 26.6694H16.9157L16.9184 26.6697L16.9498 26.4248ZM18.2409 25.7955L18.0682 25.6532L18.0668 25.6551L18.2409 25.7955ZM18.4842 25.0195L18.4288 24.7887L18.2416 24.8582L18.2551 25.0611L18.4842 25.0195ZM19.7283 24.5584L19.956 24.5015L19.9217 24.2355L19.6729 24.3276L19.7283 24.5584ZM18.9617 26.7947L19.1127 26.9621L19.1144 26.9602L18.9617 26.7947ZM17.742 27.2969C17.3255 27.4513 16.9633 27.5049 16.6501 27.4698L16.5575 27.9575C16.9529 28.0016 17.3864 27.9312 17.8528 27.7583L17.742 27.2969ZM16.6527 27.4703C16.3263 27.4297 16.0457 27.3265 15.8071 27.1635L15.5329 27.5841C15.8286 27.786 16.1706 27.9094 16.5549 27.957L16.6527 27.4703ZM15.8087 27.1647C15.5611 26.9923 15.3604 26.7838 15.2046 26.5399L14.8166 26.8426C15.0033 27.1348 15.2422 27.3818 15.5312 27.5832L15.8087 27.1647ZM15.2046 26.5399C15.045 26.2899 14.9357 26.0358 14.8736 25.7772L14.4277 25.9426C14.5031 26.2562 14.6337 26.5563 14.8166 26.8426L15.2046 26.5399ZM14.8736 25.7772L14.837 25.6249L14.3911 25.7903L14.4277 25.9426L14.8736 25.7772ZM14.837 25.6249C14.7666 25.3317 14.7428 25.0281 14.7658 24.7133L14.3078 24.7242C14.2809 25.0912 14.3086 25.447 14.3911 25.7903L14.837 25.6249ZM14.7657 24.7157C14.7915 24.3992 14.8704 24.0934 15.0028 23.7972L14.5915 23.6237C14.4334 23.9774 14.3387 24.3442 14.3079 24.7221L14.7657 24.7157ZM15.0017 23.7995C15.1354 23.5076 15.3268 23.2414 15.5798 23.0006L15.2936 22.6497C14.9933 22.9355 14.7583 23.2595 14.5926 23.6211L15.0017 23.7995ZM15.5798 23.0006C15.8257 22.7666 16.1418 22.5739 16.5359 22.4278L16.4251 21.9664C15.9808 22.1311 15.6011 22.357 15.2936 22.6497L15.5798 23.0006ZM16.5359 22.4278C16.9532 22.2731 17.3328 22.2216 17.6786 22.2648L17.7765 21.7779C17.3514 21.7248 16.8996 21.7906 16.4251 21.9664L16.5359 22.4278ZM17.6821 22.2652C18.0332 22.3029 18.333 22.4274 18.5863 22.6373L18.8901 22.239C18.5736 21.9767 18.1995 21.8233 17.773 21.7775L17.6821 22.2652ZM18.5875 22.6382C18.8383 22.8427 19.0259 23.1222 19.1484 23.4844L19.5826 23.2784C19.4363 22.8458 19.2059 22.4964 18.8889 22.238L18.5875 22.6382ZM19.31 23.1507L18.0659 23.6119L18.1768 24.0733L19.4209 23.6121L19.31 23.1507ZM18.3306 23.7193C18.2423 23.5222 18.115 23.3637 17.9481 23.2498L17.6739 23.6705C17.7742 23.7388 17.8538 23.8353 17.9121 23.9656L18.3306 23.7193ZM17.9481 23.2498C17.7821 23.1365 17.5908 23.0756 17.3794 23.064L17.3103 23.5535C17.4532 23.5613 17.5727 23.6014 17.6739 23.6705L17.9481 23.2498ZM17.3847 23.0644C17.17 23.0472 16.9455 23.085 16.7144 23.1706L16.8252 23.632C17.0043 23.5656 17.1632 23.5418 17.3049 23.5531L17.3847 23.0644ZM16.7144 23.1706C16.4963 23.2515 16.3015 23.3666 16.1342 23.519L16.4118 23.878C16.5234 23.7763 16.6597 23.6933 16.8252 23.632L16.7144 23.1706ZM16.1323 23.5208C15.9704 23.6712 15.8427 23.8491 15.7512 24.0524L16.1619 24.2272C16.2224 24.093 16.3056 23.9765 16.4137 23.8761L16.1323 23.5208ZM15.7509 24.0531C15.6632 24.2495 15.6131 24.4635 15.5964 24.6912L16.0545 24.6806C16.0673 24.5055 16.1046 24.3553 16.1622 24.2265L15.7509 24.0531ZM15.5961 24.6969C15.5843 24.9256 15.6098 25.1626 15.6686 25.4074L16.1145 25.2421C16.0646 25.0345 16.0461 24.8459 16.0549 24.6749L15.5961 24.6969ZM15.6686 25.4074C15.7273 25.652 15.8107 25.8676 15.9213 26.0507L16.3149 25.7571C16.2321 25.62 16.1643 25.4496 16.1145 25.2421L15.6686 25.4074ZM15.9241 26.0553C16.0394 26.2358 16.1788 26.3819 16.3438 26.4889L16.6102 26.0631C16.499 25.991 16.3992 25.889 16.3121 25.7526L15.9241 26.0553ZM16.3476 26.4913C16.5182 26.5964 16.7075 26.6559 16.9129 26.6694L16.9867 26.1803C16.8466 26.171 16.7207 26.1312 16.6064 26.0607L16.3476 26.4913ZM16.9184 26.6697C17.124 26.6777 17.3399 26.6369 17.5636 26.5541L17.4527 26.0927C17.275 26.1584 17.1187 26.1852 16.9811 26.1798L16.9184 26.6697ZM17.5636 26.5541C17.9129 26.4246 18.202 26.2211 18.415 25.9359L18.0668 25.6551C17.927 25.8422 17.7277 25.9907 17.4527 26.0927L17.5636 26.5541ZM18.4135 25.9378C18.6334 25.6487 18.7364 25.3241 18.7134 24.9778L18.2551 25.0611C18.2692 25.2738 18.21 25.4667 18.0682 25.6532L18.4135 25.9378ZM18.5396 25.2501L19.7837 24.789L19.6729 24.3276L18.4288 24.7887L18.5396 25.2501ZM19.5007 24.6153C19.5464 24.97 19.511 25.3211 19.3941 25.6719L19.8256 25.7936C19.9682 25.3649 20.0117 24.9332 19.956 24.5015L19.5007 24.6153ZM19.3941 25.6719C19.2783 26.0197 19.0851 26.3383 18.8089 26.6289L19.1144 26.9602C19.443 26.6146 19.6818 26.2253 19.8256 25.7936L19.3941 25.6719ZM18.8106 26.627C18.5398 26.9066 18.1866 27.132 17.742 27.2969L17.8528 27.7583C18.3536 27.5727 18.7766 27.3092 19.1127 26.9621L18.8106 26.627Z" fill="black"/>
</g>
<path d="M24.149 24.0628L23.9945 22.9347L24.8322 22.7577C24.9904 22.7242 25.1235 22.6646 25.2315 22.579C25.3388 22.4885 25.417 22.3777 25.4661 22.2464C25.5151 22.1151 25.5287 21.9696 25.5068 21.8098C25.4843 21.6452 25.4324 21.5111 25.3511 21.4073C25.2699 21.3036 25.1669 21.2335 25.0422 21.1969C24.9175 21.1604 24.776 21.1589 24.6178 21.1923L23.7801 21.3693L23.6256 20.2411L24.4284 20.0715C24.8658 19.979 25.253 19.9746 25.5901 20.0582C25.9312 20.136 26.2068 20.2954 26.417 20.5364C26.6272 20.7773 26.7587 21.0905 26.8114 21.476L26.8269 21.5888C26.8791 21.9696 26.838 22.3168 26.7038 22.6306C26.5696 22.9443 26.3523 23.2103 26.0518 23.4286C25.7559 23.6458 25.3893 23.8007 24.9518 23.8932L24.149 24.0628ZM23.1776 25.6757L22.4668 20.486L23.7652 20.2116L24.476 25.4012L23.1776 25.6757Z" fill="white"/>
<mask id="mask3_62_2975" style="mask-type:luminance" maskUnits="userSpaceOnUse" x="22" y="19" width="6" height="7">
<path d="M27.5797 19.1113H22.1211V25.9707H27.5797V19.1113Z" fill="white"/>
<path d="M24.149 24.0628L23.9945 22.9347L24.8322 22.7577C24.9904 22.7242 25.1235 22.6646 25.2315 22.579C25.3388 22.4885 25.417 22.3777 25.4661 22.2464C25.5151 22.1151 25.5287 21.9696 25.5068 21.8098C25.4843 21.6452 25.4324 21.5111 25.3511 21.4073C25.2699 21.3036 25.1669 21.2335 25.0422 21.1969C24.9175 21.1604 24.776 21.1589 24.6178 21.1923L23.7801 21.3693L23.6256 20.2411L24.4284 20.0715C24.8658 19.979 25.253 19.9746 25.5901 20.0582C25.9312 20.136 26.2068 20.2954 26.417 20.5364C26.6272 20.7773 26.7587 21.0905 26.8114 21.476L26.8269 21.5888C26.8791 21.9696 26.838 22.3168 26.7038 22.6306C26.5696 22.9443 26.3523 23.2103 26.0518 23.4286C25.7559 23.6458 25.3893 23.8007 24.9518 23.8932L24.149 24.0628ZM23.1776 25.6757L22.4668 20.486L23.7652 20.2116L24.476 25.4012L23.1776 25.6757Z" fill="black"/>
</mask>
<g mask="url(#mask3_62_2975)">
<path d="M24.1493 24.0628L23.9166 24.112L23.9488 24.347L24.1815 24.2979L24.1493 24.0628ZM23.9948 22.9347L23.9626 22.6996L23.7299 22.7488L23.7621 22.9839L23.9948 22.9347ZM25.2317 22.579L25.3677 22.7648L25.3706 22.7625L25.3735 22.76L25.2317 22.579ZM23.7804 21.3693L23.5477 21.4185L23.5798 21.6535L23.8125 21.6044L23.7804 21.3693ZM23.6258 20.2412L23.5936 20.0061L23.361 20.0553L23.3931 20.2903L23.6258 20.2412ZM25.5904 20.0582L25.5204 20.2918L25.5224 20.2923L25.5244 20.2927L25.5904 20.0582ZM26.052 23.4286L25.9249 23.2361L25.9238 23.2369L26.052 23.4286ZM23.1779 25.6757L22.9452 25.7248L22.9774 25.9599L23.2101 25.9108L23.1779 25.6757ZM22.467 20.486L22.4348 20.251L22.2021 20.3002L22.2344 20.5352L22.467 20.486ZM23.7654 20.2116L23.9981 20.1625L23.9659 19.9274L23.7332 19.9766L23.7654 20.2116ZM24.4763 25.4012L24.5085 25.6363L24.7412 25.5872L24.709 25.3521L24.4763 25.4012ZM24.382 24.0137L24.2275 22.8855L23.7621 22.9839L23.9166 24.112L24.382 24.0137ZM24.027 23.1697L24.8646 22.9927L24.8003 22.5226L23.9626 22.6996L24.027 23.1697ZM24.8646 22.9927C25.0526 22.953 25.2232 22.8795 25.3677 22.7648L25.0958 22.3931C25.0244 22.4498 24.9287 22.4955 24.8003 22.5226L24.8646 22.9927ZM25.3735 22.76C25.5154 22.6405 25.6202 22.4919 25.6851 22.3184L25.2476 22.1745C25.2143 22.2635 25.1627 22.3366 25.09 22.3979L25.3735 22.76ZM25.6851 22.3184C25.7513 22.1412 25.7661 21.9531 25.7398 21.7606L25.2744 21.8589C25.2918 21.9861 25.2795 22.0891 25.2476 22.1745L25.6851 22.3184ZM25.7398 21.7606C25.7129 21.5647 25.649 21.3905 25.5387 21.2496L25.1641 21.5651C25.2163 21.6317 25.2562 21.7258 25.2744 21.8589L25.7398 21.7606ZM25.5387 21.2496C25.4303 21.1112 25.2899 21.0151 25.1212 20.9657L24.9637 21.4282C25.0445 21.4518 25.11 21.496 25.1641 21.5651L25.5387 21.2496ZM25.1212 20.9657C24.9544 20.9169 24.7738 20.9176 24.5858 20.9573L24.6502 21.4274C24.7787 21.4002 24.8811 21.404 24.9637 21.4282L25.1212 20.9657ZM24.5858 20.9573L23.7482 21.1343L23.8125 21.6044L24.6502 21.4274L24.5858 20.9573ZM24.0131 21.3202L23.8585 20.192L23.3931 20.2903L23.5477 21.4185L24.0131 21.3202ZM23.658 20.4762L24.4608 20.3065L24.3964 19.8365L23.5936 20.0061L23.658 20.4762ZM24.4608 20.3065C24.8723 20.2196 25.2236 20.2182 25.5204 20.2918L25.6603 19.8246C25.2831 19.731 24.8597 19.7386 24.3964 19.8365L24.4608 20.3065ZM25.5244 20.2927C25.8249 20.3613 26.0594 20.4991 26.2372 20.7029L26.5973 20.3699C26.3547 20.0918 26.038 19.9107 25.6564 19.8236L25.5244 20.2927ZM26.2372 20.7029C26.4143 20.906 26.5312 21.1759 26.579 21.5252L27.0444 21.4269C26.9866 21.0052 26.8405 20.6487 26.5973 20.3699L26.2372 20.7029ZM26.579 21.5252L26.5945 21.638L27.0598 21.5397L27.0444 21.4269L26.579 21.5252ZM26.5945 21.638C26.6416 21.9819 26.6032 22.2825 26.4899 22.5474L26.9183 22.7138C27.0734 22.3512 27.1171 21.9573 27.0598 21.5397L26.5945 21.638ZM26.4899 22.5474C26.376 22.8135 26.1909 23.0429 25.9249 23.2361L26.1791 23.6211C26.5142 23.3778 26.7638 23.0751 26.9183 22.7138L26.4899 22.5474ZM25.9238 23.2369C25.6633 23.4282 25.3314 23.5712 24.9199 23.6581L24.9843 24.1283C25.4476 24.0303 25.8491 23.8636 26.1802 23.6204L25.9238 23.2369ZM24.9199 23.6581L24.1171 23.8278L24.1815 24.2979L24.9843 24.1283L24.9199 23.6581ZM23.4106 25.6266L22.6997 20.4369L22.2344 20.5352L22.9452 25.7248L23.4106 25.6266ZM22.4992 20.7211L23.7976 20.4467L23.7332 19.9766L22.4348 20.251L22.4992 20.7211ZM23.5328 20.2608L24.2436 25.4503L24.709 25.3521L23.9981 20.1625L23.5328 20.2608ZM24.4441 25.1662L23.1457 25.4406L23.2101 25.9108L24.5085 25.6363L24.4441 25.1662Z" fill="black"/>
</g>
<path d="M28.0527 24.7299L27.6523 19.5501L28.9703 19.3931L29.3704 24.5728L28.0527 24.7299ZM29.2286 24.5897L29.1399 23.4403L31.237 23.1903L31.326 24.3399L29.2286 24.5897Z" fill="white"/>
<mask id="mask4_62_2975" style="mask-type:luminance" maskUnits="userSpaceOnUse" x="27" y="18" width="5" height="8">
<path d="M31.7972 18.8458H27.3438V25.0007H31.7972V18.8458Z" fill="white"/>
<path d="M28.0517 24.7299L27.6514 19.5501L28.9693 19.3931L29.3694 24.5728L28.0517 24.7299ZM29.2276 24.5897L29.1389 23.4403L31.2361 23.1903L31.325 24.3399L29.2276 24.5897Z" fill="black"/>
</mask>
<g mask="url(#mask4_62_2975)">
<path d="M28.0521 24.7299L27.8159 24.7581L27.834 24.9946L28.0702 24.9664L28.0521 24.7299ZM27.6518 19.5501L27.6337 19.3136L27.3975 19.3418L27.4157 19.5783L27.6518 19.5501ZM28.9698 19.3931L29.2059 19.365L29.1876 19.1284L28.9514 19.1566L28.9698 19.3931ZM29.3698 24.5729L29.3881 24.8094L29.6243 24.7811L29.606 24.5446L29.3698 24.5729ZM29.2281 24.5897L28.9919 24.6179L29.0102 24.8544L29.2464 24.8262L29.2281 24.5897ZM29.1393 23.4403L29.121 23.2037L28.8848 23.2319L28.9032 23.4684L29.1393 23.4403ZM31.2365 23.1903L31.4727 23.1622L31.4546 22.9257L31.2184 22.9538L31.2365 23.1903ZM31.3255 24.3399L31.3435 24.5764L31.5797 24.5482L31.5617 24.3117L31.3255 24.3399ZM28.2881 24.7017L27.888 19.522L27.4157 19.5783L27.8159 24.7581L28.2881 24.7017ZM27.6701 19.7867L28.9881 19.6296L28.9514 19.1566L27.6337 19.3136L27.6701 19.7867ZM28.7336 19.4212L29.1336 24.6011L29.606 24.5446L29.2059 19.365L28.7336 19.4212ZM29.3515 24.3364L28.0338 24.4934L28.0702 24.9664L29.3881 24.8094L29.3515 24.3364ZM29.4643 24.5617L29.3755 23.4121L28.9032 23.4684L28.9919 24.6179L29.4643 24.5617ZM29.1577 23.6769L31.2548 23.4269L31.2184 22.9538L29.121 23.2037L29.1577 23.6769ZM31.0003 23.2185L31.0893 24.3679L31.5617 24.3117L31.4727 23.1622L31.0003 23.2185ZM31.3071 24.1034L29.21 24.3532L29.2464 24.8262L31.3435 24.5764L31.3071 24.1034Z" fill="black"/>
</g>
<path d="M31.7344 24.2981L33.3275 19.0657L35.4535 19.0176L37.2559 24.1731L35.8864 24.2042L34.4825 19.9649L34.8626 20.0987L33.921 20.12L34.3042 19.969L33.0614 24.268L31.7344 24.2981ZM33.0794 23.0646L33.4631 21.974L35.4392 21.9293L35.8545 23.0018L33.0794 23.0646ZM33.7071 18.6727L34.5725 17.3434L35.9423 17.3124L34.9485 18.6446L33.7071 18.6727Z" fill="white"/>
<mask id="mask5_62_2975" style="mask-type:luminance" maskUnits="userSpaceOnUse" x="31" y="16" width="7" height="9">
<path d="M37.6255 16.8118H31.0938V24.5473H37.6255V16.8118Z" fill="white"/>
<path d="M31.7344 24.2981L33.3275 19.0657L35.4535 19.0176L37.2559 24.1731L35.8864 24.2042L34.4825 19.9649L34.8626 20.0987L33.921 20.12L34.3042 19.969L33.0614 24.268L31.7344 24.2981ZM33.0794 23.0646L33.4631 21.974L35.4392 21.9293L35.8545 23.0018L33.0794 23.0646ZM33.7071 18.6727L34.5725 17.3434L35.9423 17.3124L34.9485 18.6446L33.7071 18.6727Z" fill="black"/>
</mask>
<g mask="url(#mask5_62_2975)">
<path d="M31.7334 24.2981L31.506 24.2307L31.4111 24.5427L31.737 24.5353L31.7334 24.2981ZM33.3266 19.0657L33.3232 18.8285L33.1496 18.8324L33.0992 18.9984L33.3266 19.0657ZM35.4525 19.0176L35.6771 18.9378L35.6207 18.7765L35.449 18.7804L35.4525 19.0176ZM37.255 24.1731L37.2585 24.4103L37.588 24.4027L37.4798 24.0934L37.255 24.1731ZM35.8854 24.2042L35.6595 24.2801L35.7142 24.4452L35.889 24.4411L35.8854 24.2042ZM34.4816 19.9649L34.5622 19.7411L34.1029 19.5794L34.2556 20.0409L34.4816 19.9649ZM34.8617 20.0986L34.8653 20.3358L34.9426 19.8748L34.8617 20.0986ZM33.92 20.12L33.8344 19.8994L33.9236 20.3572L33.92 20.12ZM34.3032 19.9689L34.5318 20.033L34.665 19.5719L34.2173 19.7484L34.3032 19.9689ZM33.0604 24.268L33.064 24.5052L33.24 24.5012L33.289 24.332L33.0604 24.268ZM33.0785 23.0646L32.8542 22.9876L32.741 23.3095L33.0818 23.3018L33.0785 23.0646ZM33.4622 21.9739L33.4586 21.7367L33.2928 21.7405L33.2379 21.897L33.4622 21.9739ZM35.4382 21.9292L35.6602 21.8422L35.6005 21.6883L35.4347 21.692L35.4382 21.9292ZM35.8535 23.0018L35.8569 23.239L36.198 23.2313L36.0755 22.9147L35.8535 23.0018ZM33.7062 18.6727L33.5071 18.5446L33.2626 18.92L33.7098 18.9099L33.7062 18.6727ZM34.5715 17.3433L34.5682 17.1062L34.4416 17.109L34.3724 17.2152L34.5715 17.3433ZM35.9413 17.3123L36.1316 17.453L36.4218 17.0642L35.9377 17.0751L35.9413 17.3123ZM34.9476 18.6446L34.9509 18.8818L35.0679 18.8791L35.1378 18.7852L34.9476 18.6446ZM31.9611 24.3652L33.5542 19.1329L33.0992 18.9984L31.506 24.2307L31.9611 24.3652ZM33.3301 19.3029L35.4561 19.2547L35.449 18.7804L33.3232 18.8285L33.3301 19.3029ZM35.228 19.0973L37.0304 24.2528L37.4798 24.0934L35.6771 18.9378L35.228 19.0973ZM37.2516 23.9359L35.8818 23.9669L35.889 24.4411L37.2585 24.4103L37.2516 23.9359ZM36.1114 24.128L34.7076 19.8888L34.2556 20.0409L35.6595 24.2801L36.1114 24.128ZM34.401 20.1887L34.7811 20.3225L34.9426 19.8748L34.5622 19.7411L34.401 20.1887ZM34.8584 19.8615L33.9167 19.8828L33.9236 20.3572L34.8653 20.3358L34.8584 19.8615ZM34.0059 20.3405L34.3891 20.1895L34.2173 19.7484L33.8344 19.8994L34.0059 20.3405ZM34.0749 19.9049L32.8321 24.2039L33.289 24.332L34.5318 20.033L34.0749 19.9049ZM33.0568 24.0308L31.7301 24.0609L31.737 24.5353L33.064 24.5052L33.0568 24.0308ZM33.3028 23.1415L33.6864 22.0509L33.2379 21.897L32.8542 22.9876L33.3028 23.1415ZM33.4655 22.2111L35.4416 22.1664L35.4347 21.692L33.4586 21.7367L33.4655 22.2111ZM35.2163 22.0163L35.6316 23.0888L36.0755 22.9147L35.6602 21.8422L35.2163 22.0163ZM35.85 22.7646L33.0749 22.8274L33.0818 23.3018L35.8569 23.239L35.85 22.7646ZM33.9053 18.8008L34.7708 17.4714L34.3724 17.2152L33.5071 18.5446L33.9053 18.8008ZM34.5751 17.5805L35.9449 17.5495L35.9377 17.0751L34.5682 17.1062L34.5751 17.5805ZM35.751 17.1717L34.757 18.5039L35.1378 18.7852L36.1316 17.453L35.751 17.1717ZM34.944 18.4074L33.7029 18.4355L33.7098 18.9099L34.9509 18.8818L34.944 18.4074Z" fill="black"/>
</g>
<path d="M39.547 24.5762C39.0632 24.5378 38.6593 24.4296 38.3351 24.2517C38.0157 24.0743 37.7773 23.8484 37.6201 23.5742C37.4677 23.2957 37.4003 22.9859 37.4177 22.6447L38.6981 22.7463C38.6919 22.8695 38.7193 22.9858 38.7801 23.0953C38.8463 23.2005 38.9466 23.2869 39.0813 23.3547C39.2157 23.4224 39.3898 23.4648 39.6031 23.4817C39.7882 23.4964 39.9459 23.4851 40.0762 23.4479C40.2115 23.411 40.3145 23.3526 40.3852 23.2726C40.4608 23.1929 40.5015 23.0939 40.5077 22.9754C40.5155 22.8238 40.4575 22.7026 40.3336 22.6119C40.2099 22.5165 39.997 22.4449 39.6947 22.3971L39.3617 22.3422C38.8284 22.2523 38.4103 22.0502 38.1072 21.736C37.8045 21.4218 37.6653 21.0254 37.6898 20.5468C37.7074 20.2057 37.8007 19.9205 37.9695 19.6913C38.1432 19.4624 38.3779 19.2955 38.6738 19.1905C38.9697 19.0855 39.3144 19.0486 39.708 19.0798C40.1347 19.1137 40.4915 19.2133 40.7784 19.3788C41.0697 19.5446 41.2869 19.7641 41.4301 20.0371C41.5735 20.3054 41.6363 20.6101 41.6187 20.9512L40.3383 20.8497C40.3443 20.736 40.3212 20.6294 40.2691 20.5302C40.217 20.4309 40.1378 20.3509 40.0315 20.2901C39.9302 20.225 39.8034 20.1864 39.6516 20.1744C39.5094 20.1631 39.3874 20.1772 39.2853 20.2167C39.1883 20.2518 39.1117 20.3075 39.0553 20.3839C39.0037 20.4607 38.9754 20.5489 38.9702 20.6484C38.9635 20.781 39.0028 20.8984 39.0879 21.0003C39.1731 21.1022 39.3267 21.1714 39.5486 21.2081L39.8814 21.263C40.2686 21.327 40.6081 21.4396 40.8997 21.6007C41.1917 21.757 41.417 21.9581 41.5759 22.2038C41.7345 22.4495 41.8054 22.7406 41.788 23.077C41.7707 23.4134 41.6679 23.7002 41.4796 23.9374C41.2959 24.1751 41.0393 24.3497 40.7099 24.4614C40.3849 24.5738 39.9975 24.612 39.547 24.5762Z" fill="white"/>
<mask id="mask6_62_2975" style="mask-type:luminance" maskUnits="userSpaceOnUse" x="36" y="18" width="7" height="8">
<path d="M42.45 18.541H36.917V25.1144H42.45V18.541Z" fill="white"/>
<path d="M39.547 24.5762C39.0632 24.5378 38.6593 24.4296 38.3351 24.2517C38.0157 24.0743 37.7773 23.8484 37.6201 23.5742C37.4677 23.2957 37.4003 22.9859 37.4177 22.6447L38.6981 22.7463C38.6919 22.8695 38.7193 22.9858 38.7801 23.0953C38.8463 23.2005 38.9466 23.2869 39.0813 23.3547C39.2157 23.4224 39.3898 23.4648 39.6031 23.4817C39.7882 23.4964 39.9459 23.4851 40.0762 23.4479C40.2115 23.411 40.3145 23.3526 40.3852 23.2726C40.4608 23.1929 40.5015 23.0939 40.5077 22.9754C40.5155 22.8238 40.4575 22.7026 40.3336 22.6119C40.2099 22.5165 39.997 22.4449 39.6947 22.3971L39.3617 22.3422C38.8284 22.2523 38.4103 22.0502 38.1072 21.736C37.8045 21.4218 37.6653 21.0254 37.6898 20.5468C37.7074 20.2057 37.8007 19.9205 37.9695 19.6913C38.1432 19.4624 38.3779 19.2955 38.6738 19.1905C38.9697 19.0855 39.3144 19.0486 39.708 19.0798C40.1347 19.1137 40.4915 19.2133 40.7784 19.3788C41.0697 19.5446 41.2869 19.7641 41.4301 20.0371C41.5735 20.3054 41.6363 20.6101 41.6187 20.9512L40.3383 20.8497C40.3443 20.736 40.3212 20.6294 40.2691 20.5302C40.217 20.4309 40.1378 20.3509 40.0315 20.2901C39.9302 20.225 39.8034 20.1864 39.6516 20.1744C39.5094 20.1631 39.3874 20.1772 39.2853 20.2167C39.1883 20.2518 39.1117 20.3075 39.0553 20.3839C39.0037 20.4607 38.9754 20.5489 38.9702 20.6484C38.9635 20.781 39.0028 20.8984 39.0879 21.0003C39.1731 21.1022 39.3267 21.1714 39.5486 21.2081L39.8814 21.263C40.2686 21.327 40.6081 21.4396 40.8997 21.6007C41.1917 21.757 41.417 21.9581 41.5759 22.2038C41.7345 22.4495 41.8054 22.7406 41.788 23.077C41.7707 23.4134 41.6679 23.7002 41.4796 23.9374C41.2959 24.1751 41.0393 24.3497 40.7099 24.4614C40.3849 24.5738 39.9975 24.612 39.547 24.5762Z" fill="black"/>
</mask>
<g mask="url(#mask6_62_2975)">
<path d="M38.3351 24.2517L38.2243 24.4588L38.2255 24.4595L38.3351 24.2517ZM37.6201 23.5742L37.4125 23.6838L37.4137 23.6859L37.4148 23.6883L37.6201 23.5742ZM37.4177 22.6447L37.4301 22.4078L37.1929 22.389L37.1808 22.6259L37.4177 22.6447ZM38.6981 22.7463L38.9352 22.7651L38.9473 22.5282L38.7104 22.5093L38.6981 22.7463ZM38.7801 23.0953L38.5737 23.2066L38.5768 23.2123L38.5801 23.2177L38.7801 23.0953ZM40.0762 23.4479L40.0079 23.2184L40.0053 23.2192L40.0762 23.4479ZM40.3852 23.2726L40.2108 23.1064L40.2082 23.1093L40.2056 23.1123L40.3852 23.2726ZM40.3336 22.6119L40.1918 22.7986L40.1944 22.8005L40.1968 22.8024L40.3336 22.6119ZM39.6947 22.3971L39.6623 22.6316L39.664 22.6318L39.6947 22.3971ZM39.3617 22.3422L39.3286 22.5765L39.3296 22.5766L39.3617 22.3422ZM37.9695 19.6912L37.779 19.5442L37.7771 19.5467L37.9695 19.6912ZM40.7783 19.3788L40.6639 19.5838L40.6654 19.5846L40.7783 19.3788ZM41.4301 20.0371L41.2205 20.1428L41.2215 20.1445L41.4301 20.0371ZM41.6187 20.9512L41.6066 21.1881L41.8437 21.2069L41.8558 20.97L41.6187 20.9512ZM40.3383 20.8496L40.1012 20.8308L40.089 21.0678L40.3262 21.0865L40.3383 20.8496ZM40.0315 20.2901L39.9073 20.4891L39.9125 20.4925L39.9183 20.4957L40.0315 20.2901ZM39.2853 20.2166L39.3714 20.4404L39.3738 20.4395L39.3762 20.4386L39.2853 20.2166ZM39.0553 20.3839L38.8629 20.2395L38.8598 20.2435L38.8572 20.2476L39.0553 20.3839ZM40.8996 21.6006L40.7895 21.808L40.7924 21.8095L40.8996 21.6006ZM41.4795 23.9374L41.2921 23.7863L41.2902 23.7886L41.4795 23.9374ZM40.7098 24.4614L40.628 24.2363L40.6268 24.2365L40.7098 24.4614ZM39.5591 24.3392C39.0989 24.3029 38.7307 24.2009 38.4448 24.0441L38.2255 24.4595C38.5879 24.6585 39.0275 24.7729 39.5346 24.8132L39.5591 24.3392ZM38.4459 24.0448C38.1593 23.8854 37.9567 23.6895 37.8251 23.4602L37.4148 23.6883C37.598 24.0071 37.872 24.2628 38.2243 24.4588L38.4459 24.0448ZM37.8275 23.4646C37.6988 23.2291 37.6394 22.9644 37.6548 22.6635L37.1808 22.6259C37.1611 23.0073 37.2367 23.3622 37.4125 23.6838L37.8275 23.4646ZM37.4056 22.8816L38.6859 22.9832L38.7104 22.5093L37.4301 22.4078L37.4056 22.8816ZM38.4612 22.7274C38.4524 22.8958 38.4904 23.0573 38.5737 23.2066L38.9868 22.984C38.948 22.9143 38.9312 22.843 38.9352 22.7651L38.4612 22.7274ZM38.5801 23.2177C38.675 23.3685 38.8132 23.4828 38.9792 23.5664L39.1831 23.1429C39.0798 23.091 39.0175 23.0324 38.9802 22.9729L38.5801 23.2177ZM38.9792 23.5664C39.1514 23.6529 39.3588 23.7001 39.591 23.7186L39.6152 23.2448C39.4207 23.2294 39.2801 23.1918 39.1831 23.1429L38.9792 23.5664ZM39.591 23.7186C39.7946 23.7348 39.9822 23.7236 40.1471 23.6767L40.0053 23.2192C39.9095 23.2466 39.7815 23.258 39.6152 23.2448L39.591 23.7186ZM40.1445 23.6774C40.31 23.6321 40.457 23.555 40.565 23.4328L40.2056 23.1123C40.1721 23.1502 40.1128 23.1898 40.0079 23.2184L40.1445 23.6774ZM40.5595 23.4387C40.6753 23.3165 40.736 23.1641 40.7448 22.9942L40.2705 22.9566C40.2672 23.0236 40.246 23.0693 40.2108 23.1064L40.5595 23.4387ZM40.7448 22.9942C40.7567 22.7615 40.6611 22.5612 40.4701 22.4215L40.1968 22.8024C40.2539 22.8441 40.2741 22.8861 40.2705 22.9566L40.7448 22.9942ZM40.4751 22.4252C40.3003 22.2902 40.0355 22.2114 39.7251 22.1624L39.664 22.6318C39.9582 22.6783 40.1195 22.7427 40.1918 22.7986L40.4751 22.4252ZM39.7268 22.1626L39.394 22.1077L39.3296 22.5766L39.6623 22.6316L39.7268 22.1626ZM39.3947 22.1078C38.8995 22.0244 38.5339 21.8411 38.2759 21.5735L37.9386 21.8985C38.2866 22.2593 38.7571 22.4802 39.3286 22.5765L39.3947 22.1078ZM38.2759 21.5735C38.0259 21.3139 37.9053 20.986 37.9269 20.5656L37.4529 20.528C37.4253 21.0648 37.583 21.5296 37.9386 21.8985L38.2759 21.5735ZM37.9269 20.5656C37.9426 20.2615 38.0245 20.0223 38.1619 19.8357L37.7771 19.5467C37.5768 19.8187 37.4722 20.1498 37.4529 20.528L37.9269 20.5656ZM38.16 19.8383C38.3044 19.648 38.5011 19.5061 38.7587 19.4147L38.5889 18.9662C38.2549 19.0848 37.9819 19.2767 37.779 19.5442L38.16 19.8383ZM38.7587 19.4147C39.017 19.323 39.3274 19.2875 39.6959 19.3167L39.7201 18.8429C39.3013 18.8097 38.9224 18.8479 38.5889 18.9662L38.7587 19.4147ZM39.6959 19.3167C40.0974 19.3486 40.4168 19.4412 40.6639 19.5838L40.8925 19.1737C40.5662 18.9855 40.1723 18.8788 39.7201 18.8429L39.6959 19.3167ZM40.6654 19.5846C40.9194 19.7292 41.1013 19.9154 41.2205 20.1428L41.6396 19.9313C41.4726 19.6127 41.22 19.36 40.8911 19.173L40.6654 19.5846ZM41.2215 20.1445C41.3411 20.3687 41.3972 20.6287 41.3815 20.9324L41.8558 20.97C41.8753 20.5914 41.8056 20.242 41.6387 19.9296L41.2215 20.1445ZM41.6308 20.7143L40.3504 20.6127L40.3262 21.0865L41.6066 21.1881L41.6308 20.7143ZM40.5755 20.8684C40.5835 20.7131 40.5514 20.5634 40.4786 20.4244L40.0595 20.6359C40.0907 20.6955 40.105 20.7588 40.1012 20.8308L40.5755 20.8684ZM40.4786 20.4244C40.4028 20.2795 40.2881 20.1663 40.1447 20.0845L39.9183 20.4957C39.9877 20.5354 40.0315 20.5823 40.0595 20.6359L40.4786 20.4244ZM40.1556 20.0911C40.0122 19.999 39.8445 19.9518 39.664 19.9374L39.6395 20.4112C39.7625 20.421 39.8479 20.4509 39.9073 20.4891L40.1556 20.0911ZM39.664 19.9374C39.4963 19.9241 39.3369 19.9394 39.1945 19.9946L39.3762 20.4386C39.4376 20.4149 39.5227 20.402 39.6395 20.4112L39.664 19.9374ZM39.1992 19.9929C39.0632 20.0421 38.9481 20.1237 38.8629 20.2395L39.2477 20.5284C39.2751 20.4914 39.3134 20.4614 39.3714 20.4404L39.1992 19.9929ZM38.8572 20.2476C38.7806 20.3614 38.7404 20.4907 38.7333 20.6296L39.2073 20.6672C39.2104 20.6071 39.2268 20.5601 39.2535 20.5203L38.8572 20.2476ZM38.7333 20.6296C38.7233 20.8219 38.782 20.9997 38.9076 21.1498L39.2682 20.8507C39.2232 20.7969 39.2037 20.7401 39.2073 20.6672L38.7333 20.6296ZM38.9076 21.1498C39.0496 21.3196 39.2744 21.4026 39.5163 21.4425L39.5807 20.9736C39.379 20.9403 39.2967 20.8847 39.2682 20.8507L38.9076 21.1498ZM39.5163 21.4425L39.8493 21.4975L39.9137 21.0285L39.5807 20.9736L39.5163 21.4425ZM39.849 21.4974C40.2141 21.5578 40.5262 21.6626 40.7895 21.808L41.01 21.3933C40.6899 21.2165 40.3231 21.0962 39.9137 21.0285L39.849 21.4974ZM40.7924 21.8095C41.0523 21.9488 41.2443 22.1228 41.3775 22.3289L41.774 22.0786C41.5897 21.7933 41.3309 21.5652 41.0072 21.3918L40.7924 21.8095ZM41.3775 22.3289C41.504 22.5246 41.5661 22.7634 41.5509 23.0581L42.0252 23.0958C42.0447 22.7176 41.9652 22.3743 41.774 22.0786L41.3775 22.3289ZM41.5509 23.0581C41.5359 23.351 41.4477 23.5904 41.2921 23.7863L41.667 24.0885C41.8882 23.81 42.0057 23.4757 42.0252 23.0958L41.5509 23.0581ZM41.2902 23.7886C41.138 23.9855 40.9215 24.1366 40.628 24.2363L40.7917 24.6867C41.1572 24.5627 41.4536 24.3644 41.6689 24.0861L41.2902 23.7886ZM40.6268 24.2365C40.34 24.3357 39.9865 24.3731 39.5591 24.3392L39.5346 24.8132C40.0082 24.8507 40.4299 24.8118 40.7928 24.6863L40.6268 24.2365Z" fill="black"/>
</g>
<path d="M43.4518 24.9531L43.9173 20.7943L45.225 21.0202L44.7595 25.1789L43.4518 24.9531ZM42.4951 20.6929L42.6236 19.5471L46.7437 20.2587L46.6155 21.4045L42.4951 20.6929Z" fill="white"/>
<mask id="mask7_62_2975" style="mask-type:luminance" maskUnits="userSpaceOnUse" x="41" y="19" width="7" height="7">
<path d="M47.1996 19.223H41.6445V25.7312H47.1996V19.223Z" fill="white"/>
<path d="M43.4518 24.9531L43.9173 20.7943L45.225 21.0202L44.7595 25.1789L43.4518 24.9531ZM42.4951 20.6929L42.6236 19.5471L46.7437 20.2587L46.6155 21.4045L42.4951 20.6929Z" fill="black"/>
</mask>
<g mask="url(#mask7_62_2975)">
<path d="M43.4517 24.9532L43.2172 24.9126L43.191 25.1484L43.4253 25.189L43.4517 24.9532ZM43.9172 20.7944L43.9436 20.5587L43.7093 20.5182L43.6829 20.7539L43.9172 20.7944ZM45.2249 21.0203L45.4594 21.0607L45.4858 20.825L45.2513 20.7845L45.2249 21.0203ZM44.7594 25.179L44.733 25.4148L44.9673 25.4551L44.9937 25.2196L44.7594 25.179ZM42.4951 20.693L42.2608 20.6525L42.2344 20.8883L42.4689 20.9288L42.4951 20.693ZM42.6235 19.5472L42.6499 19.3115L42.4154 19.271L42.389 19.5067L42.6235 19.5472ZM46.7436 20.2588L46.9779 20.2993L47.0043 20.0635L46.77 20.0231L46.7436 20.2588ZM46.6154 21.4046L46.589 21.6403L46.8233 21.6808L46.8497 21.445L46.6154 21.4046ZM43.686 24.9935L44.1515 20.8349L43.6829 20.7539L43.2172 24.9126L43.686 24.9935ZM43.8908 21.0302L45.1985 21.256L45.2513 20.7845L43.9436 20.5587L43.8908 21.0302ZM44.9906 20.9798L44.5252 25.1384L44.9937 25.2196L45.4594 21.0607L44.9906 20.9798ZM44.7858 24.9432L43.4781 24.7174L43.4253 25.189L44.733 25.4148L44.7858 24.9432ZM42.7296 20.7335L42.8578 19.5877L42.389 19.5067L42.2608 20.6525L42.7296 20.7335ZM42.5971 19.783L46.7172 20.4946L46.77 20.0231L42.6499 19.3115L42.5971 19.783ZM46.5093 20.2183L46.3809 21.3641L46.8497 21.445L46.9779 20.2993L46.5093 20.2183ZM46.6418 21.1688L42.5215 20.4572L42.4689 20.9288L46.589 21.6403L46.6418 21.1688Z" fill="black"/>
</g>
<path d="M47.0664 26.1653L48.0373 20.1823L49.5391 20.5582L48.5682 26.5413L47.0664 26.1653Z" fill="white"/>
<mask id="mask8_62_2975" style="mask-type:luminance" maskUnits="userSpaceOnUse" x="47" y="20" width="3" height="7">
<path d="M47.0664 26.1653L48.0373 20.1823L49.5391 20.5582L48.5682 26.5413L47.0664 26.1653Z" fill="white"/>
</mask>
<g mask="url(#mask8_62_2975)">
<path d="M47.0666 26.1654L46.8359 26.1078L46.7979 26.3419L47.0286 26.3995L47.0666 26.1654ZM48.0376 20.1823L48.0756 19.9481L47.8449 19.8904L47.8068 20.1246L48.0376 20.1823ZM49.5394 20.5583L49.7701 20.6161L49.8081 20.3819L49.5774 20.3241L49.5394 20.5583ZM48.5684 26.5414L48.5304 26.7755L48.7611 26.8334L48.7992 26.5993L48.5684 26.5414ZM47.2973 26.2233L48.2683 20.2401L47.8068 20.1246L46.8359 26.1078L47.2973 26.2233ZM47.9995 20.4165L49.5013 20.7925L49.5774 20.3241L48.0756 19.9481L47.9995 20.4165ZM49.3086 20.5005L48.3377 26.4838L48.7992 26.5993L49.7701 20.6161L49.3086 20.5005ZM48.6065 26.3073L47.1047 25.9313L47.0286 26.3995L48.5304 26.7755L48.6065 26.3073Z" fill="black"/>
</g>
<path d="M52.133 27.4121C51.6875 27.2598 51.3224 27.0501 51.038 26.7833C50.7544 26.5119 50.5378 26.2111 50.3884 25.8809C50.24 25.5462 50.15 25.2088 50.1189 24.8691C50.0877 24.5297 50.1039 24.2163 50.1677 23.929L50.2014 23.776C50.2723 23.4565 50.3912 23.1607 50.558 22.8888C50.7302 22.6138 50.9476 22.3867 51.2102 22.2073C51.477 22.0295 51.7844 21.9204 52.1323 21.8799C52.4801 21.8394 52.8656 21.8915 53.2885 22.0361C53.7386 22.1901 54.1172 22.4143 54.4248 22.7088C54.7376 23.0003 54.9649 23.3397 55.1067 23.7272C55.2494 24.1098 55.2929 24.5136 55.2375 24.9382L53.9821 24.5086C53.9895 24.3219 53.956 24.1459 53.8813 23.9808C53.8066 23.8156 53.696 23.6707 53.5492 23.5457C53.4037 23.4162 53.2274 23.316 53.0205 23.2452C52.8269 23.179 52.6437 23.1538 52.4708 23.1694C52.3024 23.1865 52.1499 23.2415 52.0132 23.3343C51.8819 23.4239 51.767 23.5491 51.6685 23.7098C51.5743 23.8719 51.5023 24.0666 51.4518 24.2936C51.4016 24.5207 51.3833 24.7337 51.3974 24.9327C51.4157 25.1334 51.4647 25.317 51.5439 25.4838C51.6276 25.652 51.7406 25.7976 51.8826 25.921C52.0258 26.0398 52.1985 26.1338 52.4011 26.203C52.716 26.3107 52.9988 26.3228 53.2498 26.2393C53.5052 26.1572 53.6848 25.9917 53.7883 25.7431L55.0437 26.1724C54.919 26.5385 54.7183 26.8438 54.4414 27.0879C54.1646 27.3322 53.8297 27.4892 53.4365 27.559C53.0445 27.6242 52.6099 27.5754 52.133 27.4121Z" fill="white"/>
<mask id="mask9_62_2975" style="mask-type:luminance" maskUnits="userSpaceOnUse" x="49" y="20" width="8" height="9">
<path d="M56.2197 20.756H49.2598V28.7022H56.2197V20.756Z" fill="white"/>
<path d="M52.133 27.4121C51.6875 27.2598 51.3224 27.0501 51.038 26.7833C50.7544 26.5119 50.5378 26.2111 50.3884 25.8809C50.24 25.5462 50.15 25.2088 50.1189 24.8691C50.0877 24.5297 50.1039 24.2163 50.1677 23.929L50.2014 23.776C50.2723 23.4565 50.3912 23.1607 50.558 22.8888C50.7302 22.6138 50.9476 22.3867 51.2102 22.2073C51.477 22.0295 51.7844 21.9204 52.1323 21.8799C52.4801 21.8394 52.8656 21.8915 53.2885 22.0361C53.7386 22.1901 54.1172 22.4143 54.4248 22.7088C54.7376 23.0003 54.9649 23.3397 55.1067 23.7272C55.2494 24.1098 55.2929 24.5136 55.2375 24.9382L53.9821 24.5086C53.9895 24.3219 53.956 24.1459 53.8813 23.9808C53.8066 23.8156 53.696 23.6707 53.5492 23.5457C53.4037 23.4162 53.2274 23.316 53.0205 23.2452C52.8269 23.179 52.6437 23.1538 52.4708 23.1694C52.3024 23.1865 52.1499 23.2415 52.0132 23.3343C51.8819 23.4239 51.767 23.5491 51.6685 23.7098C51.5743 23.8719 51.5023 24.0666 51.4518 24.2936C51.4016 24.5207 51.3833 24.7337 51.3974 24.9327C51.4157 25.1334 51.4647 25.317 51.5439 25.4838C51.6276 25.652 51.7406 25.7976 51.8826 25.921C52.0258 26.0398 52.1985 26.1338 52.4011 26.203C52.716 26.3107 52.9988 26.3228 53.2498 26.2393C53.5052 26.1572 53.6848 25.9917 53.7883 25.7431L55.0437 26.1724C54.919 26.5385 54.7183 26.8438 54.4414 27.0879C54.1646 27.3322 53.8297 27.4892 53.4365 27.559C53.0445 27.6242 52.6099 27.5754 52.133 27.4121Z" fill="black"/>
</mask>
<g mask="url(#mask9_62_2975)">
<path d="M51.0383 26.7832L50.8928 26.9571L50.8947 26.959L51.0383 26.7832ZM50.3888 25.8808L50.1814 25.9665L50.1823 25.9684L50.3888 25.8808ZM50.5584 22.8888L50.3621 22.7408L50.3612 22.7425L50.5584 22.8888ZM51.2106 22.2073L51.0745 21.9971L51.0726 21.9985L51.2106 22.2073ZM54.4252 22.7088L54.2794 22.8824L54.2808 22.8838L54.2822 22.8851L54.4252 22.7088ZM55.1071 23.7271L54.8928 23.7954L54.8933 23.7971L55.1071 23.7271ZM55.2379 24.9381L55.1865 25.1696L55.4327 25.2538L55.4665 24.9939L55.2379 24.9381ZM53.9825 24.5085L53.7518 24.4748L53.7437 24.6762L53.9311 24.7403L53.9825 24.5085ZM53.5496 23.5457L53.4114 23.7262L53.4136 23.728L53.4157 23.7299L53.5496 23.5457ZM52.4712 23.1693L52.4298 22.9261L52.4274 22.9263L52.4712 23.1693ZM52.0136 23.3342L51.8761 23.125L51.8756 23.1254L52.0136 23.3342ZM51.6689 23.7098L51.4717 23.5634L51.4703 23.5657L51.4689 23.568L51.6689 23.7098ZM51.3977 24.9327L51.1675 24.9272L51.1677 24.93L51.168 24.9329L51.3977 24.9327ZM51.5443 25.4837L51.34 25.576L51.3411 25.5784L51.3421 25.5805L51.5443 25.4837ZM51.883 25.9209L51.7472 26.1036L51.7495 26.1055L51.7517 26.1074L51.883 25.9209ZM53.2502 26.2393L53.1641 26.0049L53.1622 26.0056L53.2502 26.2393ZM53.7887 25.743L53.84 25.5115L53.6509 25.4467L53.576 25.6272L53.7887 25.743ZM55.0441 26.1724L55.2622 26.2741L55.3464 26.0267L55.0954 25.9408L55.0441 26.1724ZM53.4369 27.5589L53.494 27.8002L53.4961 27.7997L53.4369 27.5589ZM52.1846 27.1806C51.7643 27.0368 51.4332 26.8435 51.1818 26.6077L50.8947 26.959C51.2125 27.2567 51.6113 27.4828 52.0821 27.6436L52.1846 27.1806ZM51.1837 26.6096C50.9235 26.3602 50.7287 26.0882 50.5952 25.7933L50.1823 25.9684C50.3476 26.3339 50.5862 26.6634 50.8928 26.9571L51.1837 26.6096ZM50.5962 25.7952C50.4592 25.4863 50.3774 25.1779 50.349 24.8688L49.8895 24.8693C49.9235 25.2396 50.0215 25.6056 50.1814 25.9665L50.5962 25.7952ZM50.349 24.8688C50.3198 24.5524 50.3355 24.2654 50.3931 24.0058L49.943 23.8519C49.8731 24.1669 49.8562 24.5068 49.8895 24.8693L50.349 24.8688ZM50.3931 24.0058L50.4268 23.8531L49.9768 23.6991L49.943 23.8519L50.3931 24.0058ZM50.4268 23.8531C50.4922 23.5585 50.6014 23.2861 50.7555 23.035L50.3612 22.7425C50.1816 23.0352 50.0534 23.3544 49.9768 23.6991L50.4268 23.8531ZM50.7544 23.0368C50.9116 22.7861 51.1092 22.5796 51.3485 22.4161L51.0726 21.9985C50.7869 22.1937 50.5498 22.4414 50.3621 22.7408L50.7544 23.0368ZM51.3464 22.4174C51.5849 22.2586 51.8613 22.1595 52.1796 22.1225L52.0859 21.6371C51.7081 21.6811 51.3699 21.8004 51.0745 21.9971L51.3464 22.4174ZM52.1796 22.1225C52.4885 22.0865 52.8399 22.1317 53.2376 22.2677L53.3403 21.8045C52.892 21.6511 52.4724 21.5921 52.0859 21.6371L52.1796 22.1225ZM53.2376 22.2677C53.6588 22.4118 54.0037 22.6182 54.2794 22.8824L54.5707 22.5351C54.2315 22.2103 53.8191 21.9683 53.3403 21.8045L53.2376 22.2677ZM54.2822 22.8851C54.565 23.1483 54.7667 23.451 54.8928 23.7954L55.3214 23.6585C55.1639 23.2283 54.9111 22.8522 54.5679 22.5325L54.2822 22.8851ZM54.8933 23.7971C55.0193 24.1351 55.0598 24.4952 55.0093 24.8821L55.4665 24.9939C55.5269 24.5318 55.48 24.0844 55.3207 23.6569L54.8933 23.7971ZM55.2893 24.7063L54.0339 24.277L53.9311 24.7403L55.1865 25.1696L55.2893 24.7063ZM54.213 24.5422C54.222 24.3173 54.1814 24.0993 54.0881 23.8932L53.6752 24.0682C53.7313 24.1923 53.758 24.3261 53.7518 24.4748L54.213 24.5422ZM54.0881 23.8932C53.9951 23.688 53.8586 23.5105 53.6835 23.3615L53.4157 23.7299C53.5339 23.8305 53.6186 23.9432 53.6752 24.0682L54.0881 23.8932ZM53.688 23.3653C53.5125 23.2092 53.3053 23.0933 53.0722 23.0135L52.9695 23.4768C53.1503 23.5386 53.2956 23.6232 53.4114 23.7262L53.688 23.3653ZM53.0722 23.0135C52.8522 22.9383 52.6372 22.9073 52.4298 22.9261L52.5128 23.4125C52.651 23.4 52.8025 23.4197 52.9695 23.4768L53.0722 23.0135ZM52.4274 22.9263C52.2255 22.9469 52.0409 23.0133 51.8761 23.125L52.151 23.5434C52.2597 23.4696 52.3803 23.426 52.5152 23.4123L52.4274 22.9263ZM51.8756 23.1254C51.7172 23.2337 51.5833 23.3817 51.4717 23.5634L51.8661 23.8559C51.9517 23.7164 52.0476 23.6142 52.1515 23.543L51.8756 23.1254ZM51.4689 23.568C51.3614 23.7537 51.2817 23.971 51.2272 24.2165L51.6772 24.3704C51.7234 24.1622 51.7883 23.9902 51.8687 23.8514L51.4689 23.568ZM51.2272 24.2165C51.173 24.4622 51.1516 24.6995 51.1675 24.9272L51.6278 24.9381C51.6159 24.7675 51.6311 24.5787 51.6772 24.3704L51.2272 24.2165ZM51.168 24.9329C51.1892 25.1616 51.2453 25.377 51.34 25.576L51.7486 25.3914C51.6846 25.2572 51.6432 25.1051 51.6275 24.9324L51.168 24.9329ZM51.3421 25.5805C51.4425 25.7819 51.5783 25.957 51.7472 26.1036L52.0188 25.7385C51.9037 25.6384 51.8135 25.5217 51.7462 25.3869L51.3421 25.5805ZM51.7517 26.1074C51.9232 26.2497 52.1244 26.3574 52.3501 26.4345L52.4526 25.9714C52.2735 25.91 52.1289 25.8298 52.0143 25.7345L51.7517 26.1074ZM52.3501 26.4345C52.7026 26.5552 53.0354 26.5737 53.3384 26.4727L53.1622 26.0056C52.9633 26.072 52.7302 26.0663 52.4526 25.9714L52.3501 26.4345ZM53.3363 26.4734C53.6469 26.3735 53.8731 26.1669 54.0013 25.8588L53.576 25.6272C53.4971 25.8165 53.3643 25.9406 53.1641 26.0049L53.3363 26.4734ZM53.7373 25.9748L54.9927 26.4041L55.0954 25.9408L53.84 25.5115L53.7373 25.9748ZM54.8259 26.0706C54.7137 26.4008 54.5334 26.6743 54.2841 26.8942L54.5993 27.2814C54.9037 27.0128 55.1252 26.6762 55.2622 26.2741L54.8259 26.0706ZM54.2841 26.8942C54.0372 27.1122 53.7368 27.2543 53.3777 27.3181L53.4961 27.7997C53.9233 27.7238 54.2927 27.5518 54.5993 27.2814L54.2841 26.8942ZM53.38 27.3177C53.0299 27.376 52.6334 27.3338 52.1846 27.1806L52.0821 27.6436C52.5873 27.8165 53.0596 27.8725 53.494 27.8002L53.38 27.3177Z" fill="black"/>
</g>
<path d="M57.5599 29.7454C57.1294 29.5433 56.7785 29.2904 56.5069 28.9865C56.2367 28.6781 56.035 28.3472 55.9013 27.994C55.7693 27.6363 55.697 27.2833 55.6849 26.935C55.6727 26.587 55.7096 26.2723 55.7952 25.9907L55.8409 25.8408C55.936 25.5276 56.083 25.2465 56.2819 24.9972C56.4822 24.7436 56.7271 24.5448 57.0169 24.4006C57.3066 24.2564 57.6308 24.1854 57.9892 24.1878C58.3519 24.1918 58.742 24.2919 59.1594 24.4881C59.5726 24.6819 59.9142 24.9253 60.1844 25.218C60.4586 25.5129 60.666 25.8334 60.8066 26.1797C60.9472 26.5258 61.0252 26.8762 61.0402 27.2309C61.0609 27.5831 61.0235 27.9157 60.9284 28.2291L60.8827 28.379C60.7971 28.6604 60.6548 28.9256 60.456 29.1749C60.2617 29.4259 60.0195 29.6313 59.7298 29.7912C59.4415 29.9463 59.114 30.0286 58.7472 30.0381C58.3817 30.0429 57.9859 29.9454 57.5599 29.7454ZM57.9205 28.5605C58.1269 28.6573 58.3232 28.708 58.5087 28.7121C58.6944 28.7163 58.8655 28.6798 59.0217 28.6027C59.178 28.5256 59.3124 28.4148 59.4251 28.2706C59.5393 28.1219 59.6275 27.9454 59.6896 27.7411C59.756 27.5231 59.7838 27.3106 59.7731 27.103C59.7667 26.8978 59.7248 26.7042 59.6473 26.5225C59.5697 26.3408 59.4594 26.1776 59.3167 26.0327C59.1737 25.888 59.0013 25.7679 58.7989 25.673C58.5924 25.576 58.3969 25.5231 58.2125 25.5146C58.0285 25.5058 57.8589 25.5378 57.7038 25.6104C57.5489 25.683 57.4145 25.7935 57.3004 25.9423C57.1862 26.091 57.0961 26.2744 57.0297 26.4924C56.9676 26.6966 56.9396 26.9016 56.946 27.1068C56.9538 27.3077 56.9957 27.5011 57.0718 27.6873C57.1481 27.8735 57.2568 28.0414 57.3984 28.1909C57.5397 28.3401 57.7138 28.4635 57.9205 28.5605Z" fill="white"/>
<mask id="mask10_62_2975" style="mask-type:luminance" maskUnits="userSpaceOnUse" x="54" y="22" width="9" height="10">
<path d="M62.065 22.8519H54.6738V31.3805H62.065V22.8519Z" fill="white"/>
<path d="M57.5599 29.7454C57.1294 29.5433 56.7785 29.2904 56.5069 28.9865C56.2367 28.6781 56.035 28.3472 55.9013 27.994C55.7693 27.6363 55.697 27.2833 55.6849 26.935C55.6727 26.587 55.7096 26.2723 55.7952 25.9907L55.8409 25.8408C55.936 25.5276 56.083 25.2465 56.2819 24.9972C56.4822 24.7436 56.7271 24.5448 57.0169 24.4006C57.3066 24.2564 57.6308 24.1854 57.9892 24.1878C58.3519 24.1918 58.742 24.2919 59.1594 24.4881C59.5726 24.6819 59.9142 24.9253 60.1844 25.218C60.4586 25.5129 60.666 25.8334 60.8066 26.1797C60.9472 26.5258 61.0252 26.8762 61.0402 27.2309C61.0609 27.5831 61.0235 27.9157 60.9284 28.2291L60.8827 28.379C60.7971 28.6604 60.6548 28.9256 60.456 29.1749C60.2617 29.4259 60.0195 29.6313 59.7298 29.7912C59.4415 29.9463 59.114 30.0286 58.7472 30.0381C58.3817 30.0429 57.9859 29.9454 57.5599 29.7454ZM57.9205 28.5605C58.1269 28.6573 58.3232 28.708 58.5087 28.7121C58.6944 28.7163 58.8655 28.6798 59.0217 28.6027C59.178 28.5256 59.3124 28.4148 59.4251 28.2706C59.5393 28.1219 59.6275 27.9454 59.6896 27.7411C59.756 27.5231 59.7838 27.3106 59.7731 27.103C59.7667 26.8978 59.7248 26.7042 59.6473 26.5225C59.5697 26.3408 59.4594 26.1776 59.3167 26.0327C59.1737 25.888 59.0013 25.7679 58.7989 25.673C58.5924 25.576 58.3969 25.5231 58.2125 25.5146C58.0285 25.5058 57.8589 25.5378 57.7038 25.6104C57.5489 25.683 57.4145 25.7935 57.3004 25.9423C57.1862 26.091 57.0961 26.2744 57.0297 26.4924C56.9676 26.6966 56.9396 26.9016 56.946 27.1068C56.9538 27.3077 56.9957 27.5011 57.0718 27.6873C57.1481 27.8735 57.2568 28.0414 57.3984 28.1909C57.5397 28.3401 57.7138 28.4635 57.9205 28.5605Z" fill="black"/>
</mask>
<g mask="url(#mask10_62_2975)">
<path d="M56.5072 28.9866L56.3529 29.1486L56.3548 29.1505L56.5072 28.9866ZM55.9016 27.9941L55.6935 28.0655L55.6942 28.0674L55.9016 27.9941ZM56.2822 24.9973L56.4589 25.1723L56.4597 25.1714L56.2822 24.9973ZM57.9895 24.1879L57.9674 23.9393H57.9665L57.9895 24.1879ZM60.1847 25.2181L60.0348 25.3856L60.0358 25.3865L60.1847 25.2181ZM61.0405 27.2309L60.8148 27.2157V27.2179L60.815 27.2203L61.0405 27.2309ZM60.4563 29.1749L60.2796 28.9999L60.2777 29.0023L60.4563 29.1749ZM59.7302 29.7912L59.8467 30.0168L59.8484 30.0159L59.7302 29.7912ZM58.7476 30.0382L58.7747 30.2866H58.7771L58.7476 30.0382ZM59.4255 28.2707L59.6036 28.4441L59.6048 28.4424L59.4255 28.2707ZM59.7734 27.1031L59.5475 27.0848L59.5477 27.0876V27.0903L59.7734 27.1031ZM56.9463 27.1069L56.7203 27.0886L56.7206 27.0905L56.9463 27.1069ZM57.6292 29.5184C57.2229 29.3277 56.9025 29.0941 56.6599 28.8224L56.3548 29.1505C56.6549 29.4869 57.0367 29.759 57.4912 29.9725L57.6292 29.5184ZM56.6618 28.8246C56.4118 28.5394 56.2292 28.2382 56.1091 27.9205L55.6942 28.0674C55.8412 28.4564 56.0622 28.817 56.3529 29.1486L56.6618 28.8246ZM56.11 27.9227C55.9875 27.5915 55.9221 27.2686 55.9112 26.9524L55.4595 26.9178C55.4726 27.2978 55.5515 27.6809 55.6935 28.0655L56.11 27.9227ZM55.9112 26.9524C55.8997 26.6296 55.9342 26.3435 56.0108 26.0918L55.5803 25.8897C55.4856 26.2009 55.4464 26.5447 55.4595 26.9178L55.9112 26.9524ZM56.0108 26.0918L56.0563 25.9419L55.626 25.74L55.5803 25.8897L56.0108 26.0918ZM56.0563 25.9419C56.1431 25.6567 56.277 25.4005 56.4589 25.1723L56.1055 24.8224C55.89 25.0924 55.7297 25.3986 55.626 25.74L56.0563 25.9419ZM56.4597 25.1714C56.6411 24.9415 56.8633 24.7608 57.1283 24.6291L56.9061 24.1722C56.5914 24.3288 56.3236 24.5458 56.1048 24.8234L56.4597 25.1714ZM57.1283 24.6291C57.3887 24.4993 57.6825 24.4341 58.0126 24.4362L57.9665 23.9393C57.5797 23.9369 57.2253 24.0135 56.9061 24.1722L57.1283 24.6291ZM58.0114 24.4362C58.338 24.44 58.6967 24.5302 59.0908 24.7152L59.229 24.2612C58.7878 24.0541 58.3665 23.944 57.9674 23.9393L58.0114 24.4362ZM59.0908 24.7152C59.4802 24.8979 59.7927 25.1228 60.0348 25.3856L60.3343 25.0509C60.0365 24.728 59.6659 24.4661 59.229 24.2612L59.0908 24.7152ZM60.0358 25.3865C60.2886 25.6584 60.4761 25.9492 60.6021 26.2598L61.0117 26.0996C60.8566 25.7177 60.629 25.3678 60.3334 25.0499L60.0358 25.3865ZM60.6021 26.2598C60.7306 26.5762 60.801 26.8943 60.8148 27.2157L61.2662 27.2463C61.2498 26.8583 61.1644 26.4756 61.0117 26.0996L60.6021 26.2598ZM60.815 27.2203C60.8338 27.5422 60.7998 27.8441 60.7134 28.1281L61.1437 28.3302C61.2481 27.9877 61.2886 27.6242 61.266 27.2418L60.815 27.2203ZM60.7134 28.1281L60.6678 28.278L61.0983 28.4799L61.1437 28.3302L60.7134 28.1281ZM60.6678 28.278C60.5917 28.5285 60.4637 28.7693 60.2796 28.9999L60.6333 29.3498C60.8466 29.0822 61.0032 28.7926 61.0983 28.4799L60.6678 28.278ZM60.2777 29.0023C60.1012 29.2305 59.88 29.4188 59.6122 29.5666L59.8484 30.0159C60.1597 29.8441 60.4228 29.6216 60.635 29.3474L60.2777 29.0023ZM59.6138 29.5657C59.3546 29.7054 59.0573 29.781 58.7181 29.7898L58.7771 30.2866C59.1717 30.2766 59.5294 30.1876 59.8467 30.0168L59.6138 29.5657ZM58.7205 29.7898C58.3937 29.7941 58.0309 29.707 57.6292 29.5184L57.4912 29.9725C57.9417 30.1838 58.3706 30.292 58.7747 30.2866L58.7205 29.7898ZM57.8516 28.7876C58.0823 28.8957 58.3087 28.9558 58.529 28.9605L58.4893 28.4638C58.3382 28.4604 58.1724 28.4192 57.9898 28.3335L57.8516 28.7876ZM58.529 28.9605C58.7452 28.9655 58.9471 28.9228 59.1324 28.8312L58.9115 28.3741C58.7842 28.437 58.6444 28.4671 58.4893 28.4638L58.529 28.9605ZM59.1324 28.8312C59.3156 28.7411 59.4728 28.6113 59.6036 28.4441L59.2475 28.0975C59.1529 28.2185 59.0411 28.3103 58.9115 28.3741L59.1324 28.8312ZM59.6048 28.4424C59.7361 28.2714 59.8358 28.0702 59.9052 27.842L59.4747 27.6401C59.42 27.8204 59.3434 27.9725 59.2464 28.0989L59.6048 28.4424ZM59.9052 27.842C59.9787 27.6005 60.0115 27.3578 59.9992 27.1159L59.5477 27.0903C59.5568 27.2632 59.5339 27.4459 59.4747 27.6401L59.9052 27.842ZM59.9994 27.1216C59.9918 26.8834 59.943 26.6545 59.8505 26.4379L59.4447 26.6075C59.5073 26.7541 59.5423 26.9121 59.5475 27.0848L59.9994 27.1216ZM59.8505 26.4379C59.7582 26.2211 59.6267 26.0277 59.4602 25.8588L59.1738 26.2069C59.2927 26.3276 59.3822 26.4609 59.4447 26.6075L59.8505 26.4379ZM59.4602 25.8588C59.2923 25.6885 59.0937 25.5519 58.8684 25.4461L58.7302 25.9001C58.9096 25.9841 59.0558 26.0873 59.1738 26.2069L59.4602 25.8588ZM58.8684 25.4461C58.6394 25.3386 58.4153 25.2765 58.1981 25.2663L58.2276 25.7628C58.3791 25.7699 58.5461 25.8135 58.7302 25.9001L58.8684 25.4461ZM58.1981 25.2663C57.9834 25.2563 57.7821 25.2936 57.5973 25.3801L57.8111 25.8406C57.9363 25.7822 58.074 25.7557 58.2276 25.7628L58.1981 25.2663ZM57.5973 25.3801C57.4125 25.4667 57.2539 25.5981 57.1214 25.7706L57.4798 26.1141C57.5759 25.9891 57.6863 25.8992 57.8111 25.8406L57.5973 25.3801ZM57.1214 25.7706C56.9891 25.9431 56.8878 26.1513 56.8148 26.3914L57.2453 26.5935C57.3048 26.3976 57.384 26.2393 57.4798 26.1141L57.1214 25.7706ZM56.8148 26.3914C56.7453 26.6196 56.7132 26.8523 56.7206 27.0886L57.1723 27.1254C57.1668 26.9508 57.1903 26.7738 57.2453 26.5935L56.8148 26.3914ZM56.7206 27.0905C56.7296 27.3234 56.7784 27.55 56.8676 27.7682L57.2769 27.6067C57.2137 27.4523 57.1787 27.2919 57.1723 27.1232L56.7206 27.0905ZM56.8676 27.7682C56.958 27.9889 57.0869 28.1869 57.2515 28.3608L57.5457 28.0209C57.4277 27.8961 57.3388 27.7583 57.2769 27.6067L56.8676 27.7682ZM57.2515 28.3608C57.4192 28.538 57.6211 28.6792 57.8516 28.7876L57.9898 28.3335C57.8073 28.2477 57.6611 28.1426 57.5457 28.0209L57.2515 28.3608Z" fill="black"/>
</g>
<path d="M62.249 32.3745C61.8323 32.1268 61.5081 31.8469 61.2766 31.5352C61.0492 31.2259 60.9089 30.9059 60.8559 30.5747C60.8083 30.2417 60.8459 29.9157 60.9688 29.5969L62.0723 30.2528C62.0278 30.3679 62.0154 30.4912 62.0351 30.6226C62.0606 30.7521 62.1222 30.8786 62.2204 31.0022C62.3184 31.1258 62.4592 31.2422 62.6431 31.3516C62.8025 31.4463 62.9459 31.5044 63.0734 31.5255C63.2049 31.5492 63.3146 31.5383 63.4026 31.4925C63.4944 31.4493 63.5617 31.3722 63.6045 31.2617C63.659 31.1198 63.6457 30.9787 63.5643 30.8378C63.4849 30.6924 63.3184 30.5311 63.0655 30.3534L62.7877 30.1555C62.3429 29.8367 62.0356 29.461 61.866 29.028C61.6964 28.5951 61.6976 28.1551 61.8701 27.7077C61.9928 27.3888 62.1653 27.1566 62.3872 27.011C62.6131 26.8677 62.8736 26.8103 63.169 26.839C63.4644 26.8674 63.7817 26.9825 64.1209 27.1841C64.4886 27.4028 64.7736 27.6538 64.9757 27.9373C65.182 28.2231 65.3056 28.528 65.3466 28.8518C65.3894 29.1711 65.3492 29.4901 65.2264 29.809L64.123 29.153C64.1639 29.0468 64.177 28.9348 64.162 28.8171C64.1473 28.6995 64.1021 28.5882 64.0269 28.4836C63.9575 28.3771 63.8573 28.2848 63.7265 28.2073C63.604 28.1344 63.4913 28.0946 63.3885 28.0879C63.2913 28.0792 63.2059 28.0991 63.1319 28.1475C63.062 28.1985 63.0092 28.2706 62.9732 28.3636C62.9254 28.4876 62.9233 28.6169 62.9668 28.7517C63.0103 28.8864 63.1248 29.0197 63.31 29.1516L63.5879 29.3495C63.9111 29.5796 64.1765 29.8353 64.3844 30.1169C64.5942 30.3939 64.7307 30.6845 64.7943 30.9891C64.8578 31.2935 64.829 31.6031 64.7077 31.9174C64.5866 32.2319 64.4051 32.4616 64.1637 32.6063C63.9261 32.7536 63.6435 32.8088 63.3162 32.7721C62.993 32.7379 62.6372 32.6053 62.249 32.3745Z" fill="white"/>
<mask id="mask11_62_2975" style="mask-type:luminance" maskUnits="userSpaceOnUse" x="59" y="25" width="8" height="10">
<path d="M66.5921 25.5889H59.8789V34.0181H66.5921V25.5889Z" fill="white"/>
<path d="M62.25 32.3746C61.8332 32.127 61.509 31.847 61.2776 31.5353C61.0502 31.226 60.9099 30.906 60.8568 30.5748C60.8093 30.2418 60.8469 29.9158 60.9698 29.597L62.0732 30.2529C62.0287 30.368 62.0164 30.4913 62.0361 30.6227C62.0616 30.7523 62.1232 30.8787 62.2214 31.0023C62.3194 31.1259 62.4602 31.2424 62.6441 31.3517C62.8034 31.4464 62.9469 31.5045 63.0744 31.5256C63.2059 31.5493 63.3155 31.5384 63.4035 31.4926C63.4954 31.4495 63.5627 31.3724 63.6055 31.2618C63.66 31.12 63.6466 30.9788 63.5653 30.8379C63.4858 30.6925 63.3193 30.5312 63.0665 30.3535L62.7887 30.1557C62.3439 29.8368 62.0366 29.4611 61.867 29.0282C61.6974 28.5952 61.6986 28.1552 61.8711 27.7078C61.9938 27.389 62.1662 27.1567 62.3881 27.0111C62.6141 26.8678 62.8746 26.8104 63.17 26.8391C63.4654 26.8676 63.7827 26.9826 64.1219 27.1842C64.4896 27.403 64.7745 27.6539 64.9767 27.9374C65.1829 28.2233 65.3066 28.5281 65.3475 28.8519C65.3903 29.1712 65.3502 29.4903 65.2274 29.8091L64.124 29.1532C64.1649 29.0469 64.178 28.9349 64.163 28.8173C64.1483 28.6996 64.1031 28.5883 64.0279 28.4837C63.9585 28.3772 63.8583 28.2849 63.7275 28.2074C63.605 28.1345 63.4923 28.0947 63.3895 28.0881C63.2922 28.0793 63.2068 28.0992 63.1329 28.1476C63.0629 28.1986 63.0101 28.2707 62.9742 28.3637C62.9264 28.4878 62.9243 28.6171 62.9678 28.7518C63.0113 28.8865 63.1257 29.0199 63.311 29.1517L63.5888 29.3496C63.9121 29.5797 64.1775 29.8354 64.3854 30.117C64.5952 30.3941 64.7317 30.6847 64.7952 30.9893C64.8587 31.2936 64.83 31.6032 64.7087 31.9175C64.5876 32.2321 64.4061 32.4617 64.1647 32.6064C63.9271 32.7537 63.6445 32.809 63.3172 32.7722C62.994 32.738 62.6381 32.6054 62.25 32.3746Z" fill="black"/>
</mask>
<g mask="url(#mask11_62_2975)">
<path d="M61.2773 31.5353L61.1139 31.6852L61.1149 31.6862L61.2773 31.5353ZM60.8565 30.5748L60.638 30.5893L60.6384 30.5919L60.6387 30.5945L60.8565 30.5748ZM60.9695 29.597L61.0549 29.3757L60.8506 29.2542L60.7652 29.4755L60.9695 29.597ZM62.0729 30.2529L62.2772 30.3744L62.3624 30.1528L62.1581 30.0313L62.0729 30.2529ZM62.0358 30.6227L61.8177 30.6391L61.8187 30.646L61.8199 30.6526L62.0358 30.6227ZM63.0741 31.5256L63.0857 31.2763L63.0831 31.2758L63.0741 31.5256ZM63.4033 31.4926L63.3007 31.2575L63.2974 31.2592L63.2943 31.2609L63.4033 31.4926ZM63.565 30.8379L63.3807 30.9546L63.3823 30.9577L63.384 30.9605L63.565 30.8379ZM63.0662 30.3535L62.9637 30.5639L62.9651 30.5649L63.0662 30.3535ZM62.7884 30.1556L62.6854 30.3656L62.6859 30.3661L62.7884 30.1556ZM62.3879 27.0111L62.2651 26.7871L62.2625 26.7888L62.3879 27.0111ZM64.9764 27.9374L64.8106 28.0838L64.8116 28.0852L64.9764 27.9374ZM65.3472 28.8519L65.1282 28.8616L65.1284 28.8637L65.3472 28.8519ZM65.2271 29.8091L65.1417 30.0306L65.346 30.1521L65.4314 29.9305L65.2271 29.8091ZM64.1237 29.1532L63.9194 29.0317L63.834 29.2533L64.0383 29.3747L64.1237 29.1532ZM64.0276 28.4837L63.8549 28.6201L63.8585 28.6256L63.8626 28.631L64.0276 28.4837ZM63.3892 28.088L63.3952 28.3397L63.3975 28.34H63.3999L63.3892 28.088ZM63.1326 28.1476L63.0075 27.9255L63.0034 27.9279L62.9996 27.9308L63.1326 28.1476ZM64.3851 30.117L64.2222 30.2674L64.2243 30.27L64.3851 30.117ZM64.1644 32.6064L64.0457 32.3801L64.0433 32.3815L64.1644 32.6064ZM63.3169 32.7722L63.3152 32.521L63.3141 32.5207L63.3169 32.7722ZM62.3351 32.1533C61.9385 31.9175 61.6441 31.6594 61.44 31.3845L61.1149 31.6862C61.3736 32.0349 61.7273 32.3364 62.1645 32.5962L62.3351 32.1533ZM61.4407 31.3856C61.2369 31.1081 61.1187 30.8322 61.0742 30.5551L60.6387 30.5945C60.7008 30.9795 60.8632 31.3439 61.1139 31.6852L61.4407 31.3856ZM61.0749 30.5606C61.0347 30.279 61.0654 29.9998 61.1738 29.7185L60.7652 29.4755C60.628 29.8321 60.5832 30.2048 60.638 30.5893L61.0749 30.5606ZM60.8841 29.8186L61.9875 30.4742L62.1581 30.0313L61.0549 29.3757L60.8841 29.8186ZM61.8686 30.1315C61.808 30.2887 61.7908 30.46 61.8177 30.6391L62.2539 30.6064C62.2416 30.5226 62.2492 30.4472 62.2772 30.3744L61.8686 30.1315ZM61.8199 30.6526C61.8565 30.8384 61.9431 31.008 62.0641 31.1605L62.3781 30.8441C62.3029 30.7494 62.2661 30.6661 62.2516 30.5928L61.8199 30.6526ZM62.0641 31.1605C62.1895 31.3185 62.3586 31.4542 62.5586 31.573L62.7292 31.1301C62.5615 31.0305 62.4487 30.9333 62.3781 30.8441L62.0641 31.1605ZM62.5586 31.573C62.7342 31.6774 62.904 31.7486 63.065 31.7754L63.0831 31.2758C62.9894 31.2601 62.8724 31.2153 62.7292 31.1301L62.5586 31.573ZM63.0624 31.7751C63.2234 31.8041 63.3778 31.7944 63.512 31.7246L63.2943 31.2609C63.2527 31.2824 63.1878 31.2948 63.0857 31.2763L63.0624 31.7751ZM63.5055 31.7277C63.6466 31.6613 63.7484 31.542 63.8095 31.3833L63.4009 31.1403C63.3766 31.203 63.3436 31.2374 63.3007 31.2575L63.5055 31.7277ZM63.8095 31.3833C63.8932 31.1657 63.8714 30.9321 63.7462 30.7152L63.384 30.9605C63.4213 31.0253 63.4263 31.0744 63.4009 31.1403L63.8095 31.3833ZM63.7493 30.7209C63.6368 30.5153 63.4268 30.3245 63.1671 30.1421L62.9651 30.5649C63.2115 30.7376 63.334 30.8697 63.3807 30.9546L63.7493 30.7209ZM63.1685 30.1431L62.8907 29.9452L62.6859 30.3661L62.9637 30.5639L63.1685 30.1431ZM62.8914 29.9457C62.4785 29.6499 62.2118 29.3149 62.0675 28.9461L61.666 29.1102C61.861 29.6072 62.2087 30.024 62.6854 30.3656L62.8914 29.9457ZM62.0675 28.9461C61.9271 28.5886 61.9236 28.2223 62.0751 27.8292L61.6664 27.5863C61.4731 28.088 61.4669 28.6019 61.666 29.1102L62.0675 28.9461ZM62.0751 27.8292C62.1845 27.545 62.3324 27.3519 62.513 27.2333L62.2625 26.7888C61.9994 26.9615 61.8025 27.2329 61.6664 27.5863L62.0751 27.8292ZM62.5103 27.235C62.6983 27.1157 62.9173 27.0656 63.1744 27.0905L63.1649 26.5874C62.8315 26.5551 62.5291 26.6196 62.2651 26.7871L62.5103 27.235ZM63.1744 27.0905C63.4323 27.1157 63.7186 27.217 64.0362 27.4058L64.2067 26.9629C63.8459 26.7482 63.4977 26.6196 63.1649 26.5874L63.1744 27.0905ZM64.0362 27.4058C64.3823 27.6115 64.6363 27.8394 64.8106 28.0838L65.1422 27.791C64.9122 27.4684 64.5963 27.1944 64.2067 26.9629L64.0362 27.4058ZM64.8116 28.0852C64.9914 28.3345 65.0939 28.5919 65.1282 28.8616L65.5663 28.8422C65.5185 28.4643 65.3739 28.1122 65.1413 27.7896L64.8116 28.0852ZM65.1284 28.8637C65.1641 29.1304 65.132 29.4039 65.0228 29.6876L65.4314 29.9305C65.5677 29.5766 65.6158 29.2118 65.5661 28.84L65.1284 28.8637ZM65.3123 29.5877L64.2091 28.9318L64.0383 29.3747L65.1417 30.0306L65.3123 29.5877ZM64.328 29.2746C64.3839 29.1294 64.4027 28.9724 64.3818 28.8075L63.9437 28.827C63.9527 28.8977 63.9453 28.9643 63.9194 29.0317L64.328 29.2746ZM64.3818 28.8075C64.3601 28.6355 64.294 28.4773 64.1927 28.3364L63.8626 28.631C63.9115 28.6994 63.9356 28.7634 63.9437 28.827L64.3818 28.8075ZM64.2003 28.3476C64.1021 28.1969 63.9684 28.0785 63.8126 27.9858L63.6421 28.4287C63.7479 28.4915 63.814 28.5575 63.8549 28.6201L64.2003 28.3476ZM63.8126 27.9858C63.6682 27.8999 63.5222 27.8451 63.3783 27.8359L63.3999 28.34C63.4618 28.344 63.5412 28.3689 63.6421 28.4287L63.8126 27.9858ZM63.383 27.8361C63.247 27.824 63.1195 27.8518 63.0075 27.9255L63.2577 28.3699C63.2936 28.3464 63.3369 28.3345 63.3952 28.3397L63.383 27.8361ZM62.9996 27.9308C62.8961 28.0062 62.8198 28.1125 62.7696 28.2422L63.1782 28.4851C63.1999 28.4289 63.2291 28.3912 63.2653 28.3646L62.9996 27.9308ZM62.7696 28.2422C62.7004 28.422 62.6966 28.618 62.7608 28.8163L63.1744 28.6873C63.1516 28.6163 63.1521 28.5532 63.1782 28.4851L62.7696 28.2422ZM62.7608 28.8163C62.8331 29.0407 63.0065 29.2182 63.2085 29.3621L63.413 28.9413C63.2446 28.8213 63.1889 28.7323 63.1744 28.6873L62.7608 28.8163ZM63.2085 29.3621L63.4863 29.5598L63.6911 29.1392L63.413 28.9413L63.2085 29.3621ZM63.4863 29.5598C63.7907 29.7768 64.0345 30.0133 64.2222 30.2674L64.548 29.9666C64.3199 29.6577 64.0326 29.3825 63.6911 29.1392L63.4863 29.5598ZM64.2243 30.27C64.411 30.5169 64.5264 30.7672 64.5797 31.0225L65.0102 30.956C64.9365 30.6023 64.7785 30.2712 64.5461 29.964L64.2243 30.27ZM64.5797 31.0225C64.6303 31.2649 64.6104 31.5206 64.504 31.796L64.9127 32.0389C65.049 31.6855 65.0866 31.3223 65.0102 30.956L64.5797 31.0225ZM64.504 31.796C64.3987 32.0698 64.2453 32.2605 64.0457 32.3801L64.2831 32.8329C64.5666 32.6628 64.7759 32.3941 64.9127 32.0389L64.504 31.796ZM64.0433 32.3815C63.8464 32.5037 63.6069 32.5537 63.3152 32.521L63.3186 33.0236C63.6818 33.0644 64.0072 33.004 64.2855 32.8313L64.0433 32.3815ZM63.3141 32.5207C63.0286 32.4906 62.7035 32.3722 62.3351 32.1533L62.1645 32.5962C62.5724 32.8386 62.9587 32.9854 63.3198 33.0236L63.3141 32.5207Z" fill="black"/>
</g>
</g>
<defs>
<filter id="filter0_d_62_2975" x="5.03613" y="5.2334" width="58.6328" height="56.5331" filterUnits="userSpaceOnUse" color-interpolation-filters="sRGB">
<feFlood flood-opacity="0" result="BackgroundImageFix"/>
<feColorMatrix in="SourceAlpha" type="matrix" values="0 0 0 0 0 0 0 0 0 0 0 0 0 0 0 0 0 0 127 0" result="hardAlpha"/>
<feOffset dy="4"/>
<feGaussianBlur stdDeviation="2"/>
<feComposite in2="hardAlpha" operator="out"/>
<feColorMatrix type="matrix" values="0 0 0 0 0 0 0 0 0 0 0 0 0 0 0 0 0 0 0.25 0"/>
<feBlend mode="normal" in2="BackgroundImageFix" result="effect1_dropShadow_62_2975"/>
<feBlend mode="normal" in="SourceGraphic" in2="effect1_dropShadow_62_2975" result="shape"/>
</filter>
<filter id="filter1_d_62_2975" x="3.0498" y="13.0443" width="24.3799" height="40.3254" filterUnits="userSpaceOnUse" color-interpolation-filters="sRGB">
<feFlood flood-opacity="0" result="BackgroundImageFix"/>
<feColorMatrix in="SourceAlpha" type="matrix" values="0 0 0 0 0 0 0 0 0 0 0 0 0 0 0 0 0 0 127 0" result="hardAlpha"/>
<feOffset dy="4"/>
<feGaussianBlur stdDeviation="2"/>
<feComposite in2="hardAlpha" operator="out"/>
<feColorMatrix type="matrix" values="0 0 0 0 0 0 0 0 0 0 0 0 0 0 0 0 0 0 0.25 0"/>
<feBlend mode="normal" in2="BackgroundImageFix" result="effect1_dropShadow_62_2975"/>
<feBlend mode="normal" in="SourceGraphic" in2="effect1_dropShadow_62_2975" result="shape"/>
</filter>
<filter id="filter2_d_62_2975" x="28.6855" y="30.4159" width="35.1816" height="32.349" filterUnits="userSpaceOnUse" color-interpolation-filters="sRGB">
<feFlood flood-opacity="0" result="BackgroundImageFix"/>
<feColorMatrix in="SourceAlpha" type="matrix" values="0 0 0 0 0 0 0 0 0 0 0 0 0 0 0 0 0 0 127 0" result="hardAlpha"/>
<feOffset dy="4"/>
<feGaussianBlur stdDeviation="2"/>
<feComposite in2="hardAlpha" operator="out"/>
<feColorMatrix type="matrix" values="0 0 0 0 0 0 0 0 0 0 0 0 0 0 0 0 0 0 0.25 0"/>
<feBlend mode="normal" in2="BackgroundImageFix" result="effect1_dropShadow_62_2975"/>
<feBlend mode="normal" in="SourceGraphic" in2="effect1_dropShadow_62_2975" result="shape"/>
</filter>
<filter id="filter3_d_62_2975" x="23.2422" y="4.65173" width="37.4648" height="32.7939" filterUnits="userSpaceOnUse" color-interpolation-filters="sRGB">
<feFlood flood-opacity="0" result="BackgroundImageFix"/>
<feColorMatrix in="SourceAlpha" type="matrix" values="0 0 0 0 0 0 0 0 0 0 0 0 0 0 0 0 0 0 127 0" result="hardAlpha"/>
<feOffset dy="4"/>
<feGaussianBlur stdDeviation="2"/>
<feComposite in2="hardAlpha" operator="out"/>
<feColorMatrix type="matrix" values="0 0 0 0 0 0 0 0 0 0 0 0 0 0 0 0 0 0 0.25 0"/>
<feBlend mode="normal" in2="BackgroundImageFix" result="effect1_dropShadow_62_2975"/>
<feBlend mode="normal" in="SourceGraphic" in2="effect1_dropShadow_62_2975" result="shape"/>
</filter>
<filter id="filter4_d_62_2975" x="0.847656" y="17.0642" width="68.7373" height="24.0371" filterUnits="userSpaceOnUse" color-interpolation-filters="sRGB">
<feFlood flood-opacity="0" result="BackgroundImageFix"/>
<feColorMatrix in="SourceAlpha" type="matrix" values="0 0 0 0 0 0 0 0 0 0 0 0 0 0 0 0 0 0 127 0" result="hardAlpha"/>
<feOffset dy="4"/>
<feGaussianBlur stdDeviation="2"/>
<feComposite in2="hardAlpha" operator="out"/>
<feColorMatrix type="matrix" values="0 0 0 0 0 0 0 0 0 0 0 0 0 0 0 0 0 0 0.25 0"/>
<feBlend mode="normal" in2="BackgroundImageFix" result="effect1_dropShadow_62_2975"/>
<feBlend mode="normal" in="SourceGraphic" in2="effect1_dropShadow_62_2975" result="shape"/>
</filter>
<linearGradient id="paint0_linear_62_2975" x1="26.8807" y1="7.85738" x2="41.7536" y2="51.167" gradientUnits="userSpaceOnUse">
<stop stop-color="#5EB1FF"/>
<stop offset="0.626667" stop-color="#4D91F0"/>
<stop offset="1" stop-color="#03316A"/>
</linearGradient>
<linearGradient id="paint1_linear_62_2975" x1="23.2408" y1="18.2659" x2="23.2408" y2="49.8162" gradientUnits="userSpaceOnUse">
<stop offset="0.786667" stop-color="#D6D91B"/>
<stop offset="1" stop-color="#72730E"/>
</linearGradient>
<linearGradient id="paint2_linear_62_2975" x1="47.2641" y1="8.77708" x2="47.2641" y2="42.581" gradientUnits="userSpaceOnUse">
<stop offset="0.591667" stop-color="#D6D91B"/>
<stop offset="1" stop-color="#72730E"/>
</linearGradient>
</defs>
</svg>
