<svg width="23" height="22" viewBox="0 0 23 22" fill="none" xmlns="http://www.w3.org/2000/svg">
<path d="M2.94444 22C2.27222 22 1.69676 21.7606 1.21806 21.2819C0.739352 20.8032 0.5 20.2278 0.5 19.5556V2.44444C0.5 1.77222 0.739352 1.19676 1.21806 0.718056C1.69676 0.239352 2.27222 0 2.94444 0H20.0556C20.7278 0 21.3032 0.239352 21.7819 0.718056C22.2606 1.19676 22.5 1.77222 22.5 2.44444V19.5556C22.5 20.2278 22.2606 20.8032 21.7819 21.2819C21.3032 21.7606 20.7278 22 20.0556 22H2.94444ZM2.94444 19.5556H20.0556V15.8889H16.3889C15.7778 16.663 15.0495 17.2639 14.2042 17.6917C13.3588 18.1194 12.4574 18.3333 11.5 18.3333C10.5426 18.3333 9.6412 18.1194 8.79583 17.6917C7.95046 17.2639 7.22222 16.663 6.61111 15.8889H2.94444V19.5556ZM11.5 15.8889C12.2741 15.8889 12.9769 15.6648 13.6083 15.2167C14.2398 14.7685 14.6778 14.1778 14.9222 13.4444H20.0556V2.44444H2.94444V13.4444H8.07778C8.32222 14.1778 8.76019 14.7685 9.39167 15.2167C10.0231 15.6648 10.7259 15.8889 11.5 15.8889ZM11.5 13.4444L6.61111 8.55556L8.32222 6.78333L10.2778 8.73889V3.66667H12.7222V8.73889L14.6778 6.78333L16.3889 8.55556L11.5 13.4444Z" fill="black"/>
</svg>
