<svg width="37" height="18" viewBox="0 0 37 18" fill="none" xmlns="http://www.w3.org/2000/svg">
<path d="M0.5 18V15.6375C0.5 14.5625 1.05 13.6875 2.15 13.0125C3.25 12.3375 4.7 12 6.5 12C6.825 12 7.1375 12.0063 7.4375 12.0188C7.7375 12.0313 8.025 12.0625 8.3 12.1125C7.95 12.6375 7.6875 13.1875 7.5125 13.7625C7.3375 14.3375 7.25 14.9375 7.25 15.5625V18H0.5ZM9.5 18V15.5625C9.5 14.7625 9.71875 14.0313 10.1562 13.3688C10.5938 12.7063 11.2125 12.125 12.0125 11.625C12.8125 11.125 13.7688 10.75 14.8813 10.5C15.9938 10.25 17.2 10.125 18.5 10.125C19.825 10.125 21.0438 10.25 22.1562 10.5C23.2688 10.75 24.225 11.125 25.025 11.625C25.825 12.125 26.4375 12.7063 26.8625 13.3688C27.2875 14.0313 27.5 14.7625 27.5 15.5625V18H9.5ZM29.75 18V15.5625C29.75 14.9125 29.6688 14.3 29.5063 13.725C29.3438 13.15 29.1 12.6125 28.775 12.1125C29.05 12.0625 29.3313 12.0313 29.6188 12.0188C29.9063 12.0063 30.2 12 30.5 12C32.3 12 33.75 12.3313 34.85 12.9938C35.95 13.6563 36.5 14.5375 36.5 15.6375V18H29.75ZM12.6875 15H24.35C24.1 14.5 23.4062 14.0625 22.2688 13.6875C21.1313 13.3125 19.875 13.125 18.5 13.125C17.125 13.125 15.8688 13.3125 14.7313 13.6875C13.5938 14.0625 12.9125 14.5 12.6875 15ZM6.5 10.5C5.675 10.5 4.96875 10.2063 4.38125 9.61875C3.79375 9.03125 3.5 8.325 3.5 7.5C3.5 6.65 3.79375 5.9375 4.38125 5.3625C4.96875 4.7875 5.675 4.5 6.5 4.5C7.35 4.5 8.0625 4.7875 8.6375 5.3625C9.2125 5.9375 9.5 6.65 9.5 7.5C9.5 8.325 9.2125 9.03125 8.6375 9.61875C8.0625 10.2063 7.35 10.5 6.5 10.5ZM30.5 10.5C29.675 10.5 28.9688 10.2063 28.3813 9.61875C27.7938 9.03125 27.5 8.325 27.5 7.5C27.5 6.65 27.7938 5.9375 28.3813 5.3625C28.9688 4.7875 29.675 4.5 30.5 4.5C31.35 4.5 32.0625 4.7875 32.6375 5.3625C33.2125 5.9375 33.5 6.65 33.5 7.5C33.5 8.325 33.2125 9.03125 32.6375 9.61875C32.0625 10.2063 31.35 10.5 30.5 10.5ZM18.5 9C17.25 9 16.1875 8.5625 15.3125 7.6875C14.4375 6.8125 14 5.75 14 4.5C14 3.225 14.4375 2.15625 15.3125 1.29375C16.1875 0.43125 17.25 0 18.5 0C19.775 0 20.8438 0.43125 21.7063 1.29375C22.5688 2.15625 23 3.225 23 4.5C23 5.75 22.5688 6.8125 21.7063 7.6875C20.8438 8.5625 19.775 9 18.5 9ZM18.5 6C18.925 6 19.2812 5.85625 19.5688 5.56875C19.8563 5.28125 20 4.925 20 4.5C20 4.075 19.8563 3.71875 19.5688 3.43125C19.2812 3.14375 18.925 3 18.5 3C18.075 3 17.7188 3.14375 17.4313 3.43125C17.1438 3.71875 17 4.075 17 4.5C17 4.925 17.1438 5.28125 17.4313 5.56875C17.7188 5.85625 18.075 6 18.5 6Z" fill="black"/>
</svg>
