<svg width="23" height="24" viewBox="0 0 23 24" fill="none" xmlns="http://www.w3.org/2000/svg">
<path d="M10.375 17.625H12.625V13.125H17.125V10.875H12.625V6.375H10.375V10.875H5.875V13.125H10.375V17.625ZM11.5 23.25C9.94375 23.25 8.48125 22.9547 7.1125 22.3641C5.74375 21.7734 4.55312 20.9719 3.54062 19.9594C2.52813 18.9469 1.72656 17.7563 1.13594 16.3875C0.545312 15.0187 0.25 13.5562 0.25 12C0.25 10.4437 0.545312 8.98125 1.13594 7.6125C1.72656 6.24375 2.52813 5.05312 3.54062 4.04062C4.55312 3.02813 5.74375 2.22656 7.1125 1.63594C8.48125 1.04531 9.94375 0.75 11.5 0.75C13.0562 0.75 14.5187 1.04531 15.8875 1.63594C17.2563 2.22656 18.4469 3.02813 19.4594 4.04062C20.4719 5.05312 21.2734 6.24375 21.8641 7.6125C22.4547 8.98125 22.75 10.4437 22.75 12C22.75 13.5562 22.4547 15.0187 21.8641 16.3875C21.2734 17.7563 20.4719 18.9469 19.4594 19.9594C18.4469 20.9719 17.2563 21.7734 15.8875 22.3641C14.5187 22.9547 13.0562 23.25 11.5 23.25ZM11.5 21C14.0125 21 16.1406 20.1281 17.8844 18.3844C19.6281 16.6406 20.5 14.5125 20.5 12C20.5 9.4875 19.6281 7.35938 17.8844 5.61562C16.1406 3.87187 14.0125 3 11.5 3C8.9875 3 6.85938 3.87187 5.11562 5.61562C3.37187 7.35938 2.5 9.4875 2.5 12C2.5 14.5125 3.37187 16.6406 5.11562 18.3844C6.85938 20.1281 8.9875 21 11.5 21Z" fill="black"/>
</svg>
