<svg width="30" height="30" viewBox="0 0 30 30" fill="none" xmlns="http://www.w3.org/2000/svg">
<path d="M13.5 7.5L16.5 7.5V13.5H22.5L22.5 16.5L16.5 16.5V22.5H13.5V16.5H7.5V13.5H13.5L13.5 7.5ZM15 -1.90735e-06C12.925 -1.90735e-06 10.975 0.393749 9.15 1.18125C7.325 1.96875 5.7375 3.0375 4.3875 4.3875C3.0375 5.7375 1.96875 7.325 1.18125 9.15C0.39375 10.975 0 12.925 0 15C0 17.075 0.39375 19.025 1.18125 20.85C1.96875 22.675 3.0375 24.2625 4.3875 25.6125C5.7375 26.9625 7.325 28.0312 9.15 28.8187C10.975 29.6062 12.925 30 15 30C17.075 30 19.025 29.6062 20.85 28.8187C22.675 28.0312 24.2625 26.9625 25.6125 25.6125C26.9625 24.2625 28.0313 22.675 28.8188 20.85C29.6063 19.025 30 17.075 30 15C30 12.925 29.6063 10.975 28.8188 9.15C28.0313 7.325 26.9625 5.7375 25.6125 4.3875C24.2625 3.0375 22.675 1.96875 20.85 1.18125C19.025 0.393749 17.075 -1.90735e-06 15 -1.90735e-06Z" fill="black"/>
</svg>
