<svg width="19" height="19" viewBox="0 0 19 19" fill="none" xmlns="http://www.w3.org/2000/svg">
<path d="M3.2 18.5C2.705 18.5 2.28125 18.3238 1.92875 17.9713C1.57625 17.6188 1.4 17.195 1.4 16.7V6.5525C1.13 6.3875 0.9125 6.17375 0.7475 5.91125C0.5825 5.64875 0.5 5.345 0.5 5V2.3C0.5 1.805 0.67625 1.38125 1.02875 1.02875C1.38125 0.67625 1.805 0.5 2.3 0.5H16.7C17.195 0.5 17.6188 0.67625 17.9713 1.02875C18.3238 1.38125 18.5 1.805 18.5 2.3V5C18.5 5.345 18.4175 5.64875 18.2525 5.91125C18.0875 6.17375 17.87 6.3875 17.6 6.5525V16.7C17.6 17.195 17.4237 17.6188 17.0713 17.9713C16.7188 18.3238 16.295 18.5 15.8 18.5H3.2ZM3.2 6.8V16.7H15.8V6.8H3.2ZM2.3 5H16.7V2.3H2.3V5ZM6.8 11.3H12.2V9.5H6.8V11.3Z" fill="black"/>
</svg>
