<svg width="267" height="252" viewBox="0 0 267 252" fill="none" xmlns="http://www.w3.org/2000/svg">
<g filter="url(#filter0_d_360_11722)">
<path d="M161.43 217.74C215.23 199.264 244.602 143.033 227.032 92.1435C209.463 41.2541 151.606 14.9777 97.8052 33.4533C44.0046 51.9289 14.6335 108.16 32.2029 159.05C49.7724 209.939 107.629 236.215 161.43 217.74Z" fill="url(#paint0_linear_360_11722)"/>
<path d="M161.755 218.694C216.036 200.054 245.753 143.278 227.985 91.8145C210.217 40.3508 151.752 13.8575 97.4712 32.4981C43.1903 51.1387 13.4735 107.914 31.2413 159.378C49.0091 210.842 107.474 237.335 161.755 218.694Z" stroke="black" stroke-width="2"/>
</g>
<path d="M95.9768 209.063V208.439L95.417 208.16L90.4354 205.676L86.8628 203.003V185.448L90.3537 183.707L90.6557 183.556L90.8066 183.255L95.59 173.714H99.0148H99.6647L99.9355 173.125L105.505 161.006L105.597 160.805V160.585V156.127L117.738 149.346L118.256 149.057V148.465V138.043L119.692 134.225L127.262 119.123L127.48 118.688L127.276 118.248L124.238 111.683L124.119 111.425L123.881 111.266L116.286 106.216L116.031 106.047H115.724H103.632L99.9105 100.016L97.4051 94.5189L97.2605 94.2016L96.9504 94.0408L71.6338 80.9112L71.5627 80.8744L71.4867 80.8492L59.3347 76.8094L59.1789 76.7574H59.0145H55.9765H55.6213L55.3439 76.9788L42.6856 87.0785L42.3055 87.3817V87.8671V96.1901L37.3696 105.051L37.2422 105.28V105.542V115.136V115.401L37.3722 115.631L46.4862 131.791L46.5443 131.894L46.6247 131.98L52.6099 138.447L58.113 148.926L60.0272 152.743V178.259V178.374L60.0531 178.486L61.5721 185.051L61.6583 185.424L61.9703 185.646L65.0905 187.869V196.944V197.312L65.3286 197.594L73.4299 207.189L73.7334 207.548H74.2045H78.2459L81.9932 212.687L82.2965 213.103H82.8122H94.9642H95.9768V212.093V209.063Z" fill="url(#paint1_linear_360_11722)" stroke="black" stroke-width="2"/>
<g filter="url(#filter1_d_360_11722)">
<path d="M27.1191 73.2223L40.7901 81.302L31.6761 99.9864L27.1191 116.146V132.81L30.1571 151.495L36.7395 170.179L41.8028 179.774L46.8661 187.349L43.3218 168.664V151.495L45.3471 136.85L48.3851 125.236L52.4358 113.116L55.9801 106.046L60.5371 99.9864L76.7398 110.086L71.6765 62.1127L27.1191 73.2223Z" fill="#34F741"/>
<path d="M26.8688 72.2426L24.4785 72.8386L26.5981 74.0912L39.4668 81.6968L30.7608 99.5447L30.7211 99.626L30.6966 99.7131L26.1396 115.872L26.1017 116.007V116.146V132.81V132.891L26.1148 132.972L29.1528 151.656L29.1672 151.745L29.1969 151.829L35.7793 170.513L35.804 170.584L35.8386 170.65L40.9019 180.245L40.9263 180.291L40.9555 180.334L46.0188 187.909L47.8564 187.161L44.3297 168.569V151.565L46.3374 137.047L49.3517 125.524L53.369 113.504L56.8403 106.58L60.7844 101.335L76.1983 110.943L77.9595 112.04L77.7421 109.98L72.6788 62.0071L72.5568 60.8511L71.4261 61.133L26.8688 72.2426Z" stroke="black" stroke-width="2"/>
</g>
<path d="M189.743 181.707L190.012 182.299H190.665H205.348H205.794L206.095 181.972L217.234 169.852L217.402 169.67L217.466 169.43L221.473 154.445L230.996 140.447L231.239 140.091L231.149 139.669L228.22 126.041L233.941 119.861L234.239 119.539L234.206 119.102L233.194 105.467L233.183 105.334L233.14 105.208L226.051 85.0088L226.033 84.9584L226.011 84.9101L221.454 75.3154L221.407 75.2176L221.341 75.1319L211.215 62.0023L211.185 61.9653L211.154 61.9309L204.572 54.8612L204.52 54.8064L204.462 54.7598L196.867 48.7L196.341 48.2802L195.749 48.6019L190.55 51.43L181.29 48.6594L177.93 40.5193L177.765 40.1194L177.36 39.9626L168.246 36.4277L167.92 36.301L167.585 36.4028L155.939 39.9377L155.857 39.9625L155.781 40.0005L143.629 46.0603L143.361 46.1939L143.209 46.4516L138.257 54.8469L133.374 58.2559L133.206 58.3737L133.097 58.548L128.033 66.6277L127.935 66.7841L127.899 66.9649L125.367 79.5895L125.348 79.6875V79.7875V89.3822V89.5821L125.424 89.7668L128.968 98.3515L129.064 98.5827L129.257 98.7429L138.371 106.317L138.581 106.493L138.853 106.538L151.005 108.558L151.183 108.588L151.36 108.553L161.586 106.611L169.905 112.142V120.691V121.164L170.27 121.467L175.981 126.214V154.02V154.288L176.115 154.521L182.167 165.085L189.743 181.707Z" fill="url(#paint2_linear_360_11722)" stroke="black" stroke-width="2"/>
<g filter="url(#filter2_d_360_11722)">
<path d="M180.537 227.243L178.005 211.083L194.208 201.489L208.385 189.874L219.525 177.25L226.107 165.13L228.639 159.07L230.664 153.01L231.677 146.951L232.689 134.831L225.094 154.525L209.904 172.705L200.284 178.259L191.676 180.784L180.537 183.814L167.879 185.329L159.777 166.451L145.094 191.816L130.41 217.181L155.22 224.718L180.537 227.243Z" fill="#34F741"/>
<path d="M180.434 228.247L181.739 228.378L181.536 227.087L179.11 211.602L194.723 202.357L194.79 202.318L194.849 202.269L209.027 190.654L209.09 190.602L209.144 190.541L220.284 177.917L220.359 177.831L220.413 177.73L226.996 165.61L227.02 165.565L227.04 165.518L229.572 159.459L229.586 159.424L229.598 159.389L231.623 153.329L231.648 153.254L231.661 153.176L232.674 147.116L232.681 147.075L232.684 147.034L233.696 134.914L231.743 134.468L224.208 154.007L209.239 171.92L199.88 177.324L191.398 179.812L180.341 182.82L168.51 184.236L160.706 166.053L159.91 164.197L158.899 165.946L144.215 191.311L129.531 216.675L128.895 217.776L130.114 218.147L154.924 225.684L155.019 225.712L155.118 225.722L180.434 228.247Z" stroke="black" stroke-width="2"/>
</g>
<g filter="url(#filter3_d_360_11722)">
<path d="M216.342 63.5657L195.149 68.8053L183.375 49.9369L171.419 38.456L157.245 29.794L139.923 25.8208L130.423 25.089L121.26 25.8541L104.08 28.7841L121.255 28.848L132.597 31.3846L144.08 37.8737L154.207 45.9535L160.789 60.598L164.84 75.7475L147.544 83.1545L196.233 117.156L216.342 63.5657Z" fill="#34F741"/>
<path d="M217.294 63.9195L217.968 62.124L216.102 62.5853L195.623 67.6481L184.238 49.4031L184.172 49.2964L184.081 49.2092L172.124 37.7283L172.045 37.6522L171.951 37.5948L157.777 28.9328L157.636 28.8467L157.475 28.8097L140.153 24.8364L140.079 24.8195L140.005 24.8137L130.504 24.0819L130.422 24.0757L130.341 24.0825L121.179 24.8476L121.136 24.8512L121.093 24.8585L103.912 27.7884L104.079 29.7939L121.145 29.8574L132.231 32.3372L143.514 38.7126L153.386 46.5894L159.835 60.9368L163.639 75.1639L147.147 82.2263L145.476 82.9416L146.966 83.9816L195.655 117.983L196.726 118.732L197.184 117.51L217.294 63.9195Z" stroke="black" stroke-width="2"/>
</g>
<g filter="url(#filter4_d_360_11722)">
<path d="M12.9208 139.482L5.23633 118.734L12.0372 114.847L20.044 123.53L20.5712 123.229L20.4461 110.042L27.3787 106.081L35.0632 126.829L30.213 129.6L23.6548 111.893L24.4403 111.514L24.4743 127.817L20.0195 130.363L10.0478 119.738L10.8438 119.214L17.4021 136.921L12.9208 139.482Z" fill="white"/>
<mask id="mask0_360_11722" style="mask-type:luminance" maskUnits="userSpaceOnUse" x="3" y="104" width="34" height="38">
<path d="M36.8014 104.246H3.77734V141.042H36.8014V104.246Z" fill="white"/>
<path d="M12.9208 139.482L5.23633 118.734L12.0372 114.847L20.044 123.53L20.5712 123.229L20.4461 110.042L27.3787 106.081L35.0632 126.829L30.213 129.6L23.6548 111.893L24.4403 111.514L24.4743 127.817L20.0195 130.363L10.0478 119.738L10.8438 119.214L17.4021 136.921L12.9208 139.482Z" fill="black"/>
</mask>
<g mask="url(#mask0_360_11722)">
<path d="M12.9141 139.482L12.0355 139.984L12.3864 140.931L13.2649 140.429L12.9141 139.482ZM5.22956 118.734L4.87866 117.787L4 118.288L4.35089 119.236L5.22956 118.734ZM12.0304 114.848L12.7218 114.036L12.2802 113.557L11.6795 113.9L12.0304 114.848ZM20.0373 123.53L19.3459 124.342L19.7874 124.821L20.3881 124.478L20.0373 123.53ZM20.5645 123.229L20.9153 124.177L21.5175 123.832L21.5105 123.103L20.5645 123.229ZM20.4393 110.042L20.0884 109.095L19.4863 109.439L19.4932 110.168L20.4393 110.042ZM27.3719 106.081L28.2506 105.579L27.8997 104.632L27.021 105.134L27.3719 106.081ZM35.0564 126.829L35.4073 127.776L36.286 127.274L35.9351 126.327L35.0564 126.829ZM30.2063 129.6L29.3276 130.102L29.6784 131.049L30.5571 130.547L30.2063 129.6ZM23.648 111.893L23.3584 110.914L22.3934 111.38L22.7694 112.395L23.648 111.893ZM24.4335 111.514L25.3797 111.396L25.3766 109.938L24.1439 110.534L24.4335 111.514ZM24.4676 127.817L24.8185 128.765L25.4152 128.423L25.4137 127.7L24.4676 127.817ZM20.0128 130.363L19.3265 131.181L19.768 131.65L20.3636 131.31L20.0128 130.363ZM10.041 119.738L9.63423 118.825L8.45748 119.599L9.35479 120.555L10.041 119.738ZM10.8371 119.214L11.7158 118.712L11.3415 117.702L10.4304 118.301L10.8371 119.214ZM17.3953 136.921L17.7462 137.869L18.6249 137.366L18.2739 136.418L17.3953 136.921ZM13.7927 138.98L6.10822 118.231L4.35089 119.236L12.0355 139.984L13.7927 138.98ZM5.58045 119.681L12.3813 115.795L11.6795 113.9L4.87866 117.787L5.58045 119.681ZM11.3391 115.66L19.3459 124.342L20.7286 122.718L12.7218 114.036L11.3391 115.66ZM20.3881 124.478L20.9153 124.177L20.2136 122.282L19.6864 122.583L20.3881 124.478ZM21.5105 123.103L21.3853 109.916L19.4932 110.168L19.6183 123.355L21.5105 123.103ZM20.7902 110.989L27.7228 107.028L27.021 105.134L20.0884 109.095L20.7902 110.989ZM26.4932 106.583L34.1778 127.331L35.9351 126.327L28.2506 105.579L26.4932 106.583ZM34.7055 125.881L29.8554 128.653L30.5571 130.547L35.4073 127.776L34.7055 125.881ZM31.0848 129.098L24.5267 111.391L22.7694 112.395L29.3276 130.102L31.0848 129.098ZM23.9376 112.873L24.7232 112.493L24.1439 110.534L23.3584 110.914L23.9376 112.873ZM23.4874 111.631L23.5214 127.935L25.4137 127.7L25.3797 111.396L23.4874 111.631ZM24.1167 126.87L19.6619 129.415L20.3636 131.31L24.8185 128.765L24.1167 126.87ZM20.6989 129.546L10.7272 118.921L9.35479 120.555L19.3265 131.181L20.6989 129.546ZM10.4477 120.651L11.2439 120.127L10.4304 118.301L9.63423 118.825L10.4477 120.651ZM9.95849 119.717L16.5166 137.423L18.2739 136.418L11.7158 118.712L9.95849 119.717ZM17.0444 135.973L12.5632 138.534L13.2649 140.429L17.7462 137.869L17.0444 135.973Z" fill="black"/>
</g>
<path d="M37.8458 125.663L36.1211 119.915L41.5221 117.416L43.2467 123.162L37.8458 125.663Z" fill="white"/>
<mask id="mask1_360_11722" style="mask-type:luminance" maskUnits="userSpaceOnUse" x="34" y="115" width="12" height="13">
<path d="M45.2907 115.573H34.7012V127.141H45.2907V115.573Z" fill="white"/>
<path d="M37.8458 125.663L36.1211 119.915L41.5221 117.416L43.2467 123.162L37.8458 125.663Z" fill="black"/>
</mask>
<g mask="url(#mask1_360_11722)">
<path d="M37.8378 125.663L36.9193 126.088L37.2096 127.056L38.1281 126.631L37.8378 125.663ZM36.1131 119.915L35.8228 118.948L34.9043 119.373L35.1946 120.34L36.1131 119.915ZM41.5141 117.416L42.4326 116.989L42.1422 116.022L41.2237 116.448L41.5141 117.416ZM43.2387 123.162L43.5291 124.13L44.4476 123.705L44.1572 122.737L43.2387 123.162ZM38.7564 125.238L37.0317 119.49L35.1946 120.34L36.9193 126.088L38.7564 125.238ZM36.4034 120.883L41.8044 118.383L41.2237 116.448L35.8228 118.948L36.4034 120.883ZM40.5956 117.841L42.3203 123.588L44.1572 122.737L42.4326 116.989L40.5956 117.841ZM42.9484 122.195L37.5475 124.695L38.1281 126.631L43.5291 124.13L42.9484 122.195Z" fill="black"/>
</g>
<path d="M59.1303 117.199C57.2509 117.895 55.5569 118.16 54.0486 117.991C52.5355 117.803 51.2102 117.322 50.0726 116.545C48.9303 115.749 47.9946 114.78 47.2655 113.638C46.5364 112.497 46.0256 111.317 45.7329 110.099L45.5773 109.451C45.2516 108.096 45.142 106.692 45.2482 105.241C45.3687 103.763 45.7381 102.332 46.3566 100.947C46.9941 99.5559 47.9018 98.2996 49.0797 97.1785C50.2576 96.0573 51.7389 95.166 53.5235 94.5047C55.4219 93.8011 57.1918 93.5515 58.8329 93.7562C60.4883 93.9342 61.9225 94.5256 63.1357 95.5307C64.3442 96.516 65.2344 97.8547 65.8062 99.5467L60.5095 101.51C60.1973 100.813 59.7568 100.27 59.188 99.8819C58.6192 99.4936 57.9578 99.2789 57.2035 99.2375C56.4445 99.1766 55.6284 99.3079 54.7551 99.6316C53.9388 99.9342 53.2338 100.356 52.64 100.897C52.0654 101.431 51.6162 102.057 51.2928 102.776C50.9835 103.468 50.7975 104.243 50.7347 105.1C50.691 105.952 50.7847 106.857 51.0159 107.82C51.2471 108.782 51.5686 109.605 51.9806 110.286C52.4114 110.961 52.9207 111.489 53.5084 111.87C54.1152 112.245 54.7862 112.456 55.5215 112.504C56.252 112.532 57.0444 112.389 57.8987 112.072C59.2276 111.579 60.2675 110.831 61.0183 109.825C61.7882 108.812 62.1335 107.711 62.0544 106.521L67.3511 104.558C67.5673 106.231 67.399 107.899 66.8466 109.558C66.2942 111.218 65.3743 112.724 64.087 114.079C62.795 115.413 61.1428 116.453 59.1303 117.199Z" fill="white"/>
<mask id="mask2_360_11722" style="mask-type:luminance" maskUnits="userSpaceOnUse" x="41" y="88" width="31" height="35">
<path d="M71.3831 88.6221H41.5176V122.954H71.3831V88.6221Z" fill="white"/>
<path d="M59.1303 117.199C57.2509 117.895 55.5569 118.16 54.0486 117.991C52.5355 117.803 51.2102 117.322 50.0726 116.545C48.9303 115.749 47.9946 114.78 47.2655 113.638C46.5364 112.497 46.0256 111.317 45.7329 110.099L45.5773 109.451C45.2516 108.096 45.142 106.692 45.2482 105.241C45.3687 103.763 45.7381 102.332 46.3566 100.947C46.9941 99.5559 47.9018 98.2996 49.0797 97.1785C50.2576 96.0573 51.7389 95.166 53.5235 94.5047C55.4219 93.8011 57.1918 93.5515 58.8329 93.7562C60.4883 93.9342 61.9225 94.5256 63.1357 95.5307C64.3442 96.516 65.2344 97.8547 65.8062 99.5467L60.5095 101.51C60.1973 100.813 59.7568 100.27 59.188 99.8819C58.6192 99.4936 57.9578 99.2789 57.2035 99.2375C56.4445 99.1766 55.6284 99.3079 54.7551 99.6316C53.9388 99.9342 53.2338 100.356 52.64 100.897C52.0654 101.431 51.6162 102.057 51.2928 102.776C50.9835 103.468 50.7975 104.243 50.7347 105.1C50.691 105.952 50.7847 106.857 51.0159 107.82C51.2471 108.782 51.5686 109.605 51.9806 110.286C52.4114 110.961 52.9207 111.489 53.5084 111.87C54.1152 112.245 54.7862 112.456 55.5215 112.504C56.252 112.532 57.0444 112.389 57.8987 112.072C59.2276 111.579 60.2675 110.831 61.0183 109.825C61.7882 108.812 62.1335 107.711 62.0544 106.521L67.3511 104.558C67.5673 106.231 67.399 107.899 66.8466 109.558C66.2942 111.218 65.3743 112.724 64.087 114.079C62.795 115.413 61.1428 116.453 59.1303 117.199Z" fill="black"/>
</mask>
<g mask="url(#mask2_360_11722)">
<path d="M54.056 117.991L53.8479 119.027L53.8588 119.029L54.056 117.991ZM50.08 116.545L49.4894 117.436L49.4963 117.44L50.08 116.545ZM45.2556 105.24L44.2811 105.254L44.2805 105.264L45.2556 105.24ZM46.3641 100.947L45.4931 100.567L45.4884 100.578L46.3641 100.947ZM58.8403 93.756L58.6318 94.7924L58.6392 94.7933L58.6467 94.7941L58.8403 93.756ZM63.1431 95.5305L62.4964 96.3784L62.5016 96.3825L63.1431 95.5305ZM65.8136 99.5465L66.0496 100.529L67.088 100.144L66.738 99.1082L65.8136 99.5465ZM60.5169 101.509L59.6261 102.034L59.9625 102.785L60.7528 102.492L60.5169 101.509ZM57.2109 99.2373L57.041 100.278L57.0522 100.279L57.0636 100.279L57.2109 99.2373ZM52.6474 100.896L52.0567 100.132L52.0485 100.14L52.6474 100.896ZM51.3002 102.776L50.4259 102.403L50.4245 102.406L51.3002 102.776ZM50.7421 105.1L49.767 105.123L49.7661 105.135L49.7655 105.147L50.7421 105.1ZM51.988 110.286L51.1501 110.911L51.156 110.921L51.1621 110.93L51.988 110.286ZM53.5158 111.87L52.9487 112.777L52.9567 112.782L52.9649 112.787L53.5158 111.87ZM55.5289 112.504L55.3718 113.545H55.3836L55.3954 113.546L55.5289 112.504ZM61.0257 109.825L60.2908 109.219L60.2846 109.227L61.0257 109.825ZM62.0618 106.521L61.8259 105.538L61.0287 105.834L61.0861 106.698L62.0618 106.521ZM67.3586 104.558L68.3279 104.315L68.1817 103.183L67.1226 103.575L67.3586 104.558ZM64.0944 114.079L64.7376 114.792L64.745 114.783L64.0944 114.079ZM58.9019 116.217C57.1287 116.874 55.5863 117.102 54.2531 116.953L53.8588 119.029C55.5424 119.217 57.3878 118.917 59.3737 118.181L58.9019 116.217ZM54.2641 116.955C52.8743 116.782 51.6797 116.343 50.6637 115.649L49.4963 117.44C50.7555 118.299 52.2116 118.824 53.8479 119.027L54.2641 116.955ZM50.6705 115.654C49.6164 114.92 48.7622 114.032 48.0989 112.994L46.447 114.283C47.2419 115.527 48.259 116.578 49.4894 117.436L50.6705 115.654ZM48.0989 112.994C47.4193 111.929 46.9539 110.848 46.6896 109.747L44.7912 110.451C45.112 111.786 45.6684 113.063 46.447 114.283L48.0989 112.994ZM46.6896 109.747L46.5339 109.098L44.6354 109.802L44.7912 110.451L46.6896 109.747ZM46.5339 109.098C46.2339 107.85 46.1327 106.557 46.2307 105.217L44.2805 105.264C44.1661 106.826 44.2842 108.341 44.6354 109.802L46.5339 109.098ZM46.23 105.227C46.3399 103.88 46.6758 102.578 47.2396 101.317L45.4884 100.578C44.8154 102.084 44.4122 103.646 44.2811 105.254L46.23 105.227ZM47.235 101.327C47.8043 100.084 48.6192 98.9505 49.6963 97.9252L48.4779 96.4313C47.1992 97.6483 46.1987 99.0276 45.4931 100.567L47.235 101.327ZM49.6963 97.9252C50.7429 96.9291 52.089 96.1085 53.7669 95.4865L53.2949 93.5223C51.4036 94.2232 49.7871 95.1852 48.4779 96.4313L49.6963 97.9252ZM53.7669 95.4865C55.5435 94.8281 57.1597 94.6088 58.6318 94.7924L59.0488 92.7194C57.2387 92.4937 55.3151 92.7735 53.2949 93.5223L53.7669 95.4865ZM58.6467 94.7941C60.1417 94.9548 61.4177 95.4847 62.4964 96.3784L63.7899 94.6826C62.4422 93.5661 60.8497 92.913 59.0339 92.7177L58.6467 94.7941ZM62.5016 96.3825C63.5692 97.253 64.3682 98.4429 64.8894 99.9848L66.738 99.1082C66.1154 97.2662 65.1341 95.7787 63.7848 94.6784L62.5016 96.3825ZM65.5777 98.5643L60.2809 100.528L60.7528 102.492L66.0496 100.529L65.5777 98.5643ZM61.4077 100.985C61.0317 100.146 60.4897 99.4713 59.7792 98.9863L58.6116 100.777C59.0387 101.068 59.3776 101.479 59.6261 102.034L61.4077 100.985ZM59.7792 98.9863C59.0723 98.5039 58.2582 98.2447 57.3582 98.1954L57.0636 100.279C57.672 100.313 58.181 100.483 58.6116 100.777L59.7792 98.9863ZM57.3808 98.1969C56.4663 98.1235 55.5107 98.2845 54.5266 98.6492L54.9985 100.614C55.761 100.331 56.4376 100.229 57.041 100.278L57.3808 98.1969ZM54.5266 98.6492C53.5982 98.9933 52.7688 99.4836 52.0567 100.132L53.2382 101.661C53.7136 101.228 54.294 100.874 54.9985 100.614L54.5266 98.6492ZM52.0485 100.14C51.359 100.78 50.8155 101.538 50.4259 102.403L52.1744 103.148C52.4319 102.576 52.7865 102.08 53.2464 101.653L52.0485 100.14ZM50.4245 102.406C50.0512 103.243 49.838 104.154 49.767 105.123L51.7173 105.078C51.7718 104.332 51.9306 103.693 52.1757 103.145L50.4245 102.406ZM49.7655 105.147C49.7154 106.121 49.8239 107.13 50.0741 108.172L51.9726 107.468C51.7603 106.585 51.6814 105.782 51.7188 105.053L49.7655 105.147ZM50.0741 108.172C50.3243 109.214 50.679 110.132 51.1501 110.911L52.8258 109.661C52.4732 109.077 52.1849 108.352 51.9726 107.468L50.0741 108.172ZM51.1621 110.93C51.6529 111.699 52.2466 112.321 52.9487 112.777L54.083 110.964C53.6096 110.657 53.1847 110.222 52.8138 109.642L51.1621 110.93ZM52.9649 112.787C53.6916 113.234 54.4975 113.488 55.3718 113.545L55.686 111.463C55.0898 111.423 54.5536 111.254 54.0668 110.954L52.9649 112.787ZM55.3954 113.546C56.2706 113.581 57.1899 113.407 58.1421 113.054L57.6702 111.09C56.9137 111.37 56.2482 111.484 55.6624 111.461L55.3954 113.546ZM58.1421 113.054C59.6293 112.503 60.8604 111.636 61.767 110.422L60.2846 109.227C59.6894 110.023 58.8408 110.656 57.6702 111.09L58.1421 113.054ZM61.7607 110.431C62.6969 109.199 63.1355 107.818 63.0375 106.343L61.0861 106.698C61.1464 107.604 60.8942 108.425 60.2908 109.219L61.7607 110.431ZM62.2978 107.503L67.5945 105.539L67.1226 103.575L61.8259 105.538L62.2978 107.503ZM66.3892 104.8C66.5842 106.31 66.4331 107.805 65.9357 109.298L67.7725 109.816C68.3799 107.991 68.5651 106.153 68.3279 104.315L66.3892 104.8ZM65.9357 109.298C65.4427 110.779 64.6199 112.135 63.4439 113.373L64.745 114.783C66.1437 113.312 67.1606 111.655 67.7725 109.816L65.9357 109.298ZM63.4514 113.364C62.2983 114.555 60.7948 115.515 58.9019 116.217L59.3737 118.181C61.5055 117.391 63.3065 116.269 64.7376 114.792L63.4514 113.364Z" fill="black"/>
</g>
<path d="M86.1778 102.448L85.5199 97.6445L89.0863 96.8908C89.76 96.7484 90.3266 96.4948 90.7864 96.13C91.2433 95.7451 91.5762 95.2733 91.785 94.7143C91.994 94.1553 92.0518 93.5356 91.9585 92.8552C91.8626 92.1547 91.6416 91.5836 91.2957 91.1419C90.9498 90.7002 90.5114 90.4016 89.9804 90.2461C89.4494 90.0905 88.8471 90.084 88.1735 90.2264L84.6071 90.98L83.9491 86.1768L87.367 85.4545C89.2294 85.0609 90.8781 85.042 92.3131 85.3977C93.7653 85.7292 94.9388 86.4079 95.8336 87.4338C96.7285 88.4596 97.2883 89.7931 97.513 91.4343L97.5788 91.9145C97.8009 93.5356 97.6262 95.014 97.0549 96.3498C96.4835 97.6855 95.5581 98.8181 94.2787 99.7473C93.0191 100.672 91.4581 101.332 89.5957 101.726L86.1778 102.448ZM82.042 109.314L79.0156 87.2194L84.5436 86.0512L87.5699 108.146L82.042 109.314Z" fill="white"/>
<mask id="mask3_360_11722" style="mask-type:luminance" maskUnits="userSpaceOnUse" x="77" y="81" width="24" height="30">
<path d="M100.783 81.3669H77.543V110.571H100.783V81.3669Z" fill="white"/>
<path d="M86.1778 102.448L85.5199 97.6445L89.0863 96.8908C89.76 96.7484 90.3266 96.4948 90.7864 96.13C91.2433 95.7451 91.5762 95.2733 91.785 94.7143C91.994 94.1553 92.0518 93.5356 91.9585 92.8552C91.8626 92.1547 91.6416 91.5836 91.2957 91.1419C90.9498 90.7002 90.5114 90.4016 89.9804 90.2461C89.4494 90.0905 88.8471 90.084 88.1735 90.2264L84.6071 90.98L83.9491 86.1768L87.367 85.4545C89.2294 85.0609 90.8781 85.042 92.3131 85.3977C93.7653 85.7292 94.9388 86.4079 95.8336 87.4338C96.7285 88.4596 97.2883 89.7931 97.513 91.4343L97.5788 91.9145C97.8009 93.5356 97.6262 95.014 97.0549 96.3498C96.4835 97.6855 95.5581 98.8181 94.2787 99.7473C93.0191 100.672 91.4581 101.332 89.5957 101.726L86.1778 102.448ZM82.042 109.314L79.0156 87.2194L84.5436 86.0512L87.5699 108.146L82.042 109.314Z" fill="black"/>
</mask>
<g mask="url(#mask3_360_11722)">
<path d="M86.1767 102.447L85.186 102.656L85.3231 103.657L86.3138 103.448L86.1767 102.447ZM85.5188 97.6442L85.3818 96.6435L84.3911 96.8529L84.5281 97.8536L85.5188 97.6442ZM90.7853 96.1298L91.3639 96.921L91.3765 96.911L91.3889 96.9006L90.7853 96.1298ZM84.606 90.9798L83.6153 91.1891L83.7523 92.1898L84.743 91.9804L84.606 90.9798ZM83.948 86.1766L83.8109 85.1759L82.8203 85.3853L82.9573 86.3859L83.948 86.1766ZM92.312 85.3975L92.0142 86.392L92.0226 86.3941L92.0311 86.396L92.312 85.3975ZM94.2776 99.7471L93.7365 98.9274L93.7318 98.9308L94.2776 99.7471ZM82.0409 109.314L81.0502 109.523L81.1873 110.524L82.178 110.315L82.0409 109.314ZM79.0145 87.2191L78.8774 86.2185L77.8867 86.4278L78.0238 87.4285L79.0145 87.2191ZM84.5425 86.0509L85.5331 85.8416L85.396 84.8409L84.4053 85.0502L84.5425 86.0509ZM87.5688 108.146L87.7059 109.147L88.6966 108.937L88.5595 107.937L87.5688 108.146ZM87.1674 102.238L86.5095 97.4348L84.5281 97.8536L85.186 102.656L87.1674 102.238ZM85.6559 98.6449L89.2223 97.8913L88.9482 95.8899L85.3818 96.6435L85.6559 98.6449ZM89.2223 97.8913C90.0225 97.7222 90.7488 97.4092 91.3639 96.921L90.2066 95.3386C89.9023 95.58 89.4952 95.7743 88.9482 95.8899L89.2223 97.8913ZM91.3889 96.9006C91.993 96.3919 92.4392 95.7591 92.7153 95.0203L90.8526 94.4078C90.711 94.7868 90.4915 95.098 90.1816 95.359L91.3889 96.9006ZM92.7153 95.0203C92.9972 94.2658 93.0604 93.4652 92.9481 92.6456L90.9667 93.0642C91.0409 93.6056 90.9884 94.0443 90.8526 94.4078L92.7153 95.0203ZM92.9481 92.6456C92.8339 91.8116 92.5618 91.0698 92.092 90.47L90.4972 91.8132C90.7193 92.0968 90.8892 92.4973 90.9667 93.0642L92.9481 92.6456ZM92.092 90.47C91.6305 89.8807 91.0326 89.4717 90.3148 89.2614L89.6439 91.2302C89.9879 91.3309 90.2669 91.5191 90.4972 91.8132L92.092 90.47ZM90.3148 89.2614C89.6043 89.0533 88.8355 89.0564 88.0353 89.2254L88.3094 91.2268C88.8565 91.1111 89.2924 91.1273 89.6439 91.2302L90.3148 89.2614ZM88.0353 89.2254L84.4688 89.9791L84.743 91.9804L88.3094 91.2268L88.0353 89.2254ZM85.5966 90.7704L84.9387 85.9672L82.9573 86.3859L83.6153 91.1891L85.5966 90.7704ZM84.085 87.1772L87.5029 86.4549L87.2288 84.4537L83.8109 85.1759L84.085 87.1772ZM87.5029 86.4549C89.2551 86.0846 90.7504 86.0788 92.0142 86.392L92.6099 84.4029C91.0037 84.0047 89.2014 84.0367 87.2288 84.4537L87.5029 86.4549ZM92.0311 86.396C93.3106 86.6881 94.3091 87.2748 95.066 88.1426L96.599 86.7246C95.5662 85.5406 94.2177 84.7698 92.5931 84.3989L92.0311 86.396ZM95.066 88.1426C95.8201 89.007 96.3175 90.1564 96.5213 91.6433L98.5026 91.2247C98.2567 89.4294 97.6345 87.9118 96.599 86.7246L95.066 88.1426ZM96.5213 91.6433L96.587 92.1236L98.5684 91.7049L98.5026 91.2247L96.5213 91.6433ZM96.587 92.1236C96.7876 93.5879 96.6241 94.8675 96.1416 95.9952L97.9659 96.7038C98.6262 95.1601 98.8119 93.4829 98.5684 91.7049L96.587 92.1236ZM96.1416 95.9952C95.657 97.1283 94.8687 98.1049 93.7365 98.9274L94.8188 100.567C96.2452 99.5306 97.3078 98.2421 97.9659 96.7038L96.1416 95.9952ZM93.7318 98.9308C92.6224 99.7455 91.2097 100.354 89.4574 100.724L89.7316 102.726C91.7044 102.309 93.4136 101.599 94.8235 100.564L93.7318 98.9308ZM89.4574 100.724L86.0397 101.447L86.3138 103.448L89.7316 102.726L89.4574 100.724ZM83.0316 109.105L80.0051 87.0098L78.0238 87.4285L81.0502 109.523L83.0316 109.105ZM79.1515 88.2198L84.6795 87.0516L84.4053 85.0502L78.8774 86.2185L79.1515 88.2198ZM83.5518 86.2603L86.5781 108.355L88.5595 107.937L85.5331 85.8416L83.5518 86.2603ZM87.4318 107.145L81.9039 108.313L82.178 110.315L87.7059 109.147L87.4318 107.145Z" fill="black"/>
</g>
<path d="M102.798 105.288L101.094 83.2351L106.705 82.5665L108.408 104.619L102.798 105.288ZM107.805 104.691L107.427 99.7975L116.356 98.7334L116.734 103.628L107.805 104.691Z" fill="white"/>
<mask id="mask4_360_11722" style="mask-type:luminance" maskUnits="userSpaceOnUse" x="99" y="80" width="20" height="27">
<path d="M118.742 80.2363H99.7812V106.441H118.742V80.2363Z" fill="white"/>
<path d="M102.798 105.288L101.094 83.2351L106.705 82.5665L108.408 104.619L102.798 105.288ZM107.805 104.691L107.427 99.7975L116.356 98.7334L116.734 103.628L107.805 104.691Z" fill="black"/>
</mask>
<g mask="url(#mask4_360_11722)">
<path d="M102.799 105.288L101.793 105.408L101.87 106.415L102.876 106.295L102.799 105.288ZM101.095 83.2349L101.018 82.2279L100.012 82.3477L100.089 83.3548L101.095 83.2349ZM106.706 82.5663L107.711 82.4465L107.633 81.4395L106.628 81.5593L106.706 82.5663ZM108.409 104.619L108.487 105.626L109.493 105.506L109.415 104.499L108.409 104.619ZM107.806 104.691L106.8 104.811L106.878 105.818L107.883 105.698L107.806 104.691ZM107.428 99.7972L107.35 98.7902L106.344 98.9101L106.422 99.917L107.428 99.7972ZM116.356 98.7331L117.362 98.6133L117.285 97.6063L116.279 97.7262L116.356 98.7331ZM116.735 103.627L116.812 104.634L117.818 104.514L117.741 103.507L116.735 103.627ZM103.803 105.168L102.1 83.1151L100.089 83.3548L101.793 105.408L103.803 105.168ZM101.173 84.2419L106.784 83.5733L106.628 81.5593L101.018 82.2279L101.173 84.2419ZM105.7 82.6862L107.403 104.739L109.415 104.499L107.711 82.4465L105.7 82.6862ZM108.331 103.612L102.721 104.281L102.876 106.295L108.487 105.626L108.331 103.612ZM108.811 104.572L108.433 99.6773L106.422 99.917L106.8 104.811L108.811 104.572ZM107.506 100.805L116.434 99.7401L116.279 97.7262L107.35 98.7902L107.506 100.805ZM115.351 98.853L115.73 103.747L117.741 103.507L117.362 98.6133L115.351 98.853ZM116.657 102.62L107.729 103.684L107.883 105.698L116.812 104.634L116.657 102.62Z" fill="black"/>
</g>
<path d="M118.469 103.45L125.252 81.1729L134.303 80.9681L141.977 102.918L136.146 103.05L130.169 85.0014L131.787 85.5708L127.778 85.6616L129.41 85.0185L124.118 103.322L118.469 103.45ZM124.195 98.1984L125.829 93.5549L134.242 93.3645L136.01 97.9309L124.195 98.1984ZM126.868 79.4998L130.552 73.8401L136.384 73.7081L132.153 79.3802L126.868 79.4998Z" fill="white"/>
<mask id="mask5_360_11722" style="mask-type:luminance" maskUnits="userSpaceOnUse" x="115" y="71" width="29" height="34">
<path d="M143.549 71.5767H115.74V104.511H143.549V71.5767Z" fill="white"/>
<path d="M118.469 103.45L125.252 81.1729L134.303 80.9681L141.977 102.918L136.146 103.05L130.169 85.0014L131.787 85.5708L127.778 85.6616L129.41 85.0185L124.118 103.322L118.469 103.45ZM124.195 98.1984L125.829 93.5549L134.242 93.3645L136.01 97.9309L124.195 98.1984ZM126.868 79.4998L130.552 73.8401L136.384 73.7081L132.153 79.3802L126.868 79.4998Z" fill="black"/>
</mask>
<g mask="url(#mask5_360_11722)">
<path d="M118.472 103.45L117.504 103.163L117.1 104.491L118.487 104.46L118.472 103.45ZM125.255 81.1728L125.24 80.1629L124.501 80.1797L124.287 80.8864L125.255 81.1728ZM134.306 80.968L135.262 80.6284L135.022 79.9415L134.291 79.9581L134.306 80.968ZM141.98 102.918L141.995 103.928L143.398 103.895L142.937 102.578L141.98 102.918ZM136.149 103.05L135.187 103.373L135.42 104.076L136.164 104.059L136.149 103.05ZM130.172 85.0013L130.515 84.0484L128.56 83.3602L129.21 85.3251L130.172 85.0013ZM131.79 85.5707L131.806 86.5806L132.135 84.6178L131.79 85.5707ZM127.781 85.6615L127.417 84.7224L127.796 86.6714L127.781 85.6615ZM129.413 85.0184L130.386 85.2911L130.953 83.3282L129.047 84.0794L129.413 85.0184ZM124.121 103.322L124.137 104.332L124.886 104.314L125.095 103.594L124.121 103.322ZM124.198 98.1983L123.243 97.8707L122.761 99.241L124.213 99.2082L124.198 98.1983ZM125.832 93.5548L125.817 92.5449L125.111 92.561L124.877 93.2273L125.832 93.5548ZM134.245 93.3644L135.19 92.9938L134.936 92.3386L134.23 92.3545L134.245 93.3644ZM136.013 97.9309L136.027 98.9407L137.48 98.9079L136.958 97.5603L136.013 97.9309ZM126.871 79.4997L126.023 78.9543L124.982 80.5527L126.886 80.5096L126.871 79.4997ZM130.555 73.84L130.541 72.8302L130.002 72.8424L129.707 73.2947L130.555 73.84ZM136.387 73.708L137.197 74.3069L138.432 72.6516L136.372 72.6982L136.387 73.708ZM132.156 79.3801L132.17 80.39L132.668 80.3787L132.966 79.9789L132.156 79.3801ZM119.441 103.736L126.224 81.4592L124.287 80.8864L117.504 103.163L119.441 103.736ZM125.27 82.1827L134.321 81.9778L134.291 79.9581L125.24 80.1629L125.27 82.1827ZM133.35 81.3074L141.024 103.257L142.937 102.578L135.262 80.6284L133.35 81.3074ZM141.966 101.908L136.134 102.04L136.164 104.059L141.995 103.928L141.966 101.908ZM137.111 102.726L131.134 84.6775L129.21 85.3251L135.187 103.373L137.111 102.726ZM129.829 85.9542L131.447 86.5237L132.135 84.6178L130.515 84.0484L129.829 85.9542ZM131.776 84.5609L127.767 84.6516L127.796 86.6714L131.806 86.5806L131.776 84.5609ZM128.147 86.6006L129.778 85.9575L129.047 84.0794L127.417 84.7224L128.147 86.6006ZM128.44 84.7458L123.149 103.049L125.095 103.594L130.386 85.2911L128.44 84.7458ZM124.106 102.312L118.458 102.44L118.487 104.46L124.137 104.332L124.106 102.312ZM125.153 98.5258L126.787 93.8824L124.877 93.2273L123.243 97.8707L125.153 98.5258ZM125.846 94.5646L134.259 94.3743L134.23 92.3545L125.817 92.5449L125.846 94.5646ZM133.3 93.7351L135.068 98.3015L136.958 97.5603L135.19 92.9938L133.3 93.7351ZM135.998 96.921L124.183 97.1884L124.213 99.2082L136.027 98.9407L135.998 96.921ZM127.718 80.0451L131.404 74.3854L129.707 73.2947L126.023 78.9543L127.718 80.0451ZM130.57 74.8499L136.402 74.7179L136.372 72.6982L130.541 72.8302L130.57 74.8499ZM135.577 73.1092L131.345 78.7813L132.966 79.9789L137.197 74.3069L135.577 73.1092ZM132.141 78.3702L126.857 78.4898L126.886 80.5096L132.17 80.39L132.141 78.3702Z" fill="black"/>
</g>
<path d="M151.729 104.634C149.669 104.47 147.95 104.01 146.57 103.252C145.21 102.497 144.195 101.535 143.526 100.368C142.876 99.1819 142.59 97.8628 142.664 96.4104L148.115 96.8428C148.089 97.3672 148.205 97.8626 148.464 98.3288C148.746 98.7764 149.173 99.1446 149.746 99.433C150.318 99.7216 151.06 99.9019 151.968 99.9739C152.756 100.036 153.427 99.9883 153.982 99.8298C154.558 99.673 154.997 99.4241 155.298 99.0835C155.62 98.7443 155.793 98.3227 155.819 97.8183C155.853 97.1728 155.606 96.6569 155.078 96.2708C154.551 95.8644 153.645 95.5596 152.358 95.3563L150.94 95.1223C148.67 94.7396 146.89 93.8794 145.599 92.5416C144.31 91.2037 143.718 89.5162 143.822 87.4787C143.897 86.0262 144.294 84.8121 145.013 83.836C145.752 82.8617 146.752 82.151 148.012 81.704C149.271 81.257 150.739 81.0999 152.415 81.2328C154.231 81.3769 155.75 81.8012 156.972 82.5057C158.212 83.2118 159.137 84.146 159.746 85.3083C160.357 86.4505 160.624 87.7478 160.549 89.2002L155.098 88.7679C155.124 88.2838 155.025 87.8303 154.804 87.4077C154.582 86.985 154.245 86.6443 153.792 86.3856C153.361 86.1083 152.821 85.944 152.175 85.8928C151.569 85.8447 151.05 85.9047 150.615 86.0729C150.202 86.2224 149.876 86.4598 149.636 86.7851C149.416 87.112 149.296 87.4873 149.273 87.911C149.245 88.4758 149.412 88.9752 149.775 89.4091C150.137 89.843 150.791 90.1379 151.736 90.2938L153.153 90.5277C154.802 90.8002 156.247 91.2795 157.488 91.9653C158.732 92.6311 159.691 93.487 160.367 94.5331C161.043 95.5792 161.344 96.8184 161.27 98.2507C161.197 99.683 160.759 100.904 159.957 101.914C159.175 102.926 158.083 103.669 156.68 104.145C155.297 104.624 153.647 104.786 151.729 104.634Z" fill="white"/>
<mask id="mask6_360_11722" style="mask-type:luminance" maskUnits="userSpaceOnUse" x="140" y="78" width="25" height="29">
<path d="M164.094 78.9391H140.537V106.925H164.094V78.9391Z" fill="white"/>
<path d="M151.729 104.634C149.669 104.47 147.95 104.01 146.57 103.252C145.21 102.497 144.195 101.535 143.526 100.368C142.876 99.1819 142.59 97.8628 142.664 96.4104L148.115 96.8428C148.089 97.3672 148.205 97.8626 148.464 98.3288C148.746 98.7764 149.173 99.1446 149.746 99.433C150.318 99.7216 151.06 99.9019 151.968 99.9739C152.756 100.036 153.427 99.9883 153.982 99.8298C154.558 99.673 154.997 99.4241 155.298 99.0835C155.62 98.7443 155.793 98.3227 155.819 97.8183C155.853 97.1728 155.606 96.6569 155.078 96.2708C154.551 95.8644 153.645 95.5596 152.358 95.3563L150.94 95.1223C148.67 94.7396 146.89 93.8794 145.599 92.5416C144.31 91.2037 143.718 89.5162 143.822 87.4787C143.897 86.0262 144.294 84.8121 145.013 83.836C145.752 82.8617 146.752 82.151 148.012 81.704C149.271 81.257 150.739 81.0999 152.415 81.2328C154.231 81.3769 155.75 81.8012 156.972 82.5057C158.212 83.2118 159.137 84.146 159.746 85.3083C160.357 86.4505 160.624 87.7478 160.549 89.2002L155.098 88.7679C155.124 88.2838 155.025 87.8303 154.804 87.4077C154.582 86.985 154.245 86.6443 153.792 86.3856C153.361 86.1083 152.821 85.944 152.175 85.8928C151.569 85.8447 151.05 85.9047 150.615 86.0729C150.202 86.2224 149.876 86.4598 149.636 86.7851C149.416 87.112 149.296 87.4873 149.273 87.911C149.245 88.4758 149.412 88.9752 149.775 89.4091C150.137 89.843 150.791 90.1379 151.736 90.2938L153.153 90.5277C154.802 90.8002 156.247 91.2795 157.488 91.9653C158.732 92.6311 159.691 93.487 160.367 94.5331C161.043 95.5792 161.344 96.8184 161.27 98.2507C161.197 99.683 160.759 100.904 159.957 101.914C159.175 102.926 158.083 103.669 156.68 104.145C155.297 104.624 153.647 104.786 151.729 104.634Z" fill="black"/>
</mask>
<g mask="url(#mask6_360_11722)">
<path d="M146.578 103.252L146.106 104.134L146.111 104.137L146.578 103.252ZM143.534 100.368L142.65 100.834L142.655 100.843L142.66 100.853L143.534 100.368ZM142.672 96.4104L142.725 95.4017L141.715 95.3217L141.663 96.3303L142.672 96.4104ZM148.123 96.8427L149.133 96.9228L149.184 95.9142L148.176 95.8341L148.123 96.8427ZM148.473 98.3288L147.594 98.8028L147.607 98.8267L147.621 98.8499L148.473 98.3288ZM153.991 99.8298L153.7 98.853L153.689 98.8561L153.991 99.8298ZM155.306 99.0834L154.564 98.3762L154.553 98.3884L154.541 98.401L155.306 99.0834ZM155.086 96.2708L154.483 97.0655L154.494 97.0737L154.504 97.0816L155.086 96.2708ZM152.366 95.3562L152.229 96.3544L152.236 96.3555L152.366 95.3562ZM150.949 95.1222L150.808 96.12L150.812 96.1205L150.949 95.1222ZM145.021 83.836L144.21 83.2098L144.202 83.2208L145.021 83.836ZM156.98 82.5056L156.493 83.3788L156.499 83.3819L156.98 82.5056ZM159.755 85.3083L158.863 85.7586L158.867 85.7659L159.755 85.3083ZM160.558 89.2002L160.506 90.2089L161.516 90.289L161.567 89.2803L160.558 89.2002ZM155.107 88.7678L154.097 88.6878L154.045 89.6965L155.055 89.7765L155.107 88.7678ZM153.8 86.3855L153.272 87.2327L153.294 87.2474L153.318 87.261L153.8 86.3855ZM150.623 86.0728L150.99 87.0254L151 87.0218L151.01 87.018L150.623 86.0728ZM149.644 86.7851L148.825 86.17L148.812 86.1871L148.801 86.2047L149.644 86.7851ZM157.496 91.9653L157.028 92.8481L157.04 92.8545L157.496 91.9653ZM159.965 101.914L159.167 101.271L159.159 101.281L159.965 101.914ZM156.688 104.145L156.34 103.186L156.335 103.187L156.688 104.145ZM151.789 103.625C149.83 103.47 148.262 103.036 147.045 102.368L146.111 104.137C147.654 104.984 149.526 105.471 151.685 105.643L151.789 103.625ZM147.05 102.371C145.83 101.693 144.967 100.858 144.407 99.8822L142.66 100.853C143.44 102.211 144.606 103.3 146.106 104.134L147.05 102.371ZM144.417 99.9009C143.869 98.8986 143.616 97.7716 143.682 96.4904L141.663 96.3303C141.579 97.9541 141.901 99.4652 142.65 100.834L144.417 99.9009ZM142.62 97.419L148.072 97.8514L148.176 95.8341L142.725 95.4017L142.62 97.419ZM147.115 96.7626C147.077 97.4796 147.239 98.1671 147.594 98.8028L149.353 97.8548C149.188 97.5581 149.116 97.2548 149.133 96.9228L147.115 96.7626ZM147.621 98.8499C148.025 99.492 148.613 99.9785 149.32 100.334L150.188 98.5316C149.749 98.3105 149.483 98.0609 149.324 97.8076L147.621 98.8499ZM149.32 100.334C150.053 100.703 150.936 100.904 151.925 100.983L152.028 98.9653C151.2 98.8995 150.601 98.7396 150.188 98.5316L149.32 100.334ZM151.925 100.983C152.792 101.051 153.591 101.004 154.292 100.804L153.689 98.8561C153.281 98.9727 152.736 99.0213 152.028 98.9653L151.925 100.983ZM154.281 100.807C154.986 100.614 155.612 100.286 156.072 99.7659L154.541 98.401C154.399 98.5624 154.147 98.7313 153.7 98.853L154.281 100.807ZM156.048 99.7906C156.541 99.2704 156.8 98.6216 156.837 97.8983L154.818 97.7383C154.804 98.0237 154.714 98.2182 154.564 98.3762L156.048 99.7906ZM156.837 97.8983C156.888 96.9075 156.481 96.0547 155.668 95.4599L154.504 97.0816C154.747 97.2591 154.833 97.438 154.818 97.7383L156.837 97.8983ZM155.689 95.4759C154.945 94.901 153.817 94.5657 152.496 94.3569L152.236 96.3555C153.488 96.5535 154.175 96.8278 154.483 97.0655L155.689 95.4759ZM152.503 94.358L151.086 94.1241L150.812 96.1205L152.229 96.3544L152.503 94.358ZM151.089 94.1246C148.981 93.7694 147.424 92.989 146.326 91.8496L144.89 93.2335C146.371 94.7697 148.374 95.7098 150.808 96.12L151.089 94.1246ZM146.326 91.8496C145.261 90.7446 144.748 89.3484 144.84 87.5587L142.822 87.3985C142.704 89.6838 143.376 91.6627 144.89 93.2335L146.326 91.8496ZM144.84 87.5587C144.907 86.264 145.255 85.2455 145.841 84.4511L144.202 83.2208C143.349 84.3784 142.904 85.7882 142.822 87.3985L144.84 87.5587ZM145.833 84.4622C146.447 83.6521 147.285 83.0479 148.381 82.6587L147.658 80.7492C146.237 81.254 145.074 82.0712 144.21 83.2098L145.833 84.4622ZM148.381 82.6587C149.481 82.2683 150.803 82.1171 152.371 82.2414L152.475 80.2241C150.691 80.0827 149.078 80.2455 147.658 80.7492L148.381 82.6587ZM152.371 82.2414C154.081 82.3771 155.441 82.7714 156.493 83.3788L157.466 81.6326C156.077 80.8311 154.4 80.3768 152.475 80.2241L152.371 82.2414ZM156.499 83.3819C157.581 83.9976 158.355 84.7903 158.863 85.7586L160.647 84.858C159.936 83.5017 158.861 82.4259 157.46 81.6294L156.499 83.3819ZM158.867 85.7659C159.376 86.7201 159.615 87.8272 159.548 89.1201L161.567 89.2803C161.65 87.6684 161.354 86.1808 160.643 84.8507L158.867 85.7659ZM160.609 88.1916L155.158 87.7593L155.055 89.7765L160.506 90.2089L160.609 88.1916ZM156.116 88.8479C156.151 88.1865 156.014 87.5492 155.704 86.9574L153.92 87.858C154.052 88.1115 154.113 88.3809 154.097 88.6878L156.116 88.8479ZM155.704 86.9574C155.381 86.3405 154.893 85.8587 154.282 85.5102L153.318 87.261C153.614 87.4298 153.8 87.6295 153.92 87.858L155.704 86.9574ZM154.329 85.5384C153.718 85.1464 153.004 84.9451 152.236 84.8841L152.131 86.9014C152.655 86.9428 153.018 87.0701 153.272 87.2327L154.329 85.5384ZM152.236 84.8841C151.522 84.8275 150.843 84.8927 150.237 85.1277L151.01 87.018C151.272 86.9168 151.634 86.8619 152.131 86.9014L152.236 84.8841ZM150.257 85.1201C149.678 85.3296 149.188 85.677 148.825 86.17L150.463 87.4002C150.58 87.2425 150.743 87.115 150.99 87.0254L150.257 85.1201ZM148.801 86.2047C148.475 86.689 148.303 87.2396 148.273 87.8309L150.291 87.991C150.304 87.7352 150.374 87.5351 150.488 87.3655L148.801 86.2047ZM148.273 87.8309C148.231 88.65 148.481 89.4068 149.015 90.0457L150.551 88.7724C150.359 88.5434 150.276 88.3016 150.291 87.991L148.273 87.8309ZM149.015 90.0457C149.62 90.7686 150.577 91.122 151.607 91.2919L151.881 89.2955C151.022 89.1536 150.672 88.9172 150.551 88.7724L149.015 90.0457ZM151.607 91.2919L153.025 91.526L153.299 89.5296L151.881 89.2955L151.607 91.2919ZM153.023 91.5259C154.578 91.7827 155.907 92.229 157.028 92.8481L157.966 91.0826C156.603 90.3299 155.042 89.8177 153.299 89.5296L153.023 91.5259ZM157.04 92.8545C158.147 93.4476 158.964 94.1884 159.531 95.0657L161.219 94.0004C160.434 92.7855 159.332 91.8144 157.954 91.0761L157.04 92.8545ZM159.531 95.0657C160.07 95.8992 160.334 96.9158 160.269 98.1705L162.288 98.3307C162.371 96.7208 162.033 95.2592 161.219 94.0004L159.531 95.0657ZM160.269 98.1705C160.205 99.4176 159.83 100.437 159.167 101.271L160.763 102.557C161.705 101.372 162.205 99.9482 162.288 98.3307L160.269 98.1705ZM159.159 101.281C158.511 102.119 157.59 102.762 156.34 103.186L157.037 105.104C158.593 104.576 159.855 103.732 160.771 102.547L159.159 101.281ZM156.335 103.187C155.114 103.61 153.609 103.769 151.789 103.625L151.685 105.643C153.701 105.802 155.496 105.637 157.042 105.102L156.335 103.187Z" fill="black"/>
</g>
<path d="M168.36 106.239L170.342 88.5326L175.909 89.4941L173.928 107.2L168.36 106.239ZM164.287 88.1008L164.834 83.2227L182.375 86.2522L181.83 91.1304L164.287 88.1008Z" fill="white"/>
<mask id="mask7_360_11722" style="mask-type:luminance" maskUnits="userSpaceOnUse" x="160" y="81" width="25" height="29">
<path d="M184.311 81.8428H160.66V109.551H184.311V81.8428Z" fill="white"/>
<path d="M168.36 106.239L170.342 88.5326L175.909 89.4941L173.928 107.2L168.36 106.239ZM164.287 88.1008L164.834 83.2227L182.375 86.2522L181.83 91.1304L164.287 88.1008Z" fill="black"/>
</mask>
<g mask="url(#mask7_360_11722)">
<path d="M168.357 106.239L167.358 106.066L167.247 107.07L168.244 107.243L168.357 106.239ZM170.338 88.5329L170.451 87.5292L169.453 87.3569L169.341 88.3606L170.338 88.5329ZM175.906 89.4945L176.905 89.6668L177.017 88.6631L176.018 88.4908L175.906 89.4945ZM173.924 107.2L173.812 108.204L174.809 108.376L174.922 107.373L173.924 107.2ZM164.284 88.1011L163.286 87.9288L163.174 88.9325L164.172 89.1049L164.284 88.1011ZM164.831 83.223L164.943 82.2193L163.944 82.047L163.832 83.0507L164.831 83.223ZM182.372 86.2526L183.369 86.4249L183.482 85.4212L182.484 85.2489L182.372 86.2526ZM181.826 91.1307L181.714 92.1344L182.711 92.3067L182.824 91.303L181.826 91.1307ZM169.354 106.411L171.336 88.7052L169.341 88.3606L167.358 106.066L169.354 106.411ZM170.226 89.5366L175.794 90.4982L176.018 88.4908L170.451 87.5292L170.226 89.5366ZM174.909 89.3222L172.927 107.028L174.922 107.373L176.905 89.6668L174.909 89.3222ZM174.037 106.197L168.469 105.235L168.244 107.243L173.812 108.204L174.037 106.197ZM165.282 88.2735L165.828 83.3954L163.832 83.0507L163.286 87.9288L165.282 88.2735ZM164.718 84.2268L182.26 87.2563L182.484 85.2489L164.943 82.2193L164.718 84.2268ZM181.374 86.0803L180.828 90.9584L182.824 91.303L183.369 86.4249L181.374 86.0803ZM181.939 90.127L164.396 87.0974L164.172 89.1049L181.714 92.1344L181.939 90.127Z" fill="black"/>
</g>
<path d="M183.748 111.399L187.882 85.9261L194.276 87.5269L190.142 113L183.748 111.399Z" fill="white"/>
<mask id="mask8_360_11722" style="mask-type:luminance" maskUnits="userSpaceOnUse" x="183" y="85" width="12" height="28">
<path d="M183.748 111.399L187.882 85.9261L194.276 87.5269L190.142 113L183.748 111.399Z" fill="white"/>
</mask>
<g mask="url(#mask8_360_11722)">
<path d="M183.754 111.399L182.771 111.153L182.609 112.15L183.592 112.396L183.754 111.399ZM187.887 85.9258L188.049 84.9289L187.067 84.683L186.905 85.68L187.887 85.9258ZM194.281 87.5266L195.264 87.7726L195.426 86.7755L194.443 86.5296L194.281 87.5266ZM190.148 113L189.986 113.997L190.968 114.243L191.13 113.246L190.148 113ZM184.736 111.645L188.87 86.1718L186.905 85.68L182.771 111.153L184.736 111.645ZM187.725 86.9229L194.119 88.5236L194.443 86.5296L188.049 84.9289L187.725 86.9229ZM193.299 87.2807L189.165 112.754L191.13 113.246L195.264 87.7726L193.299 87.2807ZM190.31 112.003L183.916 110.402L183.592 112.396L189.986 113.997L190.31 112.003Z" fill="black"/>
</g>
<path d="M205.32 116.708C203.424 116.059 201.869 115.166 200.658 114.03C199.451 112.875 198.528 111.594 197.893 110.188C197.261 108.763 196.878 107.327 196.745 105.881C196.612 104.436 196.681 103.101 196.953 101.878L197.097 101.227C197.398 99.8664 197.905 98.6072 198.615 97.4497C199.348 96.2789 200.273 95.3118 201.391 94.5482C202.527 93.7912 203.836 93.3265 205.317 93.154C206.798 92.9816 208.439 93.2033 210.24 93.8193C212.156 94.4747 213.768 95.4293 215.077 96.6834C216.409 97.9243 217.377 99.3693 217.981 101.019C218.588 102.648 218.774 104.367 218.538 106.175L213.193 104.346C213.224 103.551 213.081 102.801 212.764 102.099C212.446 101.396 211.975 100.779 211.35 100.246C210.73 99.6949 209.98 99.2685 209.099 98.967C208.274 98.6852 207.495 98.5776 206.758 98.6441C206.041 98.7172 205.392 98.9512 204.81 99.3461C204.251 99.7279 203.762 100.261 203.343 100.945C202.942 101.635 202.635 102.464 202.42 103.431C202.206 104.397 202.128 105.304 202.188 106.152C202.266 107.006 202.475 107.788 202.812 108.498C203.169 109.214 203.65 109.834 204.254 110.359C204.864 110.865 205.599 111.265 206.462 111.56C207.802 112.018 209.007 112.07 210.075 111.714C211.162 111.365 211.927 110.66 212.368 109.602L217.712 111.43C217.182 112.988 216.327 114.288 215.148 115.327C213.97 116.367 212.544 117.036 210.87 117.333C209.201 117.611 207.351 117.403 205.32 116.708Z" fill="white"/>
<mask id="mask9_360_11722" style="mask-type:luminance" maskUnits="userSpaceOnUse" x="193" y="88" width="30" height="35">
<path d="M222.724 88.3694H193.092V122.201H222.724V88.3694Z" fill="white"/>
<path d="M205.32 116.708C203.424 116.06 201.869 115.167 200.658 114.031C199.451 112.875 198.528 111.595 197.893 110.189C197.261 108.764 196.878 107.328 196.745 105.881C196.612 104.436 196.681 103.102 196.953 101.879L197.097 101.227C197.398 99.8669 197.905 98.6077 198.615 97.4501C199.348 96.2794 200.273 95.3122 201.391 94.5487C202.527 93.7916 203.836 93.327 205.317 93.1545C206.798 92.982 208.439 93.2038 210.24 93.8198C212.156 94.4752 213.768 95.4298 215.077 96.6839C216.409 97.9248 217.377 99.3698 217.981 101.019C218.588 102.648 218.774 104.367 218.538 106.175L213.193 104.346C213.224 103.551 213.081 102.802 212.764 102.099C212.446 101.396 211.975 100.779 211.35 100.247C210.73 99.6954 209.98 99.269 209.099 98.9675C208.274 98.6857 207.495 98.5781 206.758 98.6446C206.041 98.7176 205.392 98.9517 204.81 99.3466C204.251 99.7284 203.762 100.261 203.343 100.946C202.942 101.635 202.635 102.465 202.42 103.431C202.206 104.398 202.128 105.305 202.188 106.152C202.266 107.006 202.475 107.788 202.812 108.498C203.169 109.214 203.65 109.834 204.254 110.36C204.864 110.866 205.599 111.265 206.462 111.56C207.802 112.019 209.007 112.07 210.075 111.715C211.162 111.365 211.927 110.66 212.368 109.602L217.712 111.43C217.182 112.988 216.327 114.288 215.148 115.328C213.97 116.368 212.544 117.036 210.87 117.333C209.201 117.611 207.351 117.403 205.32 116.708Z" fill="black"/>
</mask>
<g mask="url(#mask9_360_11722)">
<path d="M200.655 114.03L200.035 114.771L200.043 114.779L200.655 114.03ZM197.889 110.188L197.006 110.553L197.01 110.561L197.889 110.188ZM198.611 97.4498L197.776 96.8196L197.772 96.8271L198.611 97.4498ZM201.388 94.5483L200.809 93.6537L200.8 93.6593L201.388 94.5483ZM215.074 96.6835L214.453 97.4228L214.459 97.4285L214.465 97.4341L215.074 96.6835ZM217.977 101.019L217.065 101.31L217.067 101.317L217.977 101.019ZM218.534 106.175L218.316 107.161L219.364 107.519L219.507 106.412L218.534 106.175ZM213.189 104.346L212.207 104.202L212.173 105.06L212.971 105.333L213.189 104.346ZM211.346 100.247L210.758 101.015L210.767 101.023L210.776 101.031L211.346 100.247ZM206.755 98.6442L206.579 97.6086L206.569 97.6097L206.755 98.6442ZM204.807 99.3462L204.221 98.4557L204.219 98.4573L204.807 99.3462ZM203.339 100.945L202.5 100.322L202.494 100.332L202.488 100.342L203.339 100.945ZM202.185 106.152L201.205 106.128L201.206 106.141L201.207 106.153L202.185 106.152ZM202.809 108.498L201.939 108.891L201.944 108.901L201.948 108.91L202.809 108.498ZM204.251 110.359L203.672 111.137L203.683 111.145L203.692 111.153L204.251 110.359ZM210.071 111.715L209.705 110.717L209.697 110.72L210.071 111.715ZM212.364 109.602L212.583 108.616L211.778 108.34L211.459 109.109L212.364 109.602ZM217.709 111.43L218.638 111.863L218.996 110.81L217.928 110.444L217.709 111.43ZM210.866 117.333L211.109 118.36L211.119 118.358L210.866 117.333ZM205.535 115.722C203.745 115.11 202.336 114.287 201.265 113.283L200.043 114.779C201.396 116.046 203.094 117.009 205.098 117.694L205.535 115.722ZM201.273 113.291C200.166 112.23 199.336 111.071 198.768 109.816L197.01 110.561C197.714 112.117 198.73 113.52 200.035 114.771L201.273 113.291ZM198.772 109.824C198.189 108.509 197.84 107.196 197.72 105.88L195.763 105.882C195.908 107.459 196.325 109.017 197.006 110.553L198.772 109.824ZM197.72 105.88C197.595 104.533 197.662 103.311 197.907 102.206L195.991 101.55C195.694 102.891 195.622 104.339 195.763 105.882L197.72 105.88ZM197.907 102.206L198.051 101.555L196.135 100.9L195.991 101.55L197.907 102.206ZM198.051 101.555C198.33 100.301 198.794 99.1413 199.451 98.0725L197.772 96.8271C197.007 98.0733 196.461 99.432 196.135 100.9L198.051 101.555ZM199.446 98.0799C200.115 97.0128 200.956 96.1335 201.975 95.4372L200.8 93.6593C199.584 94.4903 198.575 95.5453 197.776 96.8196L199.446 98.0799ZM201.966 95.4428C202.982 94.7667 204.158 94.3449 205.513 94.1873L205.114 92.121C203.506 92.3082 202.066 92.8158 200.809 93.6537L201.966 95.4428ZM205.513 94.1873C206.829 94.034 208.325 94.2264 210.018 94.8057L210.455 92.8333C208.546 92.1805 206.76 91.9294 205.114 92.121L205.513 94.1873ZM210.018 94.8057C211.811 95.4189 213.28 96.2979 214.453 97.4228L215.694 95.9442C214.25 94.561 212.494 93.5307 210.455 92.8333L210.018 94.8057ZM214.465 97.4341C215.669 98.5548 216.528 99.8435 217.065 101.31L218.89 100.727C218.219 98.8954 217.143 97.294 215.682 95.933L214.465 97.4341ZM217.067 101.317C217.604 102.756 217.776 104.289 217.561 105.936L219.507 106.412C219.765 104.445 219.565 102.54 218.887 100.72L217.067 101.317ZM218.753 105.188L213.408 103.36L212.971 105.333L218.316 107.161L218.753 105.188ZM214.171 104.489C214.209 103.532 214.036 102.604 213.639 101.726L211.881 102.471C212.12 103 212.233 103.569 212.207 104.202L214.171 104.489ZM213.639 101.726C213.243 100.852 212.662 100.097 211.917 99.4622L210.776 101.031C211.28 101.459 211.64 101.939 211.881 102.471L213.639 101.726ZM211.936 99.4785C211.188 98.814 210.306 98.3206 209.314 97.981L208.876 99.9533C209.646 100.217 210.265 100.577 210.758 101.015L211.936 99.4785ZM209.314 97.981C208.377 97.6605 207.462 97.5288 206.579 97.6086L206.932 99.6796C207.521 99.6264 208.166 99.7102 208.876 99.9533L209.314 97.981ZM206.569 97.6097C205.709 97.6973 204.923 97.98 204.221 98.4557L205.392 100.237C205.855 99.9225 206.368 99.7371 206.942 99.6787L206.569 97.6097ZM204.219 98.4573C203.545 98.9182 202.975 99.5483 202.5 100.322L204.179 101.567C204.543 100.974 204.951 100.538 205.394 100.235L204.219 98.4573ZM202.488 100.342C202.03 101.132 201.691 102.057 201.459 103.103L203.375 103.758C203.571 102.871 203.848 102.139 204.19 101.548L202.488 100.342ZM201.459 103.103C201.228 104.149 201.137 105.159 201.205 106.128L203.164 106.175C203.113 105.449 203.178 104.645 203.375 103.758L201.459 103.103ZM201.207 106.153C201.297 107.126 201.536 108.043 201.939 108.891L203.678 108.105C203.406 107.533 203.23 106.886 203.163 106.151L201.207 106.153ZM201.948 108.91C202.375 109.767 202.953 110.513 203.672 111.137L204.829 109.582C204.339 109.156 203.955 108.659 203.668 108.086L201.948 108.91ZM203.692 111.153C204.422 111.759 205.278 112.217 206.239 112.546L206.676 110.574C205.913 110.313 205.298 109.971 204.81 109.565L203.692 111.153ZM206.239 112.546C207.74 113.06 209.157 113.139 210.447 112.708L209.697 110.72C208.85 111.002 207.858 110.978 206.676 110.574L206.239 112.546ZM210.438 112.711C211.761 112.286 212.724 111.406 213.269 110.095L211.459 109.109C211.123 109.915 210.558 110.443 209.705 110.717L210.438 112.711ZM212.145 110.588L217.49 112.416L217.928 110.444L212.583 108.616L212.145 110.588ZM216.78 110.996C216.302 112.402 215.535 113.567 214.473 114.503L215.815 116.151C217.111 115.008 218.054 113.575 218.638 111.863L216.78 110.996ZM214.473 114.503C213.422 115.431 212.143 116.036 210.614 116.308L211.119 118.358C212.937 118.035 214.51 117.303 215.815 116.151L214.473 114.503ZM210.624 116.306C209.134 116.554 207.446 116.374 205.535 115.722L205.098 117.694C207.249 118.43 209.26 118.668 211.109 118.36L210.624 116.306Z" fill="black"/>
</g>
<path d="M228.42 126.642C226.587 125.781 225.094 124.705 223.937 123.411C222.787 122.098 221.928 120.689 221.359 119.185C220.797 117.662 220.489 116.16 220.437 114.677C220.386 113.195 220.543 111.855 220.907 110.656L221.102 110.018C221.507 108.685 222.133 107.488 222.979 106.426C223.832 105.347 224.875 104.5 226.108 103.886C227.342 103.272 228.722 102.97 230.248 102.98C231.792 102.998 233.453 103.424 235.23 104.259C236.989 105.084 238.444 106.12 239.594 107.367C240.762 108.622 241.645 109.987 242.243 111.461C242.842 112.935 243.174 114.426 243.238 115.936C243.326 117.436 243.167 118.852 242.762 120.186L242.567 120.825C242.203 122.022 241.597 123.152 240.75 124.213C239.923 125.282 238.892 126.156 237.659 126.837C236.431 127.497 235.037 127.848 233.475 127.888C231.919 127.908 230.234 127.493 228.42 126.642ZM229.955 121.597C230.834 122.009 231.67 122.225 232.46 122.243C233.251 122.261 233.979 122.105 234.644 121.777C235.309 121.449 235.881 120.977 236.361 120.363C236.848 119.73 237.223 118.978 237.488 118.109C237.77 117.181 237.889 116.276 237.843 115.392C237.816 114.518 237.637 113.694 237.307 112.921C236.977 112.147 236.507 111.452 235.9 110.835C235.291 110.219 234.557 109.708 233.695 109.304C232.816 108.891 231.984 108.666 231.199 108.629C230.415 108.592 229.693 108.728 229.033 109.037C228.374 109.346 227.801 109.817 227.315 110.45C226.829 111.083 226.445 111.864 226.163 112.792C225.899 113.662 225.779 114.534 225.806 115.408C225.84 116.264 226.018 117.087 226.342 117.879C226.667 118.672 227.13 119.387 227.733 120.024C228.334 120.659 229.075 121.184 229.955 121.597Z" fill="white"/>
<mask id="mask10_360_11722" style="mask-type:luminance" maskUnits="userSpaceOnUse" x="216" y="97" width="32" height="37">
<path d="M247.605 97.2928H216.137V133.603H247.605V97.2928Z" fill="white"/>
<path d="M228.42 126.642C226.587 125.781 225.094 124.705 223.937 123.411C222.787 122.098 221.928 120.689 221.359 119.185C220.797 117.662 220.489 116.16 220.437 114.677C220.386 113.195 220.543 111.855 220.907 110.656L221.102 110.018C221.507 108.685 222.133 107.488 222.979 106.426C223.832 105.347 224.875 104.5 226.108 103.886C227.342 103.272 228.722 102.97 230.248 102.98C231.792 102.998 233.453 103.424 235.23 104.259C236.989 105.084 238.444 106.12 239.594 107.367C240.762 108.622 241.645 109.987 242.243 111.461C242.842 112.935 243.174 114.426 243.238 115.936C243.326 117.436 243.167 118.852 242.762 120.186L242.567 120.825C242.203 122.022 241.597 123.152 240.75 124.213C239.923 125.282 238.892 126.156 237.659 126.837C236.431 127.497 235.037 127.848 233.475 127.888C231.919 127.908 230.234 127.493 228.42 126.642ZM229.955 121.597C230.834 122.009 231.67 122.225 232.46 122.243C233.251 122.261 233.979 122.105 234.644 121.777C235.309 121.449 235.881 120.977 236.361 120.363C236.848 119.73 237.223 118.978 237.488 118.109C237.77 117.181 237.889 116.276 237.843 115.392C237.816 114.518 237.637 113.694 237.307 112.921C236.977 112.147 236.507 111.452 235.9 110.835C235.291 110.219 234.557 109.708 233.695 109.304C232.816 108.891 231.984 108.666 231.199 108.629C230.415 108.592 229.693 108.728 229.033 109.037C228.374 109.346 227.801 109.817 227.315 110.45C226.829 111.083 226.445 111.864 226.163 112.792C225.899 113.662 225.779 114.534 225.806 115.408C225.84 116.264 226.018 117.087 226.342 117.879C226.667 118.672 227.13 119.387 227.733 120.024C228.334 120.659 229.075 121.184 229.955 121.597Z" fill="black"/>
</mask>
<g mask="url(#mask10_360_11722)">
<path d="M223.938 123.411L223.281 124.101L223.289 124.109L223.938 123.411ZM221.36 119.185L220.474 119.489L220.477 119.497L221.36 119.185ZM222.98 106.426L223.732 107.172L223.735 107.168L222.98 106.426ZM230.249 102.98L230.155 101.922H230.151L230.249 102.98ZM239.595 107.367L238.957 108.08L238.961 108.084L239.595 107.367ZM243.238 115.936L242.277 115.872V115.881L242.278 115.891L243.238 115.936ZM240.751 124.213L239.999 123.467L239.991 123.478L240.751 124.213ZM237.66 126.837L238.156 127.797L238.163 127.793L237.66 126.837ZM233.476 127.888L233.592 128.946H233.602L233.476 127.888ZM236.362 120.363L237.121 121.101L237.126 121.094L236.362 120.363ZM237.844 115.392L236.882 115.314L236.883 115.326V115.337L237.844 115.392ZM225.807 115.408L224.845 115.33L224.846 115.338L225.807 115.408ZM228.715 125.675C226.985 124.863 225.621 123.868 224.588 122.712L223.289 124.109C224.567 125.541 226.192 126.699 228.127 127.608L228.715 125.675ZM224.596 122.721C223.532 121.507 222.754 120.224 222.243 118.872L220.477 119.497C221.103 121.154 222.043 122.689 223.281 124.101L224.596 122.721ZM222.247 118.881C221.725 117.471 221.447 116.097 221.4 114.75L219.477 114.603C219.533 116.221 219.869 117.852 220.474 119.489L222.247 118.881ZM221.4 114.75C221.352 113.376 221.498 112.158 221.825 111.086L219.992 110.226C219.589 111.551 219.422 113.014 219.477 114.603L221.4 114.75ZM221.825 111.086L222.018 110.448L220.186 109.589L219.992 110.226L221.825 111.086ZM222.018 110.448C222.388 109.234 222.958 108.143 223.732 107.172L222.228 105.682C221.31 106.831 220.628 108.135 220.186 109.589L222.018 110.448ZM223.735 107.168C224.508 106.189 225.454 105.419 226.582 104.859L225.636 102.914C224.296 103.58 223.156 104.504 222.225 105.686L223.735 107.168ZM226.582 104.859C227.691 104.306 228.942 104.029 230.347 104.038L230.151 101.922C228.504 101.912 226.995 102.238 225.636 102.914L226.582 104.859ZM230.342 104.038C231.733 104.054 233.26 104.438 234.938 105.225L235.526 103.292C233.647 102.411 231.854 101.942 230.155 101.922L230.342 104.038ZM234.938 105.225C236.595 106.003 237.926 106.961 238.957 108.08L240.232 106.655C238.964 105.28 237.386 104.165 235.526 103.292L234.938 105.225ZM238.961 108.084C240.037 109.241 240.835 110.479 241.372 111.801L243.116 111.12C242.456 109.494 241.487 108.004 240.228 106.651L238.961 108.084ZM241.372 111.801C241.919 113.149 242.219 114.503 242.277 115.872L244.199 116.002C244.13 114.349 243.766 112.72 243.116 111.12L241.372 111.801ZM242.278 115.891C242.358 117.261 242.214 118.547 241.846 119.756L243.678 120.616C244.122 119.158 244.295 117.611 244.198 115.983L242.278 115.891ZM241.846 119.756L241.652 120.394L243.485 121.254L243.678 120.616L241.846 119.756ZM241.652 120.394C241.328 121.461 240.783 122.486 239.999 123.467L241.505 124.957C242.413 123.818 243.079 122.585 243.485 121.254L241.652 120.394ZM239.991 123.478C239.239 124.449 238.298 125.251 237.157 125.88L238.163 127.793C239.489 127.062 240.609 126.115 241.512 124.947L239.991 123.478ZM237.164 125.876C236.061 126.471 234.795 126.793 233.351 126.831L233.602 128.946C235.282 128.903 236.805 128.524 238.156 127.797L237.164 125.876ZM233.361 126.831C231.969 126.849 230.425 126.478 228.715 125.675L228.127 127.608C230.045 128.508 231.871 128.969 233.592 128.946L233.361 126.831ZM229.662 122.564C230.644 123.024 231.608 123.28 232.546 123.3L232.377 121.185C231.734 121.171 231.028 120.995 230.25 120.63L229.662 122.564ZM232.546 123.3C233.466 123.321 234.326 123.139 235.115 122.749L234.174 120.803C233.632 121.071 233.037 121.199 232.377 121.185L232.546 123.3ZM235.115 122.749C235.895 122.366 236.564 121.813 237.121 121.101L235.605 119.626C235.202 120.141 234.726 120.531 234.174 120.803L235.115 122.749ZM237.126 121.094C237.685 120.366 238.109 119.509 238.405 118.538L236.572 117.678C236.339 118.446 236.013 119.093 235.6 119.632L237.126 121.094ZM238.405 118.538C238.718 117.51 238.858 116.476 238.805 115.446L236.883 115.337C236.921 116.074 236.824 116.851 236.572 117.678L238.405 118.538ZM238.806 115.471C238.774 114.457 238.566 113.482 238.172 112.56L236.444 113.282C236.711 113.906 236.86 114.579 236.882 115.314L238.806 115.471ZM238.172 112.56C237.779 111.637 237.219 110.814 236.51 110.095L235.291 111.576C235.797 112.09 236.178 112.658 236.444 113.282L238.172 112.56ZM236.51 110.095C235.795 109.369 234.95 108.788 233.991 108.337L233.402 110.27C234.166 110.628 234.789 111.067 235.291 111.576L236.51 110.095ZM233.991 108.337C233.016 107.88 232.062 107.615 231.137 107.572L231.263 109.685C231.908 109.716 232.619 109.902 233.402 110.27L233.991 108.337ZM231.137 107.572C230.223 107.529 229.366 107.688 228.579 108.056L229.489 110.017C230.022 109.768 230.608 109.655 231.263 109.685L231.137 107.572ZM228.579 108.056C227.792 108.425 227.117 108.985 226.553 109.719L228.079 111.181C228.488 110.649 228.958 110.266 229.489 110.017L228.579 108.056ZM226.553 109.719C225.99 110.453 225.558 111.34 225.247 112.362L227.08 113.222C227.333 112.388 227.671 111.714 228.079 111.181L226.553 109.719ZM225.247 112.362C224.952 113.333 224.815 114.324 224.846 115.33L226.769 115.487C226.746 114.743 226.846 113.99 227.08 113.222L225.247 112.362ZM224.846 115.338C224.885 116.33 225.092 117.295 225.472 118.224L227.215 117.536C226.946 116.878 226.797 116.196 226.769 115.478L224.846 115.338ZM225.472 118.224C225.857 119.163 226.406 120.006 227.107 120.747L228.359 119.299C227.857 118.768 227.478 118.181 227.215 117.536L225.472 118.224ZM227.107 120.747C227.821 121.501 228.68 122.102 229.662 122.564L230.25 120.63C229.473 120.265 228.85 119.817 228.359 119.299L227.107 120.747Z" fill="black"/>
</g>
<path d="M248.393 137.835C246.619 136.781 245.239 135.589 244.253 134.262C243.285 132.945 242.688 131.582 242.462 130.173C242.259 128.755 242.419 127.367 242.943 126.009L247.641 128.802C247.451 129.292 247.399 129.817 247.483 130.377C247.591 130.928 247.853 131.466 248.271 131.993C248.689 132.519 249.288 133.015 250.071 133.48C250.749 133.883 251.36 134.131 251.903 134.221C252.463 134.321 252.93 134.275 253.304 134.08C253.695 133.896 253.982 133.568 254.164 133.097C254.396 132.493 254.339 131.893 253.993 131.293C253.655 130.674 252.946 129.987 251.869 129.23L250.687 128.388C248.793 127.031 247.485 125.431 246.763 123.588C246.041 121.744 246.046 119.871 246.78 117.966C247.302 116.609 248.037 115.62 248.981 115C249.943 114.39 251.052 114.145 252.31 114.268C253.568 114.389 254.919 114.879 256.363 115.737C257.928 116.668 259.141 117.737 260.002 118.944C260.88 120.161 261.407 121.459 261.581 122.837C261.763 124.197 261.592 125.555 261.07 126.912L256.372 124.12C256.546 123.667 256.602 123.191 256.538 122.69C256.475 122.189 256.283 121.715 255.963 121.27C255.667 120.816 255.241 120.423 254.684 120.093C254.162 119.783 253.682 119.613 253.245 119.585C252.83 119.548 252.467 119.633 252.152 119.839C251.854 120.056 251.629 120.363 251.477 120.759C251.273 121.287 251.264 121.837 251.449 122.411C251.635 122.985 252.122 123.552 252.91 124.114L254.093 124.956C255.469 125.936 256.6 127.024 257.485 128.223C258.378 129.403 258.959 130.64 259.23 131.937C259.5 133.233 259.377 134.551 258.861 135.889C258.345 137.228 257.573 138.206 256.545 138.822C255.533 139.449 254.33 139.684 252.937 139.528C251.561 139.382 250.046 138.818 248.393 137.835Z" fill="white"/>
<mask id="mask11_360_11722" style="mask-type:luminance" maskUnits="userSpaceOnUse" x="238" y="108" width="29" height="37">
<path d="M266.882 108.945H238.301V144.833H266.882V108.945Z" fill="white"/>
<path d="M248.393 137.835C246.619 136.781 245.239 135.589 244.253 134.262C243.285 132.945 242.688 131.582 242.462 130.173C242.259 128.755 242.419 127.367 242.943 126.009L247.641 128.802C247.451 129.292 247.399 129.817 247.483 130.377C247.591 130.928 247.853 131.466 248.271 131.993C248.689 132.519 249.288 133.015 250.071 133.48C250.749 133.883 251.36 134.131 251.903 134.221C252.463 134.321 252.93 134.275 253.304 134.08C253.695 133.896 253.982 133.568 254.164 133.097C254.396 132.493 254.339 131.893 253.993 131.293C253.655 130.674 252.946 129.987 251.869 129.23L250.687 128.388C248.793 127.031 247.485 125.431 246.763 123.588C246.041 121.744 246.046 119.871 246.78 117.966C247.302 116.609 248.037 115.62 248.981 115C249.943 114.39 251.052 114.145 252.31 114.268C253.568 114.389 254.919 114.879 256.363 115.737C257.928 116.668 259.141 117.737 260.002 118.944C260.88 120.161 261.407 121.459 261.581 122.837C261.763 124.197 261.592 125.555 261.07 126.912L256.372 124.12C256.546 123.667 256.602 123.191 256.538 122.69C256.475 122.189 256.283 121.715 255.963 121.27C255.667 120.816 255.241 120.423 254.684 120.093C254.162 119.783 253.682 119.613 253.245 119.585C252.83 119.548 252.467 119.633 252.152 119.839C251.854 120.056 251.629 120.363 251.477 120.759C251.273 121.287 251.264 121.837 251.449 122.411C251.635 122.985 252.122 123.552 252.91 124.114L254.093 124.956C255.469 125.936 256.6 127.024 257.485 128.223C258.378 129.403 258.959 130.64 259.23 131.937C259.5 133.233 259.377 134.551 258.861 135.889C258.345 137.228 257.573 138.206 256.545 138.822C255.533 139.449 254.33 139.684 252.937 139.528C251.561 139.382 250.046 138.818 248.393 137.835Z" fill="black"/>
</mask>
<g mask="url(#mask11_360_11722)">
<path d="M244.25 134.262L243.555 134.9L243.559 134.904L244.25 134.262ZM242.459 130.172L241.528 130.234L241.53 130.245L241.531 130.256L242.459 130.172ZM242.94 126.009L243.304 125.067L242.434 124.55L242.07 125.492L242.94 126.009ZM247.638 128.802L248.508 129.319L248.87 128.376L248 127.859L247.638 128.802ZM247.48 130.376L246.551 130.446L246.555 130.475L246.56 130.504L247.48 130.376ZM251.9 134.22L251.95 133.159L251.939 133.157L251.9 134.22ZM253.302 134.08L252.865 133.079L252.851 133.086L252.838 133.093L253.302 134.08ZM253.99 131.292L253.205 131.789L253.213 131.802L253.22 131.815L253.99 131.292ZM251.867 129.23L251.43 130.126L251.436 130.13L251.867 129.23ZM250.684 128.388L250.245 129.282L250.247 129.284L250.684 128.388ZM248.979 115L248.456 114.046L248.445 114.053L248.979 115ZM259.999 118.944L259.294 119.567L259.298 119.573L259.999 118.944ZM261.578 122.837L260.645 122.878L260.647 122.887L261.578 122.837ZM261.067 126.912L260.703 127.855L261.573 128.373L261.937 127.429L261.067 126.912ZM256.369 124.12L255.499 123.603L255.136 124.546L256.005 125.063L256.369 124.12ZM255.96 121.27L255.225 121.85L255.24 121.873L255.257 121.897L255.96 121.27ZM253.242 119.585L253.267 120.656L253.277 120.657H253.287L253.242 119.585ZM252.149 119.838L251.617 118.893L251.599 118.903L251.583 118.915L252.149 119.838ZM257.482 128.223L256.788 128.863L256.797 128.875L257.482 128.223ZM256.542 138.822L256.037 137.858L256.027 137.864L256.542 138.822ZM252.934 139.528L252.927 138.458L252.922 138.457L252.934 139.528ZM248.754 136.893C247.066 135.889 245.812 134.79 244.943 133.619L243.559 134.904C244.661 136.389 246.166 137.672 248.028 138.778L248.754 136.893ZM244.946 133.624C244.078 132.443 243.575 131.268 243.386 130.089L241.531 130.256C241.796 131.895 242.487 133.447 243.555 134.9L244.946 133.624ZM243.389 130.112C243.218 128.913 243.348 127.724 243.81 126.526L242.07 125.492C241.486 127.01 241.295 128.597 241.528 130.234L243.389 130.112ZM242.576 126.953L247.274 129.744L248 127.859L243.304 125.067L242.576 126.953ZM246.768 128.285C246.51 128.954 246.437 129.684 246.551 130.446L248.408 130.307C248.356 129.95 248.388 129.629 248.508 129.319L246.768 128.285ZM246.56 130.504C246.716 131.294 247.085 132.017 247.6 132.666L248.937 131.319C248.617 130.916 248.46 130.561 248.398 130.249L246.56 130.504ZM247.6 132.666C248.134 133.339 248.854 133.916 249.706 134.422L250.432 132.537C249.718 132.113 249.238 131.698 248.937 131.319L247.6 132.666ZM249.706 134.422C250.453 134.867 251.176 135.17 251.862 135.284L251.939 133.157C251.54 133.09 251.041 132.899 250.432 132.537L249.706 134.422ZM251.85 135.283C252.536 135.406 253.193 135.365 253.764 135.068L252.838 133.093C252.661 133.185 252.384 133.238 251.95 133.159L251.85 135.283ZM253.737 135.081C254.338 134.798 254.771 134.29 255.031 133.614L253.292 132.58C253.188 132.847 253.047 132.993 252.865 133.079L253.737 135.081ZM255.031 133.614C255.388 132.688 255.295 131.693 254.762 130.77L253.22 131.815C253.379 132.09 253.4 132.299 253.292 132.58L255.031 133.614ZM254.775 130.794C254.296 129.919 253.402 129.107 252.296 128.33L251.436 130.13C252.485 130.865 253.007 131.428 253.205 131.789L254.775 130.794ZM252.302 128.334L251.119 127.492L250.247 129.284L251.43 130.126L252.302 128.334ZM251.122 127.494C249.364 126.234 248.229 124.808 247.615 123.238L245.905 123.937C246.736 126.053 248.216 127.827 250.245 129.282L251.122 127.494ZM247.615 123.238C247.017 121.716 247.002 120.157 247.647 118.483L245.907 117.449C245.084 119.585 245.058 121.772 245.905 123.937L247.615 123.238ZM247.647 118.483C248.113 117.273 248.743 116.451 249.511 115.946L248.445 114.053C247.325 114.789 246.486 115.944 245.907 117.449L247.647 118.483ZM249.5 115.953C250.3 115.445 251.233 115.232 252.327 115.338L252.287 113.196C250.867 113.058 249.58 113.333 248.456 114.046L249.5 115.953ZM252.327 115.338C253.425 115.445 254.644 115.876 255.996 116.68L256.722 114.795C255.186 113.881 253.704 113.333 252.287 113.196L252.327 115.338ZM255.996 116.68C257.47 117.556 258.551 118.526 259.294 119.567L260.705 118.32C259.726 116.947 258.381 115.78 256.722 114.795L255.996 116.68ZM259.298 119.573C260.063 120.634 260.5 121.73 260.645 122.878L262.511 122.796C262.307 121.187 261.692 119.688 260.701 118.314L259.298 119.573ZM260.647 122.887C260.798 124.023 260.662 125.187 260.197 126.395L261.937 127.429C262.517 125.922 262.721 124.369 262.51 122.786L260.647 122.887ZM261.429 125.97L256.733 123.177L256.005 125.063L260.703 127.855L261.429 125.97ZM257.239 124.637C257.477 124.019 257.557 123.35 257.468 122.648L255.602 122.731C255.641 123.032 255.61 123.316 255.499 123.603L257.239 124.637ZM257.468 122.648C257.376 121.916 257.094 121.242 256.663 120.642L255.257 121.897C255.466 122.188 255.568 122.46 255.602 122.731L257.468 122.648ZM256.695 120.69C256.277 120.048 255.708 119.544 255.044 119.15L254.318 121.035C254.769 121.303 255.051 121.584 255.225 121.85L256.695 120.69ZM255.044 119.15C254.43 118.784 253.808 118.551 253.195 118.511L253.287 120.657C253.551 120.675 253.889 120.781 254.318 121.035L255.044 119.15ZM253.216 118.512C252.636 118.461 252.094 118.579 251.617 118.893L252.682 120.785C252.835 120.685 253.019 120.634 253.267 120.656L253.216 118.512ZM251.583 118.915C251.143 119.236 250.818 119.689 250.604 120.241L252.344 121.276C252.436 121.036 252.56 120.876 252.714 120.763L251.583 118.915ZM250.604 120.241C250.309 121.007 250.293 121.841 250.566 122.685L252.327 122.136C252.23 121.834 252.232 121.565 252.344 121.276L250.604 120.241ZM250.566 122.685C250.874 123.641 251.613 124.396 252.472 125.009L253.343 123.218C252.626 122.707 252.389 122.328 252.327 122.136L250.566 122.685ZM252.472 125.009L253.655 125.851L254.527 124.06L253.343 123.218L252.472 125.009ZM253.655 125.851C254.951 126.775 255.989 127.782 256.788 128.863L258.176 127.583C257.204 126.268 255.981 125.096 254.527 124.06L253.655 125.851ZM256.797 128.875C257.592 129.926 258.083 130.991 258.31 132.078L260.143 131.795C259.829 130.29 259.157 128.88 258.168 127.572L256.797 128.875ZM258.31 132.078C258.526 133.11 258.441 134.199 257.988 135.372L259.728 136.406C260.308 134.901 260.468 133.355 260.143 131.795L258.31 132.078ZM257.988 135.372C257.54 136.537 256.886 137.349 256.037 137.858L257.048 139.786C258.255 139.062 259.146 137.918 259.728 136.406L257.988 135.372ZM256.027 137.864C255.188 138.384 254.168 138.598 252.927 138.458L252.941 140.598C254.487 140.772 255.873 140.514 257.058 139.779L256.027 137.864ZM252.922 138.457C251.707 138.329 250.322 137.825 248.754 136.893L248.028 138.778C249.764 139.81 251.409 140.436 252.946 140.598L252.922 138.457Z" fill="black"/>
</g>
</g>
<defs>
<filter id="filter0_d_360_11722" x="21.0918" y="25.5343" width="217.043" height="208.124" filterUnits="userSpaceOnUse" color-interpolation-filters="sRGB">
<feFlood flood-opacity="0" result="BackgroundImageFix"/>
<feColorMatrix in="SourceAlpha" type="matrix" values="0 0 0 0 0 0 0 0 0 0 0 0 0 0 0 0 0 0 127 0" result="hardAlpha"/>
<feOffset dy="4"/>
<feGaussianBlur stdDeviation="2"/>
<feComposite in2="hardAlpha" operator="out"/>
<feColorMatrix type="matrix" values="0 0 0 0 0 0 0 0 0 0 0 0 0 0 0 0 0 0 0.25 0"/>
<feBlend mode="normal" in2="BackgroundImageFix" result="effect1_dropShadow_360_11722"/>
<feBlend mode="normal" in="SourceGraphic" in2="effect1_dropShadow_360_11722" result="shape"/>
</filter>
<filter id="filter1_d_360_11722" x="17.8691" y="59.6027" width="65.3008" height="137.54" filterUnits="userSpaceOnUse" color-interpolation-filters="sRGB">
<feFlood flood-opacity="0" result="BackgroundImageFix"/>
<feColorMatrix in="SourceAlpha" type="matrix" values="0 0 0 0 0 0 0 0 0 0 0 0 0 0 0 0 0 0 127 0" result="hardAlpha"/>
<feOffset dy="4"/>
<feGaussianBlur stdDeviation="2"/>
<feComposite in2="hardAlpha" operator="out"/>
<feColorMatrix type="matrix" values="0 0 0 0 0 0 0 0 0 0 0 0 0 0 0 0 0 0 0.25 0"/>
<feBlend mode="normal" in2="BackgroundImageFix" result="effect1_dropShadow_360_11722"/>
<feBlend mode="normal" in="SourceGraphic" in2="effect1_dropShadow_360_11722" result="shape"/>
</filter>
<filter id="filter2_d_360_11722" x="123.398" y="133.3" width="115.367" height="104.201" filterUnits="userSpaceOnUse" color-interpolation-filters="sRGB">
<feFlood flood-opacity="0" result="BackgroundImageFix"/>
<feColorMatrix in="SourceAlpha" type="matrix" values="0 0 0 0 0 0 0 0 0 0 0 0 0 0 0 0 0 0 127 0" result="hardAlpha"/>
<feOffset dy="4"/>
<feGaussianBlur stdDeviation="2"/>
<feComposite in2="hardAlpha" operator="out"/>
<feColorMatrix type="matrix" values="0 0 0 0 0 0 0 0 0 0 0 0 0 0 0 0 0 0 0.25 0"/>
<feBlend mode="normal" in2="BackgroundImageFix" result="effect1_dropShadow_360_11722"/>
<feBlend mode="normal" in="SourceGraphic" in2="effect1_dropShadow_360_11722" result="shape"/>
</filter>
<filter id="filter3_d_360_11722" x="98.8398" y="23.0725" width="124.73" height="105.217" filterUnits="userSpaceOnUse" color-interpolation-filters="sRGB">
<feFlood flood-opacity="0" result="BackgroundImageFix"/>
<feColorMatrix in="SourceAlpha" type="matrix" values="0 0 0 0 0 0 0 0 0 0 0 0 0 0 0 0 0 0 127 0" result="hardAlpha"/>
<feOffset dy="4"/>
<feGaussianBlur stdDeviation="2"/>
<feComposite in2="hardAlpha" operator="out"/>
<feColorMatrix type="matrix" values="0 0 0 0 0 0 0 0 0 0 0 0 0 0 0 0 0 0 0.25 0"/>
<feBlend mode="normal" in2="BackgroundImageFix" result="effect1_dropShadow_360_11722"/>
<feBlend mode="normal" in="SourceGraphic" in2="effect1_dropShadow_360_11722" result="shape"/>
</filter>
<filter id="filter4_d_360_11722" x="0" y="72.6516" width="266.592" height="76.2793" filterUnits="userSpaceOnUse" color-interpolation-filters="sRGB">
<feFlood flood-opacity="0" result="BackgroundImageFix"/>
<feColorMatrix in="SourceAlpha" type="matrix" values="0 0 0 0 0 0 0 0 0 0 0 0 0 0 0 0 0 0 127 0" result="hardAlpha"/>
<feOffset dy="4"/>
<feGaussianBlur stdDeviation="2"/>
<feComposite in2="hardAlpha" operator="out"/>
<feColorMatrix type="matrix" values="0 0 0 0 0 0 0 0 0 0 0 0 0 0 0 0 0 0 0.25 0"/>
<feBlend mode="normal" in2="BackgroundImageFix" result="effect1_dropShadow_360_11722"/>
<feBlend mode="normal" in="SourceGraphic" in2="effect1_dropShadow_360_11722" result="shape"/>
</filter>
<linearGradient id="paint0_linear_360_11722" x1="97.8052" y1="33.4532" x2="161.127" y2="217.844" gradientUnits="userSpaceOnUse">
<stop stop-color="#5EB1FF"/>
<stop offset="0.626667" stop-color="#4D91F0"/>
<stop offset="1" stop-color="#03316A"/>
</linearGradient>
<linearGradient id="paint1_linear_360_11722" x1="82.3058" y1="77.7674" x2="82.3058" y2="212.093" gradientUnits="userSpaceOnUse">
<stop offset="0.786667" stop-color="#D6D91B"/>
<stop offset="1" stop-color="#72730E"/>
</linearGradient>
<linearGradient id="paint2_linear_360_11722" x1="184.589" y1="37.369" x2="184.589" y2="181.289" gradientUnits="userSpaceOnUse">
<stop offset="0.591667" stop-color="#D6D91B"/>
<stop offset="1" stop-color="#72730E"/>
</linearGradient>
</defs>
</svg>
