<svg width="183" height="170" viewBox="0 0 183 170" fill="none" xmlns="http://www.w3.org/2000/svg">
<g filter="url(#filter0_d_61_2564)">
<path d="M110.426 146.602C146.649 134.162 166.425 96.3024 154.595 62.0391C142.766 27.7759 103.812 10.0842 67.5883 22.5236C31.3649 34.9631 11.5896 72.8231 23.4189 107.086C35.2482 141.35 74.2027 159.041 110.426 146.602Z" fill="url(#paint0_linear_61_2564)"/>
<path d="M110.648 147.245C147.195 134.694 167.203 96.4676 155.24 61.8178C143.277 27.1678 103.913 9.33014 67.3663 21.8806C30.8195 34.4312 10.8115 72.6574 22.7744 107.307C34.7373 141.958 74.1011 159.795 110.648 147.245Z" stroke="black" stroke-width="2"/>
</g>
<path d="M66.358 140.76V140.34L65.981 140.152L62.627 138.479L60.2216 136.68V124.86L62.572 123.688L62.7753 123.587L62.8769 123.384L66.0975 116.96H68.4034H68.8409L69.0233 116.564L72.7733 108.404L72.8353 108.268V108.12V105.118L81.0096 100.553L81.358 100.358V99.96V92.9431L82.3248 90.372L87.4221 80.204L87.5687 79.9116L87.4317 79.6151L85.3862 75.1951L85.3058 75.021L85.1455 74.9142L80.0319 71.5142L79.8601 71.4H79.6535H71.5119L69.0065 67.3398L67.3196 63.6385L67.2222 63.4249L67.0135 63.3166L49.968 54.4766L49.9201 54.4518L49.869 54.4349L41.6872 51.7149L41.5823 51.6799H41.4716H39.4261H39.187L39.0002 51.829L30.4775 58.629L30.2216 58.8331V59.1599V64.7637L26.8983 70.7295L26.8125 70.8839V71.06V77.52V77.6982L26.9 77.8532L33.0364 88.7332L33.0755 88.8026L33.1297 88.861L37.1594 93.2151L40.8646 100.27L42.1534 102.84V120.02V120.098L42.1709 120.173L43.1936 124.593L43.2516 124.844L43.4617 124.994L45.5625 126.49V132.6V132.848L45.7228 133.038L51.1773 139.498L51.3817 139.74H51.6989H54.4199L56.9429 143.2L57.1471 143.48H57.4943H65.6761H66.358V142.8V140.76Z" fill="url(#paint1_linear_61_2564)" stroke="black" stroke-width="2"/>
<g filter="url(#filter1_d_61_2564)">
<path d="M19.9941 49.2999L29.1987 54.7399L23.0623 67.3199L19.9941 78.2V89.42L22.0396 102L26.4714 114.58L29.8805 121.04L33.2896 126.14L30.9032 113.56V102L32.2669 92.14L34.3123 84.32L37.0396 76.16L39.426 71.4L42.4941 67.3199L53.4032 74.12L49.9941 41.8199L19.9941 49.2999Z" fill="#34F741"/>
<path d="M19.8291 48.6402L18.2197 49.0415L19.6468 49.8849L28.3112 55.0057L22.4495 67.0225L22.4228 67.0772L22.4063 67.1358L19.3381 78.0157L19.3126 78.1061V78.2V89.42V89.4744L19.3214 89.5288L21.3669 102.109L21.3765 102.169L21.3966 102.225L25.8284 114.805L25.845 114.853L25.8684 114.897L29.2775 121.357L29.2939 121.388L29.3135 121.417L32.7226 126.517L33.9598 126.014L31.5853 113.496V102.047L32.9371 92.2726L34.9666 84.5138L37.6714 76.4211L40.0086 71.759L42.6641 68.2278L53.0422 74.6966L54.228 75.4358L54.0816 74.0486L50.6725 41.7488L50.5903 40.9705L49.8291 41.1602L19.8291 48.6402Z" stroke="black" stroke-width="2"/>
</g>
<path d="M129.488 122.342L129.669 122.74H130.108H139.994H140.294L140.497 122.52L147.997 114.36L148.11 114.237L148.153 114.075L150.851 103.986L157.263 94.5615L157.427 94.3215L157.366 94.0372L155.394 84.862L159.246 80.7011L159.446 80.4841L159.424 80.1897L158.742 71.0097L158.736 70.9199L158.706 70.8356L153.934 57.2353L153.921 57.2014L153.906 57.1689L150.838 50.7089L150.807 50.6431L150.762 50.5854L143.944 41.7454L143.924 41.7204L143.903 41.6973L139.472 36.9373L139.437 36.9004L139.398 36.869L134.284 32.789L133.93 32.5064L133.532 32.723L130.031 34.6271L123.797 32.7617L121.534 27.2811L121.423 27.0118L121.15 26.9062L115.014 24.5262L114.795 24.4409L114.569 24.5095L106.728 26.8895L106.673 26.9061L106.622 26.9318L98.4397 31.0118L98.259 31.1017L98.1568 31.2752L94.8227 36.9277L91.5349 39.2229L91.4218 39.3022L91.3481 39.4195L87.939 44.8595L87.8729 44.9649L87.8484 45.0866L86.1438 53.5866L86.1309 53.6526V53.7199V60.1799V60.3145L86.182 60.4389L88.5684 66.2189L88.6331 66.3745L88.7627 66.4824L94.899 71.5823L95.0409 71.7006L95.2236 71.7305L103.405 73.0905L103.525 73.1109L103.645 73.0878L110.53 71.7801L116.131 75.5038V81.26V81.5783L116.376 81.7823L120.222 84.9783V103.7V103.88L120.312 104.037L124.387 111.15L129.488 122.342Z" fill="url(#paint2_linear_61_2564)" stroke="black" stroke-width="2"/>
<g filter="url(#filter2_d_61_2564)">
<path d="M123.29 153L121.585 142.12L132.495 135.66L142.04 127.84L149.54 119.34L153.972 111.18L155.676 107.1L157.04 103.02L157.722 98.94L158.404 90.78L153.29 104.04L143.063 116.28L136.585 120.02L130.79 121.72L123.29 123.76L114.767 124.78L109.313 112.069L99.4264 129.148L89.54 146.225L106.245 151.3L123.29 153Z" fill="#34F741"/>
<path d="M123.222 153.677L124.1 153.764L123.963 152.895L122.33 142.47L132.842 136.245L132.887 136.218L132.927 136.186L142.473 128.366L142.515 128.33L142.552 128.289L150.052 119.789L150.102 119.732L150.139 119.664L154.571 111.504L154.587 111.473L154.601 111.442L156.306 107.362L156.315 107.339L156.323 107.315L157.687 103.235L157.703 103.185L157.712 103.132L158.394 99.0515L158.399 99.0243L158.401 98.9964L159.083 90.8364L157.767 90.5359L152.694 103.691L142.616 115.752L136.315 119.39L130.604 121.066L123.159 123.091L115.193 124.044L109.939 111.802L109.403 110.552L108.722 111.729L98.8357 128.808L88.9494 145.885L88.5205 146.626L89.3414 146.876L106.046 151.951L106.11 151.97L106.176 151.977L123.222 153.677Z" stroke="black" stroke-width="2"/>
</g>
<g filter="url(#filter3_d_61_2564)">
<path d="M147.398 42.7979L133.128 46.3257L125.201 33.6218L117.151 25.8918L107.608 20.0598L95.9455 17.3847L89.5486 16.892L83.3795 17.4071L71.8125 19.3798L83.3761 19.4229L91.0125 21.1307L98.7443 25.4998L105.563 30.9398L109.994 40.7998L112.722 50.9998L101.076 55.9869L133.858 78.8799L147.398 42.7979Z" fill="#34F741"/>
<path d="M148.036 43.0363L148.49 41.8274L147.234 42.138L133.445 45.5467L125.78 33.2625L125.735 33.1907L125.674 33.132L117.624 25.402L117.571 25.3507L117.507 25.3121L107.964 19.4801L107.869 19.4221L107.761 19.3972L96.0982 16.722L96.0484 16.7107L95.9979 16.7067L89.6011 16.2141L89.5459 16.2098L89.4914 16.2144L83.3229 16.7296L83.2936 16.732L83.265 16.7369L71.6973 18.7096L71.8098 20.0599L83.2998 20.1026L90.7643 21.7722L98.3611 26.0647L105.007 31.3681L109.349 41.0281L111.911 50.607L100.807 55.3621L99.6818 55.8437L100.685 56.5439L133.467 79.4368L134.188 79.9407L134.496 79.1179L148.036 43.0363Z" stroke="black" stroke-width="2"/>
</g>
<g filter="url(#filter4_d_61_2564)">
<path d="M10.4317 93.9114L5.25781 79.9421L9.83675 77.3255L15.2277 83.1715L15.5826 82.9688L15.4984 74.0901L20.166 71.4231L25.3399 85.3923L22.0744 87.2583L17.6588 75.3365L18.1877 75.0808L18.2106 86.0581L15.2112 87.7717L8.49732 80.6181L9.0333 80.2651L13.4489 92.1876L10.4317 93.9114Z" fill="white"/>
<mask id="mask0_61_2564" style="mask-type:luminance" maskUnits="userSpaceOnUse" x="4" y="70" width="23" height="25">
<path d="M26.5111 70.1875H4.27637V94.9619H26.5111V70.1875Z" fill="white"/>
<path d="M10.4317 93.9114L5.25781 79.9421L9.83675 77.3255L15.2277 83.1715L15.5826 82.9688L15.4984 74.0901L20.166 71.4231L25.3399 85.3923L22.0744 87.2583L17.6588 75.3365L18.1877 75.0808L18.2106 86.0581L15.2112 87.7717L8.49732 80.6181L9.0333 80.2651L13.4489 92.1876L10.4317 93.9114Z" fill="black"/>
</mask>
<g mask="url(#mask0_61_2564)">
<path d="M10.4314 93.9113L9.83989 94.2493L10.0761 94.8871L10.6677 94.5492L10.4314 93.9113ZM5.25754 79.9421L5.02128 79.3043L4.42969 79.6422L4.66594 80.2801L5.25754 79.9421ZM9.83648 77.3255L10.302 76.7787L10.0047 76.4564L9.60023 76.6876L9.83648 77.3255ZM15.2274 83.1714L14.7619 83.7181L15.0592 84.0405L15.4637 83.8093L15.2274 83.1714ZM15.5824 82.9688L15.8186 83.6066L16.224 83.3747L16.2193 82.8838L15.5824 82.9688ZM15.4981 74.09L15.2618 73.4522L14.8564 73.6841L14.8611 74.175L15.4981 74.09ZM20.1658 71.4231L20.7574 71.0851L20.5211 70.4473L19.9295 70.7852L20.1658 71.4231ZM25.3397 85.3923L25.5759 86.0301L26.1675 85.6922L25.9313 85.0543L25.3397 85.3923ZM22.0741 87.2582L21.4825 87.5962L21.7187 88.234L22.3103 87.8961L22.0741 87.2582ZM17.6585 75.3365L17.4635 74.6769L16.8138 74.991L17.067 75.6744L17.6585 75.3365ZM18.1874 75.0808L18.8244 75.0019L18.8224 74.02L17.9924 74.4212L18.1874 75.0808ZM18.2103 86.058L18.4465 86.6959L18.8483 86.466L18.8473 85.9791L18.2103 86.058ZM15.2109 87.7716L14.7488 88.3224L15.0461 88.6386L15.4472 88.4095L15.2109 87.7716ZM8.49705 80.618L8.22316 80.0033L7.43086 80.5249L8.03501 81.1681L8.49705 80.618ZM9.03302 80.2651L9.62464 79.9271L9.37264 79.2471L8.75921 79.6504L9.03302 80.2651ZM13.4486 92.1875L13.6849 92.8254L14.2765 92.4867L14.0402 91.8489L13.4486 92.1875ZM11.023 93.5734L5.84913 79.6035L4.66594 80.2801L9.83989 94.2493L11.023 93.5734ZM5.49379 80.5799L10.0727 77.9633L9.60023 76.6876L5.02128 79.3043L5.49379 80.5799ZM9.371 77.8722L14.7619 83.7181L15.6929 82.6247L10.302 76.7787L9.371 77.8722ZM15.4637 83.8093L15.8186 83.6066L15.3461 82.3309L14.9912 82.5336L15.4637 83.8093ZM16.2193 82.8838L16.135 74.005L14.8611 74.175L14.9453 83.0538L16.2193 82.8838ZM15.7343 74.7279L20.402 72.0609L19.9295 70.7852L15.2618 73.4522L15.7343 74.7279ZM19.5741 71.761L24.7481 85.7303L25.9313 85.0543L20.7574 71.0851L19.5741 71.761ZM25.1034 84.7545L21.8378 86.6204L22.3103 87.8961L25.5759 86.0301L25.1034 84.7545ZM22.6656 86.9203L18.2501 74.9985L17.067 75.6744L21.4825 87.5962L22.6656 86.9203ZM17.8535 75.9961L18.3824 75.7404L17.9924 74.4212L17.4635 74.6769L17.8535 75.9961ZM17.5504 75.1597L17.5733 86.1369L18.8473 85.9791L18.8244 75.0019L17.5504 75.1597ZM17.974 85.4202L14.9747 87.1338L15.4472 88.4095L18.4465 86.6959L17.974 85.4202ZM15.6729 87.2215L8.95905 80.0679L8.03501 81.1681L14.7488 88.3224L15.6729 87.2215ZM8.77086 81.2327L9.30691 80.8798L8.75921 79.6504L8.22316 80.0033L8.77086 81.2327ZM8.44148 80.6037L12.857 92.5255L14.0402 91.8489L9.62464 79.9271L8.44148 80.6037ZM13.2124 91.549L10.1952 93.2735L10.6677 94.5492L13.6849 92.8254L13.2124 91.549Z" fill="black"/>
</g>
<path d="M27.213 84.6076L26.0518 80.7377L29.6882 79.0547L30.8494 82.9239L27.213 84.6076Z" fill="white"/>
<mask id="mask1_61_2564" style="mask-type:luminance" maskUnits="userSpaceOnUse" x="25" y="77" width="8" height="9">
<path d="M32.2324 77.8143H25.1025V85.6028H32.2324V77.8143Z" fill="white"/>
<path d="M27.213 84.6076L26.0518 80.7377L29.6882 79.0547L30.8494 82.9239L27.213 84.6076Z" fill="black"/>
</mask>
<g mask="url(#mask1_61_2564)">
<path d="M27.2134 84.6075L26.595 84.8938L26.7904 85.5452L27.4088 85.2589L27.2134 84.6075ZM26.0522 80.7376L25.8567 80.0862L25.2383 80.3724L25.4338 81.0239L26.0522 80.7376ZM29.6886 79.0546L30.307 78.7677L30.1115 78.1162L29.4931 78.4032L29.6886 79.0546ZM30.8498 82.9238L31.0453 83.5753L31.6637 83.289L31.4682 82.6375L30.8498 82.9238ZM27.8318 84.3212L26.6706 80.4513L25.4338 81.0239L26.595 84.8938L27.8318 84.3212ZM26.2476 81.389L29.8841 79.706L29.4931 78.4032L25.8567 80.0862L26.2476 81.389ZM29.0702 79.3409L30.2314 83.2101L31.4682 82.6375L30.307 78.7677L29.0702 79.3409ZM30.6543 82.2724L27.0179 83.956L27.4088 85.2589L31.0453 83.5753L30.6543 82.2724Z" fill="black"/>
</g>
<path d="M41.5518 78.9084C40.2864 79.3776 39.1459 79.5558 38.1303 79.4422C37.1116 79.3158 36.2192 78.9914 35.4534 78.4685C34.6843 77.9326 34.0543 77.2798 33.5634 76.5114C33.0724 75.743 32.7285 74.9488 32.5315 74.1287L32.4267 73.6922C32.2074 72.7796 32.1336 71.8344 32.2051 70.8572C32.2862 69.8624 32.535 68.8988 32.9514 67.9666C33.3806 67.0299 33.9917 66.184 34.7848 65.4291C35.5779 64.6743 36.5752 64.0742 37.7768 63.6289C39.055 63.1552 40.2466 62.9871 41.3516 63.125C42.4661 63.2448 43.4318 63.643 44.2486 64.3197C45.0623 64.9831 45.6616 65.8845 46.0466 67.0237L42.4804 68.3453C42.2702 67.8761 41.9736 67.5106 41.5907 67.2493C41.2077 66.9879 40.7623 66.8433 40.2545 66.8155C39.7435 66.7744 39.194 66.8629 38.606 67.0808C38.0564 67.2845 37.5817 67.5685 37.182 67.9326C36.795 68.2923 36.4926 68.7139 36.2749 69.198C36.0666 69.6638 35.9414 70.1854 35.8991 70.7627C35.8697 71.336 35.9328 71.9459 36.0885 72.594C36.2441 73.242 36.4606 73.7955 36.738 74.2545C37.028 74.7088 37.3709 75.0644 37.7666 75.3208C38.1752 75.573 38.6269 75.7152 39.122 75.7478C39.6139 75.7668 40.1474 75.6703 40.7226 75.4568C41.6173 75.1249 42.3175 74.621 42.823 73.9438C43.3413 73.2617 43.5738 72.5205 43.5206 71.7195L47.0868 70.3976C47.2323 71.5243 47.1191 72.647 46.7471 73.7642C46.3752 74.8815 45.7558 75.896 44.8891 76.8079C44.0192 77.7062 42.9068 78.4066 41.5518 78.9084Z" fill="white"/>
<mask id="mask2_61_2564" style="mask-type:luminance" maskUnits="userSpaceOnUse" x="29" y="59" width="21" height="24">
<path d="M49.7947 59.6683H29.6865V82.7836H49.7947V59.6683Z" fill="white"/>
<path d="M41.5518 78.9084C40.2864 79.3776 39.1459 79.5558 38.1303 79.4422C37.1116 79.3158 36.2192 78.9914 35.4534 78.4685C34.6843 77.9326 34.0543 77.2798 33.5634 76.5114C33.0724 75.743 32.7285 74.9488 32.5315 74.1287L32.4267 73.6922C32.2074 72.7796 32.1336 71.8344 32.2051 70.8572C32.2862 69.8624 32.535 68.8988 32.9514 67.9666C33.3806 67.0299 33.9917 66.184 34.7848 65.4291C35.5779 64.6743 36.5752 64.0742 37.7768 63.6289C39.055 63.1552 40.2466 62.9871 41.3516 63.125C42.4661 63.2448 43.4318 63.643 44.2486 64.3197C45.0623 64.9831 45.6616 65.8845 46.0466 67.0237L42.4804 68.3453C42.2702 67.8761 41.9736 67.5106 41.5907 67.2493C41.2077 66.9879 40.7623 66.8433 40.2545 66.8155C39.7435 66.7744 39.194 66.8629 38.606 67.0808C38.0564 67.2845 37.5817 67.5685 37.182 67.9326C36.795 68.2923 36.4926 68.7139 36.2749 69.198C36.0666 69.6638 35.9414 70.1854 35.8991 70.7627C35.8697 71.336 35.9328 71.9459 36.0885 72.594C36.2441 73.242 36.4606 73.7955 36.738 74.2545C37.028 74.7088 37.3709 75.0644 37.7666 75.3208C38.1752 75.573 38.6269 75.7152 39.122 75.7478C39.6139 75.7668 40.1474 75.6703 40.7226 75.4568C41.6173 75.1249 42.3175 74.621 42.823 73.9438C43.3413 73.2617 43.5738 72.5205 43.5206 71.7195L47.0868 70.3976C47.2323 71.5243 47.1191 72.647 46.7471 73.7642C46.3752 74.8815 45.7558 75.896 44.8891 76.8079C44.0192 77.7062 42.9068 78.4066 41.5518 78.9084Z" fill="black"/>
</mask>
<g mask="url(#mask2_61_2564)">
<path d="M38.1297 79.4422L37.9896 80.1399L37.9969 80.1412L38.1297 79.4422ZM35.4527 78.4684L35.0551 79.0682L35.0597 79.0709L35.4527 78.4684ZM32.2045 70.8572L31.5484 70.8667L31.548 70.8728L32.2045 70.8572ZM32.9508 67.9665L32.3644 67.7108L32.3612 67.7183L32.9508 67.9665ZM41.3509 63.1249L41.2105 63.8227L41.2155 63.8233L41.2206 63.8239L41.3509 63.1249ZM44.248 64.3197L43.8126 64.8905L43.816 64.8933L44.248 64.3197ZM46.046 67.0236L46.2049 67.685L46.904 67.4258L46.6684 66.7285L46.046 67.0236ZM42.4797 68.3453L41.88 68.6982L42.1065 69.2041L42.6386 69.0069L42.4797 68.3453ZM40.2539 66.8154L40.1395 67.516L40.147 67.5166L40.1547 67.517L40.2539 66.8154ZM37.1813 67.9325L36.7836 67.4181L36.778 67.4232L37.1813 67.9325ZM36.2742 69.198L35.6856 68.9471L35.6847 68.9491L36.2742 69.198ZM35.8985 70.7627L35.242 70.7783L35.2414 70.7865L35.241 70.7946L35.8985 70.7627ZM36.7373 74.2545L36.1732 74.6754L36.1772 74.6822L36.1812 74.6883L36.7373 74.2545ZM37.766 75.3207L37.3842 75.9314L37.3896 75.9348L37.3951 75.9382L37.766 75.3207ZM39.1214 75.7478L39.0156 76.4488H39.0235L39.0315 76.4495L39.1214 75.7478ZM42.8224 73.9437L42.3275 73.5357L42.3233 73.5412L42.8224 73.9437ZM43.5199 71.7194L43.3611 71.0578L42.8243 71.257L42.863 71.8384L43.5199 71.7194ZM47.0862 70.3975L47.7388 70.2343L47.6404 69.472L46.9273 69.7359L47.0862 70.3975ZM44.8885 76.8079L45.3215 77.288L45.3265 77.2825L44.8885 76.8079ZM41.3924 78.2474C40.1985 78.6901 39.16 78.8438 38.2624 78.7432L37.9969 80.1412C39.1305 80.2677 40.373 80.0658 41.71 79.57L41.3924 78.2474ZM38.2698 78.7445C37.3341 78.6282 36.5298 78.3324 35.8457 77.8653L35.0597 79.0709C35.9075 79.6496 36.8879 80.0032 37.9896 80.1399L38.2698 78.7445ZM35.8503 77.8687C35.1406 77.3743 34.5654 76.7766 34.1188 76.0776L33.0066 76.9452C33.5419 77.783 34.2266 78.4909 35.0551 79.0682L35.8503 77.8687ZM34.1188 76.0776C33.6612 75.3608 33.348 74.6326 33.17 73.8914L31.8918 74.3653C32.1078 75.2643 32.4824 76.1245 33.0066 76.9452L34.1188 76.0776ZM33.17 73.8914L33.0651 73.4548L31.7869 73.9288L31.8918 74.3653L33.17 73.8914ZM33.0651 73.4548C32.8632 72.6143 32.795 71.7439 32.861 70.8416L31.548 70.8728C31.4709 71.9248 31.5505 72.9448 31.7869 73.9288L33.0651 73.4548ZM32.8605 70.8484C32.9345 69.9412 33.1607 69.0647 33.5403 68.2154L32.3612 67.7183C31.9081 68.7322 31.6367 69.7835 31.5484 70.8667L32.8605 70.8484ZM33.5372 68.2222C33.9205 67.3853 34.4691 66.6224 35.1944 65.932L34.374 64.9262C33.5131 65.7456 32.8395 66.6742 32.3644 67.7108L33.5372 68.2222ZM35.1944 65.932C35.899 65.2613 36.8053 64.7088 37.935 64.2901L37.6173 62.9676C36.3439 63.4395 35.2555 64.0872 34.374 64.9262L35.1944 65.932ZM37.935 64.2901C39.1312 63.8467 40.2194 63.6991 41.2105 63.8227L41.4913 62.427C40.2726 62.2751 38.9775 62.4634 37.6173 62.9676L37.935 64.2901ZM41.2206 63.8239C42.2271 63.9321 43.0863 64.2889 43.8126 64.8905L44.6835 63.7488C43.776 62.9971 42.7039 62.5573 41.4813 62.4259L41.2206 63.8239ZM43.816 64.8933C44.5348 65.4794 45.0728 66.2806 45.4237 67.3187L46.6684 66.7285C46.2492 65.4883 45.5885 64.4868 44.68 63.746L43.816 64.8933ZM45.8871 66.3623L42.3209 67.6843L42.6386 69.0069L46.2049 67.685L45.8871 66.3623ZM43.0795 67.9924C42.8264 67.4273 42.4615 66.973 41.983 66.6464L41.197 67.8523C41.4845 68.0481 41.7127 68.3249 41.88 68.6982L43.0795 67.9924ZM41.983 66.6464C41.5071 66.3217 40.959 66.1471 40.353 66.1139L40.1547 67.517C40.5643 67.5394 40.907 67.6541 41.197 67.8523L41.983 66.6464ZM40.3682 66.1149C39.7525 66.0655 39.1091 66.1739 38.4465 66.4194L38.7642 67.7421C39.2777 67.5517 39.7332 67.4833 40.1395 67.516L40.3682 66.1149ZM38.4465 66.4194C37.8215 66.6511 37.263 66.9813 36.7836 67.4181L37.5791 68.4473C37.8992 68.1556 38.29 67.9176 38.7642 67.7421L38.4465 66.4194ZM36.778 67.4232C36.3139 67.8543 35.9479 68.3643 35.6856 68.9471L36.8629 69.4482C37.0362 69.0634 37.275 68.7295 37.5846 68.4418L36.778 67.4232ZM35.6847 68.9491C35.4333 69.5122 35.2898 70.1255 35.242 70.7783L36.5551 70.7477C36.5918 70.2459 36.6987 69.8154 36.8637 69.4462L35.6847 68.9491ZM35.241 70.7946C35.2072 71.4502 35.2803 72.1295 35.4487 72.8312L36.727 72.3573C36.584 71.7623 36.5309 71.2217 36.5561 70.7314L35.241 70.7946ZM35.4487 72.8312C35.6172 73.5323 35.856 74.1504 36.1732 74.6754L37.3014 73.8336C37.064 73.4405 36.8699 72.9523 36.727 72.3573L35.4487 72.8312ZM36.1812 74.6883C36.5117 75.2058 36.9115 75.6247 37.3842 75.9314L38.1479 74.7108C37.8291 74.504 37.543 74.2116 37.2934 73.8206L36.1812 74.6883ZM37.3951 75.9382C37.8844 76.2394 38.427 76.4101 39.0156 76.4488L39.2271 75.0467C38.8257 75.0202 38.4647 74.9059 38.137 74.704L37.3951 75.9382ZM39.0315 76.4495C39.6207 76.4726 40.2397 76.3557 40.8808 76.1184L40.5631 74.7958C40.0538 74.9841 39.6057 75.061 39.2112 75.0453L39.0315 76.4495ZM40.8808 76.1184C41.8821 75.7471 42.711 75.1636 43.3215 74.3463L42.3233 73.5412C41.9226 74.0777 41.3513 74.5034 40.5631 74.7958L40.8808 76.1184ZM43.3172 74.3517C43.9476 73.5228 44.2429 72.5926 44.1769 71.5998L42.863 71.8384C42.9036 72.4484 42.7338 73.0012 42.3275 73.5357L43.3172 74.3517ZM43.6788 72.3804L47.245 71.0585L46.9273 69.7359L43.3611 71.0578L43.6788 72.3804ZM46.4335 70.5607C46.5648 71.5773 46.4631 72.5837 46.1282 73.5894L47.3649 73.9383C47.7739 72.7095 47.8986 71.4719 47.7388 70.2343L46.4335 70.5607ZM46.1282 73.5894C45.7962 74.5863 45.2423 75.4996 44.4505 76.3326L45.3265 77.2825C46.2682 76.2918 46.9529 75.1759 47.3649 73.9383L46.1282 73.5894ZM44.4555 76.3271C43.6791 77.1288 42.6668 77.7748 41.3924 78.2474L41.71 79.57C43.1454 79.0383 44.3579 78.2828 45.3215 77.288L44.4555 76.3271Z" fill="black"/>
</g>
<path d="M59.7587 68.977L59.3158 65.7431L61.717 65.2357C62.1706 65.1398 62.5521 64.969 62.8616 64.7234C63.1693 64.4643 63.3935 64.1466 63.534 63.7702C63.6747 63.3939 63.7136 62.9766 63.6508 62.5185C63.5863 62.0469 63.4375 61.6623 63.2046 61.365C62.9717 61.0675 62.6765 60.8665 62.319 60.7618C61.9615 60.6571 61.556 60.6527 61.1024 60.7485L58.7012 61.256L58.2582 58.022L60.5594 57.5357C61.8133 57.2707 62.9234 57.258 63.8896 57.4975C64.8673 57.7206 65.6574 58.1776 66.2599 58.8683C66.8624 59.559 67.2393 60.4568 67.3906 61.5618L67.4349 61.8852C67.5845 62.9766 67.4668 63.972 67.0822 64.8714C66.6975 65.7707 66.0744 66.5332 65.213 67.1589C64.3649 67.7816 63.3139 68.2256 62.06 68.4908L59.7587 68.977ZM56.9741 73.6003L54.9365 58.724L58.6584 57.9374L60.696 72.8136L56.9741 73.6003Z" fill="white"/>
<mask id="mask3_61_2564" style="mask-type:luminance" maskUnits="userSpaceOnUse" x="53" y="54" width="17" height="21">
<path d="M69.5926 54.7833H53.9453V74.446H69.5926V54.7833Z" fill="white"/>
<path d="M59.7587 68.9771L59.3158 65.7432L61.717 65.2358C62.1706 65.1399 62.5521 64.9692 62.8616 64.7235C63.1693 64.4644 63.3935 64.1467 63.534 63.7703C63.6747 63.394 63.7136 62.9768 63.6508 62.5186C63.5863 62.047 63.4375 61.6624 63.2046 61.3651C62.9717 61.0677 62.6765 60.8666 62.319 60.7619C61.9615 60.6572 61.556 60.6528 61.1024 60.7487L58.7012 61.2561L58.2582 58.0221L60.5594 57.5358C61.8133 57.2708 62.9234 57.2581 63.8896 57.4976C64.8673 57.7208 65.6574 58.1777 66.2599 58.8685C66.8624 59.5591 67.2393 60.4569 67.3906 61.5619L67.4349 61.8853C67.5845 62.9768 67.4668 63.9721 67.0822 64.8715C66.6975 65.7708 66.0744 66.5334 65.213 67.159C64.3649 67.7817 63.3139 68.2257 62.06 68.4909L59.7587 68.9771ZM56.9741 73.6005L54.9365 58.7241L58.6584 57.9375L60.696 72.8137L56.9741 73.6005Z" fill="black"/>
</mask>
<g mask="url(#mask3_61_2564)">
<path d="M59.7583 68.9771L59.0913 69.1179L59.1836 69.7917L59.8506 69.651L59.7583 68.9771ZM59.3153 65.7432L59.2231 65.0694L58.5561 65.2104L58.6483 65.8841L59.3153 65.7432ZM62.8612 64.7235L63.2508 65.2562L63.2593 65.2495L63.2676 65.2425L62.8612 64.7235ZM58.7008 61.256L58.0337 61.397L58.126 62.0708L58.793 61.9298L58.7008 61.256ZM58.2578 58.0221L58.1655 57.3484L57.4985 57.4893L57.5908 58.1631L58.2578 58.0221ZM63.8892 57.4976L63.6887 58.1671L63.6943 58.1686L63.7001 58.1699L63.8892 57.4976ZM65.2126 67.159L64.8482 66.6071L64.8451 66.6094L65.2126 67.159ZM56.9737 73.6004L56.3067 73.7412L56.399 74.4151L57.066 74.2743L56.9737 73.6004ZM54.9361 58.7241L54.8438 58.0503L54.1768 58.1913L54.2691 58.865L54.9361 58.7241ZM58.658 57.9375L59.325 57.7965L59.2327 57.1228L58.5657 57.2638L58.658 57.9375ZM60.6956 72.8137L60.7879 73.4875L61.455 73.3468L61.3626 72.6729L60.6956 72.8137ZM60.4253 68.8363L59.9824 65.6022L58.6483 65.8841L59.0913 69.1179L60.4253 68.8363ZM59.4077 66.4169L61.8089 65.9095L61.6243 64.562L59.2231 65.0694L59.4077 66.4169ZM61.8089 65.9095C62.3477 65.7957 62.8367 65.5849 63.2508 65.2562L62.4716 64.1908C62.2667 64.3534 61.9926 64.4841 61.6243 64.562L61.8089 65.9095ZM63.2676 65.2425C63.6743 64.9 63.9748 64.4739 64.1607 63.9765L62.9065 63.5641C62.8112 63.8193 62.6634 64.0288 62.4548 64.2045L63.2676 65.2425ZM64.1607 63.9765C64.3505 63.4685 64.3931 62.9295 64.3174 62.3776L62.9834 62.6595C63.0334 63.024 62.998 63.3194 62.9065 63.5641L64.1607 63.9765ZM64.3174 62.3776C64.2405 61.8161 64.0573 61.3167 63.741 60.9129L62.6673 61.8172C62.8168 62.0081 62.9312 62.2778 62.9834 62.6595L64.3174 62.3776ZM63.741 60.9129C63.4303 60.5161 63.0278 60.2407 62.5444 60.0991L62.0927 61.4247C62.3243 61.4925 62.5122 61.6192 62.6673 61.8172L63.741 60.9129ZM62.5444 60.0991C62.0661 59.959 61.5484 59.9611 61.0097 60.0749L61.1942 61.4224C61.5626 61.3445 61.8561 61.3554 62.0927 61.4247L62.5444 60.0991ZM61.0097 60.0749L58.6084 60.5823L58.793 61.9298L61.1942 61.4224L61.0097 60.0749ZM59.3678 61.1151L58.9248 57.8811L57.5908 58.1631L58.0337 61.397L59.3678 61.1151ZM58.35 58.6958L60.6512 58.2095L60.4667 56.8621L58.1655 57.3484L58.35 58.6958ZM60.6512 58.2095C61.831 57.9602 62.8378 57.9563 63.6887 58.1671L64.0897 56.8279C63.0083 56.5598 61.7948 56.5814 60.4667 56.8621L60.6512 58.2095ZM63.7001 58.1699C64.5615 58.3665 65.2338 58.7615 65.7434 59.3458L66.7755 58.3911C66.0802 57.5939 65.1722 57.0749 64.0784 56.8252L63.7001 58.1699ZM65.7434 59.3458C66.2511 59.9278 66.5861 60.7017 66.7232 61.7028L68.0572 61.4209C67.8917 60.2122 67.4728 59.1904 66.7755 58.3911L65.7434 59.3458ZM66.7232 61.7028L66.7675 62.0262L68.1015 61.7443L68.0572 61.4209L66.7232 61.7028ZM66.7675 62.0262C66.9026 63.0121 66.7924 63.8736 66.4676 64.6329L67.6958 65.11C68.1405 64.0706 68.2655 62.9414 68.1015 61.7443L66.7675 62.0262ZM66.4676 64.6329C66.1413 65.3958 65.6106 66.0533 64.8482 66.6071L65.577 67.7109C66.5374 67.0133 67.2528 66.1457 67.6958 65.11L66.4676 64.6329ZM64.8451 66.6094C64.0982 67.158 63.147 67.5678 61.9672 67.817L62.1518 69.1648C63.48 68.8839 64.6309 68.4059 65.5801 67.7089L64.8451 66.6094ZM61.9672 67.817L59.6661 68.3032L59.8506 69.651L62.1518 69.1648L61.9672 67.817ZM57.6407 73.4597L55.6031 58.5831L54.2691 58.865L56.3067 73.7412L57.6407 73.4597ZM55.0283 59.3978L58.7503 58.6113L58.5657 57.2638L54.8438 58.0503L55.0283 59.3978ZM57.991 58.0785L60.0286 72.9544L61.3626 72.6729L59.325 57.7965L57.991 58.0785ZM60.6034 72.1398L56.8815 72.9265L57.066 74.2743L60.7879 73.4875L60.6034 72.1398Z" fill="black"/>
</g>
<path d="M70.9473 70.8892L69.7998 56.0412L73.5778 55.5911L74.7246 70.4391L70.9473 70.8892ZM74.3182 70.4874L74.0639 67.1925L80.0755 66.476L80.3305 69.7713L74.3182 70.4874Z" fill="white"/>
<mask id="mask4_61_2564" style="mask-type:luminance" maskUnits="userSpaceOnUse" x="68" y="54" width="14" height="18">
<path d="M81.6819 54.0223H68.916V71.6656H81.6819V54.0223Z" fill="white"/>
<path d="M70.9463 70.8892L69.7988 56.0412L73.5768 55.5911L74.7236 70.4391L70.9463 70.8892ZM74.3172 70.4874L74.0629 67.1925L80.0745 66.476L80.3295 69.7713L74.3172 70.4874Z" fill="black"/>
</mask>
<g mask="url(#mask4_61_2564)">
<path d="M70.9469 70.8892L70.2698 70.9702L70.3217 71.6481L70.9987 71.5672L70.9469 70.8892ZM69.7994 56.0412L69.7476 55.3633L69.0703 55.4439L69.1227 56.1219L69.7994 56.0412ZM73.5773 55.5911L74.2544 55.5104L74.2019 54.8324L73.5248 54.9131L73.5773 55.5911ZM74.7242 70.4391L74.7767 71.117L75.4537 71.0361L75.4012 70.3582L74.7242 70.4391ZM74.3178 70.4874L73.6407 70.5683L73.6932 71.2462L74.3703 71.1653L74.3178 70.4874ZM74.0635 67.1925L74.011 66.5145L73.3339 66.5952L73.3864 67.2731L74.0635 67.1925ZM80.0751 66.476L80.7521 66.3954L80.7003 65.7174L80.0232 65.7981L80.0751 66.476ZM80.3301 69.7713L80.3819 70.4493L81.0589 70.3684L81.0071 69.6904L80.3301 69.7713ZM71.6232 70.8083L70.4764 55.9606L69.1227 56.1219L70.2698 70.9702L71.6232 70.8083ZM69.8519 56.7193L73.6298 56.2691L73.5248 54.9131L69.7476 55.3633L69.8519 56.7193ZM72.9003 55.6718L74.0471 70.52L75.4012 70.3582L74.2544 55.5104L72.9003 55.6718ZM74.6717 69.7611L70.8944 70.2113L70.9987 71.5672L74.7767 71.117L74.6717 69.7611ZM74.9948 70.4071L74.7405 67.1118L73.3864 67.2731L73.6407 70.5683L74.9948 70.4071ZM74.116 67.8707L80.1276 67.1541L80.0232 65.7981L74.011 66.5145L74.116 67.8707ZM79.398 66.5568L79.653 69.8516L81.0071 69.6904L80.7521 66.3954L79.398 66.5568ZM80.2776 69.0934L74.266 69.8094L74.3703 71.1653L80.3819 70.4493L80.2776 69.0934Z" fill="black"/>
</g>
<path d="M81.501 69.6516L86.0678 54.6527L92.1619 54.5147L97.3287 69.2933L93.4028 69.3823L89.3787 57.2303L90.4683 57.6137L87.7689 57.6748L88.8673 57.2419L85.3048 69.5653L81.501 69.6516ZM85.3567 66.1158L86.4564 62.9893L92.121 62.8611L93.3114 65.9357L85.3567 66.1158ZM87.156 53.5262L89.6364 49.7156L93.563 49.6267L90.7144 53.4457L87.156 53.5262Z" fill="white"/>
<mask id="mask5_61_2564" style="mask-type:luminance" maskUnits="userSpaceOnUse" x="79" y="48" width="20" height="23">
<path d="M98.3886 48.1917H79.665V70.3658H98.3886V48.1917Z" fill="white"/>
<path d="M81.501 69.6516L86.0678 54.6527L92.1619 54.5147L97.3287 69.2933L93.4028 69.3823L89.3787 57.2303L90.4683 57.6137L87.7689 57.6748L88.8673 57.2419L85.3048 69.5653L81.501 69.6516ZM85.3567 66.1158L86.4564 62.9893L92.121 62.8611L93.3114 65.9357L85.3567 66.1158ZM87.156 53.5262L89.6364 49.7156L93.563 49.6267L90.7144 53.4457L87.156 53.5262Z" fill="black"/>
</mask>
<g mask="url(#mask5_61_2564)">
<path d="M81.5 69.6516L80.8482 69.4585L80.5762 70.3527L81.5103 70.3316L81.5 69.6516ZM86.0669 54.6526L86.0573 53.9727L85.5596 53.984L85.415 54.4598L86.0669 54.6526ZM92.1609 54.5147L92.8046 54.2861L92.643 53.8236L92.1507 53.8348L92.1609 54.5147ZM97.3278 69.2932L97.338 69.9732L98.2823 69.9515L97.9721 69.0648L97.3278 69.2932ZM93.4019 69.3823L92.7541 69.5999L92.9109 70.0732L93.4121 70.0616L93.4019 69.3823ZM89.3778 57.2303L89.6089 56.5887L88.2923 56.1254L88.73 57.4483L89.3778 57.2303ZM90.4673 57.6137L90.4775 58.2936L90.6991 56.9721L90.4673 57.6137ZM87.768 57.6748L87.5225 57.0426L87.7782 58.3548L87.768 57.6748ZM88.8664 57.2419L89.5216 57.4255L89.9034 56.1038L88.6203 56.6096L88.8664 57.2419ZM85.3039 69.5652L85.3141 70.2452L85.8187 70.2337L85.9591 69.7488L85.3039 69.5652ZM85.3557 66.1157L84.7128 65.8951L84.3882 66.8178L85.3653 66.7957L85.3557 66.1157ZM86.4555 62.9893L86.4453 62.3094L85.97 62.3202L85.8125 62.7688L86.4555 62.9893ZM92.12 62.8611L92.7562 62.6116L92.585 62.1704L92.1098 62.1812L92.12 62.8611ZM93.3105 65.9357L93.32 66.6156L94.2978 66.5935L93.9466 65.6862L93.3105 65.9357ZM87.155 53.5261L86.5844 53.1589L85.8834 54.2351L87.1653 54.2061L87.155 53.5261ZM89.6355 49.7156L89.6259 49.0356L89.2632 49.0439L89.0648 49.3484L89.6355 49.7156ZM93.5621 49.6267L94.1075 50.0299L94.9394 48.9154L93.5518 48.9468L93.5621 49.6267ZM90.7134 53.4456L90.723 54.1256L91.0584 54.118L91.2589 53.8488L90.7134 53.4456ZM82.1525 69.844L86.7193 54.8455L85.415 54.4598L80.8482 69.4585L82.1525 69.844ZM86.0771 55.3326L92.1712 55.1947L92.1507 53.8348L86.0573 53.9727L86.0771 55.3326ZM91.5173 54.7433L96.6841 69.5217L97.9721 69.0648L92.8046 54.2861L91.5173 54.7433ZM97.3182 68.6132L93.3916 68.7023L93.4121 70.0616L97.338 69.9732L97.3182 68.6132ZM94.0496 69.164L90.0255 57.0123L88.73 57.4483L92.7541 69.5999L94.0496 69.164ZM89.1466 57.8719L90.2362 58.2553L90.6991 56.9721L89.6089 56.5887L89.1466 57.8719ZM90.4578 56.9338L87.7584 56.9949L87.7782 58.3548L90.4775 58.2936L90.4578 56.9338ZM88.0141 58.3071L89.1125 57.8741L88.6203 56.6096L87.5225 57.0426L88.0141 58.3071ZM88.2119 57.0583L84.6494 69.3816L85.9591 69.7488L89.5216 57.4255L88.2119 57.0583ZM85.2937 68.8852L81.4905 68.9716L81.5103 70.3316L85.3141 70.2452L85.2937 68.8852ZM85.9987 66.3363L87.0984 63.2099L85.8125 62.7688L84.7128 65.8951L85.9987 66.3363ZM86.465 63.6692L92.1296 63.541L92.1098 62.1812L86.4453 62.3094L86.465 63.6692ZM91.4839 63.1107L92.6744 66.1852L93.9466 65.6862L92.7562 62.6116L91.4839 63.1107ZM93.3003 65.2557L85.3455 65.4358L85.3653 66.7957L93.32 66.6156L93.3003 65.2557ZM87.7257 53.8933L90.2069 50.0828L89.0648 49.3484L86.5844 53.1589L87.7257 53.8933ZM89.6457 50.3955L93.5723 50.3066L93.5518 48.9468L89.6259 49.0356L89.6457 50.3955ZM93.0166 49.2235L90.1673 53.0425L91.2589 53.8488L94.1075 50.0299L93.0166 49.2235ZM90.7032 52.7657L87.1455 52.8462L87.1653 54.2061L90.723 54.1256L90.7032 52.7657Z" fill="black"/>
</g>
<path d="M103.897 70.4486C102.511 70.3384 101.353 70.0284 100.424 69.5184C99.5079 69.0097 98.8247 68.3624 98.374 67.5763C97.937 66.778 97.744 65.8898 97.7938 64.9119L101.464 65.203C101.446 65.5561 101.525 65.8897 101.699 66.2036C101.889 66.5049 102.177 66.7528 102.562 66.947C102.948 67.1413 103.447 67.2627 104.058 67.3111C104.589 67.3532 105.041 67.3209 105.414 67.2142C105.802 67.1086 106.098 66.941 106.3 66.7117C106.517 66.4833 106.634 66.1994 106.651 65.8598C106.674 65.4252 106.507 65.0779 106.152 64.8179C105.798 64.5443 105.187 64.3391 104.321 64.2022L103.366 64.0446C101.838 63.787 100.639 63.2078 99.7704 62.3071C98.9024 61.4063 98.5036 60.2701 98.5738 58.8983C98.6242 57.9203 98.8915 57.1029 99.3756 56.4457C99.8733 55.7897 100.546 55.3112 101.394 55.0102C102.243 54.7093 103.231 54.6035 104.359 54.693C105.582 54.79 106.605 55.0757 107.427 55.55C108.262 56.0254 108.885 56.6544 109.295 57.437C109.707 58.206 109.887 59.0795 109.836 60.0574L106.166 59.7663C106.183 59.4403 106.117 59.135 105.967 58.8505C105.818 58.5659 105.591 58.3365 105.286 58.1623C104.996 57.9756 104.632 57.865 104.197 57.8305C103.79 57.7982 103.44 57.8385 103.147 57.9518C102.869 58.0524 102.65 58.2123 102.488 58.4313C102.34 58.6514 102.259 58.9041 102.244 59.1894C102.225 59.5696 102.337 59.9059 102.582 60.198C102.826 60.4901 103.266 60.6887 103.902 60.7937L104.856 60.9512C105.966 61.1346 106.939 61.4573 107.775 61.9191C108.612 62.3673 109.258 62.9436 109.713 63.6479C110.168 64.3523 110.371 65.1866 110.322 66.1509C110.272 67.1153 109.977 67.9374 109.437 68.6174C108.911 69.2987 108.175 69.7992 107.231 70.1195C106.299 70.4418 105.189 70.5513 103.897 70.4486Z" fill="white"/>
<mask id="mask6_61_2564" style="mask-type:luminance" maskUnits="userSpaceOnUse" x="96" y="53" width="17" height="19">
<path d="M112.219 53.1486H96.3584V71.9913H112.219V53.1486Z" fill="white"/>
<path d="M103.897 70.4486C102.511 70.3384 101.353 70.0284 100.424 69.5184C99.5079 69.0097 98.8247 68.3624 98.374 67.5763C97.937 66.778 97.744 65.8898 97.7938 64.9119L101.464 65.203C101.446 65.5561 101.525 65.8897 101.699 66.2036C101.889 66.5049 102.177 66.7528 102.562 66.947C102.948 67.1413 103.447 67.2627 104.058 67.3111C104.589 67.3532 105.041 67.3209 105.414 67.2142C105.802 67.1086 106.098 66.941 106.3 66.7117C106.517 66.4833 106.634 66.1994 106.651 65.8598C106.674 65.4252 106.507 65.0779 106.152 64.8179C105.798 64.5443 105.187 64.3391 104.321 64.2022L103.366 64.0446C101.838 63.787 100.639 63.2078 99.7704 62.3071C98.9024 61.4063 98.5036 60.2701 98.5738 58.8983C98.6242 57.9203 98.8915 57.1029 99.3756 56.4457C99.8733 55.7897 100.546 55.3112 101.394 55.0102C102.243 54.7093 103.231 54.6035 104.359 54.693C105.582 54.79 106.605 55.0757 107.427 55.55C108.262 56.0254 108.885 56.6544 109.295 57.437C109.707 58.206 109.887 59.0795 109.836 60.0574L106.166 59.7663C106.183 59.4403 106.117 59.135 105.967 58.8505C105.818 58.5659 105.591 58.3365 105.286 58.1623C104.996 57.9756 104.632 57.865 104.197 57.8305C103.79 57.7982 103.44 57.8385 103.147 57.9518C102.869 58.0524 102.65 58.2123 102.488 58.4313C102.34 58.6514 102.259 58.9041 102.244 59.1894C102.225 59.5696 102.337 59.9059 102.582 60.198C102.826 60.4901 103.266 60.6887 103.902 60.7937L104.856 60.9512C105.966 61.1346 106.939 61.4573 107.775 61.9191C108.612 62.3673 109.258 62.9436 109.713 63.6479C110.168 64.3523 110.371 65.1866 110.322 66.1509C110.272 67.1153 109.977 67.9374 109.437 68.6174C108.911 69.2987 108.175 69.7992 107.231 70.1195C106.299 70.4418 105.189 70.5513 103.897 70.4486Z" fill="black"/>
</mask>
<g mask="url(#mask6_61_2564)">
<path d="M100.423 69.5183L100.105 70.112L100.109 70.114L100.423 69.5183ZM98.3736 67.5762L97.7783 67.8904L97.7817 67.8965L97.7851 67.9033L98.3736 67.5762ZM97.7933 64.9119L97.8288 64.2327L97.149 64.1789L97.1142 64.8579L97.7933 64.9119ZM101.464 65.203L102.143 65.2569L102.178 64.5778L101.499 64.5239L101.464 65.203ZM101.699 66.2035L101.107 66.5226L101.116 66.5388L101.125 66.5544L101.699 66.2035ZM105.414 67.2141L105.218 66.5564L105.211 66.5585L105.414 67.2141ZM106.3 66.7116L105.8 66.2354L105.792 66.2436L105.785 66.2521L106.3 66.7116ZM106.152 64.8179L105.745 65.353L105.753 65.3585L105.76 65.3638L106.152 64.8179ZM104.32 64.2021L104.228 64.8742L104.232 64.8749L104.32 64.2021ZM103.366 64.0446L103.271 64.7164L103.274 64.7167L103.366 64.0446ZM99.3751 56.4457L98.829 56.0241L98.8235 56.0315L99.3751 56.4457ZM107.427 55.55L107.099 56.1378L107.103 56.1399L107.427 55.55ZM109.295 57.437L108.694 57.7402L108.697 57.7451L109.295 57.437ZM109.836 60.0573L109.801 60.7365L110.481 60.7904L110.515 60.1113L109.836 60.0573ZM106.165 59.7662L105.486 59.7124L105.451 60.3915L106.131 60.4453L106.165 59.7662ZM105.286 58.1622L104.93 58.7326L104.945 58.7426L104.961 58.7517L105.286 58.1622ZM103.147 57.9517L103.394 58.5931L103.401 58.5906L103.407 58.5881L103.147 57.9517ZM102.488 58.4313L101.936 58.0171L101.927 58.0286L101.92 58.0405L102.488 58.4313ZM107.774 61.919L107.459 62.5134L107.467 62.5177L107.774 61.919ZM109.437 68.6173L108.899 68.1842L108.894 68.191L109.437 68.6173ZM107.23 70.1194L106.996 69.4741L106.992 69.4748L107.23 70.1194ZM103.932 69.7692C102.612 69.6652 101.557 69.3728 100.737 68.9233L100.109 70.114C101.148 70.6845 102.408 71.0123 103.862 71.1279L103.932 69.7692ZM100.741 68.9254C99.9192 68.4684 99.3383 67.9067 98.9613 67.2494L97.7851 67.9033C98.3101 68.8172 99.0956 69.5503 100.105 70.112L100.741 68.9254ZM98.9681 67.262C98.5992 66.5872 98.4288 65.8284 98.4731 64.9658L97.1142 64.8579C97.0576 65.9512 97.2745 66.9687 97.7783 67.8904L98.9681 67.262ZM97.7586 65.591L101.429 65.8821L101.499 64.5239L97.8288 64.2327L97.7586 65.591ZM100.784 65.149C100.759 65.6318 100.868 66.0947 101.107 66.5226L102.291 65.8844C102.18 65.6846 102.132 65.4804 102.143 65.2569L100.784 65.149ZM101.125 66.5544C101.397 66.9867 101.794 67.3142 102.269 67.5539L102.854 66.3401C102.558 66.1912 102.379 66.0232 102.272 65.8526L101.125 66.5544ZM102.269 67.5539C102.763 67.802 103.358 67.9373 104.023 67.9904L104.093 66.6321C103.535 66.5878 103.132 66.4801 102.854 66.3401L102.269 67.5539ZM104.023 67.9904C104.607 68.0366 105.145 68.0046 105.617 67.87L105.211 66.5585C104.936 66.6371 104.569 66.6698 104.093 66.6321L104.023 67.9904ZM105.61 67.872C106.084 67.7422 106.506 67.5212 106.815 67.1711L105.785 66.2521C105.689 66.3608 105.519 66.4745 105.218 66.5564L105.61 67.872ZM106.799 67.1878C107.132 66.8375 107.305 66.4007 107.331 65.9137L105.971 65.8059C105.962 65.9981 105.901 66.1291 105.8 66.2354L106.799 67.1878ZM107.331 65.9137C107.365 65.2466 107.091 64.6724 106.543 64.2719L105.76 65.3638C105.923 65.4833 105.981 65.6038 105.971 65.8059L107.331 65.9137ZM106.557 64.2827C106.056 63.8956 105.297 63.6698 104.408 63.5293L104.232 64.8749C105.076 65.0082 105.538 65.1929 105.745 65.353L106.557 64.2827ZM104.412 63.53L103.459 63.3725L103.274 64.7167L104.228 64.8742L104.412 63.53ZM103.461 63.3729C102.041 63.1337 100.993 62.6083 100.253 61.8412L99.2865 62.7729C100.284 63.8072 101.633 64.4402 103.271 64.7164L103.461 63.3729ZM100.253 61.8412C99.5367 61.0972 99.1911 60.1571 99.2531 58.9521L97.8942 58.8443C97.8151 60.3829 98.2672 61.7153 99.2865 62.7729L100.253 61.8412ZM99.2531 58.9521C99.2981 58.0804 99.5326 57.3947 99.9267 56.8598L98.8235 56.0315C98.2495 56.8109 97.9495 57.7601 97.8942 58.8443L99.2531 58.9521ZM99.9213 56.8673C100.335 56.3218 100.899 55.9151 101.637 55.653L101.151 54.3674C100.193 54.7072 99.4106 55.2574 98.829 56.0241L99.9213 56.8673ZM101.637 55.653C102.378 55.3902 103.268 55.2884 104.324 55.3721L104.393 54.0138C103.193 53.9186 102.107 54.0283 101.151 54.3674L101.637 55.653ZM104.324 55.3721C105.475 55.4634 106.39 55.7289 107.099 56.1378L107.754 54.9622C106.819 54.4225 105.689 54.1167 104.393 54.0138L104.324 55.3721ZM107.103 56.1399C107.831 56.5545 108.353 57.0882 108.694 57.7402L109.896 57.1337C109.417 56.2206 108.693 55.4962 107.75 54.96L107.103 56.1399ZM108.697 57.7451C109.04 58.3875 109.201 59.1329 109.156 60.0034L110.515 60.1113C110.571 59.026 110.372 58.0244 109.893 57.1289L108.697 57.7451ZM109.87 59.3782L106.2 59.0872L106.131 60.4453L109.801 60.7365L109.87 59.3782ZM106.845 59.8202C106.868 59.3748 106.776 58.9457 106.568 58.5473L105.366 59.1536C105.456 59.3243 105.497 59.5057 105.486 59.7124L106.845 59.8202ZM106.568 58.5473C106.35 58.1319 106.022 57.8076 105.61 57.5729L104.961 58.7517C105.16 58.8654 105.286 58.9998 105.366 59.1536L106.568 58.5473ZM105.642 57.5919C105.231 57.328 104.75 57.1924 104.232 57.1514L104.162 58.5096C104.515 58.5375 104.759 58.6232 104.93 58.7326L105.642 57.5919ZM104.232 57.1514C103.752 57.1132 103.295 57.1571 102.887 57.3154L103.407 58.5881C103.583 58.5199 103.827 58.483 104.162 58.5096L104.232 57.1514ZM102.9 57.3103C102.51 57.4513 102.18 57.6852 101.936 58.0171L103.039 58.8454C103.118 58.7392 103.227 58.6534 103.394 58.5931L102.9 57.3103ZM101.92 58.0405C101.7 58.3666 101.585 58.7373 101.564 59.1354L102.923 59.2432C102.932 59.0709 102.979 58.9362 103.056 58.8221L101.92 58.0405ZM101.564 59.1354C101.536 59.6869 101.704 60.1965 102.064 60.6266L103.098 59.7693C102.969 59.6151 102.913 59.4523 102.923 59.2432L101.564 59.1354ZM102.064 60.6266C102.471 61.1133 103.116 61.3512 103.809 61.4657L103.994 60.1215C103.416 60.026 103.18 59.8668 103.098 59.7693L102.064 60.6266ZM103.809 61.4657L104.764 61.6232L104.948 60.2791L103.994 60.1215L103.809 61.4657ZM104.763 61.6232C105.809 61.7961 106.704 62.0966 107.459 62.5134L108.091 61.3247C107.173 60.8179 106.122 60.4731 104.948 60.2791L104.763 61.6232ZM107.467 62.5177C108.212 62.9171 108.762 63.4159 109.144 64.0065L110.281 63.2892C109.752 62.4713 109.011 61.8174 108.083 61.3204L107.467 62.5177ZM109.144 64.0065C109.507 64.5677 109.685 65.2522 109.641 66.097L111.001 66.2048C111.057 65.1209 110.829 64.1368 110.281 63.2892L109.144 64.0065ZM109.641 66.097C109.598 66.9366 109.345 67.6227 108.899 68.1842L109.974 69.0505C110.608 68.2522 110.945 67.2938 111.001 66.2048L109.641 66.097ZM108.894 68.191C108.458 68.7554 107.837 69.1885 106.996 69.4741L107.465 70.7654C108.513 70.4098 109.362 69.8413 109.979 69.0437L108.894 68.191ZM106.992 69.4748C106.17 69.759 105.157 69.8665 103.932 69.7692L103.862 71.1279C105.219 71.2353 106.428 71.1238 107.468 70.7641L106.992 69.4748Z" fill="black"/>
</g>
<path d="M115.091 71.5291L116.425 59.6078L120.174 60.2552L118.84 72.1765L115.091 71.5291ZM112.349 59.3171L112.717 56.0327L124.527 58.0725L124.16 61.3569L112.349 59.3171Z" fill="white"/>
<mask id="mask7_61_2564" style="mask-type:luminance" maskUnits="userSpaceOnUse" x="109" y="55" width="17" height="19">
<path d="M125.833 55.1038H109.909V73.7596H125.833V55.1038Z" fill="white"/>
<path d="M115.091 71.5292L116.425 59.6079L120.174 60.2554L118.84 72.1766L115.091 71.5292ZM112.349 59.3172L112.717 56.0328L124.527 58.0726L124.16 61.357L112.349 59.3172Z" fill="black"/>
</mask>
<g mask="url(#mask7_61_2564)">
<path d="M115.091 71.5291L114.419 71.4129L114.344 72.0888L115.015 72.2051L115.091 71.5291ZM116.425 59.6079L116.501 58.9321L115.83 58.8161L115.754 59.4919L116.425 59.6079ZM120.174 60.2553L120.846 60.3713L120.922 59.6955L120.25 59.5795L120.174 60.2553ZM118.84 72.1765L118.764 72.8524L119.436 72.968L119.511 72.2928L118.84 72.1765ZM112.349 59.3172L111.677 59.2012L111.602 59.8769L112.274 59.993L112.349 59.3172ZM112.717 56.0328L112.793 55.357L112.12 55.241L112.045 55.9168L112.717 56.0328ZM124.527 58.0726L125.199 58.1886L125.275 57.5128L124.603 57.3968L124.527 58.0726ZM124.16 61.357L124.084 62.0327L124.756 62.1487L124.832 61.473L124.16 61.357ZM115.763 71.6447L117.097 59.7239L115.754 59.4919L114.419 71.4129L115.763 71.6447ZM116.35 60.2836L120.098 60.9311L120.25 59.5795L116.501 58.9321L116.35 60.2836ZM119.502 60.1393L118.168 72.0602L119.511 72.2928L120.846 60.3713L119.502 60.1393ZM118.915 71.5006L115.167 70.8532L115.015 72.2051L118.764 72.8524L118.915 71.5006ZM113.021 59.4332L113.389 56.1488L112.045 55.9168L111.677 59.2012L113.021 59.4332ZM112.641 56.7086L124.452 58.7483L124.603 57.3968L112.793 55.357L112.641 56.7086ZM123.856 57.9565L123.488 61.2409L124.832 61.473L125.199 58.1886L123.856 57.9565ZM124.236 60.6812L112.425 58.6414L112.274 59.993L124.084 62.0327L124.236 60.6812Z" fill="black"/>
</g>
<path d="M125.452 75.0039L128.235 57.8531L132.54 58.9309L129.757 76.0817L125.452 75.0039Z" fill="white"/>
<mask id="mask8_61_2564" style="mask-type:luminance" maskUnits="userSpaceOnUse" x="125" y="57" width="8" height="20">
<path d="M125.452 75.0039L128.235 57.8531L132.54 58.9309L129.757 76.0817L125.452 75.0039Z" fill="white"/>
</mask>
<g mask="url(#mask8_61_2564)">
<path d="M125.452 75.0039L124.791 74.8387L124.682 75.5098L125.343 75.6751L125.452 75.0039ZM128.235 57.8532L128.344 57.1819L127.683 57.0164L127.574 57.6877L128.235 57.8532ZM132.54 58.931L133.202 59.0965L133.311 58.4252L132.649 58.2597L132.54 58.931ZM129.757 76.0817L129.648 76.7529L130.309 76.9188L130.418 76.2476L129.757 76.0817ZM126.113 75.1698L128.897 58.0187L127.574 57.6877L124.791 74.8387L126.113 75.1698ZM128.126 58.5245L132.431 59.6022L132.649 58.2597L128.344 57.1819L128.126 58.5245ZM131.879 58.7654L129.096 75.9165L130.418 76.2476L133.202 59.0965L131.879 58.7654ZM129.866 75.4106L125.561 74.3328L125.343 75.6751L129.648 76.7529L129.866 75.4106Z" fill="black"/>
</g>
<path d="M139.977 78.578C138.7 78.1414 137.653 77.5403 136.838 76.7753C136.025 75.9974 135.404 75.1351 134.976 74.1886C134.55 73.2291 134.293 72.2621 134.203 71.2884C134.114 70.3153 134.16 69.417 134.343 68.5935L134.44 68.1549C134.643 67.2389 134.984 66.3911 135.462 65.6117C135.956 64.8235 136.579 64.1723 137.331 63.6582C138.096 63.1485 138.977 62.8356 139.975 62.7195C140.972 62.6034 142.077 62.7527 143.289 63.1675C144.579 63.6087 145.665 64.2514 146.546 65.0958C147.443 65.9313 148.095 66.9042 148.501 68.0148C148.91 69.1117 149.035 70.269 148.876 71.4862L145.277 70.2548C145.298 69.7196 145.202 69.215 144.988 68.7418C144.774 68.2685 144.457 67.853 144.036 67.4948C143.619 67.1234 143.114 66.8363 142.521 66.6333C141.966 66.4436 141.441 66.3711 140.945 66.4159C140.462 66.4651 140.025 66.6227 139.633 66.8885C139.257 67.1457 138.928 67.5044 138.645 67.9652C138.375 68.4296 138.169 68.9879 138.024 69.6387C137.88 70.2894 137.828 70.9001 137.868 71.4706C137.921 72.0459 138.061 72.5722 138.288 73.0502C138.528 73.5324 138.852 73.9499 139.259 74.3035C139.669 74.6442 140.164 74.9134 140.745 75.112C141.648 75.4207 142.459 75.4554 143.178 75.216C143.91 74.9808 144.425 74.5061 144.722 73.7935L148.32 75.0243C147.963 76.0735 147.388 76.9487 146.594 77.6484C145.8 78.3488 144.84 78.799 143.713 78.9989C142.59 79.1859 141.344 79.0458 139.977 78.578Z" fill="white"/>
<mask id="mask9_61_2564" style="mask-type:luminance" maskUnits="userSpaceOnUse" x="131" y="59" width="21" height="24">
<path d="M151.692 59.4979H131.741V82.2761H151.692V59.4979Z" fill="white"/>
<path d="M139.977 78.578C138.7 78.1414 137.653 77.5403 136.838 76.7753C136.025 75.9974 135.404 75.1351 134.976 74.1886C134.55 73.2291 134.293 72.2621 134.203 71.2884C134.114 70.3153 134.16 69.417 134.343 68.5935L134.44 68.1549C134.643 67.2389 134.984 66.3911 135.462 65.6117C135.956 64.8235 136.579 64.1723 137.331 63.6582C138.096 63.1485 138.977 62.8356 139.975 62.7195C140.972 62.6034 142.077 62.7527 143.289 63.1675C144.579 63.6087 145.665 64.2514 146.546 65.0958C147.443 65.9313 148.095 66.9042 148.501 68.0148C148.91 69.1117 149.035 70.269 148.876 71.4862L145.277 70.2548C145.298 69.7196 145.202 69.215 144.988 68.7418C144.774 68.2685 144.457 67.853 144.036 67.4948C143.619 67.1234 143.114 66.8363 142.521 66.6333C141.966 66.4436 141.441 66.3711 140.945 66.4159C140.462 66.4651 140.025 66.6227 139.633 66.8885C139.257 67.1457 138.928 67.5044 138.645 67.9652C138.375 68.4296 138.169 68.9879 138.024 69.6387C137.88 70.2894 137.828 70.9001 137.868 71.4706C137.921 72.0459 138.061 72.5722 138.288 73.0502C138.528 73.5324 138.852 73.9499 139.259 74.3035C139.669 74.6442 140.164 74.9134 140.745 75.112C141.648 75.4207 142.459 75.4554 143.178 75.216C143.91 74.9808 144.425 74.5061 144.722 73.7935L148.32 75.0243C147.963 76.0735 147.388 76.9487 146.594 77.6484C145.8 78.3488 144.84 78.799 143.713 78.9989C142.59 79.1859 141.344 79.0458 139.977 78.578Z" fill="black"/>
</mask>
<g mask="url(#mask9_61_2564)">
<path d="M136.837 76.7753L136.42 77.2738L136.426 77.2792L136.837 76.7753ZM134.975 74.1886L134.381 74.4341L134.384 74.4395L134.975 74.1886ZM135.462 65.6118L134.899 65.1875L134.896 65.1926L135.462 65.6118ZM137.331 63.6583L136.941 63.0559L136.936 63.0597L137.331 63.6583ZM146.546 65.0959L146.128 65.5936L146.132 65.5975L146.136 65.6012L146.546 65.0959ZM148.501 68.0149L147.886 68.2107L147.888 68.2155L148.501 68.0149ZM148.876 71.4863L148.728 72.15L149.434 72.3914L149.531 71.6461L148.876 71.4863ZM145.277 70.2548L144.616 70.1583L144.592 70.7356L145.13 70.9192L145.277 70.2548ZM144.036 67.4948L143.64 68.0122L143.646 68.0176L143.652 68.0231L144.036 67.4948ZM140.945 66.416L140.826 65.7187L140.819 65.7195L140.945 66.416ZM139.633 66.8886L139.239 66.2891L139.237 66.2902L139.633 66.8886ZM138.645 67.9653L138.08 67.5458L138.076 67.5523L138.072 67.5589L138.645 67.9653ZM137.868 71.4707L137.208 71.455L137.208 71.4632L137.209 71.4713L137.868 71.4707ZM138.288 73.0503L137.702 73.3148L137.705 73.3216L137.708 73.3278L138.288 73.0503ZM139.259 74.3035L138.869 74.8271L138.876 74.8326L138.882 74.838L139.259 74.3035ZM143.178 75.2161L142.931 74.5443L142.925 74.5463L143.178 75.2161ZM144.721 73.7935L144.869 73.1299L144.327 72.9442L144.112 73.4617L144.721 73.7935ZM148.32 75.0243L148.945 75.3161L149.187 74.6068L148.467 74.3607L148.32 75.0243ZM143.713 78.9989L143.877 79.6905L143.883 79.6891L143.713 78.9989ZM140.123 77.9143C138.918 77.5023 137.969 76.9481 137.249 76.2721L136.426 77.2792C137.337 78.1326 138.48 78.7807 139.829 79.2417L140.123 77.9143ZM137.254 76.2776C136.508 75.5629 135.95 74.7829 135.567 73.9377L134.384 74.4395C134.857 75.4874 135.541 76.4319 136.42 77.2738L137.254 76.2776ZM135.57 73.9431C135.177 73.0578 134.943 72.1738 134.862 71.2877L133.544 71.2891C133.642 72.3506 133.923 73.3998 134.381 74.4341L135.57 73.9431ZM134.862 71.2877C134.778 70.3806 134.823 69.5578 134.988 68.8139L133.698 68.3726C133.497 69.2756 133.449 70.2501 133.544 71.2891L134.862 71.2877ZM134.988 68.8139L135.084 68.376L133.794 67.9347L133.698 68.3726L134.988 68.8139ZM135.084 68.376C135.272 67.5316 135.585 66.7507 136.027 66.0311L134.896 65.1926C134.382 66.0316 134.014 66.9464 133.794 67.9347L135.084 68.376ZM136.023 66.036C136.474 65.3176 137.041 64.7255 137.727 64.2567L136.936 63.0597C136.117 63.6192 135.437 64.3295 134.899 65.1875L136.023 66.036ZM137.72 64.2606C138.404 63.8053 139.197 63.5213 140.109 63.4152L139.84 62.024C138.757 62.15 137.788 62.4918 136.941 63.0559L137.72 64.2606ZM140.109 63.4152C140.994 63.312 142.002 63.4416 143.142 63.8315L143.436 62.5036C142.151 62.064 140.948 61.895 139.84 62.024L140.109 63.4152ZM143.142 63.8315C144.349 64.2444 145.338 64.8362 146.128 65.5936L146.963 64.5981C145.991 63.6669 144.809 62.9731 143.436 62.5036L143.142 63.8315ZM146.136 65.6012C146.947 66.3558 147.525 67.2235 147.886 68.2107L149.115 67.8184C148.664 66.5851 147.939 65.5069 146.955 64.5906L146.136 65.6012ZM147.888 68.2155C148.249 69.1845 148.365 70.2167 148.22 71.3258L149.531 71.6461C149.704 70.3215 149.57 69.039 149.113 67.8136L147.888 68.2155ZM149.023 70.8219L145.424 69.5911L145.13 70.9192L148.728 72.15L149.023 70.8219ZM145.938 70.3514C145.964 69.7067 145.847 69.0818 145.58 68.4909L144.396 68.9927C144.557 69.3484 144.633 69.7319 144.616 70.1583L145.938 70.3514ZM145.58 68.4909C145.313 67.9027 144.922 67.394 144.42 66.9668L143.652 68.0231C143.991 68.3114 144.234 68.6344 144.396 68.9927L145.58 68.4909ZM144.433 66.9777C143.93 66.5303 143.336 66.1981 142.668 65.9695L142.373 67.2974C142.891 67.4746 143.308 67.7171 143.64 68.0122L144.433 66.9777ZM142.668 65.9695C142.037 65.7537 141.421 65.665 140.826 65.7187L141.064 67.1132C141.46 67.0773 141.894 67.1337 142.373 67.2974L142.668 65.9695ZM140.819 65.7195C140.24 65.7785 139.711 65.9688 139.239 66.2891L140.027 67.4882C140.339 67.2766 140.684 67.1518 141.071 67.1125L140.819 65.7195ZM139.237 66.2902C138.783 66.6005 138.4 67.0247 138.08 67.5458L139.21 68.3841C139.456 67.9843 139.73 67.6912 140.028 67.4872L139.237 66.2902ZM138.072 67.5589C137.763 68.0911 137.535 68.7139 137.379 69.4177L138.669 69.8591C138.801 69.262 138.987 68.769 139.218 68.3712L138.072 67.5589ZM137.379 69.4177C137.223 70.1222 137.162 70.8022 137.208 71.455L138.527 71.4863C138.493 70.9974 138.537 70.4561 138.669 69.8591L137.379 69.4177ZM137.209 71.4713C137.27 72.1269 137.431 72.7443 137.702 73.3148L138.873 72.7858C138.69 72.4009 138.571 71.965 138.526 71.47L137.209 71.4713ZM137.708 73.3278C137.996 73.9051 138.385 74.4069 138.869 74.8271L139.648 73.7806C139.318 73.4937 139.06 73.1591 138.867 72.7729L137.708 73.3278ZM138.882 74.838C139.374 75.246 139.951 75.5547 140.598 75.7757L140.892 74.4484C140.378 74.2723 139.964 74.0424 139.635 73.7691L138.882 74.838ZM140.598 75.7757C141.608 76.1219 142.562 76.1749 143.431 75.8852L142.925 74.5463C142.355 74.7367 141.687 74.7204 140.892 74.4484L140.598 75.7757ZM143.425 75.8873C144.315 75.601 144.963 75.0087 145.331 74.1254L144.112 73.4617C143.885 74.0043 143.505 74.36 142.931 74.5443L143.425 75.8873ZM144.574 74.4579L148.173 75.6887L148.467 74.3607L144.869 73.1299L144.574 74.4579ZM147.695 74.7326C147.373 75.6792 146.856 76.4632 146.142 77.0936L147.045 78.2033C147.918 77.4336 148.552 76.4687 148.945 75.3161L147.695 74.7326ZM146.142 77.0936C145.434 77.7185 144.573 78.1258 143.543 78.3087L143.883 79.6891C145.107 79.4715 146.166 78.9785 147.045 78.2033L146.142 77.0936ZM143.55 78.3074C142.546 78.4747 141.41 78.3536 140.123 77.9143L139.829 79.2417C141.277 79.7374 142.632 79.8979 143.877 79.6905L143.55 78.3074Z" fill="black"/>
</g>
<path d="M155.532 85.2665C154.298 84.6872 153.292 83.9623 152.513 83.0912C151.739 82.2072 151.16 81.2586 150.777 80.2461C150.399 79.2206 150.192 78.2088 150.157 77.2106C150.122 76.213 150.228 75.3107 150.473 74.5035L150.604 74.0737C150.877 73.1761 151.298 72.3703 151.868 71.6556C152.442 70.9287 153.145 70.3589 153.975 69.9454C154.805 69.532 155.735 69.3287 156.762 69.3355C157.802 69.3471 158.92 69.634 160.117 70.1964C161.301 70.7519 162.28 71.4496 163.055 72.2887C163.841 73.134 164.435 74.0526 164.838 75.0454C165.241 76.0376 165.465 77.0419 165.508 78.0585C165.567 79.0683 165.46 80.0217 165.188 80.92L165.057 81.3497C164.811 82.1562 164.403 82.9164 163.833 83.6311C163.276 84.3506 162.582 84.9395 161.752 85.3978C160.925 85.8425 159.987 86.0784 158.935 86.1056C157.887 86.1192 156.753 85.8398 155.532 85.2665ZM156.565 81.8699C157.157 82.1474 157.72 82.2929 158.251 82.3045C158.784 82.3167 159.274 82.212 159.722 81.991C160.17 81.77 160.555 81.4524 160.878 81.039C161.206 80.6126 161.459 80.1067 161.637 79.5212C161.827 78.8963 161.907 78.287 161.876 77.692C161.858 77.1038 161.738 76.5489 161.515 76.028C161.293 75.5072 160.977 75.0393 160.568 74.6239C160.158 74.2091 159.663 73.865 159.083 73.593C158.491 73.3149 157.931 73.1632 157.403 73.1387C156.875 73.1136 156.389 73.2054 155.944 73.4135C155.5 73.6215 155.115 73.9384 154.788 74.3648C154.46 74.7911 154.202 75.3168 154.012 75.9417C153.834 76.5272 153.753 77.1147 153.772 77.7029C153.794 78.2789 153.914 78.8331 154.133 79.3669C154.351 79.9007 154.663 80.3821 155.069 80.8105C155.474 81.2382 155.973 81.5918 156.565 81.8699Z" fill="white"/>
<mask id="mask10_61_2564" style="mask-type:luminance" maskUnits="userSpaceOnUse" x="147" y="65" width="22" height="25">
<path d="M168.446 65.506H147.259V89.9535H168.446V65.506Z" fill="white"/>
<path d="M155.532 85.2664C154.298 84.687 153.292 83.9622 152.513 83.0911C151.739 82.2071 151.16 81.2585 150.777 80.246C150.399 79.2205 150.192 78.2087 150.157 77.2105C150.122 76.2129 150.228 75.3105 150.473 74.5034L150.604 74.0736C150.877 73.176 151.298 72.3702 151.868 71.6555C152.442 70.9286 153.145 70.3588 153.975 69.9453C154.805 69.5319 155.735 69.3286 156.762 69.3354C157.802 69.3469 158.92 69.6339 160.117 70.1962C161.301 70.7518 162.28 71.4495 163.055 72.2886C163.841 73.1339 164.435 74.0525 164.838 75.0453C165.241 76.0374 165.465 77.0418 165.508 78.0584C165.567 79.0682 165.46 80.0216 165.188 80.9198L165.057 81.3496C164.811 82.1561 164.403 82.9163 163.833 83.631C163.276 84.3504 162.582 84.9393 161.752 85.3976C160.925 85.8424 159.987 86.0783 158.935 86.1055C157.887 86.1191 156.753 85.8396 155.532 85.2664ZM156.565 81.8698C157.157 82.1472 157.72 82.2928 158.251 82.3043C158.784 82.3166 159.274 82.2118 159.722 81.9908C160.17 81.7698 160.555 81.4523 160.878 81.0388C161.206 80.6125 161.459 80.1066 161.637 79.5211C161.827 78.8962 161.907 78.2869 161.876 77.6919C161.858 77.1037 161.738 76.5488 161.515 76.0279C161.293 75.507 160.977 75.0392 160.568 74.6237C160.158 74.2089 159.663 73.8649 159.083 73.5929C158.491 73.3147 157.931 73.1631 157.403 73.1386C156.875 73.1135 156.389 73.2053 155.944 73.4133C155.5 73.6214 155.115 73.9383 154.788 74.3646C154.46 74.791 154.202 75.3166 154.012 75.9416C153.834 76.527 153.753 77.1146 153.772 77.7028C153.794 78.2787 153.914 78.8329 154.133 79.3667C154.351 79.9005 154.663 80.382 155.069 80.8104C155.474 81.2381 155.973 81.5917 156.565 81.8698Z" fill="black"/>
</mask>
<g mask="url(#mask10_61_2564)">
<path d="M152.513 83.0911L152.071 83.5555L152.076 83.561L152.513 83.0911ZM150.777 80.246L150.181 80.4506L150.183 80.4561L150.777 80.246ZM151.868 71.6555L152.375 72.1574L152.377 72.1546L151.868 71.6555ZM156.762 69.3354L156.699 68.6227H156.696L156.762 69.3354ZM163.055 72.2886L162.625 72.7687L162.628 72.7714L163.055 72.2886ZM165.508 78.0584L164.861 78.0149V78.021L164.862 78.0278L165.508 78.0584ZM163.834 83.631L163.327 83.1292L163.322 83.136L163.834 83.631ZM161.752 85.3976L162.086 86.0443L162.091 86.0416L161.752 85.3976ZM158.935 86.1055L159.013 86.8175H159.02L158.935 86.1055ZM160.879 81.0388L161.389 81.5359L161.393 81.5312L160.879 81.0388ZM161.876 77.6919L161.228 77.6395L161.229 77.6477V77.6552L161.876 77.6919ZM153.772 77.7028L153.124 77.6504L153.125 77.6558L153.772 77.7028ZM155.729 84.6156C154.565 84.0689 153.647 83.3991 152.951 82.6205L152.076 83.561C152.937 84.5252 154.031 85.3052 155.334 85.9172L155.729 84.6156ZM152.957 82.6266C152.24 81.8093 151.716 80.9457 151.372 80.0352L150.183 80.4561C150.604 81.5713 151.238 82.6049 152.071 83.5555L152.957 82.6266ZM151.375 80.0413C151.024 79.092 150.836 78.1665 150.805 77.2601L149.51 77.1608C149.547 78.2502 149.774 79.3484 150.181 80.4506L151.375 80.0413ZM150.805 77.2601C150.772 76.3346 150.871 75.5145 151.09 74.793L149.856 74.2137C149.585 75.1058 149.472 76.0912 149.51 77.1608L150.805 77.2601ZM151.09 74.793L151.221 74.3633L149.987 73.7846L149.856 74.2137L151.09 74.793ZM151.221 74.3633C151.469 73.5459 151.853 72.8115 152.375 72.1574L151.362 71.1544C150.744 71.9282 150.284 72.8061 149.987 73.7846L151.221 74.3633ZM152.377 72.1546C152.897 71.4957 153.534 70.9776 154.294 70.6002L153.657 69.2905C152.755 69.7393 151.987 70.3615 151.36 71.1571L152.377 72.1546ZM154.294 70.6002C155.04 70.2282 155.882 70.0412 156.829 70.0473L156.696 68.6227C155.588 68.6159 154.572 68.8356 153.657 69.2905L154.294 70.6002ZM156.825 70.0473C157.761 70.0582 158.789 70.3166 159.919 70.847L160.315 69.5455C159.051 68.9518 157.843 68.6363 156.699 68.6227L156.825 70.0473ZM159.919 70.847C161.035 71.3706 161.931 72.0152 162.625 72.7687L163.484 71.8092C162.63 70.8837 161.568 70.133 160.315 69.5455L159.919 70.847ZM162.628 72.7714C163.353 73.5507 163.89 74.3844 164.252 75.2745L165.426 74.8155C164.981 73.7207 164.329 72.7177 163.481 71.8065L162.628 72.7714ZM164.252 75.2745C164.62 76.1816 164.822 77.0935 164.861 78.0149L166.155 78.1026C166.108 76.9901 165.863 75.8933 165.426 74.8155L164.252 75.2745ZM164.862 78.0278C164.916 78.9506 164.818 79.8162 164.571 80.6302L165.804 81.2095C166.103 80.2276 166.219 79.1858 166.154 78.0897L164.862 78.0278ZM164.571 80.6302L164.44 81.0599L165.674 81.6386L165.804 81.2095L164.571 80.6302ZM164.44 81.0599C164.222 81.778 163.855 82.4682 163.327 83.1292L164.341 84.1322C164.952 83.3651 165.401 82.5348 165.674 81.6386L164.44 81.0599ZM163.322 83.136C162.816 83.7901 162.182 84.33 161.414 84.7537L162.091 86.0416C162.983 85.5493 163.737 84.9114 164.346 84.1254L163.322 83.136ZM161.419 84.751C160.675 85.1515 159.823 85.3684 158.851 85.3936L159.02 86.8175C160.151 86.7889 161.177 86.5339 162.086 86.0443L161.419 84.751ZM158.858 85.3936C157.921 85.4058 156.881 85.1562 155.729 84.6156L155.334 85.9172C156.625 86.523 157.855 86.8331 159.013 86.8175L158.858 85.3936ZM156.367 82.5206C157.028 82.8306 157.677 83.0027 158.309 83.0163L158.195 81.5924C157.762 81.5828 157.287 81.4645 156.763 81.219L156.367 82.5206ZM158.309 83.0163C158.929 83.0306 159.507 82.9082 160.039 82.6457L159.405 81.3353C159.04 81.5155 158.639 81.6019 158.195 81.5924L158.309 83.0163ZM160.039 82.6457C160.564 82.3873 161.014 82.0153 161.389 81.5359L160.369 80.5424C160.097 80.8892 159.777 81.1524 159.405 81.3353L160.039 82.6457ZM161.393 81.5312C161.769 81.0409 162.055 80.4642 162.254 79.8101L161.02 79.2314C160.863 79.7482 160.643 80.1841 160.365 80.5465L161.393 81.5312ZM162.254 79.8101C162.464 79.1178 162.559 78.4222 162.523 77.7286L161.229 77.6552C161.255 78.1509 161.189 78.6745 161.02 79.2314L162.254 79.8101ZM162.524 77.7449C162.502 77.0622 162.362 76.406 162.097 75.7852L160.934 76.2714C161.113 76.6916 161.213 77.1445 161.228 77.6395L162.524 77.7449ZM162.097 75.7852C161.832 75.1636 161.455 74.6094 160.978 74.1253L160.157 75.1228C160.498 75.469 160.754 75.8511 160.934 76.2714L162.097 75.7852ZM160.978 74.1253C160.497 73.637 159.927 73.2454 159.282 72.9421L158.886 74.2436C159.4 74.4843 159.819 74.7801 160.157 75.1228L160.978 74.1253ZM159.282 72.9421C158.625 72.634 157.983 72.4559 157.36 72.4266L157.445 73.8499C157.879 73.8703 158.358 73.9954 158.886 74.2436L159.282 72.9421ZM157.36 72.4266C156.745 72.3981 156.168 72.5048 155.638 72.753L156.251 74.0729C156.61 73.9056 157.004 73.8295 157.445 73.8499L157.36 72.4266ZM155.638 72.753C155.108 73.0012 154.654 73.378 154.274 73.8723L155.301 74.857C155.577 74.4986 155.893 74.2409 156.251 74.0729L155.638 72.753ZM154.274 73.8723C153.895 74.3667 153.604 74.9637 153.395 75.6519L154.629 76.2312C154.799 75.6696 155.027 75.216 155.301 74.857L154.274 73.8723ZM153.395 75.6519C153.196 76.306 153.104 76.9731 153.125 77.6504L154.42 77.7558C154.404 77.2553 154.472 76.748 154.629 76.2312L153.395 75.6519ZM153.125 77.6558C153.151 78.3236 153.291 78.973 153.546 79.5986L154.72 79.1355C154.538 78.6928 154.438 78.2332 154.42 77.7497L153.125 77.6558ZM153.546 79.5986C153.805 80.231 154.175 80.7988 154.647 81.2972L155.49 80.3228C155.152 79.9651 154.897 79.57 154.72 79.1355L153.546 79.5986ZM154.647 81.2972C155.127 81.8052 155.706 82.2098 156.367 82.5206L156.763 81.219C156.24 80.9729 155.821 80.6716 155.49 80.3228L154.647 81.2972Z" fill="black"/>
</g>
<path d="M168.974 92.8029C167.78 92.093 166.85 91.2906 166.187 90.3971C165.535 89.5104 165.133 88.593 164.981 87.6438C164.845 86.689 164.952 85.7547 165.305 84.8408L168.468 86.721C168.34 87.0508 168.305 87.4044 168.361 87.7811C168.434 88.1524 168.611 88.5148 168.893 88.8691C169.173 89.2234 169.577 89.5573 170.104 89.8708C170.561 90.1421 170.972 90.3087 171.338 90.3692C171.715 90.4372 172.029 90.4059 172.281 90.2747C172.544 90.1509 172.737 89.9299 172.86 89.613C173.016 89.2064 172.978 88.8018 172.745 88.3979C172.517 87.9811 172.04 87.5186 171.315 87.0093L170.519 86.4422C169.244 85.5283 168.363 84.4512 167.877 83.2102C167.39 81.9692 167.394 80.7078 167.888 79.4253C168.24 78.5114 168.734 77.8456 169.37 77.4281C170.018 77.0174 170.765 76.8528 171.612 76.9351C172.458 77.0167 173.368 77.3465 174.34 77.9245C175.394 78.5515 176.211 79.2709 176.791 80.0835C177.382 80.9029 177.736 81.7767 177.854 82.7049C177.976 83.6202 177.861 84.5348 177.509 85.4487L174.346 83.5685C174.464 83.2639 174.501 82.9429 174.458 82.6056C174.416 82.2684 174.286 81.9494 174.071 81.6496C173.872 81.3442 173.585 81.0797 173.21 80.8574C172.859 80.6486 172.535 80.5344 172.241 80.5153C171.962 80.4902 171.717 80.5473 171.505 80.686C171.305 80.8322 171.153 81.0389 171.05 81.3055C170.913 81.6611 170.907 82.0317 171.032 82.418C171.157 82.8042 171.485 83.1864 172.016 83.5644L172.812 84.1316C173.739 84.7912 174.5 85.5242 175.096 86.3314C175.697 87.1256 176.088 87.9586 176.27 88.8317C176.453 89.7042 176.37 90.5916 176.022 91.4926C175.675 92.3942 175.155 93.0525 174.463 93.4673C173.782 93.8896 172.972 94.048 172.034 93.9426C171.107 93.8447 170.087 93.4646 168.974 92.8029Z" fill="white"/>
<mask id="mask11_61_2564" style="mask-type:luminance" maskUnits="userSpaceOnUse" x="162" y="73" width="20" height="25">
<path d="M181.421 73.3516H162.178V97.5143H181.421V73.3516Z" fill="white"/>
<path d="M168.974 92.8029C167.78 92.093 166.85 91.2906 166.187 90.3971C165.535 89.5104 165.133 88.593 164.981 87.6438C164.845 86.689 164.952 85.7547 165.305 84.8408L168.468 86.721C168.34 87.0508 168.305 87.4044 168.361 87.7811C168.434 88.1524 168.611 88.5148 168.893 88.8691C169.173 89.2234 169.577 89.5573 170.104 89.8708C170.561 90.1421 170.972 90.3087 171.338 90.3692C171.715 90.4372 172.029 90.4059 172.281 90.2747C172.544 90.1509 172.737 89.9299 172.86 89.613C173.016 89.2064 172.978 88.8018 172.745 88.3979C172.517 87.9811 172.04 87.5186 171.315 87.0093L170.519 86.4422C169.244 85.5283 168.363 84.4512 167.877 83.2102C167.39 81.9692 167.394 80.7078 167.888 79.4253C168.24 78.5114 168.734 77.8456 169.37 77.4281C170.018 77.0174 170.765 76.8528 171.612 76.9351C172.458 77.0167 173.368 77.3465 174.34 77.9245C175.394 78.5515 176.211 79.2709 176.791 80.0835C177.382 80.9029 177.736 81.7767 177.854 82.7049C177.976 83.6202 177.861 84.5348 177.509 85.4487L174.346 83.5685C174.464 83.2639 174.501 82.9429 174.458 82.6056C174.416 82.2684 174.286 81.9494 174.071 81.6496C173.872 81.3442 173.585 81.0797 173.21 80.8574C172.859 80.6486 172.535 80.5344 172.241 80.5153C171.962 80.4902 171.717 80.5473 171.505 80.686C171.305 80.8322 171.153 81.0389 171.05 81.3055C170.913 81.6611 170.907 82.0317 171.032 82.418C171.157 82.8042 171.485 83.1864 172.016 83.5644L172.812 84.1316C173.739 84.7912 174.5 85.5242 175.096 86.3314C175.697 87.1256 176.088 87.9586 176.27 88.8317C176.453 89.7042 176.37 90.5916 176.022 91.4926C175.675 92.3942 175.155 93.0525 174.463 93.4673C173.782 93.8896 172.972 94.048 172.034 93.9426C171.107 93.8447 170.087 93.4646 168.974 92.8029Z" fill="black"/>
</mask>
<g mask="url(#mask11_61_2564)">
<path d="M166.187 90.3971L165.719 90.8269L165.721 90.8296L166.187 90.3971ZM164.981 87.6438L164.354 87.6853L164.356 87.6928L164.356 87.7003L164.981 87.6438ZM165.305 84.8409L165.549 84.2064L164.964 83.8583L164.719 84.4927L165.305 84.8409ZM168.468 86.7211L169.053 87.0692L169.297 86.4341L168.712 86.086L168.468 86.7211ZM168.361 87.7812L167.736 87.8281L167.739 87.8478L167.742 87.8669L168.361 87.7812ZM171.337 90.3693L171.371 89.6546L171.363 89.6532L171.337 90.3693ZM172.281 90.2748L171.987 89.6009L171.978 89.6056L171.969 89.6104L172.281 90.2748ZM172.745 88.398L172.216 88.7325L172.221 88.7414L172.226 88.7495L172.745 88.398ZM171.315 87.0094L171.021 87.6126L171.025 87.6153L171.315 87.0094ZM170.519 86.4423L170.223 87.0441L170.225 87.0454L170.519 86.4423ZM169.37 77.4282L169.019 76.7863L169.011 76.791L169.37 77.4282ZM176.791 80.0836L176.315 80.5032L176.318 80.5072L176.791 80.0836ZM177.854 82.705L177.226 82.7329L177.226 82.739L177.854 82.705ZM177.509 85.4488L177.264 86.0839L177.85 86.4321L178.095 85.797L177.509 85.4488ZM174.346 83.5686L173.761 83.2204L173.516 83.8556L174.101 84.2037L174.346 83.5686ZM174.071 81.6496L173.576 82.0406L173.586 82.0563L173.598 82.0719L174.071 81.6496ZM172.241 80.5154L172.258 81.2369L172.265 81.2376H172.271L172.241 80.5154ZM171.505 80.6861L171.146 80.0496L171.135 80.0564L171.124 80.0646L171.505 80.6861ZM175.096 86.3314L174.629 86.7626L174.635 86.77L175.096 86.3314ZM174.463 93.4673L174.123 92.8186L174.116 92.8227L174.463 93.4673ZM172.034 93.9427L172.029 93.2226L172.025 93.2219L172.034 93.9427ZM169.219 92.1686C168.082 91.4926 167.238 90.7528 166.653 89.9647L165.721 90.8296C166.463 91.8292 167.477 92.6935 168.73 93.4381L169.219 92.1686ZM166.655 89.9681C166.071 89.1725 165.732 88.3816 165.605 87.5874L164.356 87.7003C164.534 88.8039 165 89.8484 165.719 90.8269L166.655 89.9681ZM165.607 87.603C165.491 86.7959 165.579 85.9955 165.89 85.189L164.719 84.4927C164.326 85.5148 164.197 86.583 164.354 87.6853L165.607 87.603ZM165.06 85.476L168.223 87.3555L168.712 86.086L165.549 84.2064L165.06 85.476ZM167.882 86.3729C167.708 86.8238 167.659 87.3147 167.736 87.8281L168.986 87.7343C168.951 87.4942 168.973 87.278 169.053 87.0692L167.882 86.3729ZM167.742 87.8669C167.847 88.3993 168.095 88.8855 168.442 89.3228L169.342 88.4156C169.127 88.1443 169.021 87.9056 168.98 87.6955L167.742 87.8669ZM168.442 89.3228C168.802 89.7756 169.286 90.1646 169.86 90.5053L170.349 89.2357C169.868 88.9501 169.545 88.6713 169.342 88.4156L168.442 89.3228ZM169.86 90.5053C170.363 90.8045 170.85 91.0085 171.311 91.0853L171.363 89.6532C171.095 89.6084 170.759 89.4798 170.349 89.2357L169.86 90.5053ZM171.304 91.0846C171.766 91.1676 172.208 91.1397 172.593 90.9398L171.969 89.6104C171.849 89.6723 171.663 89.7076 171.371 89.6546L171.304 91.0846ZM172.574 90.9486C172.979 90.7582 173.27 90.4162 173.446 89.9613L172.274 89.265C172.205 89.4445 172.11 89.5431 171.987 89.6009L172.574 90.9486ZM173.446 89.9613C173.686 89.3377 173.623 88.6679 173.264 88.0464L172.226 88.7495C172.333 88.9352 172.347 89.0759 172.274 89.265L173.446 89.9613ZM173.273 88.0627C172.951 87.4731 172.349 86.9264 171.604 86.4035L171.025 87.6153C171.731 88.1103 172.083 88.4891 172.216 88.7325L173.273 88.0627ZM171.608 86.4062L170.812 85.8391L170.225 87.0454L171.021 87.6126L171.608 86.4062ZM170.814 85.8405C169.63 84.9925 168.866 84.0324 168.452 82.975L167.301 83.4455C167.86 84.8701 168.857 86.0649 170.223 87.0441L170.814 85.8405ZM168.452 82.975C168.05 81.9502 168.039 80.9003 168.474 79.7735L167.302 79.0772C166.748 80.5154 166.73 81.9883 167.301 83.4455L168.452 82.975ZM168.474 79.7735C168.787 78.9589 169.211 78.4054 169.729 78.0654L169.011 76.791C168.257 77.2861 167.692 78.064 167.302 79.0772L168.474 79.7735ZM169.721 78.0701C170.26 77.7281 170.888 77.5846 171.625 77.656L171.598 76.2137C170.642 76.1212 169.775 76.3062 169.019 76.7863L169.721 78.0701ZM171.625 77.656C172.364 77.7281 173.185 78.0184 174.095 78.5597L174.584 77.2902C173.55 76.6748 172.552 76.3062 171.598 76.2137L171.625 77.656ZM174.095 78.5597C175.087 79.1493 175.816 79.8028 176.315 80.5032L177.266 79.664C176.606 78.7392 175.701 77.9538 174.584 77.2902L174.095 78.5597ZM176.318 80.5072C176.834 81.2219 177.127 81.9597 177.226 82.7329L178.481 82.6771C178.344 81.5939 177.93 80.5848 177.263 79.66L176.318 80.5072ZM177.226 82.739C177.329 83.5033 177.236 84.2874 176.924 85.1006L178.095 85.797C178.486 84.7824 178.623 83.7366 178.481 82.671L177.226 82.739ZM177.753 84.8144L174.591 82.9342L174.101 84.2037L177.264 86.0839L177.753 84.8144ZM174.932 83.9168C175.092 83.5006 175.146 83.0504 175.086 82.5778L173.83 82.6336C173.856 82.8362 173.835 83.0273 173.761 83.2204L174.932 83.9168ZM175.086 82.5778C175.024 82.0848 174.834 81.6313 174.544 81.2274L173.598 82.0719C173.738 82.2678 173.807 82.4514 173.83 82.6336L175.086 82.5778ZM174.566 81.2593C174.284 80.8275 173.901 80.4882 173.454 80.2223L172.966 81.4919C173.269 81.6721 173.459 81.8611 173.576 82.0406L174.566 81.2593ZM173.454 80.2223C173.041 79.9762 172.622 79.8191 172.209 79.7926L172.271 81.2376C172.449 81.2491 172.676 81.3205 172.966 81.4919L173.454 80.2223ZM172.223 79.7932C171.833 79.7586 171.468 79.8381 171.146 80.0496L171.864 81.3232C171.967 81.2559 172.091 81.2219 172.258 81.2369L172.223 79.7932ZM171.124 80.0646C170.827 80.2808 170.609 80.5854 170.465 80.9574L171.636 81.6537C171.698 81.4926 171.782 81.3844 171.886 81.3083L171.124 80.0646ZM170.465 80.9574C170.266 81.4728 170.255 82.0345 170.439 82.603L171.625 82.2331C171.56 82.0298 171.561 81.8489 171.636 81.6537L170.465 80.9574ZM170.439 82.603C170.647 83.2463 171.144 83.7549 171.723 84.1677L172.309 82.9614C171.826 82.6173 171.667 82.3623 171.625 82.2331L170.439 82.603ZM171.723 84.1677L172.519 84.7341L173.106 83.5285L172.309 82.9614L171.723 84.1677ZM172.519 84.7341C173.392 85.3563 174.091 86.0343 174.629 86.7626L175.563 85.9003C174.909 85.015 174.085 84.2262 173.106 83.5285L172.519 84.7341ZM174.635 86.77C175.17 87.4779 175.501 88.1953 175.653 88.927L176.887 88.7366C176.676 87.7227 176.223 86.7734 175.557 85.8928L174.635 86.77ZM175.653 88.927C175.799 89.622 175.741 90.355 175.436 91.1445L176.608 91.8408C176.999 90.8276 177.106 89.7865 176.887 88.7366L175.653 88.927ZM175.436 91.1445C175.134 91.9292 174.695 92.4759 174.123 92.8186L174.803 94.1167C175.616 93.6292 176.216 92.8587 176.608 91.8408L175.436 91.1445ZM174.116 92.8227C173.551 93.1729 172.865 93.3164 172.029 93.2226L172.038 94.6635C173.079 94.7804 174.012 94.607 174.81 94.112L174.116 92.8227ZM172.025 93.2219C171.207 93.1355 170.275 92.7962 169.219 92.1686L168.73 93.4381C169.899 94.1331 171.007 94.554 172.042 94.6635L172.025 93.2219Z" fill="black"/>
</g>
</g>
<defs>
<filter id="filter0_d_61_2564" x="14.3066" y="16.8657" width="149.401" height="143.394" filterUnits="userSpaceOnUse" color-interpolation-filters="sRGB">
<feFlood flood-opacity="0" result="BackgroundImageFix"/>
<feColorMatrix in="SourceAlpha" type="matrix" values="0 0 0 0 0 0 0 0 0 0 0 0 0 0 0 0 0 0 127 0" result="hardAlpha"/>
<feOffset dy="4"/>
<feGaussianBlur stdDeviation="2"/>
<feComposite in2="hardAlpha" operator="out"/>
<feColorMatrix type="matrix" values="0 0 0 0 0 0 0 0 0 0 0 0 0 0 0 0 0 0 0.25 0"/>
<feBlend mode="normal" in2="BackgroundImageFix" result="effect1_dropShadow_61_2564"/>
<feBlend mode="normal" in="SourceGraphic" in2="effect1_dropShadow_61_2564" result="shape"/>
</filter>
<filter id="filter1_d_61_2564" x="11.6113" y="39.722" width="47.8262" height="96.0291" filterUnits="userSpaceOnUse" color-interpolation-filters="sRGB">
<feFlood flood-opacity="0" result="BackgroundImageFix"/>
<feColorMatrix in="SourceAlpha" type="matrix" values="0 0 0 0 0 0 0 0 0 0 0 0 0 0 0 0 0 0 127 0" result="hardAlpha"/>
<feOffset dy="4"/>
<feGaussianBlur stdDeviation="2"/>
<feComposite in2="hardAlpha" operator="out"/>
<feColorMatrix type="matrix" values="0 0 0 0 0 0 0 0 0 0 0 0 0 0 0 0 0 0 0.25 0"/>
<feBlend mode="normal" in2="BackgroundImageFix" result="effect1_dropShadow_61_2564"/>
<feBlend mode="normal" in="SourceGraphic" in2="effect1_dropShadow_61_2564" result="shape"/>
</filter>
<filter id="filter2_d_61_2564" x="83.0234" y="89.368" width="81.1279" height="73.52" filterUnits="userSpaceOnUse" color-interpolation-filters="sRGB">
<feFlood flood-opacity="0" result="BackgroundImageFix"/>
<feColorMatrix in="SourceAlpha" type="matrix" values="0 0 0 0 0 0 0 0 0 0 0 0 0 0 0 0 0 0 127 0" result="hardAlpha"/>
<feOffset dy="4"/>
<feGaussianBlur stdDeviation="2"/>
<feComposite in2="hardAlpha" operator="out"/>
<feColorMatrix type="matrix" values="0 0 0 0 0 0 0 0 0 0 0 0 0 0 0 0 0 0 0.25 0"/>
<feBlend mode="normal" in2="BackgroundImageFix" result="effect1_dropShadow_61_2564"/>
<feBlend mode="normal" in="SourceGraphic" in2="effect1_dropShadow_61_2564" result="shape"/>
</filter>
<filter id="filter3_d_61_2564" x="66.625" y="15.2067" width="87.4678" height="74.2921" filterUnits="userSpaceOnUse" color-interpolation-filters="sRGB">
<feFlood flood-opacity="0" result="BackgroundImageFix"/>
<feColorMatrix in="SourceAlpha" type="matrix" values="0 0 0 0 0 0 0 0 0 0 0 0 0 0 0 0 0 0 127 0" result="hardAlpha"/>
<feOffset dy="4"/>
<feGaussianBlur stdDeviation="2"/>
<feComposite in2="hardAlpha" operator="out"/>
<feColorMatrix type="matrix" values="0 0 0 0 0 0 0 0 0 0 0 0 0 0 0 0 0 0 0.25 0"/>
<feBlend mode="normal" in2="BackgroundImageFix" result="effect1_dropShadow_61_2564"/>
<feBlend mode="normal" in="SourceGraphic" in2="effect1_dropShadow_61_2564" result="shape"/>
</filter>
<filter id="filter4_d_61_2564" x="0.429688" y="48.9154" width="182.105" height="53.9718" filterUnits="userSpaceOnUse" color-interpolation-filters="sRGB">
<feFlood flood-opacity="0" result="BackgroundImageFix"/>
<feColorMatrix in="SourceAlpha" type="matrix" values="0 0 0 0 0 0 0 0 0 0 0 0 0 0 0 0 0 0 127 0" result="hardAlpha"/>
<feOffset dy="4"/>
<feGaussianBlur stdDeviation="2"/>
<feComposite in2="hardAlpha" operator="out"/>
<feColorMatrix type="matrix" values="0 0 0 0 0 0 0 0 0 0 0 0 0 0 0 0 0 0 0.25 0"/>
<feBlend mode="normal" in2="BackgroundImageFix" result="effect1_dropShadow_61_2564"/>
<feBlend mode="normal" in="SourceGraphic" in2="effect1_dropShadow_61_2564" result="shape"/>
</filter>
<linearGradient id="paint0_linear_61_2564" x1="67.5882" y1="22.5235" x2="110.222" y2="146.672" gradientUnits="userSpaceOnUse">
<stop stop-color="#5EB1FF"/>
<stop offset="0.626667" stop-color="#4D91F0"/>
<stop offset="1" stop-color="#03316A"/>
</linearGradient>
<linearGradient id="paint1_linear_61_2564" x1="57.1534" y1="52.3599" x2="57.1534" y2="142.8" gradientUnits="userSpaceOnUse">
<stop offset="0.786667" stop-color="#D6D91B"/>
<stop offset="1" stop-color="#72730E"/>
</linearGradient>
<linearGradient id="paint2_linear_61_2564" x1="126.017" y1="25.1599" x2="126.017" y2="122.06" gradientUnits="userSpaceOnUse">
<stop offset="0.591667" stop-color="#D6D91B"/>
<stop offset="1" stop-color="#72730E"/>
</linearGradient>
</defs>
</svg>
