<svg width="34" height="34" viewBox="0 0 34 34" fill="none" xmlns="http://www.w3.org/2000/svg">
<path d="M3.77778 34C2.73889 34 1.84954 33.6301 1.10972 32.8903C0.369907 32.1505 0 31.2611 0 30.2222V3.77778C0 2.73889 0.369907 1.84954 1.10972 1.10972C1.84954 0.369907 2.73889 0 3.77778 0H30.2222C31.2611 0 32.1505 0.369907 32.8903 1.10972C33.6301 1.84954 34 2.73889 34 3.77778V30.2222C34 31.2611 33.6301 32.1505 32.8903 32.8903C32.1505 33.6301 31.2611 34 30.2222 34H3.77778ZM3.77778 30.2222H30.2222V3.77778H3.77778V30.2222ZM5.66667 26.4444H28.3333L21.25 17L15.5833 24.5556L11.3333 18.8889L5.66667 26.4444Z" fill="#BABABA"/>
</svg>
