<svg width="21" height="21" viewBox="0 0 21 21" fill="none" xmlns="http://www.w3.org/2000/svg">
<path d="M4.35 15.6C5.2 14.95 6.15 14.4375 7.2 14.0625C8.25 13.6875 9.35 13.5 10.5 13.5C11.65 13.5 12.75 13.6875 13.8 14.0625C14.85 14.4375 15.8 14.95 16.65 15.6C17.2333 14.9167 17.6875 14.1417 18.0125 13.275C18.3375 12.4083 18.5 11.4833 18.5 10.5C18.5 8.28333 17.7208 6.39583 16.1625 4.8375C14.6042 3.27917 12.7167 2.5 10.5 2.5C8.28333 2.5 6.39583 3.27917 4.8375 4.8375C3.27917 6.39583 2.5 8.28333 2.5 10.5C2.5 11.4833 2.6625 12.4083 2.9875 13.275C3.3125 14.1417 3.76667 14.9167 4.35 15.6ZM10.5 11.5C9.51667 11.5 8.6875 11.1625 8.0125 10.4875C7.3375 9.8125 7 8.98333 7 8C7 7.01667 7.3375 6.1875 8.0125 5.5125C8.6875 4.8375 9.51667 4.5 10.5 4.5C11.4833 4.5 12.3125 4.8375 12.9875 5.5125C13.6625 6.1875 14 7.01667 14 8C14 8.98333 13.6625 9.8125 12.9875 10.4875C12.3125 11.1625 11.4833 11.5 10.5 11.5ZM10.5 20.5C9.11667 20.5 7.81667 20.2375 6.6 19.7125C5.38333 19.1875 4.325 18.475 3.425 17.575C2.525 16.675 1.8125 15.6167 1.2875 14.4C0.7625 13.1833 0.5 11.8833 0.5 10.5C0.5 9.11667 0.7625 7.81667 1.2875 6.6C1.8125 5.38333 2.525 4.325 3.425 3.425C4.325 2.525 5.38333 1.8125 6.6 1.2875C7.81667 0.7625 9.11667 0.5 10.5 0.5C11.8833 0.5 13.1833 0.7625 14.4 1.2875C15.6167 1.8125 16.675 2.525 17.575 3.425C18.475 4.325 19.1875 5.38333 19.7125 6.6C20.2375 7.81667 20.5 9.11667 20.5 10.5C20.5 11.8833 20.2375 13.1833 19.7125 14.4C19.1875 15.6167 18.475 16.675 17.575 17.575C16.675 18.475 15.6167 19.1875 14.4 19.7125C13.1833 20.2375 11.8833 20.5 10.5 20.5ZM10.5 18.5C11.3833 18.5 12.2167 18.3708 13 18.1125C13.7833 17.8542 14.5 17.4833 15.15 17C14.5 16.5167 13.7833 16.1458 13 15.8875C12.2167 15.6292 11.3833 15.5 10.5 15.5C9.61667 15.5 8.78333 15.6292 8 15.8875C7.21667 16.1458 6.5 16.5167 5.85 17C6.5 17.4833 7.21667 17.8542 8 18.1125C8.78333 18.3708 9.61667 18.5 10.5 18.5ZM10.5 9.5C10.9333 9.5 11.2917 9.35833 11.575 9.075C11.8583 8.79167 12 8.43333 12 8C12 7.56667 11.8583 7.20833 11.575 6.925C11.2917 6.64167 10.9333 6.5 10.5 6.5C10.0667 6.5 9.70833 6.64167 9.425 6.925C9.14167 7.20833 9 7.56667 9 8C9 8.43333 9.14167 8.79167 9.425 9.075C9.70833 9.35833 10.0667 9.5 10.5 9.5Z" fill="black"/>
</svg>
