<svg width="30" height="28" viewBox="0 0 30 28" fill="none" xmlns="http://www.w3.org/2000/svg">
<path d="M0 28V21.3889L22 0.894444C22.3333 0.609259 22.7014 0.388889 23.1042 0.233333C23.5069 0.0777778 23.9306 0 24.375 0C24.8194 0 25.25 0.0777778 25.6667 0.233333C26.0833 0.388889 26.4444 0.622222 26.75 0.933333L29.0417 3.11111C29.375 3.3963 29.6181 3.73333 29.7708 4.12222C29.9236 4.51111 30 4.9 30 5.28889C30 5.7037 29.9236 6.09907 29.7708 6.475C29.6181 6.85093 29.375 7.19444 29.0417 7.50556L7.08333 28H0ZM24.3333 7.46667L26.6667 5.28889L24.3333 3.11111L22 5.28889L24.3333 7.46667Z" fill="black"/>
</svg>
