<svg width="19" height="19" viewBox="0 0 19 19" fill="none" xmlns="http://www.w3.org/2000/svg">
<path d="M9.5 18.5C7.2 18.5 5.19583 17.7375 3.4875 16.2125C1.77917 14.6875 0.8 12.7833 0.55 10.5H2.6C2.83333 12.2333 3.60417 13.6667 4.9125 14.8C6.22083 15.9333 7.75 16.5 9.5 16.5C11.45 16.5 13.1042 15.8208 14.4625 14.4625C15.8208 13.1042 16.5 11.45 16.5 9.5C16.5 7.55 15.8208 5.89583 14.4625 4.5375C13.1042 3.17917 11.45 2.5 9.5 2.5C8.35 2.5 7.275 2.76667 6.275 3.3C5.275 3.83333 4.43333 4.56667 3.75 5.5H6.5V7.5H0.5V1.5H2.5V3.85C3.35 2.78333 4.3875 1.95833 5.6125 1.375C6.8375 0.791667 8.13333 0.5 9.5 0.5C10.75 0.5 11.9208 0.7375 13.0125 1.2125C14.1042 1.6875 15.0542 2.32917 15.8625 3.1375C16.6708 3.94583 17.3125 4.89583 17.7875 5.9875C18.2625 7.07917 18.5 8.25 18.5 9.5C18.5 10.75 18.2625 11.9208 17.7875 13.0125C17.3125 14.1042 16.6708 15.0542 15.8625 15.8625C15.0542 16.6708 14.1042 17.3125 13.0125 17.7875C11.9208 18.2625 10.75 18.5 9.5 18.5ZM12.3 13.7L8.5 9.9V4.5H10.5V9.1L13.7 12.3L12.3 13.7Z" fill="black"/>
</svg>
