<svg width="107" height="107" viewBox="0 0 107 107" fill="none" xmlns="http://www.w3.org/2000/svg">
<path d="M53.5 80.25C55.0158 80.25 56.2865 79.7373 57.3119 78.7119C58.3373 77.6865 58.85 76.4158 58.85 74.9C58.85 73.3842 58.3373 72.1135 57.3119 71.0881C56.2865 70.0627 55.0158 69.55 53.5 69.55C51.9842 69.55 50.7135 70.0627 49.6881 71.0881C48.6627 72.1135 48.15 73.3842 48.15 74.9C48.15 76.4158 48.6627 77.6865 49.6881 78.7119C50.7135 79.7373 51.9842 80.25 53.5 80.25ZM48.15 58.85H58.85V26.75H48.15V58.85ZM53.5 107C46.0992 107 39.1442 105.596 32.635 102.787C26.1258 99.9781 20.4638 96.1663 15.6488 91.3513C10.8338 86.5363 7.02188 80.8742 4.21313 74.365C1.40438 67.8558 0 60.9008 0 53.5C0 46.0992 1.40438 39.1442 4.21313 32.635C7.02188 26.1258 10.8338 20.4638 15.6488 15.6488C20.4638 10.8338 26.1258 7.02188 32.635 4.21313C39.1442 1.40438 46.0992 0 53.5 0C60.9008 0 67.8558 1.40438 74.365 4.21313C80.8742 7.02188 86.5363 10.8338 91.3513 15.6488C96.1663 20.4638 99.9781 26.1258 102.787 32.635C105.596 39.1442 107 46.0992 107 53.5C107 60.9008 105.596 67.8558 102.787 74.365C99.9781 80.8742 96.1663 86.5363 91.3513 91.3513C86.5363 96.1663 80.8742 99.9781 74.365 102.787C67.8558 105.596 60.9008 107 53.5 107ZM53.5 96.3C65.4483 96.3 75.5688 92.1538 83.8613 83.8613C92.1538 75.5688 96.3 65.4483 96.3 53.5C96.3 41.5517 92.1538 31.4313 83.8613 23.1388C75.5688 14.8463 65.4483 10.7 53.5 10.7C41.5517 10.7 31.4313 14.8463 23.1388 23.1388C14.8463 31.4313 10.7 41.5517 10.7 53.5C10.7 65.4483 14.8463 75.5688 23.1388 83.8613C31.4313 92.1538 41.5517 96.3 53.5 96.3Z" fill="#FF0000"/>
</svg>
