<svg width="69" height="63" viewBox="0 0 69 63" fill="none" xmlns="http://www.w3.org/2000/svg">
<g filter="url(#filter0_d_82_5107)">
<path d="M40.9771 51.1425C53.6138 46.803 60.5125 33.5954 56.3858 21.6425C52.2591 9.68966 38.6697 3.51786 26.033 7.8574C13.3964 12.1969 6.4977 25.4045 10.6244 37.3574C14.7511 49.3103 28.3405 55.4821 40.9771 51.1425Z" fill="url(#paint0_linear_82_5107)"/>
<path d="M41.0544 51.3668C53.8039 46.9886 60.7838 33.653 56.6106 21.5653C52.4372 9.47757 38.7049 3.25486 25.9555 7.63314C13.2061 12.0114 6.22619 25.3468 10.3995 37.4346C14.5728 49.5224 28.305 55.7451 41.0544 51.3668Z" stroke="black" stroke-width="2"/>
</g>
<path d="M25.6042 49.1046V48.958L25.4727 48.8925L24.3026 48.3089L23.4635 47.6812V43.5579L24.2834 43.1489L24.3543 43.1136L24.3898 43.0429L25.5133 40.8019H26.3177H26.4703L26.534 40.6636L27.8422 37.8169L27.8638 37.7697V37.718V36.6709L30.7154 35.0782L30.837 35.0104V34.8713V32.4235L31.1743 31.5265L32.9525 27.9794L33.0036 27.8774L32.9558 27.774L32.2422 26.232L32.2142 26.1713L32.1583 26.1341L30.3743 24.948L30.3144 24.9081H30.2423H27.4021L26.5281 23.4917L25.9396 22.2005L25.9057 22.126L25.8328 22.0882L19.8865 19.0043L19.8698 18.9957L19.8519 18.9898L16.9977 18.0409L16.9611 18.0287H16.9225H16.2089H16.1255L16.0603 18.0807L13.0871 20.4529L12.9979 20.5241V20.6381V22.593L11.8385 24.6742L11.8086 24.728V24.7895V27.0431V27.1052L11.8391 27.1593L13.9798 30.9548L13.9935 30.979L14.0124 30.9994L15.4182 32.5184L16.7107 34.9795L17.1603 35.8762V41.8693V41.8964L17.1664 41.9227L17.5232 43.4646L17.5434 43.5522L17.6167 43.6044L18.3496 44.1265V46.2579V46.3445L18.4055 46.4107L20.3083 48.6643L20.3796 48.7487H20.4903H21.4395L22.3197 49.9557L22.3909 50.0534H22.512H25.3663H25.6042V49.8162V49.1046Z" fill="url(#paint1_linear_82_5107)" stroke="black" stroke-width="2"/>
<g filter="url(#filter1_d_82_5107)">
<path d="M9.42969 17.1985L12.6407 19.0963L10.5 23.4849L9.42969 27.2804V31.1945L10.1433 35.5831L11.6893 39.9717L12.8786 42.2253L14.0679 44.0044L13.2354 39.6159V35.5831L13.7111 32.1434L14.4246 29.4154L15.3761 26.5688L16.2085 24.9082L17.2789 23.4849L21.0846 25.8571L19.8953 14.5891L9.42969 17.1985Z" fill="#34F741"/>
<path d="M9.37198 16.9684L8.81055 17.1083L9.3084 17.4026L12.331 19.1889L10.2861 23.3811L10.2768 23.4002L10.271 23.4206L9.2007 27.2161L9.1918 27.2476V27.2804V31.1945V31.2135L9.19487 31.2325L9.90844 35.621L9.91181 35.6419L9.91881 35.6616L11.4649 40.0502L11.4707 40.0668L11.4788 40.0822L12.6681 42.3358L12.6738 42.3467L12.6807 42.3569L13.8699 44.136L14.3015 43.9603L13.4732 39.5935V35.5994L13.9448 32.1896L14.6528 29.483L15.5963 26.6598L16.4117 25.0334L17.3381 23.8015L20.9585 26.0582L21.3721 26.3161L21.3211 25.8321L20.1318 14.5642L20.1031 14.2927L19.8376 14.3589L9.37198 16.9684Z" stroke="black" stroke-width="2"/>
</g>
<path d="M47.6271 42.6792L47.6904 42.8182H47.8436H51.2925H51.3971L51.4678 42.7414L54.0842 39.8947L54.1236 39.8518L54.1386 39.7955L55.0798 36.2759L57.3166 32.988L57.3737 32.9043L57.3525 32.8051L56.6646 29.6043L58.0083 28.1528L58.0782 28.0771L58.0706 27.9744L57.8327 24.7719L57.8304 24.7406L57.8201 24.7112L56.1552 19.9667L56.1509 19.9549L56.1456 19.9435L55.0753 17.6899L55.0644 17.667L55.0489 17.6468L52.6703 14.563L52.6635 14.5542L52.6561 14.5462L51.11 12.8856L51.0979 12.8728L51.0843 12.8618L49.3004 11.4385L49.1767 11.3399L49.0378 11.4155L47.8167 12.0797L45.6417 11.429L44.8525 9.51704L44.8138 9.4231L44.7186 9.38626L42.5779 8.55599L42.5014 8.52625L42.4226 8.55016L39.6873 9.38043L39.668 9.38624L39.6502 9.39518L36.7959 10.8185L36.7329 10.8499L36.6972 10.9104L35.5341 12.8823L34.3872 13.683L34.3477 13.7107L34.322 13.7516L33.1327 15.6494L33.1097 15.6861L33.1011 15.7286L32.5065 18.6938L32.502 18.7168V18.7403V20.9939V21.0409L32.5198 21.0843L33.3523 23.1006L33.3749 23.1549L33.4201 23.1926L35.5608 24.9717L35.6102 25.0129L35.674 25.0234L38.5282 25.4978L38.5701 25.5049L38.6117 25.4969L41.0136 25.0407L42.9676 26.3397V28.3478V28.4588L43.0532 28.53L44.3947 29.6449V36.176V36.2389L44.4261 36.2937L45.8477 38.775L47.6271 42.6792Z" fill="url(#paint2_linear_82_5107)" stroke="black" stroke-width="2"/>
<g filter="url(#filter2_d_82_5107)">
<path d="M45.4642 53.3744L44.8696 49.5788L48.6753 47.3252L52.0052 44.5972L54.6216 41.632L56.1677 38.7853L56.7623 37.362L57.238 35.9387L57.4759 34.5153L57.7137 31.6687L55.9298 36.2945L52.362 40.5645L50.1024 41.8692L48.0806 42.4622L45.4642 43.1739L42.491 43.5297L40.5882 39.0956L37.1393 45.0534L33.6904 51.0109L39.5179 52.7813L45.4642 53.3744Z" fill="#34F741"/>
<path d="M45.4406 53.6106L45.7469 53.6412L45.6994 53.338L45.1294 49.701L48.7967 47.5294L48.8124 47.5202L48.8264 47.5088L52.1564 44.7808L52.1711 44.7684L52.184 44.7542L54.8004 41.789L54.818 41.7688L54.8308 41.7451L56.3769 38.8984L56.3826 38.8877L56.3873 38.8768L56.982 37.4535L56.9853 37.4455L56.9882 37.4372L57.4639 36.0138L57.4696 35.9963L57.4727 35.9778L57.7105 34.5544L57.7122 34.545L57.7129 34.5352L57.9508 31.6886L57.4919 31.5837L55.7221 36.173L52.2063 40.3803L50.0081 41.6497L48.0158 42.2342L45.4187 42.9407L42.6398 43.2732L40.8069 39.0023L40.62 38.5666L40.3824 38.9772L36.9335 44.935L33.4846 50.8925L33.335 51.1511L33.6213 51.2381L39.4488 53.0085L39.4711 53.0152L39.4942 53.0175L45.4406 53.6106Z" stroke="black" stroke-width="2"/>
</g>
<g filter="url(#filter3_d_82_5107)">
<path d="M53.8749 14.9303L48.8971 16.161L46.1316 11.7292L43.3234 9.03258L39.9942 6.99806L35.9257 6.06483L33.6941 5.89294L31.542 6.07266L27.5068 6.76084L31.5408 6.77585L34.2048 7.37166L36.9021 8.89582L39.2806 10.7936L40.8267 14.2333L41.7781 17.7916L37.7156 19.5313L49.1516 27.5176L53.8749 14.9303Z" fill="#34F741"/>
<path d="M54.0979 15.0134L54.2561 14.5917L53.818 14.7L49.0079 15.8892L46.3337 11.6038L46.3182 11.5787L46.2968 11.5583L43.4884 8.86163L43.4699 8.84374L43.4478 8.83027L40.1185 6.79575L40.0855 6.77551L40.0476 6.76683L35.9791 5.83358L35.9618 5.82962L35.9442 5.82824L33.7126 5.65638L33.6934 5.65491L33.6743 5.6565L31.5225 5.83621L31.5122 5.83707L31.5022 5.83878L27.4668 6.52695L27.506 6.998L31.5144 7.01292L34.1184 7.59537L36.7686 9.09282L39.0872 10.9429L40.6018 14.3128L41.4955 17.6545L37.6218 19.3133L37.2293 19.4813L37.5792 19.7256L49.0152 27.7119L49.2669 27.8876L49.3744 27.6006L54.0979 15.0134Z" stroke="black" stroke-width="2"/>
</g>
<g filter="url(#filter4_d_82_5107)">
<path d="M6.09399 32.7612L4.28906 27.888L5.88644 26.9752L7.76709 29.0146L7.89091 28.9439L7.86151 25.8465L9.48984 24.9161L11.2948 29.7894L10.1556 30.4403L8.61518 26.2813L8.79968 26.1921L8.80767 30.0216L7.76133 30.6194L5.41918 28.1238L5.60615 28.0007L7.14655 32.1599L6.09399 32.7612Z" fill="white"/>
<mask id="mask0_82_5107" style="mask-type:luminance" maskUnits="userSpaceOnUse" x="3" y="24" width="9" height="10">
<path d="M11.703 24.4851H3.94629V33.1277H11.703V24.4851Z" fill="white"/>
<path d="M6.09399 32.7612L4.28906 27.888L5.88644 26.9752L7.76709 29.0146L7.89091 28.9439L7.86151 25.8465L9.48984 24.9161L11.2948 29.7894L10.1556 30.4403L8.61518 26.2813L8.79968 26.1921L8.80767 30.0216L7.76133 30.6194L5.41918 28.1238L5.60615 28.0007L7.14655 32.1599L6.09399 32.7612Z" fill="black"/>
</mask>
<g mask="url(#mask0_82_5107)">
<path d="M6.09373 32.761L5.88737 32.8789L5.96978 33.1014L6.17615 32.9835L6.09373 32.761ZM4.2888 27.8877L4.20638 27.6652L4 27.7831L4.08242 28.0056L4.2888 27.8877ZM5.88618 26.9749L6.04856 26.7842L5.94486 26.6718L5.80376 26.7524L5.88618 26.9749ZM7.76682 29.0143L7.60444 29.205L7.70814 29.3175L7.84924 29.2368L7.76682 29.0143ZM7.89065 28.9436L7.97306 29.1661L8.11449 29.0852L8.11285 28.914L7.89065 28.9436ZM7.86125 25.8462L7.77883 25.6237L7.6374 25.7046L7.63902 25.8759L7.86125 25.8462ZM9.48958 24.9158L9.69596 24.798L9.61355 24.5754L9.40716 24.6933L9.48958 24.9158ZM11.2945 29.7891L11.3769 30.0116L11.5833 29.8937L11.5009 29.6712L11.2945 29.7891ZM10.1553 30.44L9.94892 30.5579L10.0313 30.7804L10.2377 30.6625L10.1553 30.44ZM8.61491 26.2811L8.54689 26.0509L8.32024 26.1605L8.40855 26.399L8.61491 26.2811ZM8.79942 26.1919L9.02165 26.1643L9.02093 25.8218L8.73139 25.9618L8.79942 26.1919ZM8.80741 30.0213L8.88983 30.2438L9.02999 30.1636L9.02964 29.9938L8.80741 30.0213ZM7.76107 30.6191L7.59987 30.8112L7.70358 30.9216L7.84348 30.8416L7.76107 30.6191ZM5.41891 28.1235L5.32337 27.9091L5.04697 28.091L5.25773 28.3155L5.41891 28.1235ZM5.60589 28.0004L5.81228 27.8825L5.72436 27.6453L5.51037 27.786L5.60589 28.0004ZM7.14628 32.1596L7.2287 32.3821L7.43509 32.264L7.35264 32.0415L7.14628 32.1596ZM6.30011 32.6431L4.49518 27.7696L4.08242 28.0056L5.88737 32.8789L6.30011 32.6431ZM4.37121 28.1103L5.96859 27.1974L5.80376 26.7524L4.20638 27.6652L4.37121 28.1103ZM5.72379 27.1656L7.60444 29.205L7.9292 28.8236L6.04856 26.7842L5.72379 27.1656ZM7.84924 29.2368L7.97306 29.1661L7.80823 28.7211L7.6844 28.7918L7.84924 29.2368ZM8.11285 28.914L8.08345 25.8166L7.63902 25.8759L7.66842 28.9733L8.11285 28.914ZM7.94367 26.0687L9.57199 25.1384L9.40716 24.6933L7.77883 25.6237L7.94367 26.0687ZM9.28319 25.0337L11.0881 29.907L11.5009 29.6712L9.69596 24.798L9.28319 25.0337ZM11.2121 29.5666L10.0729 30.2175L10.2377 30.6625L11.3769 30.0116L11.2121 29.5666ZM10.3617 30.3221L8.8213 26.1632L8.40855 26.399L9.94892 30.5579L10.3617 30.3221ZM8.68294 26.5112L8.86744 26.422L8.73139 25.9618L8.54689 26.0509L8.68294 26.5112ZM8.57719 26.2194L8.58518 30.0488L9.02964 29.9938L9.02165 26.1643L8.57719 26.2194ZM8.72499 29.7988L7.67865 30.3966L7.84348 30.8416L8.88983 30.2438L8.72499 29.7988ZM7.92223 30.4272L5.58008 27.9316L5.25773 28.3155L7.59987 30.8112L7.92223 30.4272ZM5.51443 28.338L5.70144 28.2149L5.51037 27.786L5.32337 27.9091L5.51443 28.338ZM5.39953 28.1186L6.9399 32.2775L7.35264 32.0415L5.81228 27.8825L5.39953 28.1186ZM7.06387 31.9369L6.01131 32.5384L6.17615 32.9835L7.2287 32.3821L7.06387 31.9369Z" fill="black"/>
</g>
<path d="M11.9481 29.5155L11.543 28.1655L12.8115 27.5784L13.2166 28.9282L11.9481 29.5155Z" fill="white"/>
<mask id="mask1_82_5107" style="mask-type:luminance" maskUnits="userSpaceOnUse" x="11" y="27" width="3" height="3">
<path d="M13.6982 27.1456H11.2109V29.8627H13.6982V27.1456Z" fill="white"/>
<path d="M11.9471 29.5155L11.542 28.1655L12.8106 27.5784L13.2157 28.9282L11.9471 29.5155Z" fill="black"/>
</mask>
<g mask="url(#mask1_82_5107)">
<path d="M11.9478 29.5154L11.7321 29.6152L11.8003 29.8425L12.016 29.7426L11.9478 29.5154ZM11.5427 28.1653L11.4745 27.9381L11.2588 28.0379L11.327 28.2652L11.5427 28.1653ZM12.8113 27.5782L13.027 27.4781L12.9588 27.2509L12.7431 27.351L12.8113 27.5782ZM13.2164 28.928L13.2846 29.1553L13.5003 29.0554L13.4321 28.8281L13.2164 28.928ZM12.1636 29.4155L11.7585 28.0655L11.327 28.2652L11.7321 29.6152L12.1636 29.4155ZM11.6109 28.3926L12.8795 27.8055L12.7431 27.351L11.4745 27.9381L11.6109 28.3926ZM12.5956 27.6781L13.0006 29.0279L13.4321 28.8281L13.027 27.4781L12.5956 27.6781ZM13.1482 28.7007L11.8796 29.2881L12.016 29.7426L13.2846 29.1553L13.1482 28.7007Z" fill="black"/>
</g>
<path d="M16.9495 27.5274C16.5081 27.6911 16.1102 27.7532 15.7559 27.7136C15.4005 27.6695 15.0892 27.5563 14.8221 27.3739C14.5538 27.187 14.334 26.9592 14.1627 26.6912C13.9915 26.4231 13.8715 26.146 13.8028 25.86L13.7662 25.7077C13.6897 25.3893 13.6639 25.0596 13.6889 24.7187C13.7172 24.3716 13.804 24.0355 13.9493 23.7103C14.099 23.3835 14.3122 23.0884 14.5888 22.8251C14.8655 22.5617 15.2134 22.3524 15.6326 22.1971C16.0785 22.0318 16.4942 21.9732 16.8797 22.0213C17.2685 22.0631 17.6054 22.202 17.8903 22.4381C18.1742 22.6695 18.3832 22.9839 18.5176 23.3813L17.2735 23.8424C17.2001 23.6787 17.0967 23.5512 16.9631 23.46C16.8295 23.3689 16.6741 23.3184 16.497 23.3087C16.3187 23.2944 16.127 23.3252 15.9219 23.4013C15.7301 23.4723 15.5645 23.5714 15.4251 23.6984C15.2901 23.8239 15.1846 23.971 15.1086 24.1399C15.036 24.3024 14.9923 24.4843 14.9776 24.6857C14.9673 24.8857 14.9893 25.0985 15.0436 25.3245C15.0979 25.5506 15.1734 25.7437 15.2702 25.9038C15.3714 26.0623 15.491 26.1864 15.629 26.2758C15.7716 26.3638 15.9292 26.4134 16.1019 26.4248C16.2735 26.4314 16.4596 26.3977 16.6602 26.3232C16.9724 26.2075 17.2166 26.0317 17.393 25.7954C17.5738 25.5575 17.6549 25.2989 17.6363 25.0195L18.8804 24.5583C18.9312 24.9514 18.8917 25.3431 18.7619 25.7328C18.6322 26.1226 18.4161 26.4765 18.1137 26.7946C17.8103 27.108 17.4222 27.3523 16.9495 27.5274Z" fill="white"/>
<mask id="mask2_82_5107" style="mask-type:luminance" maskUnits="userSpaceOnUse" x="12" y="20" width="8" height="9">
<path d="M19.8254 20.8154H12.8105V28.8793H19.8254V20.8154Z" fill="white"/>
<path d="M16.9495 27.5274C16.5081 27.6911 16.1102 27.7532 15.7559 27.7136C15.4005 27.6695 15.0892 27.5563 14.8221 27.3739C14.5538 27.187 14.334 26.9592 14.1627 26.6912C13.9915 26.4231 13.8715 26.146 13.8028 25.86L13.7662 25.7077C13.6897 25.3893 13.6639 25.0596 13.6889 24.7187C13.7172 24.3716 13.804 24.0355 13.9493 23.7103C14.099 23.3835 14.3122 23.0884 14.5888 22.8251C14.8655 22.5617 15.2134 22.3524 15.6326 22.1971C16.0785 22.0318 16.4942 21.9732 16.8797 22.0213C17.2685 22.0631 17.6054 22.202 17.8903 22.4381C18.1742 22.6695 18.3832 22.9839 18.5176 23.3813L17.2735 23.8424C17.2001 23.6787 17.0967 23.5512 16.9631 23.46C16.8295 23.3689 16.6741 23.3184 16.497 23.3087C16.3187 23.2944 16.127 23.3252 15.9219 23.4013C15.7301 23.4723 15.5645 23.5714 15.4251 23.6984C15.2901 23.8239 15.1846 23.971 15.1086 24.1399C15.036 24.3024 14.9923 24.4843 14.9776 24.6857C14.9673 24.8857 14.9893 25.0985 15.0436 25.3245C15.0979 25.5506 15.1734 25.7437 15.2702 25.9038C15.3714 26.0623 15.491 26.1864 15.629 26.2758C15.7716 26.3638 15.9292 26.4134 16.1019 26.4248C16.2735 26.4314 16.4596 26.3977 16.6602 26.3232C16.9724 26.2075 17.2166 26.0317 17.393 25.7954C17.5738 25.5575 17.6549 25.2989 17.6363 25.0195L18.8804 24.5583C18.9312 24.9514 18.8917 25.3431 18.7619 25.7328C18.6322 26.1226 18.4161 26.4765 18.1137 26.7946C17.8103 27.108 17.4222 27.3523 16.9495 27.5274Z" fill="black"/>
</mask>
<g mask="url(#mask2_82_5107)">
<path d="M15.7562 27.7137L15.7073 27.957L15.7099 27.9575L15.7562 27.7137ZM14.8223 27.374L14.6836 27.5832L14.6852 27.5841L14.8223 27.374ZM13.6891 24.7188L13.4603 24.7221L13.4601 24.7242L13.6891 24.7188ZM13.9495 23.7103L13.7449 23.6211L13.7438 23.6237L13.9495 23.7103ZM16.8799 22.0213L16.8309 22.2648L16.8327 22.265L16.8344 22.2652L16.8799 22.0213ZM17.8906 22.4381L17.7387 22.6373L17.7399 22.6382L17.8906 22.4381ZM18.5178 23.3814L18.5732 23.6121L18.8171 23.5217L18.7349 23.2784L18.5178 23.3814ZM17.2737 23.8425L17.0645 23.9656L17.1435 24.1421L17.3291 24.0733L17.2737 23.8425ZM16.4972 23.3088L16.4573 23.5531L16.4599 23.5534L16.4626 23.5535L16.4972 23.3088ZM15.4253 23.6985L15.2866 23.519L15.2846 23.5208L15.4253 23.6985ZM15.1089 24.1399L14.9035 24.0524L14.9032 24.0531L15.1089 24.1399ZM14.9778 24.6858L14.7488 24.6912L14.7486 24.6941L14.7484 24.6969L14.9778 24.6858ZM15.2704 25.9039L15.0736 26.0507L15.075 26.0531L15.0765 26.0553L15.2704 25.9039ZM15.6293 26.2759L15.4961 26.4889L15.498 26.4901L15.4999 26.4913L15.6293 26.2759ZM16.1021 26.4248L16.0652 26.6694H16.068L16.0708 26.6697L16.1021 26.4248ZM17.3932 25.7955L17.2206 25.6532L17.2191 25.6551L17.3932 25.7955ZM17.6366 25.0195L17.5812 24.7887L17.3939 24.8582L17.4074 25.0611L17.6366 25.0195ZM18.8807 24.5584L19.1083 24.5015L19.074 24.2355L18.8253 24.3276L18.8807 24.5584ZM18.114 26.7947L18.2651 26.9621L18.2668 26.9602L18.114 26.7947ZM16.8944 27.2969C16.4779 27.4513 16.1156 27.5049 15.8025 27.4698L15.7099 27.9575C16.1053 28.0016 16.5388 27.9312 17.0052 27.7583L16.8944 27.2969ZM15.805 27.4703C15.4786 27.4297 15.198 27.3265 14.9594 27.1635L14.6852 27.5841C14.981 27.786 15.323 27.9094 15.7073 27.957L15.805 27.4703ZM14.961 27.1647C14.7134 26.9923 14.5128 26.7838 14.357 26.5399L13.969 26.8426C14.1557 27.1348 14.3946 27.3818 14.6836 27.5832L14.961 27.1647ZM14.357 26.5399C14.1973 26.2899 14.088 26.0358 14.026 25.7772L13.5801 25.9426C13.6554 26.2562 13.7861 26.5563 13.969 26.8426L14.357 26.5399ZM14.026 25.7772L13.9894 25.6249L13.5435 25.7903L13.5801 25.9426L14.026 25.7772ZM13.9894 25.6249C13.9189 25.3317 13.8951 25.0281 13.9182 24.7133L13.4601 24.7242C13.4332 25.0912 13.461 25.447 13.5435 25.7903L13.9894 25.6249ZM13.918 24.7157C13.9438 24.3992 14.0227 24.0934 14.1551 23.7972L13.7438 23.6237C13.5857 23.9774 13.4911 24.3442 13.4603 24.7221L13.918 24.7157ZM14.1541 23.7995C14.2878 23.5076 14.4792 23.2414 14.7322 23.0006L14.446 22.6497C14.1457 22.9355 13.9107 23.2595 13.7449 23.6211L14.1541 23.7995ZM14.7322 23.0006C14.978 22.7666 15.2942 22.5739 15.6883 22.4278L15.5774 21.9664C15.1332 22.1311 14.7535 22.357 14.446 22.6497L14.7322 23.0006ZM15.6883 22.4278C16.1056 22.2731 16.4852 22.2216 16.8309 22.2648L16.9289 21.7779C16.5037 21.7248 16.0519 21.7906 15.5774 21.9664L15.6883 22.4278ZM16.8344 22.2652C17.1856 22.3029 17.4853 22.4274 17.7387 22.6373L18.0425 22.239C17.7259 21.9767 17.3519 21.8233 16.9254 21.7775L16.8344 22.2652ZM17.7399 22.6382C17.9906 22.8427 18.1783 23.1222 18.3007 23.4844L18.7349 23.2784C18.5887 22.8458 18.3582 22.4964 18.0413 22.238L17.7399 22.6382ZM18.4624 23.1507L17.2183 23.6119L17.3291 24.0733L18.5732 23.6121L18.4624 23.1507ZM17.4829 23.7193C17.3946 23.5222 17.2673 23.3637 17.1004 23.2498L16.8262 23.6705C16.9265 23.7388 17.0061 23.8353 17.0645 23.9656L17.4829 23.7193ZM17.1004 23.2498C16.9344 23.1365 16.7432 23.0756 16.5318 23.064L16.4626 23.5535C16.6055 23.5613 16.725 23.6014 16.8262 23.6705L17.1004 23.2498ZM16.5371 23.0644C16.3223 23.0472 16.0978 23.085 15.8667 23.1706L15.9775 23.632C16.1566 23.5656 16.3156 23.5418 16.4573 23.5531L16.5371 23.0644ZM15.8667 23.1706C15.6487 23.2515 15.4538 23.3666 15.2866 23.519L15.5641 23.878C15.6757 23.7763 15.8121 23.6933 15.9775 23.632L15.8667 23.1706ZM15.2846 23.5208C15.1227 23.6712 14.9951 23.8491 14.9035 24.0524L15.3142 24.2272C15.3747 24.093 15.458 23.9765 15.566 23.8761L15.2846 23.5208ZM14.9032 24.0531C14.8155 24.2495 14.7655 24.4635 14.7488 24.6912L15.2069 24.6806C15.2197 24.5055 15.257 24.3553 15.3145 24.2265L14.9032 24.0531ZM14.7484 24.6969C14.7367 24.9256 14.7621 25.1626 14.8209 25.4074L15.2668 25.2421C15.217 25.0345 15.1984 24.8459 15.2072 24.6749L14.7484 24.6969ZM14.8209 25.4074C14.8797 25.652 14.963 25.8676 15.0736 26.0507L15.4672 25.7571C15.3844 25.62 15.3167 25.4496 15.2668 25.2421L14.8209 25.4074ZM15.0765 26.0553C15.1917 26.2358 15.3312 26.3819 15.4961 26.4889L15.7625 26.0631C15.6513 25.991 15.5515 25.889 15.4644 25.7526L15.0765 26.0553ZM15.4999 26.4913C15.6706 26.5964 15.8599 26.6559 16.0652 26.6694L16.139 26.1803C15.999 26.171 15.873 26.1312 15.7587 26.0607L15.4999 26.4913ZM16.0708 26.6697C16.2763 26.6777 16.4923 26.6369 16.7159 26.5541L16.6051 26.0927C16.4274 26.1584 16.2711 26.1852 16.1335 26.1798L16.0708 26.6697ZM16.7159 26.5541C17.0652 26.4246 17.3544 26.2211 17.5673 25.9359L17.2191 25.6551C17.0794 25.8422 16.88 25.9907 16.6051 26.0927L16.7159 26.5541ZM17.5659 25.9378C17.7858 25.6487 17.8888 25.3241 17.8657 24.9778L17.4074 25.0611C17.4216 25.2738 17.3623 25.4667 17.2206 25.6532L17.5659 25.9378ZM17.692 25.2501L18.9361 24.789L18.8253 24.3276L17.5812 24.7887L17.692 25.2501ZM18.653 24.6153C18.6988 24.97 18.6633 25.3211 18.5465 25.6719L18.9779 25.7936C19.1206 25.3649 19.1641 24.9332 19.1083 24.5015L18.653 24.6153ZM18.5465 25.6719C18.4307 26.0197 18.2374 26.3383 17.9612 26.6289L18.2668 26.9602C18.5953 26.6146 18.8342 26.2253 18.9779 25.7936L18.5465 25.6719ZM17.963 26.627C17.6921 26.9066 17.339 27.132 16.8944 27.2969L17.0052 27.7583C17.5059 27.5727 17.9289 27.3092 18.2651 26.9621L17.963 26.627Z" fill="black"/>
</g>
<path d="M23.3014 24.0628L23.1469 22.9347L23.9845 22.7577C24.1428 22.7242 24.2759 22.6646 24.3838 22.579C24.4912 22.4885 24.5694 22.3777 24.6184 22.2464C24.6675 22.1151 24.6811 21.9696 24.6592 21.8098C24.6366 21.6452 24.5847 21.5111 24.5035 21.4073C24.4222 21.3036 24.3193 21.2335 24.1945 21.1969C24.0698 21.1604 23.9284 21.1589 23.7701 21.1923L22.9325 21.3693L22.7779 20.2411L23.5807 20.0715C24.0181 19.979 24.4054 19.9746 24.7425 20.0582C25.0835 20.136 25.3592 20.2954 25.5693 20.5364C25.7795 20.7773 25.911 21.0905 25.9638 21.476L25.9792 21.5888C26.0314 21.9696 25.9904 22.3168 25.8562 22.6306C25.722 22.9443 25.5046 23.2103 25.2041 23.4286C24.9083 23.6458 24.5416 23.8007 24.1042 23.8932L23.3014 24.0628ZM22.33 25.6757L21.6191 20.486L22.9175 20.2116L23.6284 25.4012L22.33 25.6757Z" fill="white"/>
<mask id="mask3_82_5107" style="mask-type:luminance" maskUnits="userSpaceOnUse" x="21" y="19" width="6" height="7">
<path d="M26.7321 19.1113H21.2734V25.9707H26.7321V19.1113Z" fill="white"/>
<path d="M23.3014 24.0628L23.1469 22.9347L23.9845 22.7577C24.1428 22.7242 24.2759 22.6646 24.3838 22.579C24.4912 22.4885 24.5694 22.3777 24.6184 22.2464C24.6675 22.1151 24.6811 21.9696 24.6592 21.8098C24.6366 21.6452 24.5847 21.5111 24.5035 21.4073C24.4222 21.3036 24.3193 21.2335 24.1945 21.1969C24.0698 21.1604 23.9284 21.1589 23.7701 21.1923L22.9325 21.3693L22.7779 20.2411L23.5807 20.0715C24.0181 19.979 24.4054 19.9746 24.7425 20.0582C25.0835 20.136 25.3592 20.2954 25.5693 20.5364C25.7795 20.7773 25.911 21.0905 25.9638 21.476L25.9792 21.5888C26.0314 21.9696 25.9904 22.3168 25.8562 22.6306C25.722 22.9443 25.5046 23.2103 25.2041 23.4286C24.9083 23.6458 24.5416 23.8007 24.1042 23.8932L23.3014 24.0628ZM22.33 25.6757L21.6191 20.486L22.9175 20.2116L23.6284 25.4012L22.33 25.6757Z" fill="black"/>
</mask>
<g mask="url(#mask3_82_5107)">
<path d="M23.3016 24.0628L23.0689 24.112L23.1012 24.347L23.3338 24.2979L23.3016 24.0628ZM23.1471 22.9347L23.1149 22.6996L22.8822 22.7488L22.9144 22.9839L23.1471 22.9347ZM24.3841 22.579L24.52 22.7648L24.523 22.7625L24.5259 22.76L24.3841 22.579ZM22.9327 21.3693L22.7 21.4185L22.7322 21.6535L22.9649 21.6044L22.9327 21.3693ZM22.7782 20.2412L22.746 20.0061L22.5133 20.0553L22.5455 20.2903L22.7782 20.2412ZM24.7427 20.0582L24.6728 20.2918L24.6747 20.2923L24.6767 20.2927L24.7427 20.0582ZM25.2044 23.4286L25.0773 23.2361L25.0762 23.2369L25.2044 23.4286ZM22.3302 25.6757L22.0975 25.7248L22.1297 25.9599L22.3624 25.9108L22.3302 25.6757ZM21.6194 20.486L21.5872 20.251L21.3545 20.3002L21.3867 20.5352L21.6194 20.486ZM22.9178 20.2116L23.1505 20.1625L23.1183 19.9274L22.8856 19.9766L22.9178 20.2116ZM23.6286 25.4012L23.6608 25.6363L23.8935 25.5872L23.8613 25.3521L23.6286 25.4012ZM23.5343 24.0137L23.3798 22.8855L22.9144 22.9839L23.0689 24.112L23.5343 24.0137ZM23.1793 23.1697L24.017 22.9927L23.9526 22.5226L23.1149 22.6996L23.1793 23.1697ZM24.017 22.9927C24.2049 22.953 24.3755 22.8795 24.52 22.7648L24.2482 22.3931C24.1767 22.4498 24.0811 22.4955 23.9526 22.5226L24.017 22.9927ZM24.5259 22.76C24.6678 22.6405 24.7726 22.4919 24.8374 22.3184L24.3999 22.1745C24.3667 22.2635 24.3151 22.3366 24.2423 22.3979L24.5259 22.76ZM24.8374 22.3184C24.9036 22.1412 24.9185 21.9531 24.8921 21.7606L24.4267 21.8589C24.4441 21.9861 24.4318 22.0891 24.3999 22.1745L24.8374 22.3184ZM24.8921 21.7606C24.8653 21.5647 24.8014 21.3905 24.691 21.2496L24.3164 21.5651C24.3686 21.6317 24.4085 21.7258 24.4267 21.8589L24.8921 21.7606ZM24.691 21.2496C24.5826 21.1112 24.4422 21.0151 24.2736 20.9657L24.116 21.4282C24.1968 21.4518 24.2623 21.496 24.3164 21.5651L24.691 21.2496ZM24.2736 20.9657C24.1067 20.9169 23.9261 20.9176 23.7382 20.9573L23.8026 21.4274C23.9311 21.4002 24.0334 21.404 24.116 21.4282L24.2736 20.9657ZM23.7382 20.9573L22.9005 21.1343L22.9649 21.6044L23.8026 21.4274L23.7382 20.9573ZM23.1654 21.3202L23.0109 20.192L22.5455 20.2903L22.7 21.4185L23.1654 21.3202ZM22.8104 20.4762L23.6131 20.3065L23.5487 19.8365L22.746 20.0061L22.8104 20.4762ZM23.6131 20.3065C24.0247 20.2196 24.3759 20.2182 24.6728 20.2918L24.8127 19.8246C24.4354 19.731 24.0121 19.7386 23.5487 19.8365L23.6131 20.3065ZM24.6767 20.2927C24.9773 20.3613 25.2118 20.4991 25.3896 20.7029L25.7496 20.3699C25.507 20.0918 25.1903 19.9107 24.8087 19.8236L24.6767 20.2927ZM25.3896 20.7029C25.5667 20.906 25.6835 21.1759 25.7314 21.5252L26.1967 21.4269C26.139 21.0052 25.9928 20.6487 25.7496 20.3699L25.3896 20.7029ZM25.7314 21.5252L25.7468 21.638L26.2122 21.5397L26.1967 21.4269L25.7314 21.5252ZM25.7468 21.638C25.7939 21.9819 25.7555 22.2825 25.6422 22.5474L26.0707 22.7138C26.2258 22.3512 26.2694 21.9573 26.2122 21.5397L25.7468 21.638ZM25.6422 22.5474C25.5284 22.8135 25.3432 23.0429 25.0773 23.2361L25.3315 23.6211C25.6665 23.3778 25.9161 23.0751 26.0707 22.7138L25.6422 22.5474ZM25.0762 23.2369C24.8156 23.4282 24.4838 23.5712 24.0722 23.6581L24.1366 24.1283C24.6 24.0303 25.0014 23.8636 25.3326 23.6204L25.0762 23.2369ZM24.0722 23.6581L23.2695 23.8278L23.3338 24.2979L24.1366 24.1283L24.0722 23.6581ZM22.5629 25.6266L21.8521 20.4369L21.3867 20.5352L22.0975 25.7248L22.5629 25.6266ZM21.6516 20.7211L22.95 20.4467L22.8856 19.9766L21.5872 20.251L21.6516 20.7211ZM22.6851 20.2608L23.3959 25.4503L23.8613 25.3521L23.1505 20.1625L22.6851 20.2608ZM23.5964 25.1662L22.298 25.4406L22.3624 25.9108L23.6608 25.6363L23.5964 25.1662Z" fill="black"/>
</g>
<path d="M27.205 24.7299L26.8047 19.5501L28.1226 19.3931L28.5227 24.5728L27.205 24.7299ZM28.3809 24.5897L28.2922 23.4403L30.3894 23.1903L30.4784 24.3399L28.3809 24.5897Z" fill="white"/>
<mask id="mask4_82_5107" style="mask-type:luminance" maskUnits="userSpaceOnUse" x="26" y="18" width="5" height="8">
<path d="M30.9495 18.8458H26.4961V25.0007H30.9495V18.8458Z" fill="white"/>
<path d="M27.204 24.7299L26.8037 19.5501L28.1217 19.3931L28.5217 24.5728L27.204 24.7299ZM28.38 24.5897L28.2913 23.4403L30.3884 23.1903L30.4774 24.3399L28.38 24.5897Z" fill="black"/>
</mask>
<g mask="url(#mask4_82_5107)">
<path d="M27.2045 24.7299L26.9683 24.7581L26.9863 24.9946L27.2225 24.9664L27.2045 24.7299ZM26.8041 19.5501L26.7861 19.3136L26.5498 19.3418L26.5681 19.5783L26.8041 19.5501ZM28.1221 19.3931L28.3583 19.365L28.34 19.1284L28.1038 19.1566L28.1221 19.3931ZM28.5222 24.5729L28.5405 24.8094L28.7767 24.7811L28.7584 24.5446L28.5222 24.5729ZM28.3804 24.5897L28.1442 24.6179L28.1625 24.8544L28.3987 24.8262L28.3804 24.5897ZM28.2917 23.4403L28.2734 23.2037L28.0372 23.2319L28.0555 23.4684L28.2917 23.4403ZM30.3888 23.1903L30.625 23.1622L30.607 22.9257L30.3708 22.9538L30.3888 23.1903ZM30.4778 24.3399L30.4959 24.5764L30.7321 24.5482L30.714 24.3117L30.4778 24.3399ZM27.4404 24.7017L27.0403 19.522L26.5681 19.5783L26.9683 24.7581L27.4404 24.7017ZM26.8225 19.7867L28.1404 19.6296L28.1038 19.1566L26.7861 19.3136L26.8225 19.7867ZM27.8859 19.4212L28.286 24.6011L28.7584 24.5446L28.3583 19.365L27.8859 19.4212ZM28.5039 24.3364L27.1861 24.4934L27.2225 24.9664L28.5405 24.8094L28.5039 24.3364ZM28.6166 24.5617L28.5279 23.4121L28.0555 23.4684L28.1442 24.6179L28.6166 24.5617ZM28.31 23.6769L30.4072 23.4269L30.3708 22.9538L28.2734 23.2037L28.31 23.6769ZM30.1527 23.2185L30.2416 24.3679L30.714 24.3117L30.625 23.1622L30.1527 23.2185ZM30.4595 24.1034L28.3623 24.3532L28.3987 24.8262L30.4959 24.5764L30.4595 24.1034Z" fill="black"/>
</g>
<path d="M30.8867 24.2981L32.4799 19.0657L34.6058 19.0176L36.4083 24.1731L35.0387 24.2042L33.6349 19.9649L34.015 20.0987L33.0733 20.12L33.4565 19.969L32.2137 24.268L30.8867 24.2981ZM32.2318 23.0646L32.6154 21.974L34.5915 21.9293L35.0068 23.0018L32.2318 23.0646ZM32.8595 18.6727L33.7248 17.3434L35.0946 17.3124L34.1008 18.6446L32.8595 18.6727Z" fill="white"/>
<mask id="mask5_82_5107" style="mask-type:luminance" maskUnits="userSpaceOnUse" x="30" y="16" width="7" height="9">
<path d="M36.7779 16.8118H30.2461V24.5473H36.7779V16.8118Z" fill="white"/>
<path d="M30.8867 24.2981L32.4799 19.0657L34.6058 19.0176L36.4083 24.1731L35.0387 24.2042L33.6349 19.9649L34.015 20.0987L33.0733 20.12L33.4565 19.969L32.2137 24.268L30.8867 24.2981ZM32.2318 23.0646L32.6154 21.974L34.5915 21.9293L35.0068 23.0018L32.2318 23.0646ZM32.8595 18.6727L33.7248 17.3434L35.0946 17.3124L34.1008 18.6446L32.8595 18.6727Z" fill="black"/>
</mask>
<g mask="url(#mask5_82_5107)">
<path d="M30.8858 24.2981L30.6584 24.2307L30.5635 24.5427L30.8893 24.5353L30.8858 24.2981ZM32.4789 19.0657L32.4756 18.8285L32.302 18.8324L32.2515 18.9984L32.4789 19.0657ZM34.6049 19.0176L34.8294 18.9378L34.773 18.7765L34.6013 18.7804L34.6049 19.0176ZM36.4073 24.1731L36.4109 24.4103L36.7403 24.4027L36.6321 24.0934L36.4073 24.1731ZM35.0378 24.2042L34.8118 24.2801L34.8665 24.4452L35.0413 24.4411L35.0378 24.2042ZM33.6339 19.9649L33.7146 19.7411L33.2553 19.5794L33.408 20.0409L33.6339 19.9649ZM34.014 20.0986L34.0176 20.3358L34.0949 19.8748L34.014 20.0986ZM33.0724 20.12L32.9867 19.8994L33.0759 20.3572L33.0724 20.12ZM33.4555 19.9689L33.6841 20.033L33.8173 19.5719L33.3697 19.7484L33.4555 19.9689ZM32.2128 24.268L32.2163 24.5052L32.3923 24.5012L32.4413 24.332L32.2128 24.268ZM32.2308 23.0646L32.0065 22.9876L31.8933 23.3095L32.2342 23.3018L32.2308 23.0646ZM32.6145 21.9739L32.6109 21.7367L32.4451 21.7405L32.3902 21.897L32.6145 21.9739ZM34.5906 21.9292L34.8125 21.8422L34.7528 21.6883L34.587 21.692L34.5906 21.9292ZM35.0059 23.0018L35.0092 23.239L35.3503 23.2313L35.2278 22.9147L35.0059 23.0018ZM32.8585 18.6727L32.6594 18.5446L32.4149 18.92L32.8621 18.9099L32.8585 18.6727ZM33.7239 17.3433L33.7205 17.1062L33.594 17.109L33.5248 17.2152L33.7239 17.3433ZM35.0937 17.3123L35.2839 17.453L35.5741 17.0642L35.0901 17.0751L35.0937 17.3123ZM34.0999 18.6446L34.1032 18.8818L34.2203 18.8791L34.2902 18.7852L34.0999 18.6446ZM31.1134 24.3652L32.7065 19.1329L32.2515 18.9984L30.6584 24.2307L31.1134 24.3652ZM32.4825 19.3029L34.6084 19.2547L34.6013 18.7804L32.4756 18.8285L32.4825 19.3029ZM34.3803 19.0973L36.1828 24.2528L36.6321 24.0934L34.8294 18.9378L34.3803 19.0973ZM36.404 23.9359L35.0342 23.9669L35.0413 24.4411L36.4109 24.4103L36.404 23.9359ZM35.2637 24.128L33.8599 19.8888L33.408 20.0409L34.8118 24.2801L35.2637 24.128ZM33.5533 20.1887L33.9334 20.3225L34.0949 19.8748L33.7146 19.7411L33.5533 20.1887ZM34.0107 19.8615L33.069 19.8828L33.0759 20.3572L34.0176 20.3358L34.0107 19.8615ZM33.1582 20.3405L33.5414 20.1895L33.3697 19.7484L32.9867 19.8994L33.1582 20.3405ZM33.2272 19.9049L31.9844 24.2039L32.4413 24.332L33.6841 20.033L33.2272 19.9049ZM32.2092 24.0308L30.8824 24.0609L30.8893 24.5353L32.2163 24.5052L32.2092 24.0308ZM32.4551 23.1415L32.8388 22.0509L32.3902 21.897L32.0065 22.9876L32.4551 23.1415ZM32.6178 22.2111L34.5939 22.1664L34.587 21.692L32.6109 21.7367L32.6178 22.2111ZM34.3687 22.0163L34.784 23.0888L35.2278 22.9147L34.8125 21.8422L34.3687 22.0163ZM35.0023 22.7646L32.2273 22.8274L32.2342 23.3018L35.0092 23.239L35.0023 22.7646ZM33.0576 18.8008L33.9232 17.4714L33.5248 17.2152L32.6594 18.5446L33.0576 18.8008ZM33.7274 17.5805L35.0972 17.5495L35.0901 17.0751L33.7205 17.1062L33.7274 17.5805ZM34.9034 17.1717L33.9094 18.5039L34.2902 18.7852L35.2839 17.453L34.9034 17.1717ZM34.0963 18.4074L32.8552 18.4355L32.8621 18.9099L34.1032 18.8818L34.0963 18.4074Z" fill="black"/>
</g>
<path d="M38.6993 24.5762C38.2155 24.5378 37.8117 24.4296 37.4875 24.2517C37.168 24.0743 36.9297 23.8484 36.7725 23.5742C36.62 23.2957 36.5527 22.9859 36.5701 22.6447L37.8504 22.7463C37.8442 22.8695 37.8716 22.9858 37.9325 23.0953C37.9986 23.2005 38.099 23.2869 38.2336 23.3547C38.368 23.4224 38.5421 23.4648 38.7555 23.4817C38.9405 23.4964 39.0982 23.4851 39.2286 23.4479C39.3639 23.411 39.4669 23.3526 39.5375 23.2726C39.6132 23.1929 39.6538 23.0939 39.66 22.9754C39.6679 22.8238 39.6098 22.7026 39.4859 22.6119C39.3622 22.5165 39.1493 22.4449 38.847 22.3971L38.514 22.3422C37.9808 22.2523 37.5626 22.0502 37.2596 21.736C36.9568 21.4218 36.8177 21.0254 36.8422 20.5468C36.8598 20.2057 36.953 19.9205 37.1219 19.6913C37.2955 19.4624 37.5303 19.2955 37.8262 19.1905C38.1221 19.0855 38.4667 19.0486 38.8604 19.0798C39.2871 19.1137 39.6438 19.2133 39.9307 19.3788C40.2221 19.5446 40.4392 19.7641 40.5824 20.0371C40.7258 20.3054 40.7886 20.6101 40.771 20.9512L39.4907 20.8497C39.4966 20.736 39.4735 20.6294 39.4215 20.5302C39.3694 20.4309 39.2902 20.3509 39.1838 20.2901C39.0825 20.225 38.9557 20.1864 38.804 20.1744C38.6617 20.1631 38.5397 20.1772 38.4377 20.2167C38.3406 20.2518 38.2641 20.3075 38.2077 20.3839C38.1561 20.4607 38.1278 20.5489 38.1225 20.6484C38.1159 20.781 38.1551 20.8984 38.2403 21.0003C38.3254 21.1022 38.4791 21.1714 38.701 21.2081L39.0338 21.263C39.421 21.327 39.7604 21.4396 40.052 21.6007C40.3441 21.757 40.5693 21.9581 40.7282 22.2038C40.8869 22.4495 40.9578 22.7406 40.9404 23.077C40.923 23.4134 40.8203 23.7002 40.6319 23.9374C40.4483 24.1751 40.1916 24.3497 39.8622 24.4614C39.5373 24.5738 39.1498 24.612 38.6993 24.5762Z" fill="white"/>
<mask id="mask6_82_5107" style="mask-type:luminance" maskUnits="userSpaceOnUse" x="36" y="18" width="6" height="8">
<path d="M41.6023 18.541H36.0693V25.1144H41.6023V18.541Z" fill="white"/>
<path d="M38.6993 24.5762C38.2155 24.5378 37.8117 24.4296 37.4875 24.2517C37.168 24.0743 36.9297 23.8484 36.7725 23.5742C36.62 23.2957 36.5527 22.9859 36.5701 22.6447L37.8504 22.7463C37.8442 22.8695 37.8716 22.9858 37.9325 23.0953C37.9986 23.2005 38.099 23.2869 38.2336 23.3547C38.368 23.4224 38.5421 23.4648 38.7555 23.4817C38.9405 23.4964 39.0982 23.4851 39.2286 23.4479C39.3639 23.411 39.4669 23.3526 39.5375 23.2726C39.6132 23.1929 39.6538 23.0939 39.66 22.9754C39.6679 22.8238 39.6098 22.7026 39.4859 22.6119C39.3622 22.5165 39.1493 22.4449 38.847 22.3971L38.514 22.3422C37.9808 22.2523 37.5626 22.0502 37.2596 21.736C36.9568 21.4218 36.8177 21.0254 36.8422 20.5468C36.8598 20.2057 36.953 19.9205 37.1219 19.6913C37.2955 19.4624 37.5303 19.2955 37.8262 19.1905C38.1221 19.0855 38.4667 19.0486 38.8604 19.0798C39.2871 19.1137 39.6438 19.2133 39.9307 19.3788C40.2221 19.5446 40.4392 19.7641 40.5824 20.0371C40.7258 20.3054 40.7886 20.6101 40.771 20.9512L39.4907 20.8497C39.4966 20.736 39.4735 20.6294 39.4215 20.5302C39.3694 20.4309 39.2902 20.3509 39.1838 20.2901C39.0825 20.225 38.9557 20.1864 38.804 20.1744C38.6617 20.1631 38.5397 20.1772 38.4377 20.2167C38.3406 20.2518 38.2641 20.3075 38.2077 20.3839C38.1561 20.4607 38.1278 20.5489 38.1225 20.6484C38.1159 20.781 38.1551 20.8984 38.2403 21.0003C38.3254 21.1022 38.4791 21.1714 38.701 21.2081L39.0338 21.263C39.421 21.327 39.7604 21.4396 40.052 21.6007C40.3441 21.757 40.5693 21.9581 40.7282 22.2038C40.8869 22.4495 40.9578 22.7406 40.9404 23.077C40.923 23.4134 40.8203 23.7002 40.6319 23.9374C40.4483 24.1751 40.1916 24.3497 39.8622 24.4614C39.5373 24.5738 39.1498 24.612 38.6993 24.5762Z" fill="black"/>
</mask>
<g mask="url(#mask6_82_5107)">
<path d="M37.4874 24.2517L37.3766 24.4588L37.3778 24.4595L37.4874 24.2517ZM36.7725 23.5742L36.5648 23.6838L36.566 23.6859L36.5672 23.6883L36.7725 23.5742ZM36.57 22.6447L36.5824 22.4078L36.3453 22.389L36.3331 22.6259L36.57 22.6447ZM37.8504 22.7463L38.0876 22.7651L38.0997 22.5282L37.8628 22.5093L37.8504 22.7463ZM37.9325 23.0953L37.726 23.2066L37.7291 23.2123L37.7324 23.2177L37.9325 23.0953ZM39.2285 23.4479L39.1603 23.2184L39.1577 23.2192L39.2285 23.4479ZM39.5375 23.2726L39.3632 23.1064L39.3605 23.1093L39.3579 23.1123L39.5375 23.2726ZM39.4859 22.6119L39.3441 22.7986L39.3468 22.8005L39.3491 22.8024L39.4859 22.6119ZM38.847 22.3971L38.8147 22.6316L38.8163 22.6318L38.847 22.3971ZM38.514 22.3422L38.481 22.5765L38.4819 22.5766L38.514 22.3422ZM37.1219 19.6912L36.9313 19.5442L36.9294 19.5467L37.1219 19.6912ZM39.9307 19.3788L39.8163 19.5838L39.8177 19.5846L39.9307 19.3788ZM40.5824 20.0371L40.3729 20.1428L40.3738 20.1445L40.5824 20.0371ZM40.771 20.9512L40.7589 21.1881L40.996 21.2069L41.0082 20.97L40.771 20.9512ZM39.4907 20.8496L39.2535 20.8308L39.2414 21.0678L39.4785 21.0865L39.4907 20.8496ZM39.1838 20.2901L39.0597 20.4891L39.0649 20.4925L39.0706 20.4957L39.1838 20.2901ZM38.4377 20.2166L38.5238 20.4404L38.5262 20.4395L38.5285 20.4386L38.4377 20.2166ZM38.2077 20.3839L38.0152 20.2395L38.0122 20.2435L38.0095 20.2476L38.2077 20.3839ZM40.052 21.6006L39.9419 21.808L39.9447 21.8095L40.052 21.6006ZM40.6319 23.9374L40.4444 23.7863L40.4425 23.7886L40.6319 23.9374ZM39.8622 24.4614L39.7804 24.2363L39.7792 24.2365L39.8622 24.4614ZM38.7114 24.3392C38.2512 24.3029 37.883 24.2009 37.5971 24.0441L37.3778 24.4595C37.7403 24.6585 38.1798 24.7729 38.6869 24.8132L38.7114 24.3392ZM37.5983 24.0448C37.3117 23.8854 37.109 23.6895 36.9775 23.4602L36.5672 23.6883C36.7503 24.0071 37.0243 24.2628 37.3766 24.4588L37.5983 24.0448ZM36.9799 23.4646C36.8512 23.2291 36.7917 22.9644 36.8072 22.6635L36.3331 22.6259C36.3134 23.0073 36.389 23.3622 36.5648 23.6838L36.9799 23.4646ZM36.5579 22.8816L37.8383 22.9832L37.8628 22.5093L36.5824 22.4078L36.5579 22.8816ZM37.6135 22.7274C37.6047 22.8958 37.6428 23.0573 37.726 23.2066L38.1392 22.984C38.1004 22.9143 38.0835 22.843 38.0876 22.7651L37.6135 22.7274ZM37.7324 23.2177C37.8273 23.3685 37.9655 23.4828 38.1316 23.5664L38.3354 23.1429C38.2322 23.091 38.1698 23.0324 38.1325 22.9729L37.7324 23.2177ZM38.1316 23.5664C38.3038 23.6529 38.5112 23.7001 38.7433 23.7186L38.7676 23.2448C38.573 23.2294 38.4324 23.1918 38.3354 23.1429L38.1316 23.5664ZM38.7433 23.7186C38.9469 23.7348 39.1346 23.7236 39.2994 23.6767L39.1577 23.2192C39.0618 23.2466 38.9338 23.258 38.7676 23.2448L38.7433 23.7186ZM39.2968 23.6774C39.4623 23.6321 39.6093 23.555 39.7173 23.4328L39.3579 23.1123C39.3244 23.1502 39.2652 23.1898 39.1603 23.2184L39.2968 23.6774ZM39.7119 23.4387C39.8277 23.3165 39.8883 23.1641 39.8971 22.9942L39.4229 22.9566C39.4195 23.0236 39.3984 23.0693 39.3632 23.1064L39.7119 23.4387ZM39.8971 22.9942C39.909 22.7615 39.8134 22.5612 39.6224 22.4215L39.3491 22.8024C39.4062 22.8441 39.4264 22.8861 39.4229 22.9566L39.8971 22.9942ZM39.6274 22.4252C39.4526 22.2902 39.1879 22.2114 38.8775 22.1624L38.8163 22.6318C39.1106 22.6783 39.2718 22.7427 39.3441 22.7986L39.6274 22.4252ZM38.8791 22.1626L38.5464 22.1077L38.4819 22.5766L38.8147 22.6316L38.8791 22.1626ZM38.5471 22.1078C38.0519 22.0244 37.6863 21.8411 37.4282 21.5735L37.0909 21.8985C37.4389 22.2593 37.9094 22.4802 38.481 22.5765L38.5471 22.1078ZM37.4282 21.5735C37.1782 21.3139 37.0576 20.986 37.0793 20.5656L36.6052 20.528C36.5777 21.0648 36.7353 21.5296 37.0909 21.8985L37.4282 21.5735ZM37.0793 20.5656C37.095 20.2615 37.1768 20.0223 37.3143 19.8357L36.9294 19.5467C36.7292 19.8187 36.6245 20.1498 36.6052 20.528L37.0793 20.5656ZM37.3124 19.8383C37.4568 19.648 37.6535 19.5061 37.9111 19.4147L37.7412 18.9662C37.4073 19.0848 37.1342 19.2767 36.9313 19.5442L37.3124 19.8383ZM37.9111 19.4147C38.1694 19.323 38.4798 19.2875 38.8482 19.3167L38.8725 18.8429C38.4536 18.8097 38.0747 18.8479 37.7412 18.9662L37.9111 19.4147ZM38.8482 19.3167C39.2497 19.3486 39.5691 19.4412 39.8163 19.5838L40.0449 19.1737C39.7185 18.9855 39.3246 18.8788 38.8725 18.8429L38.8482 19.3167ZM39.8177 19.5846C40.0717 19.7292 40.2537 19.9154 40.3729 20.1428L40.792 19.9313C40.625 19.6127 40.3724 19.36 40.0434 19.173L39.8177 19.5846ZM40.3738 20.1445C40.4934 20.3687 40.5496 20.6287 40.5339 20.9324L41.0082 20.97C41.0277 20.5914 40.958 20.242 40.791 19.9296L40.3738 20.1445ZM40.7832 20.7143L39.5028 20.6127L39.4785 21.0865L40.7589 21.1881L40.7832 20.7143ZM39.7278 20.8684C39.7359 20.7131 39.7038 20.5634 39.631 20.4244L39.2119 20.6359C39.243 20.6955 39.2573 20.7588 39.2535 20.8308L39.7278 20.8684ZM39.631 20.4244C39.5551 20.2795 39.4405 20.1663 39.297 20.0845L39.0706 20.4957C39.1401 20.5354 39.1838 20.5823 39.2119 20.6359L39.631 20.4244ZM39.308 20.0911C39.1646 19.999 38.9969 19.9518 38.8163 19.9374L38.7918 20.4112C38.9148 20.421 39.0002 20.4509 39.0597 20.4891L39.308 20.0911ZM38.8163 19.9374C38.6486 19.9241 38.4893 19.9394 38.3468 19.9946L38.5285 20.4386C38.5899 20.4149 38.6751 20.402 38.7918 20.4112L38.8163 19.9374ZM38.3516 19.9929C38.2155 20.0421 38.1004 20.1237 38.0152 20.2395L38.4001 20.5284C38.4274 20.4914 38.4657 20.4614 38.5238 20.4404L38.3516 19.9929ZM38.0095 20.2476C37.9329 20.3614 37.8927 20.4907 37.8856 20.6296L38.3597 20.6672C38.3627 20.6071 38.3792 20.5601 38.4058 20.5203L38.0095 20.2476ZM37.8856 20.6296C37.8756 20.8219 37.9344 20.9997 38.06 21.1498L38.4205 20.8507C38.3756 20.7969 38.3561 20.7401 38.3597 20.6672L37.8856 20.6296ZM38.06 21.1498C38.202 21.3196 38.4267 21.4026 38.6686 21.4425L38.7331 20.9736C38.5314 20.9403 38.4491 20.8847 38.4205 20.8507L38.06 21.1498ZM38.6686 21.4425L39.0016 21.4975L39.0661 21.0285L38.7331 20.9736L38.6686 21.4425ZM39.0014 21.4974C39.3665 21.5578 39.6786 21.6626 39.9419 21.808L40.1624 21.3933C39.8422 21.2165 39.4754 21.0962 39.0661 21.0285L39.0014 21.4974ZM39.9447 21.8095C40.2047 21.9488 40.3966 22.1228 40.5298 22.3289L40.9263 22.0786C40.742 21.7933 40.4832 21.5652 40.1595 21.3918L39.9447 21.8095ZM40.5298 22.3289C40.6564 22.5246 40.7185 22.7634 40.7032 23.0581L41.1775 23.0958C41.197 22.7176 41.1176 22.3743 40.9263 22.0786L40.5298 22.3289ZM40.7032 23.0581C40.6883 23.351 40.6 23.5904 40.4444 23.7863L40.8193 24.0885C41.0405 23.81 41.158 23.4757 41.1775 23.0958L40.7032 23.0581ZM40.4425 23.7886C40.2903 23.9855 40.0739 24.1366 39.7804 24.2363L39.944 24.6867C40.3096 24.5627 40.606 24.3644 40.8212 24.0861L40.4425 23.7886ZM39.7792 24.2365C39.4923 24.3357 39.1389 24.3731 38.7114 24.3392L38.6869 24.8132C39.1605 24.8507 39.5822 24.8118 39.9452 24.6863L39.7792 24.2365Z" fill="black"/>
</g>
<path d="M42.6041 24.9531L43.0696 20.7943L44.3773 21.0202L43.9118 25.1789L42.6041 24.9531ZM41.6475 20.6929L41.7759 19.5471L45.896 20.2587L45.7678 21.4045L41.6475 20.6929Z" fill="white"/>
<mask id="mask7_82_5107" style="mask-type:luminance" maskUnits="userSpaceOnUse" x="40" y="19" width="7" height="7">
<path d="M46.352 19.223H40.7969V25.7312H46.352V19.223Z" fill="white"/>
<path d="M42.6041 24.9531L43.0696 20.7943L44.3773 21.0202L43.9118 25.1789L42.6041 24.9531ZM41.6475 20.6929L41.7759 19.5471L45.896 20.2587L45.7678 21.4045L41.6475 20.6929Z" fill="black"/>
</mask>
<g mask="url(#mask7_82_5107)">
<path d="M42.6041 24.9532L42.3695 24.9126L42.3434 25.1484L42.5777 25.189L42.6041 24.9532ZM43.0695 20.7944L43.0959 20.5587L42.8617 20.5182L42.8353 20.7539L43.0695 20.7944ZM44.3773 21.0203L44.6118 21.0607L44.6382 20.825L44.4037 20.7845L44.3773 21.0203ZM43.9118 25.179L43.8854 25.4148L44.1197 25.4551L44.1461 25.2196L43.9118 25.179ZM41.6474 20.693L41.4131 20.6525L41.3867 20.8883L41.6212 20.9288L41.6474 20.693ZM41.7758 19.5472L41.8023 19.3115L41.5677 19.271L41.5413 19.5067L41.7758 19.5472ZM45.896 20.2588L46.1303 20.2993L46.1567 20.0635L45.9224 20.0231L45.896 20.2588ZM45.7678 21.4046L45.7414 21.6403L45.9756 21.6808L46.002 21.445L45.7678 21.4046ZM42.8383 24.9935L43.3038 20.8349L42.8353 20.7539L42.3695 24.9126L42.8383 24.9935ZM43.0431 21.0302L44.3509 21.256L44.4037 20.7845L43.0959 20.5587L43.0431 21.0302ZM44.143 20.9798L43.6775 25.1384L44.1461 25.2196L44.6118 21.0607L44.143 20.9798ZM43.9382 24.9432L42.6305 24.7174L42.5777 25.189L43.8854 25.4148L43.9382 24.9432ZM41.8819 20.7335L42.0101 19.5877L41.5413 19.5067L41.4131 20.6525L41.8819 20.7335ZM41.7494 19.783L45.8696 20.4946L45.9224 20.0231L41.8023 19.3115L41.7494 19.783ZM45.6617 20.2183L45.5332 21.3641L46.002 21.445L46.1303 20.2993L45.6617 20.2183ZM45.7942 21.1688L41.6738 20.4572L41.6212 20.9288L45.7414 21.6403L45.7942 21.1688Z" fill="black"/>
</g>
<path d="M46.2188 26.1653L47.1897 20.1823L48.6915 20.5582L47.7206 26.5413L46.2188 26.1653Z" fill="white"/>
<mask id="mask8_82_5107" style="mask-type:luminance" maskUnits="userSpaceOnUse" x="46" y="20" width="3" height="7">
<path d="M46.2188 26.1653L47.1897 20.1823L48.6915 20.5582L47.7206 26.5413L46.2188 26.1653Z" fill="white"/>
</mask>
<g mask="url(#mask8_82_5107)">
<path d="M46.219 26.1654L45.9883 26.1078L45.9502 26.3419L46.1809 26.3995L46.219 26.1654ZM47.1899 20.1823L47.2279 19.9481L46.9972 19.8904L46.9592 20.1246L47.1899 20.1823ZM48.6917 20.5583L48.9224 20.6161L48.9605 20.3819L48.7298 20.3241L48.6917 20.5583ZM47.7208 26.5414L47.6827 26.7755L47.9134 26.8334L47.9515 26.5993L47.7208 26.5414ZM46.4497 26.2233L47.4206 20.2401L46.9592 20.1246L45.9883 26.1078L46.4497 26.2233ZM47.1518 20.4165L48.6536 20.7925L48.7298 20.3241L47.2279 19.9481L47.1518 20.4165ZM48.461 20.5005L47.4901 26.4838L47.9515 26.5993L48.9224 20.6161L48.461 20.5005ZM47.7588 26.3073L46.257 25.9313L46.1809 26.3995L47.6827 26.7755L47.7588 26.3073Z" fill="black"/>
</g>
<path d="M51.2854 27.4121C50.8399 27.2598 50.4748 27.0501 50.1903 26.7833C49.9068 26.5119 49.6901 26.2111 49.5407 25.8809C49.3923 25.5462 49.3024 25.2088 49.2712 24.8691C49.2401 24.5297 49.2563 24.2163 49.32 23.929L49.3538 23.776C49.4247 23.4565 49.5436 23.1607 49.7103 22.8888C49.8825 22.6138 50.0999 22.3867 50.3625 22.2073C50.6294 22.0295 50.9367 21.9204 51.2847 21.8799C51.6324 21.8394 52.018 21.8915 52.4409 22.0361C52.8909 22.1901 53.2696 22.4143 53.5771 22.7088C53.8899 23.0003 54.1173 23.3397 54.259 23.7272C54.4018 24.1098 54.4453 24.5136 54.3899 24.9382L53.1345 24.5086C53.1418 24.3219 53.1083 24.1459 53.0336 23.9808C52.9589 23.8156 52.8483 23.6707 52.7016 23.5457C52.556 23.4162 52.3798 23.316 52.1728 23.2452C51.9792 23.179 51.7961 23.1538 51.6231 23.1694C51.4547 23.1865 51.3023 23.2415 51.1655 23.3343C51.0342 23.4239 50.9193 23.5491 50.8209 23.7098C50.7267 23.8719 50.6546 24.0666 50.6042 24.2936C50.554 24.5207 50.5357 24.7337 50.5497 24.9327C50.568 25.1334 50.617 25.317 50.6962 25.4838C50.7799 25.652 50.8929 25.7976 51.0349 25.921C51.1781 26.0398 51.3508 26.1338 51.5534 26.203C51.8684 26.3107 52.1512 26.3228 52.4021 26.2393C52.6576 26.1572 52.8371 25.9917 52.9406 25.7431L54.196 26.1724C54.0714 26.5385 53.8706 26.8438 53.5938 27.0879C53.3169 27.3322 52.982 27.4892 52.5888 27.559C52.1968 27.6242 51.7623 27.5754 51.2854 27.4121Z" fill="white"/>
<mask id="mask9_82_5107" style="mask-type:luminance" maskUnits="userSpaceOnUse" x="48" y="20" width="8" height="9">
<path d="M55.372 20.756H48.4121V28.7022H55.372V20.756Z" fill="white"/>
<path d="M51.2854 27.4121C50.8399 27.2598 50.4748 27.0501 50.1903 26.7833C49.9068 26.5119 49.6901 26.2111 49.5407 25.8809C49.3923 25.5462 49.3024 25.2088 49.2712 24.8691C49.2401 24.5297 49.2563 24.2163 49.32 23.929L49.3538 23.776C49.4247 23.4565 49.5436 23.1607 49.7103 22.8888C49.8825 22.6138 50.0999 22.3867 50.3625 22.2073C50.6294 22.0295 50.9367 21.9204 51.2847 21.8799C51.6324 21.8394 52.018 21.8915 52.4409 22.0361C52.8909 22.1901 53.2696 22.4143 53.5771 22.7088C53.8899 23.0003 54.1173 23.3397 54.259 23.7272C54.4018 24.1098 54.4453 24.5136 54.3899 24.9382L53.1345 24.5086C53.1418 24.3219 53.1083 24.1459 53.0336 23.9808C52.9589 23.8156 52.8483 23.6707 52.7016 23.5457C52.556 23.4162 52.3798 23.316 52.1728 23.2452C51.9792 23.179 51.7961 23.1538 51.6231 23.1694C51.4547 23.1865 51.3023 23.2415 51.1655 23.3343C51.0342 23.4239 50.9193 23.5491 50.8209 23.7098C50.7267 23.8719 50.6546 24.0666 50.6042 24.2936C50.554 24.5207 50.5357 24.7337 50.5497 24.9327C50.568 25.1334 50.617 25.317 50.6962 25.4838C50.7799 25.652 50.8929 25.7976 51.0349 25.921C51.1781 26.0398 51.3508 26.1338 51.5534 26.203C51.8684 26.3107 52.1512 26.3228 52.4021 26.2393C52.6576 26.1572 52.8371 25.9917 52.9406 25.7431L54.196 26.1724C54.0714 26.5385 53.8706 26.8438 53.5938 27.0879C53.3169 27.3322 52.982 27.4892 52.5888 27.559C52.1968 27.6242 51.7623 27.5754 51.2854 27.4121Z" fill="black"/>
</mask>
<g mask="url(#mask9_82_5107)">
<path d="M50.1907 26.7832L50.0451 26.9571L50.047 26.959L50.1907 26.7832ZM49.5411 25.8808L49.3337 25.9665L49.3347 25.9684L49.5411 25.8808ZM49.7107 22.8888L49.5145 22.7408L49.5135 22.7425L49.7107 22.8888ZM50.3629 22.2073L50.2268 21.9971L50.2249 21.9985L50.3629 22.2073ZM53.5775 22.7088L53.4317 22.8824L53.4331 22.8838L53.4346 22.8851L53.5775 22.7088ZM54.2594 23.7271L54.0451 23.7954L54.0456 23.7971L54.2594 23.7271ZM54.3903 24.9381L54.3389 25.1696L54.5851 25.2538L54.6188 24.9939L54.3903 24.9381ZM53.1349 24.5085L52.9041 24.4748L52.8961 24.6762L53.0835 24.7403L53.1349 24.5085ZM52.702 23.5457L52.5638 23.7262L52.5659 23.728L52.5681 23.7299L52.702 23.5457ZM51.6235 23.1693L51.5821 22.9261L51.5798 22.9263L51.6235 23.1693ZM51.1659 23.3342L51.0284 23.125L51.0279 23.1254L51.1659 23.3342ZM50.8212 23.7098L50.6241 23.5634L50.6226 23.5657L50.6212 23.568L50.8212 23.7098ZM50.5501 24.9327L50.3198 24.9272L50.3201 24.93L50.3203 24.9329L50.5501 24.9327ZM50.6966 25.4837L50.4923 25.576L50.4935 25.5784L50.4944 25.5805L50.6966 25.4837ZM51.0353 25.9209L50.8995 26.1036L50.9019 26.1055L50.904 26.1074L51.0353 25.9209ZM52.4025 26.2393L52.3164 26.0049L52.3145 26.0056L52.4025 26.2393ZM52.941 25.743L52.9924 25.5115L52.8033 25.4467L52.7284 25.6272L52.941 25.743ZM54.1964 26.1724L54.4145 26.2741L54.4987 26.0267L54.2478 25.9408L54.1964 26.1724ZM52.5892 27.5589L52.6463 27.8002L52.6484 27.7997L52.5892 27.5589ZM51.3369 27.1806C50.9166 27.0368 50.5855 26.8435 50.3341 26.6077L50.047 26.959C50.3648 27.2567 50.7637 27.4828 51.2344 27.6436L51.3369 27.1806ZM50.336 26.6096C50.0758 26.3602 49.881 26.0882 49.7476 25.7933L49.3347 25.9684C49.5 26.3339 49.7385 26.6634 50.0451 26.9571L50.336 26.6096ZM49.7485 25.7952C49.6115 25.4863 49.5297 25.1779 49.5014 24.8688L49.0419 24.8693C49.0759 25.2396 49.1739 25.6056 49.3337 25.9665L49.7485 25.7952ZM49.5014 24.8688C49.4721 24.5524 49.4878 24.2654 49.5454 24.0058L49.0954 23.8519C49.0254 24.1669 49.0086 24.5068 49.0419 24.8693L49.5014 24.8688ZM49.5454 24.0058L49.5792 23.8531L49.1291 23.6991L49.0954 23.8519L49.5454 24.0058ZM49.5792 23.8531C49.6446 23.5585 49.7538 23.2861 49.9079 23.035L49.5135 22.7425C49.3339 23.0352 49.2057 23.3544 49.1291 23.6991L49.5792 23.8531ZM49.9067 23.0368C50.0639 22.7861 50.2616 22.5796 50.5009 22.4161L50.2249 21.9985C49.9393 22.1937 49.7021 22.4414 49.5145 22.7408L49.9067 23.0368ZM50.4987 22.4174C50.7373 22.2586 51.0137 22.1595 51.3319 22.1225L51.2382 21.6371C50.8605 21.6811 50.5223 21.8004 50.2268 21.9971L50.4987 22.4174ZM51.3319 22.1225C51.6409 22.0865 51.9922 22.1317 52.3899 22.2677L52.4927 21.8045C52.0443 21.6511 51.6247 21.5921 51.2382 21.6371L51.3319 22.1225ZM52.3899 22.2677C52.8111 22.4118 53.156 22.6182 53.4317 22.8824L53.7231 22.5351C53.3839 22.2103 52.9715 21.9683 52.4927 21.8045L52.3899 22.2677ZM53.4346 22.8851C53.7174 23.1483 53.9191 23.451 54.0451 23.7954L54.4737 23.6585C54.3163 23.2283 54.0634 22.8522 53.7202 22.5325L53.4346 22.8851ZM54.0456 23.7971C54.1717 24.1351 54.2121 24.4952 54.1617 24.8821L54.6188 24.9939C54.6792 24.5318 54.6324 24.0844 54.473 23.6569L54.0456 23.7971ZM54.4416 24.7063L53.1862 24.277L53.0835 24.7403L54.3389 25.1696L54.4416 24.7063ZM53.3653 24.5422C53.3744 24.3173 53.3337 24.0993 53.2405 23.8932L52.8276 24.0682C52.8837 24.1923 52.9103 24.3261 52.9041 24.4748L53.3653 24.5422ZM53.2405 23.8932C53.1475 23.688 53.0109 23.5105 52.8359 23.3615L52.5681 23.7299C52.6863 23.8305 52.7709 23.9432 52.8276 24.0682L53.2405 23.8932ZM52.8404 23.3653C52.6649 23.2092 52.4577 23.0933 52.2246 23.0135L52.1218 23.4768C52.3026 23.5386 52.4479 23.6232 52.5638 23.7262L52.8404 23.3653ZM52.2246 23.0135C52.0046 22.9383 51.7896 22.9073 51.5821 22.9261L51.6652 23.4125C51.8033 23.4 51.9549 23.4197 52.1218 23.4768L52.2246 23.0135ZM51.5798 22.9263C51.3778 22.9469 51.1933 23.0133 51.0284 23.125L51.3034 23.5434C51.4121 23.4696 51.5327 23.426 51.6675 23.4123L51.5798 22.9263ZM51.0279 23.1254C50.8695 23.2337 50.7356 23.3817 50.6241 23.5634L51.0184 23.8559C51.1041 23.7164 51.1999 23.6142 51.3039 23.543L51.0279 23.1254ZM50.6212 23.568C50.5137 23.7537 50.434 23.971 50.3796 24.2165L50.8296 24.3704C50.8757 24.1622 50.9407 23.9902 51.021 23.8514L50.6212 23.568ZM50.3796 24.2165C50.3253 24.4622 50.3039 24.6995 50.3198 24.9272L50.7801 24.9381C50.7682 24.7675 50.7834 24.5787 50.8296 24.3704L50.3796 24.2165ZM50.3203 24.9329C50.3415 25.1616 50.3976 25.377 50.4923 25.576L50.9009 25.3914C50.8369 25.2572 50.7956 25.1051 50.7799 24.9324L50.3203 24.9329ZM50.4944 25.5805C50.5948 25.7819 50.7306 25.957 50.8995 26.1036L51.1711 25.7385C51.056 25.6384 50.9659 25.5217 50.8986 25.3869L50.4944 25.5805ZM50.904 26.1074C51.0755 26.2497 51.2767 26.3574 51.5025 26.4345L51.605 25.9714C51.4259 25.91 51.2813 25.8298 51.1666 25.7345L50.904 26.1074ZM51.5025 26.4345C51.855 26.5552 52.1877 26.5737 52.4907 26.4727L52.3145 26.0056C52.1156 26.072 51.8826 26.0663 51.605 25.9714L51.5025 26.4345ZM52.4886 26.4734C52.7992 26.3735 53.0254 26.1669 53.1536 25.8588L52.7284 25.6272C52.6494 25.8165 52.5167 25.9406 52.3164 26.0049L52.4886 26.4734ZM52.8896 25.9748L54.145 26.4041L54.2478 25.9408L52.9924 25.5115L52.8896 25.9748ZM53.9783 26.0706C53.866 26.4008 53.6857 26.6743 53.4365 26.8942L53.7516 27.2814C54.0561 27.0128 54.2775 26.6762 54.4145 26.2741L53.9783 26.0706ZM53.4365 26.8942C53.1896 27.1122 52.8892 27.2543 52.53 27.3181L52.6484 27.7997C53.0756 27.7238 53.445 27.5518 53.7516 27.2814L53.4365 26.8942ZM52.5324 27.3177C52.1822 27.376 51.7857 27.3338 51.3369 27.1806L51.2344 27.6436C51.7396 27.8165 52.212 27.8725 52.6463 27.8002L52.5324 27.3177Z" fill="black"/>
</g>
<path d="M56.7122 29.7454C56.2817 29.5433 55.9309 29.2904 55.6592 28.9865C55.389 28.6781 55.1873 28.3472 55.0537 27.994C54.9216 27.6363 54.8493 27.2833 54.8372 26.935C54.8251 26.587 54.8619 26.2723 54.9476 25.9907L54.9932 25.8408C55.0884 25.5276 55.2354 25.2465 55.4342 24.9972C55.6345 24.7436 55.8795 24.5448 56.1692 24.4006C56.4589 24.2564 56.7831 24.1854 57.1415 24.1878C57.5043 24.1918 57.8944 24.2919 58.3118 24.4881C58.7249 24.6819 59.0665 24.9253 59.3367 25.218C59.611 25.5129 59.8184 25.8334 59.9589 26.1797C60.0995 26.5258 60.1775 26.8762 60.1925 27.2309C60.2132 27.5831 60.1759 27.9157 60.0807 28.2291L60.035 28.379C59.9494 28.6604 59.8072 28.9256 59.6083 29.1749C59.414 29.4259 59.1719 29.6313 58.8822 29.7912C58.5939 29.9463 58.2664 30.0286 57.8996 30.0381C57.534 30.0429 57.1382 29.9454 56.7122 29.7454ZM57.0728 28.5605C57.2793 28.6573 57.4755 28.708 57.661 28.7121C57.8468 28.7163 58.0178 28.6798 58.1741 28.6027C58.3303 28.5256 58.4647 28.4148 58.5775 28.2706C58.6916 28.1219 58.7799 27.9454 58.842 27.7411C58.9083 27.5231 58.9362 27.3106 58.9255 27.103C58.919 26.8978 58.8772 26.7042 58.7996 26.5225C58.7221 26.3408 58.6117 26.1776 58.469 26.0327C58.3261 25.888 58.1536 25.7679 57.9512 25.673C57.7447 25.576 57.5492 25.5231 57.3649 25.5146C57.1808 25.5058 57.0112 25.5378 56.8561 25.6104C56.7013 25.683 56.5669 25.7935 56.4527 25.9423C56.3385 26.091 56.2484 26.2744 56.182 26.4924C56.12 26.6966 56.0919 26.9016 56.0983 27.1068C56.1062 27.3077 56.148 27.5011 56.2241 27.6873C56.3005 27.8735 56.4092 28.0414 56.5507 28.1909C56.692 28.3401 56.8661 28.4635 57.0728 28.5605Z" fill="white"/>
<mask id="mask10_82_5107" style="mask-type:luminance" maskUnits="userSpaceOnUse" x="53" y="22" width="9" height="10">
<path d="M61.2173 22.8519H53.8262V31.3805H61.2173V22.8519Z" fill="white"/>
<path d="M56.7122 29.7454C56.2817 29.5433 55.9309 29.2904 55.6592 28.9865C55.389 28.6781 55.1873 28.3472 55.0537 27.994C54.9216 27.6363 54.8493 27.2833 54.8372 26.935C54.8251 26.587 54.8619 26.2723 54.9476 25.9907L54.9932 25.8408C55.0884 25.5276 55.2354 25.2465 55.4342 24.9972C55.6345 24.7436 55.8795 24.5448 56.1692 24.4006C56.4589 24.2564 56.7831 24.1854 57.1415 24.1878C57.5043 24.1918 57.8944 24.2919 58.3118 24.4881C58.7249 24.6819 59.0665 24.9253 59.3367 25.218C59.611 25.5129 59.8184 25.8334 59.9589 26.1797C60.0995 26.5258 60.1775 26.8762 60.1925 27.2309C60.2132 27.5831 60.1759 27.9157 60.0807 28.2291L60.035 28.379C59.9494 28.6604 59.8072 28.9256 59.6083 29.1749C59.414 29.4259 59.1719 29.6313 58.8822 29.7912C58.5939 29.9463 58.2664 30.0286 57.8996 30.0381C57.534 30.0429 57.1382 29.9454 56.7122 29.7454ZM57.0728 28.5605C57.2793 28.6573 57.4755 28.708 57.661 28.7121C57.8468 28.7163 58.0178 28.6798 58.1741 28.6027C58.3303 28.5256 58.4647 28.4148 58.5775 28.2706C58.6916 28.1219 58.7799 27.9454 58.842 27.7411C58.9083 27.5231 58.9362 27.3106 58.9255 27.103C58.919 26.8978 58.8772 26.7042 58.7996 26.5225C58.7221 26.3408 58.6117 26.1776 58.469 26.0327C58.3261 25.888 58.1536 25.7679 57.9512 25.673C57.7447 25.576 57.5492 25.5231 57.3649 25.5146C57.1808 25.5058 57.0112 25.5378 56.8561 25.6104C56.7013 25.683 56.5669 25.7935 56.4527 25.9423C56.3385 26.091 56.2484 26.2744 56.182 26.4924C56.12 26.6966 56.0919 26.9016 56.0983 27.1068C56.1062 27.3077 56.148 27.5011 56.2241 27.6873C56.3005 27.8735 56.4092 28.0414 56.5507 28.1909C56.692 28.3401 56.8661 28.4635 57.0728 28.5605Z" fill="black"/>
</mask>
<g mask="url(#mask10_82_5107)">
<path d="M55.6596 28.9866L55.5052 29.1486L55.5071 29.1505L55.6596 28.9866ZM55.054 27.9941L54.8459 28.0655L54.8466 28.0674L55.054 27.9941ZM55.4346 24.9973L55.6113 25.1723L55.612 25.1714L55.4346 24.9973ZM57.1419 24.1879L57.1198 23.9393H57.1188L57.1419 24.1879ZM59.337 25.2181L59.1872 25.3856L59.1881 25.3865L59.337 25.2181ZM60.1928 27.2309L59.9671 27.2157V27.2179L59.9674 27.2203L60.1928 27.2309ZM59.6087 29.1749L59.4319 28.9999L59.43 29.0023L59.6087 29.1749ZM58.8825 29.7912L58.9991 30.0168L59.0007 30.0159L58.8825 29.7912ZM57.8999 30.0382L57.927 30.2866H57.9294L57.8999 30.0382ZM58.5778 28.2707L58.756 28.4441L58.7571 28.4424L58.5778 28.2707ZM58.9258 27.1031L58.6998 27.0848L58.7001 27.0876V27.0903L58.9258 27.1031ZM56.0987 27.1069L55.8727 27.0886L55.8729 27.0905L56.0987 27.1069ZM56.7815 29.5184C56.3753 29.3277 56.0549 29.0941 55.8123 28.8224L55.5071 29.1505C55.8073 29.4869 56.189 29.759 56.6436 29.9725L56.7815 29.5184ZM55.8142 28.8246C55.5642 28.5394 55.3815 28.2382 55.2614 27.9205L54.8466 28.0674C54.9936 28.4564 55.2145 28.817 55.5052 29.1486L55.8142 28.8246ZM55.2624 27.9227C55.1399 27.5915 55.0744 27.2686 55.0635 26.9524L54.6118 26.9178C54.6249 27.2978 54.7039 27.6809 54.8459 28.0655L55.2624 27.9227ZM55.0635 26.9524C55.0521 26.6296 55.0866 26.3435 55.1632 26.0918L54.7327 25.8897C54.638 26.2009 54.5987 26.5447 54.6118 26.9178L55.0635 26.9524ZM55.1632 26.0918L55.2086 25.9419L54.7783 25.74L54.7327 25.8897L55.1632 26.0918ZM55.2086 25.9419C55.2954 25.6567 55.4293 25.4005 55.6113 25.1723L55.2578 24.8224C55.0423 25.0924 54.882 25.3986 54.7783 25.74L55.2086 25.9419ZM55.612 25.1714C55.7935 24.9415 56.0156 24.7608 56.2806 24.6291L56.0585 24.1722C55.7438 24.3288 55.4759 24.5458 55.2571 24.8234L55.612 25.1714ZM56.2806 24.6291C56.5411 24.4993 56.8348 24.4341 57.165 24.4362L57.1188 23.9393C56.7321 23.9369 56.3777 24.0135 56.0585 24.1722L56.2806 24.6291ZM57.1638 24.4362C57.4903 24.44 57.849 24.5302 58.2431 24.7152L58.3813 24.2612C57.9401 24.0541 57.5189 23.944 57.1198 23.9393L57.1638 24.4362ZM58.2431 24.7152C58.6325 24.8979 58.9451 25.1228 59.1872 25.3856L59.4866 25.0509C59.1889 24.728 58.8183 24.4661 58.3813 24.2612L58.2431 24.7152ZM59.1881 25.3865C59.441 25.6584 59.6284 25.9492 59.7545 26.2598L60.1641 26.0996C60.009 25.7177 59.7814 25.3678 59.4857 25.0499L59.1881 25.3865ZM59.7545 26.2598C59.8829 26.5762 59.9533 26.8943 59.9671 27.2157L60.4186 27.2463C60.4022 26.8583 60.3168 26.4756 60.1641 26.0996L59.7545 26.2598ZM59.9674 27.2203C59.9861 27.5422 59.9521 27.8441 59.8658 28.1281L60.2961 28.3302C60.4005 27.9877 60.4409 27.6242 60.4183 27.2418L59.9674 27.2203ZM59.8658 28.1281L59.8201 28.278L60.2506 28.4799L60.2961 28.3302L59.8658 28.1281ZM59.8201 28.278C59.744 28.5285 59.616 28.7693 59.4319 28.9999L59.7856 29.3498C59.999 29.0822 60.1555 28.7926 60.2506 28.4799L59.8201 28.278ZM59.43 29.0023C59.2536 29.2305 59.0323 29.4188 58.7645 29.5666L59.0007 30.0159C59.3121 29.8441 59.5751 29.6216 59.7873 29.3474L59.43 29.0023ZM58.7662 29.5657C58.5069 29.7054 58.2096 29.781 57.8704 29.7898L57.9294 30.2866C58.324 30.2766 58.6818 30.1876 58.9991 30.0168L58.7662 29.5657ZM57.8728 29.7898C57.546 29.7941 57.1833 29.707 56.7815 29.5184L56.6436 29.9725C57.0941 30.1838 57.5229 30.292 57.927 30.2866L57.8728 29.7898ZM57.0039 28.7876C57.2346 28.8957 57.4611 28.9558 57.6813 28.9605L57.6416 28.4638C57.4906 28.4604 57.3248 28.4192 57.1421 28.3335L57.0039 28.7876ZM57.6813 28.9605C57.8975 28.9655 58.0995 28.9228 58.2848 28.8312L58.0638 28.3741C57.9366 28.437 57.7967 28.4671 57.6416 28.4638L57.6813 28.9605ZM58.2848 28.8312C58.4679 28.7411 58.6251 28.6113 58.756 28.4441L58.3999 28.0975C58.3052 28.2185 58.1934 28.3103 58.0638 28.3741L58.2848 28.8312ZM58.7571 28.4424C58.8884 28.2714 58.9881 28.0702 59.0576 27.842L58.627 27.6401C58.5723 27.8204 58.4957 27.9725 58.3987 28.0989L58.7571 28.4424ZM59.0576 27.842C59.1311 27.6005 59.1639 27.3578 59.1515 27.1159L58.7001 27.0903C58.7091 27.2632 58.6863 27.4459 58.627 27.6401L59.0576 27.842ZM59.1518 27.1216C59.1441 26.8834 59.0954 26.6545 59.0029 26.4379L58.5971 26.6075C58.6596 26.7541 58.6946 26.9121 58.6998 27.0848L59.1518 27.1216ZM59.0029 26.4379C58.9106 26.2211 58.779 26.0277 58.6125 25.8588L58.3262 26.2069C58.4451 26.3276 58.5345 26.4609 58.5971 26.6075L59.0029 26.4379ZM58.6125 25.8588C58.4446 25.6885 58.246 25.5519 58.0208 25.4461L57.8826 25.9001C58.0619 25.9841 58.2082 26.0873 58.3262 26.2069L58.6125 25.8588ZM58.0208 25.4461C57.7917 25.3386 57.5676 25.2765 57.3505 25.2663L57.38 25.7628C57.5315 25.7699 57.6985 25.8135 57.8826 25.9001L58.0208 25.4461ZM57.3505 25.2663C57.1357 25.2563 56.9345 25.2936 56.7497 25.3801L56.9635 25.8406C57.0886 25.7822 57.2263 25.7557 57.38 25.7628L57.3505 25.2663ZM56.7497 25.3801C56.5648 25.4667 56.4062 25.5981 56.2737 25.7706L56.6322 26.1141C56.7283 25.9891 56.8386 25.8992 56.9635 25.8406L56.7497 25.3801ZM56.2737 25.7706C56.1415 25.9431 56.0401 26.1513 55.9671 26.3914L56.3976 26.5935C56.4571 26.3976 56.5363 26.2393 56.6322 26.1141L56.2737 25.7706ZM55.9671 26.3914C55.8977 26.6196 55.8656 26.8523 55.8729 27.0886L56.3246 27.1254C56.3191 26.9508 56.3427 26.7738 56.3976 26.5935L55.9671 26.3914ZM55.8729 27.0905C55.882 27.3234 55.9307 27.55 56.0199 27.7682L56.4293 27.6067C56.366 27.4523 56.331 27.2919 56.3246 27.1232L55.8729 27.0905ZM56.0199 27.7682C56.1103 27.9889 56.2392 28.1869 56.4038 28.3608L56.698 28.0209C56.5801 27.8961 56.4911 27.7583 56.4293 27.6067L56.0199 27.7682ZM56.4038 28.3608C56.5715 28.538 56.7734 28.6792 57.0039 28.7876L57.1421 28.3335C56.9597 28.2477 56.8134 28.1426 56.698 28.0209L56.4038 28.3608Z" fill="black"/>
</g>
<path d="M61.4013 32.3745C60.9846 32.1268 60.6604 31.8469 60.429 31.5352C60.2016 31.2259 60.0612 30.9059 60.0082 30.5747C59.9606 30.2417 59.9982 29.9157 60.1212 29.5969L61.2246 30.2528C61.1801 30.3679 61.1677 30.4912 61.1875 30.6226C61.2129 30.7521 61.2745 30.8786 61.3728 31.0022C61.4708 31.1258 61.6116 31.2422 61.7954 31.3516C61.9548 31.4463 62.0982 31.5044 62.2257 31.5255C62.3573 31.5492 62.4669 31.5383 62.5549 31.4925C62.6467 31.4493 62.714 31.3722 62.7569 31.2617C62.8113 31.1198 62.798 30.9787 62.7167 30.8378C62.6372 30.6924 62.4707 30.5311 62.2179 30.3534L61.9401 30.1555C61.4953 29.8367 61.188 29.461 61.0184 29.028C60.8488 28.5951 60.85 28.1551 61.0224 27.7077C61.1452 27.3888 61.3176 27.1566 61.5395 27.011C61.7655 26.8677 62.0259 26.8103 62.3213 26.839C62.6168 26.8674 62.9341 26.9825 63.2732 27.1841C63.641 27.4028 63.9259 27.6538 64.1281 27.9373C64.3343 28.2231 64.458 28.528 64.4989 28.8518C64.5417 29.1711 64.5015 29.4901 64.3788 29.809L63.2754 29.153C63.3163 29.0468 63.3294 28.9348 63.3144 28.8171C63.2996 28.6995 63.2544 28.5882 63.1793 28.4836C63.1098 28.3771 63.0097 28.2848 62.8789 28.2073C62.7564 28.1344 62.6436 28.0946 62.5409 28.0879C62.4436 28.0792 62.3582 28.0991 62.2842 28.1475C62.2143 28.1985 62.1615 28.2706 62.1256 28.3636C62.0778 28.4876 62.0756 28.6169 62.1192 28.7517C62.1627 28.8864 62.2771 29.0197 62.4624 29.1516L62.7402 29.3495C63.0634 29.5796 63.3289 29.8353 63.5368 30.1169C63.7466 30.3939 63.8831 30.6845 63.9466 30.9891C64.0101 31.2935 63.9813 31.6031 63.86 31.9174C63.739 32.2319 63.5575 32.4616 63.316 32.6063C63.0784 32.7536 62.7959 32.8088 62.4686 32.7721C62.1453 32.7379 61.7895 32.6053 61.4013 32.3745Z" fill="white"/>
<mask id="mask11_82_5107" style="mask-type:luminance" maskUnits="userSpaceOnUse" x="59" y="25" width="7" height="10">
<path d="M65.7444 25.5889H59.0312V34.0181H65.7444V25.5889Z" fill="white"/>
<path d="M61.4023 32.3746C60.9856 32.127 60.6614 31.847 60.4299 31.5353C60.2026 31.226 60.0622 30.906 60.0092 30.5748C59.9616 30.2418 59.9992 29.9158 60.1222 29.597L61.2256 30.2529C61.1811 30.368 61.1687 30.4913 61.1885 30.6227C61.2139 30.7523 61.2755 30.8787 61.3738 31.0023C61.4718 31.1259 61.6126 31.2424 61.7964 31.3517C61.9558 31.4464 62.0992 31.5045 62.2267 31.5256C62.3582 31.5493 62.4679 31.5384 62.5559 31.4926C62.6477 31.4495 62.715 31.3724 62.7578 31.2618C62.8123 31.12 62.799 30.9788 62.7176 30.8379C62.6382 30.6925 62.4717 30.5312 62.2189 30.3535L61.941 30.1557C61.4962 29.8368 61.1889 29.4611 61.0194 29.0282C60.8498 28.5952 60.8509 28.1552 61.0234 27.7078C61.1461 27.389 61.3186 27.1567 61.5405 27.0111C61.7665 26.8678 62.0269 26.8104 62.3223 26.8391C62.6177 26.8676 62.935 26.9826 63.2742 27.1842C63.6419 27.403 63.9269 27.6539 64.1291 27.9374C64.3353 28.2233 64.459 28.5281 64.4999 28.8519C64.5427 29.1712 64.5025 29.4903 64.3798 29.8091L63.2764 29.1532C63.3173 29.0469 63.3303 28.9349 63.3154 28.8173C63.3006 28.6996 63.2554 28.5883 63.1803 28.4837C63.1108 28.3772 63.0107 28.2849 62.8799 28.2074C62.7574 28.1345 62.6446 28.0947 62.5419 28.0881C62.4446 28.0793 62.3592 28.0992 62.2852 28.1476C62.2153 28.1986 62.1625 28.2707 62.1266 28.3637C62.0788 28.4878 62.0766 28.6171 62.1201 28.7518C62.1637 28.8865 62.2781 29.0199 62.4634 29.1517L62.7412 29.3496C63.0644 29.5797 63.3299 29.8354 63.5378 30.117C63.7475 30.3941 63.8841 30.6847 63.9476 30.9893C64.0111 31.2936 63.9823 31.6032 63.861 31.9175C63.7399 32.2321 63.5584 32.4617 63.317 32.6064C63.0794 32.7537 62.7968 32.809 62.4695 32.7722C62.1463 32.738 61.7905 32.6054 61.4023 32.3746Z" fill="black"/>
</mask>
<g mask="url(#mask11_82_5107)">
<path d="M60.4297 31.5353L60.2662 31.6852L60.2672 31.6862L60.4297 31.5353ZM60.0089 30.5748L59.7903 30.5893L59.7908 30.5919L59.791 30.5945L60.0089 30.5748ZM60.1219 29.597L60.2073 29.3757L60.0029 29.2542L59.9176 29.4755L60.1219 29.597ZM61.2253 30.2529L61.4296 30.3744L61.5147 30.1528L61.3104 30.0313L61.2253 30.2529ZM61.1882 30.6227L60.9701 30.6391L60.971 30.646L60.9722 30.6526L61.1882 30.6227ZM62.2264 31.5256L62.2381 31.2763L62.2354 31.2758L62.2264 31.5256ZM62.5556 31.4926L62.4531 31.2575L62.4498 31.2592L62.4467 31.2609L62.5556 31.4926ZM62.7173 30.8379L62.533 30.9546L62.5347 30.9577L62.5363 30.9605L62.7173 30.8379ZM62.2186 30.3535L62.116 30.5639L62.1175 30.5649L62.2186 30.3535ZM61.9407 30.1556L61.8378 30.3656L61.8382 30.3661L61.9407 30.1556ZM61.5402 27.0111L61.4175 26.7871L61.4148 26.7888L61.5402 27.0111ZM64.1288 27.9374L63.963 28.0838L63.9639 28.0852L64.1288 27.9374ZM64.4996 28.8519L64.2805 28.8616L64.2808 28.8637L64.4996 28.8519ZM64.3795 29.8091L64.2941 30.0306L64.4984 30.1521L64.5838 29.9305L64.3795 29.8091ZM63.2761 29.1532L63.0717 29.0317L62.9864 29.2533L63.1907 29.3747L63.2761 29.1532ZM63.18 28.4837L63.0073 28.6201L63.0109 28.6256L63.0149 28.631L63.18 28.4837ZM62.5416 28.088L62.5475 28.3397L62.5499 28.34H62.5523L62.5416 28.088ZM62.2849 28.1476L62.1598 27.9255L62.1558 27.9279L62.152 27.9308L62.2849 28.1476ZM63.5375 30.117L63.3745 30.2674L63.3767 30.27L63.5375 30.117ZM63.3167 32.6064L63.198 32.3801L63.1957 32.3815L63.3167 32.6064ZM62.4693 32.7722L62.4676 32.521L62.4664 32.5207L62.4693 32.7722ZM61.4874 32.1533C61.0909 31.9175 60.7964 31.6594 60.5923 31.3845L60.2672 31.6862C60.526 32.0349 60.8797 32.3364 61.3168 32.5962L61.4874 32.1533ZM60.5931 31.3856C60.3892 31.1081 60.271 30.8322 60.2265 30.5551L59.791 30.5945C59.8531 30.9795 60.0155 31.3439 60.2662 31.6852L60.5931 31.3856ZM60.2272 30.5606C60.187 30.279 60.2177 29.9998 60.3262 29.7185L59.9176 29.4755C59.7803 29.8321 59.7356 30.2048 59.7903 30.5893L60.2272 30.5606ZM60.0365 29.8186L61.1399 30.4742L61.3104 30.0313L60.2073 29.3757L60.0365 29.8186ZM61.021 30.1315C60.9603 30.2887 60.9432 30.46 60.9701 30.6391L61.4063 30.6064C61.3939 30.5226 61.4015 30.4472 61.4296 30.3744L61.021 30.1315ZM60.9722 30.6526C61.0088 30.8384 61.0954 31.008 61.2165 31.1605L61.5304 30.8441C61.4553 30.7494 61.4184 30.6661 61.4039 30.5928L60.9722 30.6526ZM61.2165 31.1605C61.3418 31.3185 61.5109 31.4542 61.711 31.573L61.8815 31.1301C61.7138 31.0305 61.6011 30.9333 61.5304 30.8441L61.2165 31.1605ZM61.711 31.573C61.8865 31.6774 62.0563 31.7486 62.2174 31.7754L62.2354 31.2758C62.1417 31.2601 62.0247 31.2153 61.8815 31.1301L61.711 31.573ZM62.2148 31.7751C62.3758 31.8041 62.5301 31.7944 62.6643 31.7246L62.4467 31.2609C62.405 31.2824 62.3401 31.2948 62.2381 31.2763L62.2148 31.7751ZM62.6579 31.7277C62.7989 31.6613 62.9007 31.542 62.9619 31.3833L62.5532 31.1403C62.529 31.203 62.4959 31.2374 62.4531 31.2575L62.6579 31.7277ZM62.9619 31.3833C63.0456 31.1657 63.0237 30.9321 62.8986 30.7152L62.5363 30.9605C62.5737 31.0253 62.5787 31.0744 62.5532 31.1403L62.9619 31.3833ZM62.9017 30.7209C62.7892 30.5153 62.5791 30.3245 62.3194 30.1421L62.1175 30.5649C62.3639 30.7376 62.4864 30.8697 62.533 30.9546L62.9017 30.7209ZM62.3208 30.1431L62.043 29.9452L61.8382 30.3661L62.116 30.5639L62.3208 30.1431ZM62.0437 29.9457C61.6308 29.6499 61.3642 29.3149 61.2198 28.9461L60.8183 29.1102C61.0133 29.6072 61.3611 30.024 61.8378 30.3656L62.0437 29.9457ZM61.2198 28.9461C61.0795 28.5886 61.0759 28.2223 61.2274 27.8292L60.8188 27.5863C60.6254 28.088 60.6192 28.6019 60.8183 29.1102L61.2198 28.9461ZM61.2274 27.8292C61.3368 27.545 61.4848 27.3519 61.6653 27.2333L61.4148 26.7888C61.1518 26.9615 60.9548 27.2329 60.8188 27.5863L61.2274 27.8292ZM61.6627 27.235C61.8506 27.1157 62.0697 27.0656 62.3268 27.0905L62.3173 26.5874C61.9838 26.5551 61.6815 26.6196 61.4175 26.7871L61.6627 27.235ZM62.3268 27.0905C62.5846 27.1157 62.871 27.217 63.1885 27.4058L63.3591 26.9629C62.9982 26.7482 62.65 26.6196 62.3173 26.5874L62.3268 27.0905ZM63.1885 27.4058C63.5346 27.6115 63.7886 27.8394 63.963 28.0838L64.2946 27.791C64.0645 27.4684 63.7487 27.1944 63.3591 26.9629L63.1885 27.4058ZM63.9639 28.0852C64.1437 28.3345 64.2463 28.5919 64.2805 28.8616L64.7186 28.8422C64.6708 28.4643 64.5262 28.1122 64.2936 27.7896L63.9639 28.0852ZM64.2808 28.8637C64.3164 29.1304 64.2843 29.4039 64.1751 29.6876L64.5838 29.9305C64.7201 29.5766 64.7681 29.2118 64.7184 28.84L64.2808 28.8637ZM64.4646 29.5877L63.3614 28.9318L63.1907 29.3747L64.2941 30.0306L64.4646 29.5877ZM63.4804 29.2746C63.5363 29.1294 63.5551 28.9724 63.5341 28.8075L63.096 28.827C63.105 28.8977 63.0977 28.9643 63.0717 29.0317L63.4804 29.2746ZM63.5341 28.8075C63.5125 28.6355 63.4464 28.4773 63.345 28.3364L63.0149 28.631C63.0639 28.6994 63.0879 28.7634 63.096 28.827L63.5341 28.8075ZM63.3526 28.3476C63.2544 28.1969 63.1207 28.0785 62.9649 27.9858L62.7944 28.4287C62.9002 28.4915 62.9664 28.5575 63.0073 28.6201L63.3526 28.3476ZM62.9649 27.9858C62.8206 27.8999 62.6745 27.8451 62.5306 27.8359L62.5523 28.34C62.6141 28.344 62.6936 28.3689 62.7944 28.4287L62.9649 27.9858ZM62.5354 27.8361C62.3993 27.824 62.2718 27.8518 62.1598 27.9255L62.41 28.3699C62.4459 28.3464 62.4892 28.3345 62.5475 28.3397L62.5354 27.8361ZM62.152 27.9308C62.0485 28.0062 61.9721 28.1125 61.922 28.2422L62.3306 28.4851C62.3522 28.4289 62.3815 28.3912 62.4176 28.3646L62.152 27.9308ZM61.922 28.2422C61.8527 28.422 61.8489 28.618 61.9132 28.8163L62.3268 28.6873C62.3039 28.6163 62.3044 28.5532 62.3306 28.4851L61.922 28.2422ZM61.9132 28.8163C61.9855 29.0407 62.1589 29.2182 62.3608 29.3621L62.5654 28.9413C62.3969 28.8213 62.3413 28.7323 62.3268 28.6873L61.9132 28.8163ZM62.3608 29.3621L62.6386 29.5598L62.8434 29.1392L62.5654 28.9413L62.3608 29.3621ZM62.6386 29.5598C62.9431 29.7768 63.1869 30.0133 63.3745 30.2674L63.7004 29.9666C63.4723 29.6577 63.185 29.3825 62.8434 29.1392L62.6386 29.5598ZM63.3767 30.27C63.5634 30.5169 63.6787 30.7672 63.732 31.0225L64.1625 30.956C64.0888 30.6023 63.9309 30.2712 63.6985 29.964L63.3767 30.27ZM63.732 31.0225C63.7827 31.2649 63.7627 31.5206 63.6564 31.796L64.065 32.0389C64.2013 31.6855 64.2389 31.3223 64.1625 30.956L63.732 31.0225ZM63.6564 31.796C63.551 32.0698 63.3976 32.2605 63.198 32.3801L63.4354 32.8329C63.7189 32.6628 63.9283 32.3941 64.065 32.0389L63.6564 31.796ZM63.1957 32.3815C62.9987 32.5037 62.7592 32.5537 62.4676 32.521L62.4709 33.0236C62.8341 33.0644 63.1595 33.004 63.4378 32.8313L63.1957 32.3815ZM62.4664 32.5207C62.181 32.4906 61.8558 32.3722 61.4874 32.1533L61.3168 32.5962C61.7248 32.8386 62.111 32.9854 62.4721 33.0236L62.4664 32.5207Z" fill="black"/>
</g>
</g>
<defs>
<filter id="filter0_d_82_5107" x="4.18848" y="5.2334" width="58.6328" height="56.5331" filterUnits="userSpaceOnUse" color-interpolation-filters="sRGB">
<feFlood flood-opacity="0" result="BackgroundImageFix"/>
<feColorMatrix in="SourceAlpha" type="matrix" values="0 0 0 0 0 0 0 0 0 0 0 0 0 0 0 0 0 0 127 0" result="hardAlpha"/>
<feOffset dy="4"/>
<feGaussianBlur stdDeviation="2"/>
<feComposite in2="hardAlpha" operator="out"/>
<feColorMatrix type="matrix" values="0 0 0 0 0 0 0 0 0 0 0 0 0 0 0 0 0 0 0.25 0"/>
<feBlend mode="normal" in2="BackgroundImageFix" result="effect1_dropShadow_82_5107"/>
<feBlend mode="normal" in="SourceGraphic" in2="effect1_dropShadow_82_5107" result="shape"/>
</filter>
<filter id="filter1_d_82_5107" x="2.20215" y="13.0443" width="24.3799" height="40.3254" filterUnits="userSpaceOnUse" color-interpolation-filters="sRGB">
<feFlood flood-opacity="0" result="BackgroundImageFix"/>
<feColorMatrix in="SourceAlpha" type="matrix" values="0 0 0 0 0 0 0 0 0 0 0 0 0 0 0 0 0 0 127 0" result="hardAlpha"/>
<feOffset dy="4"/>
<feGaussianBlur stdDeviation="2"/>
<feComposite in2="hardAlpha" operator="out"/>
<feColorMatrix type="matrix" values="0 0 0 0 0 0 0 0 0 0 0 0 0 0 0 0 0 0 0.25 0"/>
<feBlend mode="normal" in2="BackgroundImageFix" result="effect1_dropShadow_82_5107"/>
<feBlend mode="normal" in="SourceGraphic" in2="effect1_dropShadow_82_5107" result="shape"/>
</filter>
<filter id="filter2_d_82_5107" x="27.8379" y="30.4159" width="35.1816" height="32.349" filterUnits="userSpaceOnUse" color-interpolation-filters="sRGB">
<feFlood flood-opacity="0" result="BackgroundImageFix"/>
<feColorMatrix in="SourceAlpha" type="matrix" values="0 0 0 0 0 0 0 0 0 0 0 0 0 0 0 0 0 0 127 0" result="hardAlpha"/>
<feOffset dy="4"/>
<feGaussianBlur stdDeviation="2"/>
<feComposite in2="hardAlpha" operator="out"/>
<feColorMatrix type="matrix" values="0 0 0 0 0 0 0 0 0 0 0 0 0 0 0 0 0 0 0.25 0"/>
<feBlend mode="normal" in2="BackgroundImageFix" result="effect1_dropShadow_82_5107"/>
<feBlend mode="normal" in="SourceGraphic" in2="effect1_dropShadow_82_5107" result="shape"/>
</filter>
<filter id="filter3_d_82_5107" x="22.3945" y="4.65173" width="37.4648" height="32.7939" filterUnits="userSpaceOnUse" color-interpolation-filters="sRGB">
<feFlood flood-opacity="0" result="BackgroundImageFix"/>
<feColorMatrix in="SourceAlpha" type="matrix" values="0 0 0 0 0 0 0 0 0 0 0 0 0 0 0 0 0 0 127 0" result="hardAlpha"/>
<feOffset dy="4"/>
<feGaussianBlur stdDeviation="2"/>
<feComposite in2="hardAlpha" operator="out"/>
<feColorMatrix type="matrix" values="0 0 0 0 0 0 0 0 0 0 0 0 0 0 0 0 0 0 0.25 0"/>
<feBlend mode="normal" in2="BackgroundImageFix" result="effect1_dropShadow_82_5107"/>
<feBlend mode="normal" in="SourceGraphic" in2="effect1_dropShadow_82_5107" result="shape"/>
</filter>
<filter id="filter4_d_82_5107" x="0" y="17.0642" width="68.7373" height="24.0371" filterUnits="userSpaceOnUse" color-interpolation-filters="sRGB">
<feFlood flood-opacity="0" result="BackgroundImageFix"/>
<feColorMatrix in="SourceAlpha" type="matrix" values="0 0 0 0 0 0 0 0 0 0 0 0 0 0 0 0 0 0 127 0" result="hardAlpha"/>
<feOffset dy="4"/>
<feGaussianBlur stdDeviation="2"/>
<feComposite in2="hardAlpha" operator="out"/>
<feColorMatrix type="matrix" values="0 0 0 0 0 0 0 0 0 0 0 0 0 0 0 0 0 0 0.25 0"/>
<feBlend mode="normal" in2="BackgroundImageFix" result="effect1_dropShadow_82_5107"/>
<feBlend mode="normal" in="SourceGraphic" in2="effect1_dropShadow_82_5107" result="shape"/>
</filter>
<linearGradient id="paint0_linear_82_5107" x1="26.033" y1="7.85738" x2="40.9059" y2="51.167" gradientUnits="userSpaceOnUse">
<stop stop-color="#5EB1FF"/>
<stop offset="0.626667" stop-color="#4D91F0"/>
<stop offset="1" stop-color="#03316A"/>
</linearGradient>
<linearGradient id="paint1_linear_82_5107" x1="22.3931" y1="18.2659" x2="22.3931" y2="49.8162" gradientUnits="userSpaceOnUse">
<stop offset="0.786667" stop-color="#D6D91B"/>
<stop offset="1" stop-color="#72730E"/>
</linearGradient>
<linearGradient id="paint2_linear_82_5107" x1="46.4164" y1="8.77708" x2="46.4164" y2="42.581" gradientUnits="userSpaceOnUse">
<stop offset="0.591667" stop-color="#D6D91B"/>
<stop offset="1" stop-color="#72730E"/>
</linearGradient>
</defs>
</svg>
