<svg width="127" height="128" viewBox="0 0 127 128" fill="none" xmlns="http://www.w3.org/2000/svg">
<rect width="127" height="127" transform="translate(0 0.769165)" fill="white"/>
<path d="M63.5 117.769C56.0992 117.769 49.1442 116.365 42.635 113.556C36.1258 110.747 30.4637 106.935 25.6487 102.12C20.8337 97.3054 17.0219 91.6433 14.2131 85.1342C11.4044 78.625 10 71.67 10 64.2692C10 56.8683 11.4044 49.9133 14.2131 43.4042C17.0219 36.895 20.8337 31.2329 25.6487 26.4179C30.4637 21.6029 36.1258 17.791 42.635 14.9823C49.1442 12.1735 56.0992 10.7692 63.5 10.7692C69.2958 10.7692 74.7796 11.6162 79.9512 13.3104C85.1229 15.0046 89.8933 17.3675 94.2625 20.3992L86.505 28.2904C83.1167 26.1504 79.5054 24.4785 75.6712 23.2748C71.8371 22.071 67.78 21.4692 63.5 21.4692C51.6408 21.4692 41.5427 25.6377 33.2056 33.9748C24.8685 42.3119 20.7 52.41 20.7 64.2692C20.7 76.1283 24.8685 86.2265 33.2056 94.5635C41.5427 102.901 51.6408 107.069 63.5 107.069C75.3592 107.069 85.4573 102.901 93.7944 94.5635C102.131 86.2265 106.3 76.1283 106.3 64.2692C106.3 62.6642 106.211 61.0592 106.032 59.4542C105.854 57.8492 105.587 56.2887 105.23 54.7729L113.924 46.0792C114.905 48.9325 115.662 51.875 116.197 54.9067C116.732 57.9383 117 61.0592 117 64.2692C117 71.67 115.596 78.625 112.787 85.1342C109.978 91.6433 106.166 97.3054 101.351 102.12C96.5362 106.935 90.8742 110.747 84.365 113.556C77.8558 116.365 70.9008 117.769 63.5 117.769ZM56.01 88.8792L33.2725 66.1417L40.7625 58.6517L56.01 73.8992L109.51 20.2654L117 27.7554L56.01 88.8792Z" fill="#00FF19"/>
</svg>
